<?xml version="1.0" encoding="UTF-8"?>
<!DOCTYPE svg PUBLIC "-//W3C//DTD SVG 1.1//EN" "http://www.w3.org/Graphics/SVG/1.1/DTD/svg11.dtd">
<svg xmlns="http://www.w3.org/2000/svg" version="1.1" width="500px" height="500px" style="shape-rendering:geometricPrecision; text-rendering:geometricPrecision; image-rendering:optimizeQuality; fill-rule:evenodd; clip-rule:evenodd" xmlns:xlink="http://www.w3.org/1999/xlink">
<g><path style="opacity:0.957" fill="#033067" d="M 499.5,226.5 C 499.5,241.5 499.5,256.5 499.5,271.5C 489.907,352.223 451.24,414.723 383.5,459C 311.522,501.255 236.189,508.255 157.5,480C 65.3241,440.498 12.6574,370.998 -0.5,271.5C -0.5,256.5 -0.5,241.5 -0.5,226.5C 9.09228,145.779 47.7589,83.2792 115.5,39C 187.475,-3.25514 262.808,-10.2551 341.5,18C 415.725,48.6118 465.225,102.112 490,178.5C 494.285,194.424 497.452,210.424 499.5,226.5 Z"/></g>
<g><path style="opacity:1" fill="#fecc01" d="M 381.5,442.5 C 380.262,442.19 380.262,441.69 381.5,441C 388.532,436.147 395.198,430.814 401.5,425C 405.868,420.967 409.868,416.634 413.5,412C 407.254,407.912 400.588,404.579 393.5,402C 374.335,396.299 355.335,390.465 336.5,384.5C 339.62,380.208 342.953,376.041 346.5,372C 346.272,371.601 345.938,371.435 345.5,371.5C 351.115,363.378 356.949,355.378 363,347.5C 375.881,321.93 373.881,297.597 357,274.5C 354.604,271.933 352.104,269.6 349.5,267.5C 368.937,267.528 382.77,258.861 391,241.5C 393.986,230.719 392.486,220.719 386.5,211.5C 387.773,210.923 387.773,210.257 386.5,209.5C 385.817,209.863 385.15,210.196 384.5,210.5C 377.476,203.925 369.143,201.758 359.5,204C 356.716,204.892 354.05,206.058 351.5,207.5C 350.702,207.043 350.369,206.376 350.5,205.5C 352.82,185.179 352.986,164.846 351,144.5C 346.204,115.095 330.038,94.5945 302.5,83C 267.085,69.7864 231.418,69.1197 195.5,81C 153.538,97.3815 134.871,128.215 139.5,173.5C 139.815,185.17 140.148,196.836 140.5,208.5C 140.649,209.552 140.483,210.552 140,211.5C 129.563,205.237 119.063,205.071 108.5,211C 107.29,212.039 106.29,213.206 105.5,214.5C 104.209,214.263 103.209,214.596 102.5,215.5C 92.3306,241.336 100.331,259.17 126.5,269C 134.773,270.33 143.107,270.83 151.5,270.5C 151.657,271.873 151.49,273.207 151,274.5C 129.185,293.427 123.518,316.427 134,343.5C 141.278,359.935 151.445,374.268 164.5,386.5C 163.957,386.56 163.624,386.893 163.5,387.5C 165.544,389.219 167.544,390.886 169.5,392.5C 152.284,398.19 135.617,405.357 119.5,414C 114.5,417.667 109.5,421.333 104.5,425C 102.671,426.113 101.837,427.613 102,429.5C 105.692,432.365 109.192,435.365 112.5,438.5C 62.5504,403.331 31.0504,355.665 18,295.5C 2.3982,199.937 32.2315,122.103 107.5,62C 184.226,9.12766 265.559,1.12766 351.5,38C 423.765,74.6156 467.598,132.782 483,212.5C 493.498,295.687 468.331,365.853 407.5,423C 399.34,430.239 390.674,436.739 381.5,442.5 Z"/></g>
<g><path style="opacity:1" fill="#341510" d="M 350.5,205.5 C 349.792,207.378 348.626,209.045 347,210.5C 326.353,187.862 314.353,161.195 311,130.5C 310.248,116.747 310.581,103.081 312,89.5C 299.645,100.263 285.478,107.763 269.5,112C 238.966,118.574 208.632,117.907 178.5,110C 173.025,107.586 167.691,105.253 162.5,103C 171.418,117.253 174.584,132.753 172,149.5C 167.715,173.736 158.715,196.069 145,216.5C 142.758,214.13 141.258,211.464 140.5,208.5C 140.148,196.836 139.815,185.17 139.5,173.5C 134.871,128.215 153.538,97.3815 195.5,81C 231.418,69.1197 267.085,69.7864 302.5,83C 330.038,94.5945 346.204,115.095 351,144.5C 352.986,164.846 352.82,185.179 350.5,205.5 Z"/></g>
<g><path style="opacity:1" fill="#fd8375" d="M 350.5,205.5 C 350.369,206.376 350.702,207.043 351.5,207.5C 354.05,206.058 356.716,204.892 359.5,204C 369.143,201.758 377.476,203.925 384.5,210.5C 367.192,216.972 354.025,228.305 345,244.5C 343.85,246.754 343.516,249.087 344,251.5C 352.28,231.938 366.447,218.605 386.5,211.5C 392.486,220.719 393.986,230.719 391,241.5C 382.77,258.861 368.937,267.528 349.5,267.5C 346.5,267.5 343.5,267.5 340.5,267.5C 340.784,269.415 340.451,271.081 339.5,272.5C 339.631,271.624 339.298,270.957 338.5,270.5C 332.001,273.507 326.501,277.841 322,283.5C 316.333,291.167 310.667,298.833 305,306.5C 299.388,314.224 291.888,317.391 282.5,316C 275.942,311.554 268.942,307.887 261.5,305C 248.76,302.352 236.76,304.352 225.5,311C 220.986,314.091 216.653,317.425 212.5,321C 204.431,325.301 197.597,323.801 192,316.5C 187.651,304.29 181.151,293.456 172.5,284C 166.626,278.952 159.959,275.452 152.5,273.5C 152.737,272.209 152.404,271.209 151.5,270.5C 143.107,270.83 134.773,270.33 126.5,269C 100.331,259.17 92.3306,241.336 102.5,215.5C 122.521,224.749 137.687,239.083 148,258.5C 147.914,255.298 146.914,252.298 145,249.5C 135.06,234.053 121.894,222.386 105.5,214.5C 106.29,213.206 107.29,212.039 108.5,211C 119.063,205.071 129.563,205.237 140,211.5C 140.483,210.552 140.649,209.552 140.5,208.5C 141.258,211.464 142.758,214.13 145,216.5C 158.715,196.069 167.715,173.736 172,149.5C 174.584,132.753 171.418,117.253 162.5,103C 167.691,105.253 173.025,107.586 178.5,110C 208.632,117.907 238.966,118.574 269.5,112C 285.478,107.763 299.645,100.263 312,89.5C 310.581,103.081 310.248,116.747 311,130.5C 314.353,161.195 326.353,187.862 347,210.5C 348.626,209.045 349.792,207.378 350.5,205.5 Z"/></g>
<g><path style="opacity:1" fill="#351510" d="M 186.5,164.5 C 197.352,163.609 206.185,167.276 213,175.5C 214.345,181.309 212.178,185.143 206.5,187C 195.431,191.472 184.431,191.472 173.5,187C 170.843,182.181 171.009,177.347 174,172.5C 177.671,168.923 181.838,166.256 186.5,164.5 Z"/></g>
<g><path style="opacity:1" fill="#361611" d="M 290.5,164.5 C 302.592,163.014 311.759,167.347 318,177.5C 319.328,183.347 317.161,187.18 311.5,189C 299.956,191.773 288.956,190.439 278.5,185C 275.184,178.859 276.184,173.526 281.5,169C 284.592,167.454 287.592,165.954 290.5,164.5 Z"/></g>
<g><path style="opacity:1" fill="#361611" d="M 291.5,198.5 C 301.534,197.393 306.034,201.726 305,211.5C 303.628,216.527 300.295,218.86 295,218.5C 287.52,216.901 284.52,212.234 286,204.5C 287.36,201.977 289.193,199.977 291.5,198.5 Z"/></g>
<g><path style="opacity:1" fill="#361611" d="M 191.5,200.5 C 200.851,199.367 205.684,203.367 206,212.5C 203.706,218.934 199.206,221.434 192.5,220C 186.891,216.723 185.058,211.89 187,205.5C 188.707,203.963 190.207,202.296 191.5,200.5 Z"/></g>
<g><path style="opacity:1" fill="#49201a" d="M 386.5,211.5 C 366.447,218.605 352.28,231.938 344,251.5C 343.516,249.087 343.85,246.754 345,244.5C 354.025,228.305 367.192,216.972 384.5,210.5C 385.15,210.196 385.817,209.863 386.5,209.5C 387.773,210.257 387.773,210.923 386.5,211.5 Z"/></g>
<g><path style="opacity:1" fill="#4c221c" d="M 102.5,215.5 C 103.209,214.596 104.209,214.263 105.5,214.5C 121.894,222.386 135.06,234.053 145,249.5C 146.914,252.298 147.914,255.298 148,258.5C 137.687,239.083 122.521,224.749 102.5,215.5 Z"/></g>
<g><path style="opacity:1" fill="#4a201b" d="M 231.5,175.5 C 232.552,175.351 233.552,175.517 234.5,176C 230.339,179.154 227.839,183.321 227,188.5C 225.078,207.207 223.078,225.873 221,244.5C 221.5,245.667 222.333,246.5 223.5,247C 226.359,247.553 229.192,247.386 232,246.5C 235.151,247.246 238.317,247.913 241.5,248.5C 244.956,247.404 248.456,246.404 252,245.5C 256.553,247.424 260.553,246.757 264,243.5C 264.865,245.888 264.032,247.388 261.5,248C 258.145,248.546 254.812,248.379 251.5,247.5C 248.167,248.5 244.833,249.5 241.5,250.5C 234.94,248.959 228.274,248.126 221.5,248C 220.299,247.097 219.465,245.931 219,244.5C 221.322,227.967 222.988,211.3 224,194.5C 224.655,187.355 227.155,181.021 231.5,175.5 Z"/></g>
<g><path style="opacity:1" fill="#451e18" d="M 265.5,260.5 C 266.873,260.343 268.207,260.51 269.5,261C 259.927,266.476 249.593,268.976 238.5,268.5C 233.803,268.443 229.137,268.11 224.5,267.5C 220.579,266.873 217.245,265.206 214.5,262.5C 214.833,262.167 215.167,261.833 215.5,261.5C 222.707,265.218 230.373,266.885 238.5,266.5C 248.171,266.95 257.171,264.95 265.5,260.5 Z"/></g>
<g><path style="opacity:1" fill="#febf7b" d="M 349.5,267.5 C 352.104,269.6 354.604,271.933 357,274.5C 373.881,297.597 375.881,321.93 363,347.5C 356.949,355.378 351.115,363.378 345.5,371.5C 331.27,384.934 320.77,400.934 314,419.5C 311.999,425.678 311.166,432.012 311.5,438.5C 306.137,416.968 303.137,395.301 302.5,373.5C 301.47,372.448 300.803,371.114 300.5,369.5C 299.466,360.312 298.133,351.312 296.5,342.5C 296.495,338.466 296.162,334.466 295.5,330.5C 312.542,324.961 324.709,313.961 332,297.5C 335.281,289.37 337.781,281.037 339.5,272.5C 340.451,271.081 340.784,269.415 340.5,267.5C 343.5,267.5 346.5,267.5 349.5,267.5 Z"/></g>
<g><path style="opacity:1" fill="#351510" d="M 339.5,272.5 C 337.781,281.037 335.281,289.37 332,297.5C 324.709,313.961 312.542,324.961 295.5,330.5C 266.349,338.954 237.016,339.621 207.5,332.5C 175.083,326.079 156.749,306.413 152.5,273.5C 159.959,275.452 166.626,278.952 172.5,284C 181.151,293.456 187.651,304.29 192,316.5C 197.597,323.801 204.431,325.301 212.5,321C 216.653,317.425 220.986,314.091 225.5,311C 236.76,304.352 248.76,302.352 261.5,305C 268.942,307.887 275.942,311.554 282.5,316C 291.888,317.391 299.388,314.224 305,306.5C 310.667,298.833 316.333,291.167 322,283.5C 326.501,277.841 332.001,273.507 338.5,270.5C 339.298,270.957 339.631,271.624 339.5,272.5 Z"/></g>
<g><path style="opacity:1" fill="#febf7b" d="M 151.5,270.5 C 152.404,271.209 152.737,272.209 152.5,273.5C 156.749,306.413 175.083,326.079 207.5,332.5C 207.5,338.833 207.5,345.167 207.5,351.5C 206.873,361.872 205.206,372.205 202.5,382.5C 200.799,401.457 199.799,420.457 199.5,439.5C 194.579,417.311 182.913,399.645 164.5,386.5C 151.445,374.268 141.278,359.935 134,343.5C 123.518,316.427 129.185,293.427 151,274.5C 151.49,273.207 151.657,271.873 151.5,270.5 Z"/></g>
<g><path style="opacity:1" fill="#773931" d="M 295.5,330.5 C 296.162,334.466 296.495,338.466 296.5,342.5C 296.577,345.509 295.244,347.676 292.5,349C 266.037,364.956 238.704,366.623 210.5,354C 209.429,353.148 208.429,352.315 207.5,351.5C 207.5,345.167 207.5,338.833 207.5,332.5C 237.016,339.621 266.349,338.954 295.5,330.5 Z"/></g>
<g><path style="opacity:1" fill="#fe8476" d="M 296.5,342.5 C 298.133,351.312 299.466,360.312 300.5,369.5C 300.803,371.114 301.47,372.448 302.5,373.5C 283.179,399.33 257.846,408.164 226.5,400C 217.229,395.869 209.229,390.036 202.5,382.5C 205.206,372.205 206.873,361.872 207.5,351.5C 208.429,352.315 209.429,353.148 210.5,354C 238.704,366.623 266.037,364.956 292.5,349C 295.244,347.676 296.577,345.509 296.5,342.5 Z"/></g>
<g><path style="opacity:1" fill="#f8ddd2" d="M 302.5,373.5 C 303.137,395.301 306.137,416.968 311.5,438.5C 311.405,443.887 311.905,449.22 313,454.5C 314.662,460.812 316.162,467.146 317.5,473.5C 300.512,479.731 282.845,483.231 264.5,484C 242.597,485.624 220.93,484.124 199.5,479.5C 199.5,466.167 199.5,452.833 199.5,439.5C 199.799,420.457 200.799,401.457 202.5,382.5C 209.229,390.036 217.229,395.869 226.5,400C 257.846,408.164 283.179,399.33 302.5,373.5 Z"/></g>
<g><path style="opacity:1" fill="#fdbe7b" d="M 336.5,384.5 C 355.335,390.465 374.335,396.299 393.5,402C 400.588,404.579 407.254,407.912 413.5,412C 409.868,416.634 405.868,420.967 401.5,425C 395.198,430.814 388.532,436.147 381.5,441C 380.262,441.69 380.262,442.19 381.5,442.5C 369.807,451.019 357.14,458.019 343.5,463.5C 342.371,461.372 342.204,459.039 343,456.5C 351.074,441.12 348.574,427.786 335.5,416.5C 338.434,413.868 339.1,410.868 337.5,407.5C 336.172,403.746 333.506,402.579 329.5,404C 325.609,405.908 324.609,408.741 326.5,412.5C 327.484,415.837 329.817,417.337 333.5,417C 339.263,422.095 343.429,428.261 346,435.5C 346.412,442.943 344.746,449.943 341,456.5C 340.502,459.482 340.335,462.482 340.5,465.5C 333.606,468.447 326.606,471.114 319.5,473.5C 306.999,440.144 312.666,410.478 336.5,384.5 Z"/></g>
<g><path style="opacity:1" fill="#fdbe7b" d="M 169.5,392.5 C 184.299,404.751 193.466,420.417 197,439.5C 197.5,452.496 197.667,465.496 197.5,478.5C 186.689,476.34 176.356,473.007 166.5,468.5C 166.148,461.452 164.315,454.786 161,448.5C 160.243,434.014 166.577,424.014 180,418.5C 181.598,416.105 181.764,413.772 180.5,411.5C 180.489,409.983 179.823,408.816 178.5,408C 176.167,407.333 173.833,407.333 171.5,408C 170.944,408.383 170.611,408.883 170.5,409.5C 167.661,413.166 167.995,416.666 171.5,420C 169.372,423.13 166.872,425.963 164,428.5C 156.783,439.071 156.783,449.738 164,460.5C 164.796,463.039 164.629,465.372 163.5,467.5C 145.061,460.121 128.061,450.454 112.5,438.5C 109.192,435.365 105.692,432.365 102,429.5C 101.837,427.613 102.671,426.113 104.5,425C 109.5,421.333 114.5,417.667 119.5,414C 135.617,405.357 152.284,398.19 169.5,392.5 Z"/></g>
<g><path style="opacity:1" fill="#4f2c1e" d="M 337.5,407.5 C 334.078,403.552 330.578,403.552 327,407.5C 326.506,409.134 326.34,410.801 326.5,412.5C 324.609,408.741 325.609,405.908 329.5,404C 333.506,402.579 336.172,403.746 337.5,407.5 Z"/></g>
<g><path style="opacity:1" fill="#edb172" d="M 337.5,407.5 C 335.729,416.814 333.396,416.814 330.5,407.5C 329.592,410.298 330.259,412.798 332.5,415C 331.5,415.667 330.5,415.667 329.5,415C 328.627,413.955 327.627,413.122 326.5,412.5C 326.34,410.801 326.506,409.134 327,407.5C 330.578,403.552 334.078,403.552 337.5,407.5 Z"/></g>
<g><path style="opacity:1" fill="#502c1e" d="M 180.5,411.5 C 177.71,408.408 174.376,407.742 170.5,409.5C 170.611,408.883 170.944,408.383 171.5,408C 173.833,407.333 176.167,407.333 178.5,408C 179.823,408.816 180.489,409.983 180.5,411.5 Z"/></g>
<g><path style="opacity:1" fill="#4c2a1d" d="M 345.5,371.5 C 345.938,371.435 346.272,371.601 346.5,372C 342.953,376.041 339.62,380.208 336.5,384.5C 312.666,410.478 306.999,440.144 319.5,473.5C 318.833,473.5 318.167,473.5 317.5,473.5C 316.162,467.146 314.662,460.812 313,454.5C 311.905,449.22 311.405,443.887 311.5,438.5C 311.166,432.012 311.999,425.678 314,419.5C 320.77,400.934 331.27,384.934 345.5,371.5 Z"/></g>
<g><path style="opacity:1" fill="#e4a96d" d="M 180.5,411.5 C 180.925,416.222 178.925,418.722 174.5,419C 176.282,416.757 176.782,414.257 176,411.5C 175.361,414.112 174.194,416.446 172.5,418.5C 169.297,416.163 168.631,413.163 170.5,409.5C 174.376,407.742 177.71,408.408 180.5,411.5 Z"/></g>
<g><path style="opacity:1" fill="#502c1f" d="M 164.5,386.5 C 182.913,399.645 194.579,417.311 199.5,439.5C 199.5,452.833 199.5,466.167 199.5,479.5C 198.508,479.672 197.842,479.338 197.5,478.5C 197.667,465.496 197.5,452.496 197,439.5C 193.466,420.417 184.299,404.751 169.5,392.5C 167.544,390.886 165.544,389.219 163.5,387.5C 163.624,386.893 163.957,386.56 164.5,386.5 Z"/></g>
<g><path style="opacity:1" fill="#4e2b1e" d="M 170.5,409.5 C 168.631,413.163 169.297,416.163 172.5,418.5C 174.194,416.446 175.361,414.112 176,411.5C 176.782,414.257 176.282,416.757 174.5,419C 178.925,418.722 180.925,416.222 180.5,411.5C 181.764,413.772 181.598,416.105 180,418.5C 166.577,424.014 160.243,434.014 161,448.5C 164.315,454.786 166.148,461.452 166.5,468.5C 165.209,468.737 164.209,468.404 163.5,467.5C 164.629,465.372 164.796,463.039 164,460.5C 156.783,449.738 156.783,439.071 164,428.5C 166.872,425.963 169.372,423.13 171.5,420C 167.995,416.666 167.661,413.166 170.5,409.5 Z"/></g>
<g><path style="opacity:1" fill="#4e2a1e" d="M 337.5,407.5 C 339.1,410.868 338.434,413.868 335.5,416.5C 348.574,427.786 351.074,441.12 343,456.5C 342.204,459.039 342.371,461.372 343.5,463.5C 342.71,464.401 341.71,465.068 340.5,465.5C 340.335,462.482 340.502,459.482 341,456.5C 344.746,449.943 346.412,442.943 346,435.5C 343.429,428.261 339.263,422.095 333.5,417C 329.817,417.337 327.484,415.837 326.5,412.5C 327.627,413.122 328.627,413.955 329.5,415C 330.5,415.667 331.5,415.667 332.5,415C 330.259,412.798 329.592,410.298 330.5,407.5C 333.396,416.814 335.729,416.814 337.5,407.5 Z"/></g>
</svg>
