<?xml version="1.0" encoding="UTF-8"?>
<!DOCTYPE svg PUBLIC "-//W3C//DTD SVG 1.1//EN" "http://www.w3.org/Graphics/SVG/1.1/DTD/svg11.dtd">
<svg xmlns="http://www.w3.org/2000/svg" version="1.1" width="500px" height="500px" style="shape-rendering:geometricPrecision; text-rendering:geometricPrecision; image-rendering:optimizeQuality; fill-rule:evenodd; clip-rule:evenodd" xmlns:xlink="http://www.w3.org/1999/xlink">
<g><path style="opacity:0.958" fill="#033067" d="M 499.5,226.5 C 499.5,241.5 499.5,256.5 499.5,271.5C 489.907,352.223 451.24,414.723 383.5,459C 311.522,501.255 236.189,508.255 157.5,480C 65.3241,440.498 12.6574,370.998 -0.5,271.5C -0.5,256.5 -0.5,241.5 -0.5,226.5C 9.09228,145.779 47.7589,83.2792 115.5,39C 187.475,-3.25514 262.808,-10.2551 341.5,18C 415.725,48.6118 465.225,102.112 490,178.5C 494.285,194.424 497.452,210.424 499.5,226.5 Z"/></g>
<g><path style="opacity:1" fill="#fecc00" d="M 397.5,430.5 C 358.578,461.875 313.912,479.042 263.5,482C 172.533,484.768 101.367,448.934 50,374.5C 12.7259,313.048 4.05925,247.715 24,178.5C 51.4867,101.68 103.987,50.5134 181.5,25C 261.936,3.70099 334.936,18.3677 400.5,69C 470.59,130.931 497.09,208.098 480,300.5C 467.344,353.53 439.844,396.863 397.5,430.5 Z"/></g>
<g><path style="opacity:1" fill="#3e2715" d="M 329.5,104.5 C 328.528,108.568 327.028,112.568 325,116.5C 318.925,123.439 311.758,128.772 303.5,132.5C 278.397,140.599 252.73,142.766 226.5,139C 218.761,137.02 211.095,134.854 203.5,132.5C 190.266,127.271 181.599,117.937 177.5,104.5C 178.757,92.8301 184.09,83.3301 193.5,76C 203.361,68.0691 214.361,62.2358 226.5,58.5C 224.5,31.6658 236.834,19.4991 263.5,22C 279.589,29.0108 286.089,41.1775 283,58.5C 293.529,62.8454 303.362,68.3454 312.5,75C 320.088,81.0256 325.588,88.5256 329,97.5C 329.497,99.8098 329.663,102.143 329.5,104.5 Z"/></g>
<g><path style="opacity:1" fill="#5a3520" d="M 243.5,53.5 C 273.662,52.3361 293.828,66.0028 304,94.5C 306.559,111.341 300.726,124.341 286.5,133.5C 285.479,132.998 285.312,132.332 286,131.5C 303.042,118.631 306.709,102.631 297,83.5C 289.124,70.7226 278.124,61.7226 264,56.5C 263.5,56.6667 263,56.8333 262.5,57C 280.003,80.1807 282.837,105.014 271,131.5C 269.935,133.396 269.102,133.563 268.5,132C 278.673,108.65 277.506,85.8167 265,63.5C 259.744,54.5974 253.077,53.264 245,59.5C 231.164,79.5163 227.831,101.183 235,124.5C 236.166,127.503 237.833,130.17 240,132.5C 240.749,133.635 240.583,134.635 239.5,135.5C 235.976,131.788 233.476,127.455 232,122.5C 225.675,98.6084 229.842,76.7751 244.5,57C 239.514,57.4798 234.848,59.1465 230.5,62C 218.232,70.272 209.732,81.4387 205,95.5C 203.336,112.994 210.17,125.994 225.5,134.5C 223.477,135.041 221.477,134.541 219.5,133C 202.444,120.164 198.277,103.998 207,84.5C 215.68,69.9812 227.846,59.6479 243.5,53.5 Z"/></g>
<g><path style="opacity:1" fill="#b16943" d="M 177.5,104.5 C 181.599,117.937 190.266,127.271 203.5,132.5C 197.696,140.509 192.863,149.176 189,158.5C 184.409,169.27 180.409,180.27 177,191.5C 175.454,188.408 173.954,185.408 172.5,182.5C 169.838,168.632 169.005,154.632 170,140.5C 171.562,128.259 174.062,116.259 177.5,104.5 Z"/></g>
<g><path style="opacity:1" fill="#b16843" d="M 329.5,104.5 C 333.069,116.572 335.569,128.905 337,141.5C 337.919,155.296 337.085,168.962 334.5,182.5C 333.046,185.408 331.546,188.408 330,191.5C 323.941,170.448 315.107,150.782 303.5,132.5C 311.758,128.772 318.925,123.439 325,116.5C 327.028,112.568 328.528,108.568 329.5,104.5 Z"/></g>
<g><path style="opacity:1" fill="#e1ab7a" d="M 203.5,132.5 C 211.095,134.854 218.761,137.02 226.5,139C 252.73,142.766 278.397,140.599 303.5,132.5C 315.107,150.782 323.941,170.448 330,191.5C 331.546,188.408 333.046,185.408 334.5,182.5C 340.106,180.687 345.606,181.687 351,185.5C 357.778,199.498 354.612,210.664 341.5,219C 335.406,220.762 329.239,221.929 323,222.5C 318.915,234.67 313.248,246.003 306,256.5C 301.594,261.411 296.76,265.745 291.5,269.5C 294.245,256.641 295.078,243.641 294,230.5C 291.441,227.469 288.274,225.302 284.5,224C 265.672,218.853 246.672,218.186 227.5,222C 221.667,223.174 216.834,226.007 213,230.5C 212.561,242.173 212.727,253.84 213.5,265.5C 206.804,260.297 201.304,253.964 197,246.5C 192.885,238.664 189.051,230.664 185.5,222.5C 171.399,223.878 160.899,218.544 154,206.5C 151.53,199.135 152.196,192.135 156,185.5C 160.949,181.228 166.282,180.562 172,183.5C 172.399,183.272 172.565,182.938 172.5,182.5C 173.954,185.408 175.454,188.408 177,191.5C 180.409,180.27 184.409,169.27 189,158.5C 192.863,149.176 197.696,140.509 203.5,132.5 Z"/></g>
<g><path style="opacity:1" fill="#462d1a" d="M 215.5,153.5 C 222.6,152.813 228.767,154.813 234,159.5C 234.635,162.548 233.301,164.215 230,164.5C 221.885,159.188 213.719,159.188 205.5,164.5C 204.417,163.635 204.251,162.635 205,161.5C 207.94,157.963 211.44,155.297 215.5,153.5 Z"/></g>
<g><path style="opacity:1" fill="#472e1a" d="M 281.5,153.5 C 290.569,152.372 297.569,155.539 302.5,163C 302.167,163.5 301.833,164 301.5,164.5C 297.531,161.955 293.198,160.621 288.5,160.5C 283.894,161.165 279.561,162.332 275.5,164C 272.968,163.388 272.135,161.888 273,159.5C 275.637,157.109 278.47,155.109 281.5,153.5 Z"/></g>
<g><path style="opacity:1" fill="#422a17" d="M 216.5,174.5 C 227.481,173.989 230.481,178.489 225.5,188C 216.457,191.292 212.29,188.126 213,178.5C 214.376,177.295 215.542,175.962 216.5,174.5 Z"/></g>
<g><path style="opacity:1" fill="#422a17" d="M 281.5,174.5 C 288.253,172.772 292.253,175.272 293.5,182C 292.933,186.734 290.266,189.234 285.5,189.5C 279.041,188.592 276.541,184.926 278,178.5C 279.376,177.295 280.542,175.962 281.5,174.5 Z"/></g>
<g><path style="opacity:1" fill="#d78458" d="M 260.5,186.5 C 262.504,189.66 263.671,193.327 264,197.5C 264.499,202.155 264.666,206.821 264.5,211.5C 260.164,212.634 255.831,212.634 251.5,211.5C 254.836,210.76 258.17,210.094 261.5,209.5C 261.833,208.333 262.167,207.167 262.5,206C 261.576,199.52 260.91,193.02 260.5,186.5 Z"/></g>
<g><path style="opacity:1" fill="#d68458" d="M 161.5,190.5 C 171.051,191.384 176.385,196.717 177.5,206.5C 176.954,210.112 175.621,210.279 173.5,207C 172.207,206.51 170.873,206.343 169.5,206.5C 170.057,208.949 170.057,211.282 169.5,213.5C 167.605,211.133 167.105,208.466 168,205.5C 170.041,204.577 172.208,204.244 174.5,204.5C 173.446,199.562 170.779,195.729 166.5,193C 164.888,192.28 163.388,192.446 162,193.5C 161.105,195.804 160.271,198.138 159.5,200.5C 158.018,196.727 158.684,193.393 161.5,190.5 Z"/></g>
<g><path style="opacity:1" fill="#d68357" d="M 339.5,190.5 C 347.003,189.853 349.503,193.186 347,200.5C 345.442,191.049 341.442,190.049 335,197.5C 333.36,199.579 332.194,201.912 331.5,204.5C 333.239,204.594 335.239,204.761 337.5,205C 340.24,207.979 340.073,210.812 337,213.5C 336.504,211.965 336.67,210.465 337.5,209C 337.333,207.5 336.5,206.667 335,206.5C 332.953,207.609 330.787,208.276 328.5,208.5C 329.638,200.879 333.305,194.879 339.5,190.5 Z"/></g>
<g><path style="opacity:1" fill="#cf816b" d="M 202.5,199.5 C 210.126,198.514 215.959,201.18 220,207.5C 220.753,211.493 219.253,214.326 215.5,216C 208.05,218.053 201.884,216.22 197,210.5C 196.289,208.101 196.456,205.768 197.5,203.5C 199.21,202.113 200.877,200.779 202.5,199.5 Z"/></g>
<g><path style="opacity:1" fill="#cf816b" d="M 294.5,199.5 C 300.291,198.489 305.124,200.156 309,204.5C 308.977,212.85 304.643,216.85 296,216.5C 288.533,217.034 285.2,213.701 286,206.5C 288.416,203.577 291.25,201.243 294.5,199.5 Z"/></g>
<g><path style="opacity:1" fill="#3f2815" d="M 291.5,269.5 C 290.061,271.36 288.395,273.027 286.5,274.5C 264.215,286.494 241.881,286.494 219.5,274.5C 216.756,272.016 214.756,269.016 213.5,265.5C 212.727,253.84 212.561,242.173 213,230.5C 216.834,226.007 221.667,223.174 227.5,222C 246.672,218.186 265.672,218.853 284.5,224C 288.274,225.302 291.441,227.469 294,230.5C 295.078,243.641 294.245,256.641 291.5,269.5 Z"/></g>
<g><path style="opacity:1" fill="#85352a" d="M 271.5,234.5 C 270.05,236.923 268.05,238.923 265.5,240.5C 262.052,237.795 258.052,236.462 253.5,236.5C 249.003,236.89 244.67,237.89 240.5,239.5C 238.427,237.42 236.093,235.754 233.5,234.5C 239.419,232.955 245.586,232.289 252,232.5C 258.645,232.316 265.145,232.983 271.5,234.5 Z"/></g>
<g><path style="opacity:1" fill="#e0a978" d="M 233.5,234.5 C 236.093,235.754 238.427,237.42 240.5,239.5C 248.56,245.801 256.894,246.134 265.5,240.5C 268.05,238.923 270.05,236.923 271.5,234.5C 282.983,235.119 286.15,240.452 281,250.5C 274.151,259.922 264.818,264.255 253,263.5C 242.629,263.5 234.296,259.5 228,251.5C 225.858,247.03 225.191,242.363 226,237.5C 228.235,235.798 230.735,234.798 233.5,234.5 Z"/></g>
<g><path style="opacity:1" fill="#cd7761" d="M 265.5,240.5 C 256.894,246.134 248.56,245.801 240.5,239.5C 244.67,237.89 249.003,236.89 253.5,236.5C 258.052,236.462 262.052,237.795 265.5,240.5 Z"/></g>
<g><path style="opacity:1" fill="#d47e52" d="M 219.5,274.5 C 241.881,286.494 264.215,286.494 286.5,274.5C 286.5,278.167 286.5,281.833 286.5,285.5C 263.906,303.147 241.573,302.814 219.5,284.5C 219.5,281.167 219.5,277.833 219.5,274.5 Z"/></g>
<g><path style="opacity:1" fill="#e2ac7a" d="M 219.5,284.5 C 241.573,302.814 263.906,303.147 286.5,285.5C 286.206,289.115 287.206,292.282 289.5,295C 294.347,296.808 299.347,297.975 304.5,298.5C 287.912,322.283 265.245,331.45 236.5,326C 221.889,320.887 211.223,311.387 204.5,297.5C 214.272,298.383 219.272,294.05 219.5,284.5 Z"/></g>
<g><path style="opacity:1" fill="#e4b448" d="M 204.5,297.5 C 211.223,311.387 221.889,320.887 236.5,326C 265.245,331.45 287.912,322.283 304.5,298.5C 308.784,299.261 312.784,300.595 316.5,302.5C 297.609,330.608 271.276,342.441 237.5,338C 217.252,332.247 202.252,320.081 192.5,301.5C 196.216,299.595 200.216,298.261 204.5,297.5 Z"/></g>
<g><path style="opacity:1" fill="#4e7b4b" d="M 192.5,301.5 C 202.252,320.081 217.252,332.247 237.5,338C 271.276,342.441 297.609,330.608 316.5,302.5C 327.211,305.687 336.878,310.687 345.5,317.5C 349.5,355.16 353.5,392.827 357.5,430.5C 288.167,430.5 218.833,430.5 149.5,430.5C 153.533,392.134 157.867,353.801 162.5,315.5C 171.723,309.223 181.723,304.556 192.5,301.5 Z"/></g>
<g><path style="opacity:1" fill="#e2ac7a" d="M 162.5,315.5 C 157.867,353.801 153.533,392.134 149.5,430.5C 135.833,430.5 122.167,430.5 108.5,430.5C 106.927,395.424 116.76,364.091 138,336.5C 145.174,328.19 153.341,321.19 162.5,315.5 Z"/></g>
<g><path style="opacity:1" fill="#e2ac7a" d="M 345.5,317.5 C 371.661,335.77 387.828,360.77 394,392.5C 396.486,405.05 397.652,417.716 397.5,430.5C 384.167,430.5 370.833,430.5 357.5,430.5C 353.5,392.827 349.5,355.16 345.5,317.5 Z"/></g>
</svg>
