<?xml version="1.0" encoding="UTF-8"?>
<!DOCTYPE svg PUBLIC "-//W3C//DTD SVG 1.1//EN" "http://www.w3.org/Graphics/SVG/1.1/DTD/svg11.dtd">
<svg xmlns="http://www.w3.org/2000/svg" version="1.1" width="500px" height="500px" style="shape-rendering:geometricPrecision; text-rendering:geometricPrecision; image-rendering:optimizeQuality; fill-rule:evenodd; clip-rule:evenodd" xmlns:xlink="http://www.w3.org/1999/xlink">
<g><path style="opacity:0.958" fill="#033067" d="M 499.5,226.5 C 499.5,241.5 499.5,256.5 499.5,271.5C 489.907,352.223 451.24,414.723 383.5,459C 311.522,501.255 236.189,508.255 157.5,480C 65.3241,440.498 12.6574,370.998 -0.5,271.5C -0.5,256.5 -0.5,241.5 -0.5,226.5C 9.09228,145.779 47.7589,83.2792 115.5,39C 187.475,-3.25514 262.808,-10.2551 341.5,18C 415.725,48.6118 465.225,102.112 490,178.5C 494.285,194.424 497.452,210.424 499.5,226.5 Z"/></g>
<g><path style="opacity:1" fill="#fdcc01" d="M 229.5,15.5 C 322.876,11.4406 396.043,47.4406 449,123.5C 491.084,192.723 497.084,265.056 467,340.5C 428.606,421.8 364.773,468.634 275.5,481C 186.459,488.215 114.293,457.048 59,387.5C 14.1753,323.553 2.50866,253.886 24,178.5C 51.4867,101.68 103.987,50.5134 181.5,25C 197.371,20.4587 213.371,17.2921 229.5,15.5 Z"/></g>
<g><path style="opacity:1" fill="#23132b" d="M 297.5,81.5 C 288.902,76.8559 279.902,73.1892 270.5,70.5C 265.472,60.5637 257.306,55.897 246,56.5C 235.592,56.2855 227.758,60.6188 222.5,69.5C 209.552,73.2554 197.552,78.922 186.5,86.5C 188.249,57.128 202.915,37.628 230.5,28C 263.625,24.2992 285.458,38.1325 296,69.5C 296.501,73.5101 297.001,77.5101 297.5,81.5 Z"/></g>
<g><path style="opacity:1" fill="#d99f48" d="M 270.5,70.5 C 261.565,69.1017 252.565,68.4351 243.5,68.5C 236.522,68.29 229.689,68.9566 223,70.5C 222.601,70.2716 222.435,69.9382 222.5,69.5C 227.758,60.6188 235.592,56.2855 246,56.5C 257.306,55.897 265.472,60.5637 270.5,70.5 Z"/></g>
<g><path style="opacity:1" fill="#35243c" d="M 270.5,70.5 C 279.902,73.1892 288.902,76.8559 297.5,81.5C 327.303,102.338 339.137,131.005 333,167.5C 331.79,175.008 329.956,182.342 327.5,189.5C 323.787,197.258 319.787,204.925 315.5,212.5C 314.833,201.833 314.167,191.167 313.5,180.5C 313.72,175.9 313.054,171.567 311.5,167.5C 310.088,158.264 307.088,149.597 302.5,141.5C 294.34,154.83 283.007,164.33 268.5,170C 266.179,170.837 263.845,171.17 261.5,171C 266.167,167 270.833,163 275.5,159C 259.751,166.579 243.085,171.579 225.5,174C 228.153,176.92 227.486,179.087 223.5,180.5C 215.941,174.27 208.107,173.937 200,179.5C 199.5,179.167 199,178.833 198.5,178.5C 199.313,177.186 200.313,176.019 201.5,175C 194.79,173.995 188.124,172.829 181.5,171.5C 180.322,174.391 179.655,177.391 179.5,180.5C 177.988,191.754 177.155,203.087 177,214.5C 171.675,206.181 167.175,197.514 163.5,188.5C 158.616,173.533 156.45,158.2 157,142.5C 159.242,119.676 169.075,101.01 186.5,86.5C 197.552,78.922 209.552,73.2554 222.5,69.5C 222.435,69.9382 222.601,70.2716 223,70.5C 229.689,68.9566 236.522,68.29 243.5,68.5C 252.565,68.4351 261.565,69.1017 270.5,70.5 Z"/></g>
<g><path style="opacity:1" fill="#4a374f" d="M 296.5,93.5 C 297.649,93.7911 298.316,94.6244 298.5,96C 296.811,103.542 293.645,110.376 289,116.5C 259.481,150.009 222.647,163.342 178.5,156.5C 216.578,160.75 249.912,150.25 278.5,125C 284.096,119.407 288.93,113.24 293,106.5C 295.09,102.401 296.256,98.0672 296.5,93.5 Z"/></g>
<g><path style="opacity:1" fill="#4b374f" d="M 266.5,85.5 C 268.344,86.2039 268.844,87.5372 268,89.5C 252.087,123.384 225.587,143.884 188.5,151C 171.167,150.998 171.167,150.331 188.5,149C 223.538,142.268 249.038,123.101 265,91.5C 265.813,89.5643 266.313,87.5643 266.5,85.5 Z"/></g>
<g><path style="opacity:1" fill="#e2ac7a" d="M 311.5,167.5 C 313.054,171.567 313.72,175.9 313.5,180.5C 313.333,191.838 313.5,203.172 314,214.5C 314.717,213.956 315.217,213.289 315.5,212.5C 319.787,204.925 323.787,197.258 327.5,189.5C 341.109,189.97 346.275,196.97 343,210.5C 340.41,218.09 335.41,223.423 328,226.5C 326.726,225.465 325.56,224.298 324.5,223C 320.075,222.044 318.408,223.877 319.5,228.5C 317.208,228.244 315.041,228.577 313,229.5C 305.107,249.535 292.607,265.868 275.5,278.5C 266.229,283.793 256.229,286.126 245.5,285.5C 234.421,286.693 224.421,284.027 215.5,277.5C 208.95,273.459 203.117,268.459 198,262.5C 190.701,252.872 184.201,242.872 178.5,232.5C 179.791,231.527 179.791,230.527 178.5,229.5C 176.604,228.534 174.604,228.201 172.5,228.5C 173.592,223.877 171.925,222.044 167.5,223C 166.44,224.298 165.274,225.465 164,226.5C 152.865,221.901 147.532,213.568 148,201.5C 149.999,193.267 155.165,188.933 163.5,188.5C 167.175,197.514 171.675,206.181 177,214.5C 177.155,203.087 177.988,191.754 179.5,180.5C 180.268,179.737 180.768,178.737 181,177.5C 208.95,183.278 236.783,182.611 264.5,175.5C 264.316,178.321 265.649,179.988 268.5,180.5C 276.434,175.209 284.434,175.209 292.5,180.5C 293.583,179.635 293.749,178.635 293,177.5C 289.622,173.406 285.455,170.739 280.5,169.5C 288.658,165.021 295.658,159.021 301.5,151.5C 305.358,156.558 308.691,161.891 311.5,167.5 Z"/></g>
<g><path style="opacity:1" fill="#cd7a52" d="M 311.5,167.5 C 308.691,161.891 305.358,156.558 301.5,151.5C 295.658,159.021 288.658,165.021 280.5,169.5C 274.142,168.95 268.809,170.95 264.5,175.5C 236.783,182.611 208.95,183.278 181,177.5C 180.768,178.737 180.268,179.737 179.5,180.5C 179.655,177.391 180.322,174.391 181.5,171.5C 188.124,172.829 194.79,173.995 201.5,175C 200.313,176.019 199.313,177.186 198.5,178.5C 199,178.833 199.5,179.167 200,179.5C 208.107,173.937 215.941,174.27 223.5,180.5C 227.486,179.087 228.153,176.92 225.5,174C 243.085,171.579 259.751,166.579 275.5,159C 270.833,163 266.167,167 261.5,171C 263.845,171.17 266.179,170.837 268.5,170C 283.007,164.33 294.34,154.83 302.5,141.5C 307.088,149.597 310.088,158.264 311.5,167.5 Z"/></g>
<g><path style="opacity:1" fill="#3f2b3f" d="M 280.5,169.5 C 285.455,170.739 289.622,173.406 293,177.5C 293.749,178.635 293.583,179.635 292.5,180.5C 284.434,175.209 276.434,175.209 268.5,180.5C 265.649,179.988 264.316,178.321 264.5,175.5C 268.809,170.95 274.142,168.95 280.5,169.5 Z"/></g>
<g><path style="opacity:1" fill="#7e5d56" d="M 313.5,180.5 C 314.167,191.167 314.833,201.833 315.5,212.5C 315.217,213.289 314.717,213.956 314,214.5C 313.5,203.172 313.333,191.838 313.5,180.5 Z"/></g>
<g><path style="opacity:1" fill="#242220" d="M 211.5,191.5 C 221.11,191.936 223.776,196.436 219.5,205C 210.961,208.451 206.794,205.618 207,196.5C 208.366,194.638 209.866,192.972 211.5,191.5 Z"/></g>
<g><path style="opacity:1" fill="#242220" d="M 274.5,191.5 C 284.11,191.936 286.776,196.436 282.5,205C 273.961,208.451 269.794,205.618 270,196.5C 271.366,194.638 272.866,192.972 274.5,191.5 Z"/></g>
<g><path style="opacity:1" fill="#d68458" d="M 252.5,201.5 C 253.693,201.97 254.36,202.97 254.5,204.5C 255.914,212.144 256.748,219.81 257,227.5C 252.897,230.458 248.397,231.124 243.5,229.5C 247.041,228.8 250.541,228.133 254,227.5C 254.134,218.808 253.634,210.142 252.5,201.5 Z"/></g>
<g><path style="opacity:1" fill="#d78458" d="M 329.5,197.5 C 336.241,197.631 338.574,200.965 336.5,207.5C 335.729,205.138 334.895,202.804 334,200.5C 332.612,199.446 331.112,199.28 329.5,200C 325.874,202.79 323.208,206.29 321.5,210.5C 324.257,211.029 326.757,212.029 329,213.5C 329.558,216.054 328.725,218.054 326.5,219.5C 326.08,217.674 326.08,215.674 326.5,213.5C 323.67,213.694 321.004,214.361 318.5,215.5C 319.123,207.578 322.79,201.578 329.5,197.5 Z"/></g>
<g><path style="opacity:1" fill="#d68357" d="M 156.5,197.5 C 161.227,197.048 165.06,198.715 168,202.5C 169.92,205.838 171.42,209.338 172.5,213C 172.167,213.833 171.833,214.667 171.5,215.5C 169.382,214.054 167.049,213.387 164.5,213.5C 164.92,215.674 164.92,217.674 164.5,219.5C 163.914,219.291 163.414,218.957 163,218.5C 161.159,212.506 163.326,210.173 169.5,211.5C 168.446,206.562 165.779,202.729 161.5,200C 160.056,199.219 158.723,199.386 157.5,200.5C 155.286,209.571 154.453,209.571 155,200.5C 155.513,199.473 156.013,198.473 156.5,197.5 Z"/></g>
<g><path style="opacity:1" fill="#cf806b" d="M 196.5,214.5 C 201.412,214.063 206.078,214.896 210.5,217C 216.036,221.838 215.703,226.171 209.5,230C 202.275,232.011 196.441,230.177 192,224.5C 190.571,219.783 192.071,216.45 196.5,214.5 Z"/></g>
<g><path style="opacity:1" fill="#cf806b" d="M 285.5,214.5 C 291.039,213.638 295.872,214.972 300,218.5C 300.829,224.363 298.329,228.196 292.5,230C 286.924,231.472 282.091,230.305 278,226.5C 277.333,224.5 277.333,222.5 278,220.5C 280.114,217.879 282.614,215.879 285.5,214.5 Z"/></g>
<g><path style="opacity:1" fill="#23142b" d="M 178.5,232.5 C 184.201,242.872 190.701,252.872 198,262.5C 203.117,268.459 208.95,273.459 215.5,277.5C 215.5,281.167 215.5,284.833 215.5,288.5C 215.718,294.565 213.384,299.398 208.5,303C 196.448,308.909 184.115,314.242 171.5,319C 165.776,322.853 160.109,326.687 154.5,330.5C 144.021,313.648 140.188,295.314 143,275.5C 146.367,261.825 153.367,250.492 164,241.5C 163.828,247.201 164.994,252.535 167.5,257.5C 156.991,269.221 153.491,282.888 157,298.5C 157.707,302.335 158.874,306.002 160.5,309.5C 160.833,308.833 161.167,308.167 161.5,307.5C 157.046,293.597 157.546,279.93 163,266.5C 165.335,263.335 167.835,260.335 170.5,257.5C 172.446,255.266 173.613,252.599 174,249.5C 174.777,244.778 174.61,240.111 173.5,235.5C 175.029,234.237 176.695,233.237 178.5,232.5 Z"/></g>
<g><path style="opacity:1" fill="#e7e3e3" d="M 264.5,247.5 C 252.167,247.5 239.833,247.5 227.5,247.5C 225.834,245.813 224.5,243.813 223.5,241.5C 238.5,240.167 253.5,240.167 268.5,241.5C 267.156,243.529 265.823,245.529 264.5,247.5 Z"/></g>
<g><path style="opacity:1" fill="#8a372c" d="M 227.5,247.5 C 239.833,247.5 252.167,247.5 264.5,247.5C 262.766,250.2 260.432,252.2 257.5,253.5C 249.791,248.175 242.125,248.175 234.5,253.5C 231.553,252.219 229.219,250.219 227.5,247.5 Z"/></g>
<g><path style="opacity:1" fill="#cb7660" d="M 257.5,253.5 C 249.795,258.826 242.128,258.826 234.5,253.5C 242.125,248.175 249.791,248.175 257.5,253.5 Z"/></g>
<g><path style="opacity:1" fill="#49354d" d="M 167.5,257.5 C 168.5,257.5 169.5,257.5 170.5,257.5C 167.835,260.335 165.335,263.335 163,266.5C 157.546,279.93 157.046,293.597 161.5,307.5C 161.167,308.167 160.833,308.833 160.5,309.5C 158.874,306.002 157.707,302.335 157,298.5C 153.491,282.888 156.991,269.221 167.5,257.5 Z"/></g>
<g><path style="opacity:1" fill="#d57f54" d="M 215.5,277.5 C 224.421,284.027 234.421,286.693 245.5,285.5C 256.229,286.126 266.229,283.793 275.5,278.5C 275.5,282.167 275.5,285.833 275.5,289.5C 255.258,304.48 235.258,304.147 215.5,288.5C 215.5,284.833 215.5,281.167 215.5,277.5 Z"/></g>
<g><path style="opacity:1" fill="#e1ac7a" d="M 215.5,288.5 C 235.258,304.147 255.258,304.48 275.5,289.5C 274.796,293.803 276.13,297.303 279.5,300C 283.841,303.172 288.508,305.839 293.5,308C 314.289,314.546 332.289,325.379 347.5,340.5C 326.868,347.074 305.868,352.241 284.5,356C 236.72,362.279 190.387,356.779 145.5,339.5C 148.806,336.86 151.806,333.86 154.5,330.5C 160.109,326.687 165.776,322.853 171.5,319C 184.115,314.242 196.448,308.909 208.5,303C 213.384,299.398 215.718,294.565 215.5,288.5 Z"/></g>
<g><path style="opacity:1" fill="#201d2d" d="M 145.5,339.5 C 190.387,356.779 236.72,362.279 284.5,356C 305.868,352.241 326.868,347.074 347.5,340.5C 365.922,358.001 377.589,379.335 382.5,404.5C 369.957,412.599 357.624,420.932 345.5,429.5C 343.53,430.162 341.53,430.828 339.5,431.5C 277.167,430.167 214.833,430.167 152.5,431.5C 151.15,430.05 149.484,429.383 147.5,429.5C 135.123,421.139 122.456,413.139 109.5,405.5C 114.216,379.392 126.216,357.392 145.5,339.5 Z"/></g>
<g><path style="opacity:1" fill="#e0ab79" d="M 382.5,404.5 C 383.407,412.792 383.74,421.125 383.5,429.5C 370.833,429.5 358.167,429.5 345.5,429.5C 357.624,420.932 369.957,412.599 382.5,404.5 Z"/></g>
<g><path style="opacity:1" fill="#e0ab79" d="M 109.5,405.5 C 122.456,413.139 135.123,421.139 147.5,429.5C 134.167,429.5 120.833,429.5 107.5,429.5C 107.173,421.392 107.84,413.392 109.5,405.5 Z"/></g>
</svg>
