<?xml version="1.0" encoding="UTF-8"?>
<!DOCTYPE svg PUBLIC "-//W3C//DTD SVG 1.1//EN" "http://www.w3.org/Graphics/SVG/1.1/DTD/svg11.dtd">
<svg xmlns="http://www.w3.org/2000/svg" version="1.1" width="500px" height="500px" style="shape-rendering:geometricPrecision; text-rendering:geometricPrecision; image-rendering:optimizeQuality; fill-rule:evenodd; clip-rule:evenodd" xmlns:xlink="http://www.w3.org/1999/xlink">
<g><path style="opacity:0.958" fill="#033067" d="M 499.5,226.5 C 499.5,241.5 499.5,256.5 499.5,271.5C 489.907,352.223 451.24,414.723 383.5,459C 311.522,501.255 236.189,508.255 157.5,480C 65.3241,440.498 12.6574,370.998 -0.5,271.5C -0.5,256.5 -0.5,241.5 -0.5,226.5C 9.09228,145.779 47.7589,83.2792 115.5,39C 187.475,-3.25514 262.808,-10.2551 341.5,18C 415.725,48.6118 465.225,102.112 490,178.5C 494.285,194.424 497.452,210.424 499.5,226.5 Z"/></g>
<g><path style="opacity:1" fill="#fbca02" d="M 319.5,25.5 C 309.611,27.7867 302.277,33.4533 297.5,42.5C 278.168,35.1644 266.168,41.4978 261.5,61.5C 260.167,61.5 258.833,61.5 257.5,61.5C 247.883,60.2459 238.216,60.2459 228.5,61.5C 225.209,44.501 214.876,37.3343 197.5,40C 195.579,40.3603 193.912,41.1936 192.5,42.5C 188.703,35.0323 183.036,29.6989 175.5,26.5C 223.381,12.1816 271.381,11.8482 319.5,25.5 Z"/></g>
<g><path style="opacity:1" fill="#2c1400" d="M 175.5,26.5 C 183.036,29.6989 188.703,35.0323 192.5,42.5C 193.912,41.1936 195.579,40.3603 197.5,40C 214.876,37.3343 225.209,44.501 228.5,61.5C 228.5,61.8333 228.5,62.1667 228.5,62.5C 224.484,62.2871 220.65,62.9538 217,64.5C 215.129,63.3322 213.629,63.8322 212.5,66C 206.37,67.9023 200.37,70.069 194.5,72.5C 173.561,71.7715 164.561,81.7715 167.5,102.5C 163.744,112.182 160.911,122.182 159,132.5C 158.501,138.157 158.334,143.824 158.5,149.5C 143.958,158.265 132.458,155.265 124,140.5C 122.675,135.599 122.175,130.599 122.5,125.5C 108.389,124.556 100.723,117.056 99.5,103C 100.292,89.2054 107.626,81.5387 121.5,80C 119.106,78.0478 117.606,75.5478 117,72.5C 115.78,66.1028 116.614,60.1028 119.5,54.5C 122.358,50.9905 126.024,48.6571 130.5,47.5C 135.667,47.09 140.667,47.7567 145.5,49.5C 146.014,45.1883 147.348,41.1883 149.5,37.5C 155.768,28.404 164.435,24.7373 175.5,26.5 Z"/></g>
<g><path style="opacity:1" fill="#2c1400" d="M 319.5,25.5 C 325.248,26.5955 330.582,28.5955 335.5,31.5C 340.998,36.1916 344.165,42.1916 345,49.5C 355.114,45.3516 363.781,47.3516 371,55.5C 376.08,64.2745 375.246,72.4411 368.5,80C 385.009,82.537 392.176,92.037 390,108.5C 386.423,119.232 378.923,124.898 367.5,125.5C 369.195,145.302 360.195,154.802 340.5,154C 336.789,152.773 333.455,150.94 330.5,148.5C 329.09,132.788 325.757,117.455 320.5,102.5C 323.816,82.8148 315.483,72.8148 295.5,72.5C 284.694,66.9701 273.361,63.3034 261.5,61.5C 266.168,41.4978 278.168,35.1644 297.5,42.5C 302.277,33.4533 309.611,27.7867 319.5,25.5 Z"/></g>
<g><path style="opacity:1" fill="#fecc01" d="M 335.5,31.5 C 414.574,64.416 463.407,122.749 482,206.5C 495.671,307.289 461.171,386.789 378.5,445C 322.177,479.811 261.51,490.478 196.5,477C 129.985,460.518 79.152,423.018 44,364.5C 11.8974,305.281 5.23073,243.281 24,178.5C 41.677,126.09 73.5103,84.7571 119.5,54.5C 116.614,60.1028 115.78,66.1028 117,72.5C 117.606,75.5478 119.106,78.0478 121.5,80C 107.626,81.5387 100.292,89.2054 99.5,103C 100.723,117.056 108.389,124.556 122.5,125.5C 122.175,130.599 122.675,135.599 124,140.5C 132.458,155.265 143.958,158.265 158.5,149.5C 158.058,159.989 159.058,170.322 161.5,180.5C 150.525,180.141 145.192,185.475 145.5,196.5C 145.903,205.411 149.903,212.244 157.5,217C 163.213,219.606 169.213,221.106 175.5,221.5C 183.333,242.317 196.333,258.984 214.5,271.5C 214.5,275.167 214.5,278.833 214.5,282.5C 214.718,288.565 212.384,293.398 207.5,297C 203.566,299.464 199.566,301.631 195.5,303.5C 189.053,305.558 182.72,307.891 176.5,310.5C 171.173,312.159 166.507,314.826 162.5,318.5C 128.15,340.843 108.817,372.51 104.5,413.5C 103.514,417.97 103.181,422.637 103.5,427.5C 117.5,427.5 131.5,427.5 145.5,427.5C 212.167,427.5 278.833,427.5 345.5,427.5C 359.5,427.5 373.5,427.5 387.5,427.5C 387.452,380.871 368.119,344.871 329.5,319.5C 326.378,316.432 322.711,314.098 318.5,312.5C 310.787,308.648 302.787,305.315 294.5,302.5C 287.951,299.635 282.118,295.635 277,290.5C 275.798,288.323 275.298,285.989 275.5,283.5C 275.5,279.833 275.5,276.167 275.5,272.5C 293.993,259.66 307.326,242.66 315.5,221.5C 326.199,221.441 335.032,217.441 342,209.5C 346.171,201.629 346.504,193.629 343,185.5C 338.923,181.194 334.09,179.86 328.5,181.5C 330.006,170.559 330.672,159.559 330.5,148.5C 333.455,150.94 336.789,152.773 340.5,154C 360.195,154.802 369.195,145.302 367.5,125.5C 378.923,124.898 386.423,119.232 390,108.5C 392.176,92.037 385.009,82.537 368.5,80C 375.246,72.4411 376.08,64.2745 371,55.5C 363.781,47.3516 355.114,45.3516 345,49.5C 344.165,42.1916 340.998,36.1916 335.5,31.5 Z"/></g>
<g><path style="opacity:1" fill="#e3b709" d="M 149.5,37.5 C 147.348,41.1883 146.014,45.1883 145.5,49.5C 140.667,47.7567 135.667,47.09 130.5,47.5C 136.351,43.4059 142.685,40.0726 149.5,37.5 Z"/></g>
<g><path style="opacity:1" fill="#3f2715" d="M 257.5,61.5 C 258.833,61.5 260.167,61.5 261.5,61.5C 273.361,63.3034 284.694,66.9701 295.5,72.5C 300.105,76.6023 304.605,80.9357 309,85.5C 312.856,91.2324 316.69,96.8991 320.5,102.5C 325.757,117.455 329.09,132.788 330.5,148.5C 330.672,159.559 330.006,170.559 328.5,181.5C 327.366,184.37 326.7,187.37 326.5,190.5C 325.331,193.341 324.331,196.341 323.5,199.5C 321.955,203.593 320.121,207.593 318,211.5C 318.464,202.858 318.464,194.192 318,185.5C 317.333,184.167 316.667,182.833 316,181.5C 313.105,179.392 310.439,177.059 308,174.5C 307.907,170.159 307.907,165.826 308,161.5C 305.204,159.114 302.037,157.281 298.5,156C 295.64,152.319 294.807,148.152 296,143.5C 299.662,139.14 299.162,135.307 294.5,132C 292.833,131.333 291.167,131.333 289.5,132C 282.809,134.876 275.809,136.876 268.5,138C 245.137,141.374 222.304,139.54 200,132.5C 196.468,131.808 194.135,133.141 193,136.5C 193.377,140.425 194.21,144.258 195.5,148C 195.506,150.3 195.006,152.466 194,154.5C 190.667,156.5 187.333,158.5 184,160.5C 183.667,165.5 183.333,170.5 183,175.5C 174.557,179.472 171.057,186.139 172.5,195.5C 172.891,200.521 173.057,205.521 173,210.5C 172.392,208.934 171.558,207.6 170.5,206.5C 168.676,201.675 166.676,197.008 164.5,192.5C 163.91,188.397 162.91,184.397 161.5,180.5C 159.058,170.322 158.058,159.989 158.5,149.5C 158.334,143.824 158.501,138.157 159,132.5C 160.911,122.182 163.744,112.182 167.5,102.5C 171.113,98.6568 174.28,94.3235 177,89.5C 182.776,83.5542 188.609,77.8876 194.5,72.5C 200.37,70.069 206.37,67.9023 212.5,66C 213.629,63.8322 215.129,63.3322 217,64.5C 220.65,62.9538 224.484,62.2871 228.5,62.5C 229.376,62.3691 230.043,62.7025 230.5,63.5C 217.956,84.7763 216.456,106.776 226,129.5C 227.041,131.585 228.541,133.252 230.5,134.5C 230.833,134.167 231.167,133.833 231.5,133.5C 226.827,127.656 223.993,120.99 223,113.5C 220.014,95.1191 223.514,78.1191 233.5,62.5C 240.476,61.3356 247.476,61.1689 254.5,62C 265.868,79.7669 269.035,98.9335 264,119.5C 262.971,123.889 261.138,127.889 258.5,131.5C 259.002,132.521 259.668,132.688 260.5,132C 264.78,125.496 267.28,118.329 268,110.5C 270.022,92.9278 266.522,76.5945 257.5,61.5 Z"/></g>
<g><path style="opacity:1" fill="#dead44" d="M 194.5,72.5 C 188.609,77.8876 182.776,83.5542 177,89.5C 174.28,94.3235 171.113,98.6568 167.5,102.5C 164.561,81.7715 173.561,71.7715 194.5,72.5 Z"/></g>
<g><path style="opacity:1" fill="#5b351f" d="M 257.5,61.5 C 266.522,76.5945 270.022,92.9278 268,110.5C 267.28,118.329 264.78,125.496 260.5,132C 259.668,132.688 259.002,132.521 258.5,131.5C 261.138,127.889 262.971,123.889 264,119.5C 269.035,98.9335 265.868,79.7669 254.5,62C 247.476,61.1689 240.476,61.3356 233.5,62.5C 223.514,78.1191 220.014,95.1191 223,113.5C 223.993,120.99 226.827,127.656 231.5,133.5C 231.167,133.833 230.833,134.167 230.5,134.5C 228.541,133.252 227.041,131.585 226,129.5C 216.456,106.776 217.956,84.7763 230.5,63.5C 230.043,62.7025 229.376,62.3691 228.5,62.5C 228.5,62.1667 228.5,61.8333 228.5,61.5C 238.216,60.2459 247.883,60.2459 257.5,61.5 Z"/></g>
<g><path style="opacity:1" fill="#e1b045" d="M 295.5,72.5 C 315.483,72.8148 323.816,82.8148 320.5,102.5C 316.69,96.8991 312.856,91.2324 309,85.5C 304.605,80.9357 300.105,76.6023 295.5,72.5 Z"/></g>
<g><path style="opacity:1" fill="#e1ab7a" d="M 323.5,199.5 C 325.6,196.896 327.933,194.396 330.5,192C 332.167,191.333 333.833,191.333 335.5,192C 336.723,194.052 337.723,196.219 338.5,198.5C 340.116,192.294 337.783,189.128 331.5,189C 329.714,189.785 328.214,190.951 327,192.5C 326.536,191.906 326.369,191.239 326.5,190.5C 326.7,187.37 327.366,184.37 328.5,181.5C 334.09,179.86 338.923,181.194 343,185.5C 346.504,193.629 346.171,201.629 342,209.5C 335.032,217.441 326.199,221.441 315.5,221.5C 307.326,242.66 293.993,259.66 275.5,272.5C 260.53,279.512 244.863,281.346 228.5,278C 223.472,276.496 218.805,274.33 214.5,271.5C 196.333,258.984 183.333,242.317 175.5,221.5C 169.213,221.106 163.213,219.606 157.5,217C 149.903,212.244 145.903,205.411 145.5,196.5C 145.192,185.475 150.525,180.141 161.5,180.5C 162.91,184.397 163.91,188.397 164.5,192.5C 156.038,186.064 152.038,188.064 152.5,198.5C 153.192,195.855 154.192,193.355 155.5,191C 161.811,192.139 165.811,195.972 167.5,202.5C 164.743,203.029 162.243,204.029 160,205.5C 159.442,208.054 160.275,210.054 162.5,211.5C 162.92,209.674 162.92,207.674 162.5,205.5C 165.049,205.387 167.382,206.054 169.5,207.5C 170.107,207.376 170.44,207.043 170.5,206.5C 171.558,207.6 172.392,208.934 173,210.5C 173.057,205.521 172.891,200.521 172.5,195.5C 171.057,186.139 174.557,179.472 183,175.5C 183.333,170.5 183.667,165.5 184,160.5C 187.333,158.5 190.667,156.5 194,154.5C 195.006,152.466 195.506,150.3 195.5,148C 194.21,144.258 193.377,140.425 193,136.5C 194.135,133.141 196.468,131.808 200,132.5C 222.304,139.54 245.137,141.374 268.5,138C 275.809,136.876 282.809,134.876 289.5,132C 291.167,131.333 292.833,131.333 294.5,132C 299.162,135.307 299.662,139.14 296,143.5C 294.807,148.152 295.64,152.319 298.5,156C 302.037,157.281 305.204,159.114 308,161.5C 307.907,165.826 307.907,170.159 308,174.5C 310.439,177.059 313.105,179.392 316,181.5C 316.667,182.833 317.333,184.167 318,185.5C 318.464,194.192 318.464,202.858 318,211.5C 320.121,207.593 321.955,203.593 323.5,199.5 Z"/></g>
<g><path style="opacity:1" fill="#593621" d="M 207.5,160.5 C 214.375,159.759 220.542,161.426 226,165.5C 227.165,168.814 225.998,170.814 222.5,171.5C 214.167,164.833 205.833,164.833 197.5,171.5C 196.592,170.21 196.759,168.877 198,167.5C 200.79,164.535 203.957,162.202 207.5,160.5 Z"/></g>
<g><path style="opacity:1" fill="#583520" d="M 272.5,160.5 C 282.155,159.059 289.488,162.392 294.5,170.5C 294.167,170.833 293.833,171.167 293.5,171.5C 285.104,165.008 276.771,165.008 268.5,171.5C 265.887,170.669 264.72,169.002 265,166.5C 267.114,163.879 269.614,161.879 272.5,160.5 Z"/></g>
<g><path style="opacity:1" fill="#252321" d="M 209.5,183.5 C 220.481,182.989 223.481,187.489 218.5,197C 209.42,200.215 205.253,197.048 206,187.5C 207.376,186.295 208.542,184.962 209.5,183.5 Z"/></g>
<g><path style="opacity:1" fill="#22211f" d="M 274.5,183.5 C 280.766,182.117 284.433,184.45 285.5,190.5C 284.592,196.959 280.926,199.459 274.5,198C 269.235,193.076 269.235,188.242 274.5,183.5 Z"/></g>
<g><path style="opacity:1" fill="#d18257" d="M 323.5,199.5 C 324.331,196.341 325.331,193.341 326.5,190.5C 326.369,191.239 326.536,191.906 327,192.5C 328.214,190.951 329.714,189.785 331.5,189C 337.783,189.128 340.116,192.294 338.5,198.5C 337.723,196.219 336.723,194.052 335.5,192C 333.833,191.333 332.167,191.333 330.5,192C 327.933,194.396 325.6,196.896 323.5,199.5 Z"/></g>
<g><path style="opacity:1" fill="#d78559" d="M 252.5,193.5 C 253.693,193.97 254.36,194.97 254.5,196.5C 256.033,204.129 256.866,211.795 257,219.5C 256.167,220.333 255.333,221.167 254.5,222C 250.789,222.825 247.122,222.659 243.5,221.5C 246.836,220.76 250.17,220.094 253.5,219.5C 253.833,218 254.167,216.5 254.5,215C 253.668,207.843 253.001,200.676 252.5,193.5 Z"/></g>
<g><path style="opacity:1" fill="#d38156" d="M 164.5,192.5 C 166.676,197.008 168.676,201.675 170.5,206.5C 170.44,207.043 170.107,207.376 169.5,207.5C 167.382,206.054 165.049,205.387 162.5,205.5C 162.92,207.674 162.92,209.674 162.5,211.5C 160.275,210.054 159.442,208.054 160,205.5C 162.243,204.029 164.743,203.029 167.5,202.5C 165.811,195.972 161.811,192.139 155.5,191C 154.192,193.355 153.192,195.855 152.5,198.5C 152.038,188.064 156.038,186.064 164.5,192.5 Z"/></g>
<g><path style="opacity:1" fill="#cf816b" d="M 194.5,206.5 C 199.742,206.023 204.742,206.856 209.5,209C 215.172,213.931 214.839,218.265 208.5,222C 199.448,225.139 193.115,222.306 189.5,213.5C 190.06,210.288 191.727,207.955 194.5,206.5 Z"/></g>
<g><path style="opacity:1" fill="#cf816b" d="M 285.5,206.5 C 289.967,206.133 294.3,206.633 298.5,208C 303.23,214.232 301.896,218.899 294.5,222C 287.668,224.986 282.168,223.486 278,217.5C 277.333,216.167 277.333,214.833 278,213.5C 280.015,210.588 282.515,208.255 285.5,206.5 Z"/></g>
<g><path style="opacity:1" fill="#eaeaea" d="M 222.5,234.5 C 237.672,233.174 253.005,233.174 268.5,234.5C 267.376,235.914 266.376,237.414 265.5,239C 252.167,239.667 238.833,239.667 225.5,239C 224.601,237.348 223.601,235.848 222.5,234.5 Z"/></g>
<g><path style="opacity:1" fill="#89362b" d="M 257.5,246.5 C 253.916,244.047 249.916,242.714 245.5,242.5C 241.003,242.89 236.67,243.89 232.5,245.5C 230.704,244.207 229.037,242.707 227.5,241C 239.514,240.167 251.514,240.334 263.5,241.5C 261.509,243.164 259.509,244.831 257.5,246.5 Z"/></g>
<g><path style="opacity:1" fill="#cc7761" d="M 257.5,246.5 C 248.913,252.05 240.579,251.717 232.5,245.5C 236.67,243.89 241.003,242.89 245.5,242.5C 249.916,242.714 253.916,244.047 257.5,246.5 Z"/></g>
<g><path style="opacity:1" fill="#d57f54" d="M 214.5,271.5 C 218.805,274.33 223.472,276.496 228.5,278C 244.863,281.346 260.53,279.512 275.5,272.5C 275.5,276.167 275.5,279.833 275.5,283.5C 254.893,298.478 234.56,298.145 214.5,282.5C 214.5,278.833 214.5,275.167 214.5,271.5 Z"/></g>
<g><path style="opacity:1" fill="#e3ad7b" d="M 214.5,282.5 C 234.56,298.145 254.893,298.478 275.5,283.5C 275.298,285.989 275.798,288.323 277,290.5C 282.118,295.635 287.951,299.635 294.5,302.5C 284.731,323.729 268.064,334.396 244.5,334.5C 227.522,334.428 213.688,327.761 203,314.5C 200.945,310.344 198.445,306.678 195.5,303.5C 199.566,301.631 203.566,299.464 207.5,297C 212.384,293.398 214.718,288.565 214.5,282.5 Z"/></g>
<g><path style="opacity:1" fill="#eed4c5" d="M 294.5,302.5 C 302.787,305.315 310.787,308.648 318.5,312.5C 317.732,313.263 317.232,314.263 317,315.5C 315.919,331.231 314.252,346.898 312,362.5C 311.356,365.609 310.189,368.443 308.5,371C 289.264,376.711 269.597,378.878 249.5,377.5C 229.001,378.153 208.668,376.653 188.5,373C 186.129,372.265 183.795,371.432 181.5,370.5C 180.345,366.573 179.512,362.573 179,358.5C 177.717,342.52 176.884,326.52 176.5,310.5C 182.72,307.891 189.053,305.558 195.5,303.5C 198.445,306.678 200.945,310.344 203,314.5C 213.688,327.761 227.522,334.428 244.5,334.5C 268.064,334.396 284.731,323.729 294.5,302.5 Z"/></g>
<g><path style="opacity:1" fill="#211e2e" d="M 176.5,310.5 C 176.884,326.52 177.717,342.52 179,358.5C 179.512,362.573 180.345,366.573 181.5,370.5C 183.795,371.432 186.129,372.265 188.5,373C 208.668,376.653 229.001,378.153 249.5,377.5C 269.597,378.878 289.264,376.711 308.5,371C 310.189,368.443 311.356,365.609 312,362.5C 314.252,346.898 315.919,331.231 317,315.5C 317.232,314.263 317.732,313.263 318.5,312.5C 322.711,314.098 326.378,316.432 329.5,319.5C 338.52,354.952 343.853,390.952 345.5,427.5C 278.833,427.5 212.167,427.5 145.5,427.5C 145.5,427.167 145.5,426.833 145.5,426.5C 145.759,389.613 151.426,353.613 162.5,318.5C 166.507,314.826 171.173,312.159 176.5,310.5 Z"/></g>
<g><path style="opacity:1" fill="#efd5c5" d="M 162.5,318.5 C 151.426,353.613 145.759,389.613 145.5,426.5C 131.833,426.5 118.167,426.5 104.5,426.5C 104.5,422.167 104.5,417.833 104.5,413.5C 108.817,372.51 128.15,340.843 162.5,318.5 Z"/></g>
<g><path style="opacity:1" fill="#efd4c4" d="M 329.5,319.5 C 368.119,344.871 387.452,380.871 387.5,427.5C 373.5,427.5 359.5,427.5 345.5,427.5C 343.853,390.952 338.52,354.952 329.5,319.5 Z"/></g>
<g><path style="opacity:1" fill="#efc98b" d="M 104.5,413.5 C 104.5,417.833 104.5,422.167 104.5,426.5C 118.167,426.5 131.833,426.5 145.5,426.5C 145.5,426.833 145.5,427.167 145.5,427.5C 131.5,427.5 117.5,427.5 103.5,427.5C 103.181,422.637 103.514,417.97 104.5,413.5 Z"/></g>
</svg>
