<?xml version="1.0" encoding="UTF-8"?>
<!DOCTYPE svg PUBLIC "-//W3C//DTD SVG 1.1//EN" "http://www.w3.org/Graphics/SVG/1.1/DTD/svg11.dtd">
<svg xmlns="http://www.w3.org/2000/svg" version="1.1" width="500px" height="500px" style="shape-rendering:geometricPrecision; text-rendering:geometricPrecision; image-rendering:optimizeQuality; fill-rule:evenodd; clip-rule:evenodd" xmlns:xlink="http://www.w3.org/1999/xlink">
<g><path style="opacity:0.958" fill="#033067" d="M 499.5,226.5 C 499.5,241.5 499.5,256.5 499.5,271.5C 489.907,352.223 451.24,414.723 383.5,459C 311.522,501.255 236.189,508.255 157.5,480C 65.3241,440.498 12.6574,370.998 -0.5,271.5C -0.5,256.5 -0.5,241.5 -0.5,226.5C 9.09228,145.779 47.7589,83.2792 115.5,39C 187.475,-3.25514 262.808,-10.2551 341.5,18C 415.725,48.6118 465.225,102.112 490,178.5C 494.285,194.424 497.452,210.424 499.5,226.5 Z"/></g>
<g><path style="opacity:1" fill="#fecc00" d="M 99.5,429.5 C 111.655,428.505 123.989,428.171 136.5,428.5C 137.5,428.5 138.5,428.5 139.5,428.5C 209.167,428.5 278.833,428.5 348.5,428.5C 349.5,428.5 350.5,428.5 351.5,428.5C 366.5,428.5 381.5,428.5 396.5,428.5C 397.613,394.666 386.78,365.332 364,340.5C 344.933,320.707 322.433,306.04 296.5,296.5C 295.83,294.709 295.163,293.042 294.5,291.5C 292.401,283.302 288.734,275.968 283.5,269.5C 283.5,266.167 283.5,262.833 283.5,259.5C 283.5,257.5 283.5,255.5 283.5,253.5C 297.07,242.925 307.737,229.925 315.5,214.5C 329.362,216.979 339.862,212.312 347,200.5C 350.626,192.931 350.293,185.598 346,178.5C 341.49,174.922 336.324,173.588 330.5,174.5C 331.11,173.609 331.443,172.609 331.5,171.5C 335.572,150.69 337.405,129.69 337,108.5C 334.421,79.263 319.588,59.0963 292.5,48C 287.637,45.9344 282.637,44.2678 277.5,43C 251.39,23.5872 224.057,21.5872 195.5,37C 188.566,42.3761 183.732,49.2094 181,57.5C 160.433,73.322 150.933,94.322 152.5,120.5C 153.199,138.094 155.532,155.428 159.5,172.5C 159.5,172.833 159.5,173.167 159.5,173.5C 148.404,172.915 142.07,178.248 140.5,189.5C 143.908,208.216 155.242,216.883 174.5,215.5C 182.235,230.245 192.902,242.578 206.5,252.5C 206.5,255.167 206.5,257.833 206.5,260.5C 206.747,263.939 206.414,267.272 205.5,270.5C 200.832,276.838 197.498,283.838 195.5,291.5C 194.837,293.042 194.17,294.709 193.5,296.5C 163.064,308.12 137.564,326.453 117,351.5C 101.261,372.885 93.4273,396.885 93.5,423.5C 55.459,390.795 30.6256,349.795 19,300.5C 1.32312,203.17 30.8231,123.67 107.5,62C 178.777,12.2006 255.444,2.20062 337.5,32C 413.473,64.6425 461.306,121.143 481,201.5C 496.544,295.224 468.044,372.391 395.5,433C 330.738,480.484 259.404,493.817 181.5,473C 151.063,463.953 123.73,449.453 99.5,429.5 Z"/></g>
<g><path style="opacity:1" fill="#54321d" d="M 331.5,171.5 C 330.603,172.598 329.77,172.598 329,171.5C 326.854,167.525 325.02,163.525 323.5,159.5C 318.485,141.537 315.985,123.203 316,104.5C 314.046,98.5458 310.546,93.7125 305.5,90C 301.171,90.156 296.837,90.656 292.5,91.5C 290.44,91.4284 288.44,91.0951 286.5,90.5C 286.167,90.8333 285.833,91.1667 285.5,91.5C 287.427,94.35 289.594,97.0167 292,99.5C 292.667,100.167 292.667,100.833 292,101.5C 273.718,105.435 256.384,102.769 240,93.5C 239.558,97.5061 240.724,101.006 243.5,104C 230.019,104.675 217.685,101.175 206.5,93.5C 205.479,94.0016 205.312,94.6683 206,95.5C 218.413,107.112 216.58,108.612 200.5,100C 195.917,96.0877 192.083,91.5877 189,86.5C 182.179,90.9876 177.179,96.9876 174,104.5C 174.101,124.294 171.268,143.627 165.5,162.5C 164.016,166.132 162.016,169.466 159.5,172.5C 155.532,155.428 153.199,138.094 152.5,120.5C 150.933,94.322 160.433,73.322 181,57.5C 183.732,49.2094 188.566,42.3761 195.5,37C 224.057,21.5872 251.39,23.5872 277.5,43C 282.637,44.2678 287.637,45.9344 292.5,48C 319.588,59.0963 334.421,79.263 337,108.5C 337.405,129.69 335.572,150.69 331.5,171.5 Z"/></g>
<g><path style="opacity:1" fill="#e1ac7a" d="M 323.5,159.5 C 319.379,177.907 311.379,194.407 299.5,209C 296.488,211.557 293.155,212.057 289.5,210.5C 281.976,198.059 270.976,190.559 256.5,188C 236.592,183.531 219.092,188.031 204,201.5C 201.71,204.58 199.543,207.747 197.5,211C 196.167,211.667 194.833,211.667 193.5,211C 182.248,196.004 172.915,179.838 165.5,162.5C 171.268,143.627 174.101,124.294 174,104.5C 177.179,96.9876 182.179,90.9876 189,86.5C 192.083,91.5877 195.917,96.0877 200.5,100C 216.58,108.612 218.413,107.112 206,95.5C 205.312,94.6683 205.479,94.0016 206.5,93.5C 217.685,101.175 230.019,104.675 243.5,104C 240.724,101.006 239.558,97.5061 240,93.5C 256.384,102.769 273.718,105.435 292,101.5C 292.667,100.833 292.667,100.167 292,99.5C 289.594,97.0167 287.427,94.35 285.5,91.5C 285.833,91.1667 286.167,90.8333 286.5,90.5C 288.44,91.0951 290.44,91.4284 292.5,91.5C 296.837,90.656 301.171,90.156 305.5,90C 310.546,93.7125 314.046,98.5458 316,104.5C 315.985,123.203 318.485,141.537 323.5,159.5 Z"/></g>
<g><path style="opacity:1" fill="#432b18" d="M 199.5,127.5 C 206.391,126.901 213.058,127.735 219.5,130C 225.157,133.486 224.824,135.986 218.5,137.5C 209.02,132.191 199.52,132.191 190,137.5C 188.743,137.15 188.409,136.483 189,135.5C 191.94,131.963 195.44,129.297 199.5,127.5 Z"/></g>
<g><path style="opacity:1" fill="#432b18" d="M 274.5,127.5 C 282.206,126.665 289.539,127.831 296.5,131C 298.351,132.684 300.018,134.517 301.5,136.5C 298.115,136.688 294.782,135.854 291.5,134C 289.5,133.833 287.5,133.667 285.5,133.5C 279.869,134.004 274.536,135.171 269.5,137C 267.385,136.576 266.552,135.409 267,133.5C 269.114,130.879 271.614,128.879 274.5,127.5 Z"/></g>
<g><path style="opacity:1" fill="#432b18" d="M 208.5,151.5 C 217.772,150.919 221.272,154.919 219,163.5C 213.837,169.062 209.171,168.729 205,162.5C 203.662,157.96 204.829,154.293 208.5,151.5 Z"/></g>
<g><path style="opacity:1" fill="#432b18" d="M 274.5,151.5 C 282.709,150.872 286.209,154.539 285,162.5C 279.67,169.311 274.67,168.977 270,161.5C 269.333,159.833 269.333,158.167 270,156.5C 271.366,154.638 272.866,152.972 274.5,151.5 Z"/></g>
<g><path style="opacity:1" fill="#d68458" d="M 252.5,157.5 C 253.649,157.791 254.316,158.624 254.5,160C 256.449,167.118 257.116,174.285 256.5,181.5C 252.393,183.691 248.06,184.024 243.5,182.5C 247.041,181.8 250.541,181.133 254,180.5C 254.55,172.768 254.05,165.101 252.5,157.5 Z"/></g>
<g><path style="opacity:1" fill="#a87d57" d="M 323.5,159.5 C 325.02,163.525 326.854,167.525 329,171.5C 329.77,172.598 330.603,172.598 331.5,171.5C 331.443,172.609 331.11,173.609 330.5,174.5C 328.833,180.501 327.166,186.501 325.5,192.5C 324.463,193.93 323.796,195.597 323.5,197.5C 321.141,203.223 318.474,208.889 315.5,214.5C 307.737,229.925 297.07,242.925 283.5,253.5C 257.681,269.824 232.015,269.49 206.5,252.5C 192.902,242.578 182.235,230.245 174.5,215.5C 171.795,209.432 169.128,203.432 166.5,197.5C 165.89,196.609 165.557,195.609 165.5,194.5C 163.462,187.401 161.462,180.401 159.5,173.5C 159.5,173.167 159.5,172.833 159.5,172.5C 162.016,169.466 164.016,166.132 165.5,162.5C 172.915,179.838 182.248,196.004 193.5,211C 194.833,211.667 196.167,211.667 197.5,211C 199.543,207.747 201.71,204.58 204,201.5C 219.092,188.031 236.592,183.531 256.5,188C 270.976,190.559 281.976,198.059 289.5,210.5C 293.155,212.057 296.488,211.557 299.5,209C 311.379,194.407 319.379,177.907 323.5,159.5 Z"/></g>
<g><path style="opacity:1" fill="#e2ac78" d="M 159.5,173.5 C 161.462,180.401 163.462,187.401 165.5,194.5C 163.417,189.854 160.084,186.354 155.5,184C 148.741,183.643 146.407,186.81 148.5,193.5C 148.861,185.587 152.194,183.753 158.5,188C 161.818,190.795 163.318,194.295 163,198.5C 157.311,197.201 155.311,199.534 157,205.5C 157.893,206.711 158.726,206.711 159.5,205.5C 158.691,203.929 158.357,202.262 158.5,200.5C 161.157,200.162 163.49,200.829 165.5,202.5C 166.452,200.955 166.785,199.288 166.5,197.5C 169.128,203.432 171.795,209.432 174.5,215.5C 155.242,216.883 143.908,208.216 140.5,189.5C 142.07,178.248 148.404,172.915 159.5,173.5 Z"/></g>
<g><path style="opacity:1" fill="#e2ac79" d="M 330.5,174.5 C 336.324,173.588 341.49,174.922 346,178.5C 350.293,185.598 350.626,192.931 347,200.5C 339.862,212.312 329.362,216.979 315.5,214.5C 318.474,208.889 321.141,203.223 323.5,197.5C 323.215,199.288 323.548,200.955 324.5,202.5C 326.51,200.829 328.843,200.162 331.5,200.5C 331.08,202.674 331.08,204.674 331.5,206.5C 332.086,206.291 332.586,205.957 333,205.5C 334.689,199.534 332.689,197.201 327,198.5C 327.215,192.089 330.382,187.756 336.5,185.5C 337.442,185.608 338.275,185.941 339,186.5C 339.895,188.804 340.729,191.138 341.5,193.5C 343.602,186.178 340.935,183.011 333.5,184C 330.024,186.157 327.357,188.99 325.5,192.5C 327.166,186.501 328.833,180.501 330.5,174.5 Z"/></g>
<g><path style="opacity:1" fill="#da9077" d="M 188.5,179.5 C 193.947,178.826 198.947,179.992 203.5,183C 208.548,191.721 205.881,196.221 195.5,196.5C 185.748,196.276 181.915,191.609 184,182.5C 185.652,181.601 187.152,180.601 188.5,179.5 Z"/></g>
<g><path style="opacity:1" fill="#da9077" d="M 293.5,179.5 C 299.386,178.343 304.219,180.01 308,184.5C 308.431,190.118 305.931,193.951 300.5,196C 296.833,196.667 293.167,196.667 289.5,196C 284.857,193.928 283.357,190.428 285,185.5C 287.322,182.605 290.155,180.605 293.5,179.5 Z"/></g>
<g><path style="opacity:1" fill="#d68357" d="M 165.5,194.5 C 165.557,195.609 165.89,196.609 166.5,197.5C 166.785,199.288 166.452,200.955 165.5,202.5C 163.49,200.829 161.157,200.162 158.5,200.5C 158.357,202.262 158.691,203.929 159.5,205.5C 158.726,206.711 157.893,206.711 157,205.5C 155.311,199.534 157.311,197.201 163,198.5C 163.318,194.295 161.818,190.795 158.5,188C 152.194,183.753 148.861,185.587 148.5,193.5C 146.407,186.81 148.741,183.643 155.5,184C 160.084,186.354 163.417,189.854 165.5,194.5 Z"/></g>
<g><path style="opacity:1" fill="#d68458" d="M 323.5,197.5 C 323.796,195.597 324.463,193.93 325.5,192.5C 327.357,188.99 330.024,186.157 333.5,184C 340.935,183.011 343.602,186.178 341.5,193.5C 340.729,191.138 339.895,188.804 339,186.5C 338.275,185.941 337.442,185.608 336.5,185.5C 330.382,187.756 327.215,192.089 327,198.5C 332.689,197.201 334.689,199.534 333,205.5C 332.586,205.957 332.086,206.291 331.5,206.5C 331.08,204.674 331.08,202.674 331.5,200.5C 328.843,200.162 326.51,200.829 324.5,202.5C 323.548,200.955 323.215,199.288 323.5,197.5 Z"/></g>
<g><path style="opacity:1" fill="#fafafa" d="M 270.5,210.5 C 254.5,210.5 238.5,210.5 222.5,210.5C 220.96,208.162 220.294,205.495 220.5,202.5C 237.833,202.5 255.167,202.5 272.5,202.5C 272.706,205.495 272.04,208.162 270.5,210.5 Z"/></g>
<g><path style="opacity:1" fill="#c2c2c2" d="M 222.5,210.5 C 238.5,210.5 254.5,210.5 270.5,210.5C 270.573,212.027 269.906,213.027 268.5,213.5C 253.833,212.167 239.167,212.167 224.5,213.5C 223.094,213.027 222.427,212.027 222.5,210.5 Z"/></g>
<g><path style="opacity:1" fill="#fcfaf9" d="M 268.5,213.5 C 266.287,215.86 263.621,217.694 260.5,219C 251.143,222.226 241.809,222.226 232.5,219C 229.379,217.694 226.713,215.86 224.5,213.5C 239.167,212.167 253.833,212.167 268.5,213.5 Z"/></g>
<g><path style="opacity:1" fill="#d47e53" d="M 206.5,252.5 C 232.015,269.49 257.681,269.824 283.5,253.5C 283.5,255.5 283.5,257.5 283.5,259.5C 277.113,273.051 266.779,282.217 252.5,287C 236.311,289.493 223.144,284.326 213,271.5C 210.807,267.77 208.64,264.103 206.5,260.5C 206.5,257.833 206.5,255.167 206.5,252.5 Z"/></g>
<g><path style="opacity:1" fill="#e2ab79" d="M 283.5,259.5 C 283.5,262.833 283.5,266.167 283.5,269.5C 284.387,275.145 284.554,280.812 284,286.5C 280.553,293.614 275.386,299.114 268.5,303C 261.068,307.532 253.068,310.366 244.5,311.5C 230.337,309.502 218.503,303.169 209,292.5C 207.561,290.725 206.561,288.725 206,286.5C 205.694,280.952 205.527,275.618 205.5,270.5C 206.414,267.272 206.747,263.939 206.5,260.5C 208.64,264.103 210.807,267.77 213,271.5C 223.144,284.326 236.311,289.493 252.5,287C 266.779,282.217 277.113,273.051 283.5,259.5 Z"/></g>
<g><path style="opacity:1" fill="#9c393e" d="M 283.5,269.5 C 288.734,275.968 292.401,283.302 294.5,291.5C 293.43,310.551 286.43,327.051 273.5,341C 270.652,343.521 267.652,343.854 264.5,342C 255.914,334.643 249.414,325.81 245,315.5C 240.153,327.218 232.487,336.552 222,343.5C 215.401,340.569 210.401,335.902 207,329.5C 199.611,317.838 195.777,305.171 195.5,291.5C 197.498,283.838 200.832,276.838 205.5,270.5C 205.527,275.618 205.694,280.952 206,286.5C 206.561,288.725 207.561,290.725 209,292.5C 218.503,303.169 230.337,309.502 244.5,311.5C 253.068,310.366 261.068,307.532 268.5,303C 275.386,299.114 280.553,293.614 284,286.5C 284.554,280.812 284.387,275.145 283.5,269.5 Z"/></g>
<g><path style="opacity:1" fill="#c43c3d" d="M 195.5,291.5 C 195.777,305.171 199.611,317.838 207,329.5C 210.401,335.902 215.401,340.569 222,343.5C 232.487,336.552 240.153,327.218 245,315.5C 249.414,325.81 255.914,334.643 264.5,342C 267.652,343.854 270.652,343.521 273.5,341C 286.43,327.051 293.43,310.551 294.5,291.5C 295.163,293.042 295.83,294.709 296.5,296.5C 322.433,306.04 344.933,320.707 364,340.5C 386.78,365.332 397.613,394.666 396.5,428.5C 381.5,428.5 366.5,428.5 351.5,428.5C 351.5,413.5 351.5,398.5 351.5,383.5C 350.5,383.5 349.5,383.5 348.5,383.5C 348.5,398.5 348.5,413.5 348.5,428.5C 278.833,428.5 209.167,428.5 139.5,428.5C 139.5,413.5 139.5,398.5 139.5,383.5C 138.5,383.5 137.5,383.5 136.5,383.5C 136.5,398.5 136.5,413.5 136.5,428.5C 123.989,428.171 111.655,428.505 99.5,429.5C 97.6208,428.659 95.6208,428.325 93.5,428.5C 93.5,426.833 93.5,425.167 93.5,423.5C 93.4273,396.885 101.261,372.885 117,351.5C 137.564,326.453 163.064,308.12 193.5,296.5C 194.17,294.709 194.837,293.042 195.5,291.5 Z"/></g>
<g><path style="opacity:1" fill="#662321" d="M 236.5,332.5 C 237.83,338.631 238.497,345.131 238.5,352C 238.167,358.5 237.833,365 237.5,371.5C 236.501,358.517 236.168,345.517 236.5,332.5 Z"/></g>
<g><path style="opacity:1" fill="#682421" d="M 243.5,337.5 C 249.016,337.473 250.349,339.64 247.5,344C 241.738,344.418 240.404,342.251 243.5,337.5 Z"/></g>
<g><path style="opacity:1" fill="#6e2623" d="M 243.5,357.5 C 246.504,357.335 248.504,358.668 249.5,361.5C 246.613,366.711 243.946,366.711 241.5,361.5C 241.752,359.927 242.418,358.594 243.5,357.5 Z"/></g>
<g><path style="opacity:1" fill="#682422" d="M 139.5,428.5 C 138.5,428.5 137.5,428.5 136.5,428.5C 136.5,413.5 136.5,398.5 136.5,383.5C 137.5,383.5 138.5,383.5 139.5,383.5C 139.5,398.5 139.5,413.5 139.5,428.5 Z"/></g>
<g><path style="opacity:1" fill="#642320" d="M 351.5,428.5 C 350.5,428.5 349.5,428.5 348.5,428.5C 348.5,413.5 348.5,398.5 348.5,383.5C 349.5,383.5 350.5,383.5 351.5,383.5C 351.5,398.5 351.5,413.5 351.5,428.5 Z"/></g>
</svg>
