<?xml version="1.0" encoding="UTF-8"?>
<!DOCTYPE svg PUBLIC "-//W3C//DTD SVG 1.1//EN" "http://www.w3.org/Graphics/SVG/1.1/DTD/svg11.dtd">
<svg xmlns="http://www.w3.org/2000/svg" version="1.1" width="500px" height="500px" style="shape-rendering:geometricPrecision; text-rendering:geometricPrecision; image-rendering:optimizeQuality; fill-rule:evenodd; clip-rule:evenodd" xmlns:xlink="http://www.w3.org/1999/xlink">
<g><path style="opacity:0.956" fill="#033067" d="M 499.5,226.5 C 499.5,241.5 499.5,256.5 499.5,271.5C 489.907,352.223 451.24,414.723 383.5,459C 311.522,501.255 236.189,508.255 157.5,480C 65.3241,440.498 12.6574,370.998 -0.5,271.5C -0.5,256.5 -0.5,241.5 -0.5,226.5C 9.09228,145.779 47.7589,83.2792 115.5,39C 187.475,-3.25514 262.808,-10.2551 341.5,18C 415.725,48.6118 465.225,102.112 490,178.5C 494.285,194.424 497.452,210.424 499.5,226.5 Z"/></g>
<g><path style="opacity:1" fill="#fdcc00" d="M 408.5,421.5 C 400.629,398.492 388.462,378.159 372,360.5C 373.617,345.568 368.117,334.068 355.5,326C 350.526,322.679 345.193,320.179 339.5,318.5C 340.591,311.229 338.924,304.729 334.5,299C 346.295,284.282 352.129,267.449 352,248.5C 363.31,223.904 370.977,198.238 375,171.5C 379.643,128.078 366.143,91.5784 334.5,62C 294.288,31.8255 250.288,24.8255 202.5,41C 153.434,58.8944 126.934,94.061 123,146.5C 120.99,167.908 122.99,188.908 129,209.5C 133.803,223.576 138.803,237.576 144,251.5C 143.765,260.43 145.098,269.097 148,277.5C 151.747,285.335 156.247,292.668 161.5,299.5C 159.747,302.005 158.247,304.671 157,307.5C 156.895,311.37 156.062,315.037 154.5,318.5C 144.03,320.151 135.196,324.818 128,332.5C 122.454,340.488 121.287,348.988 124.5,358C 107.697,375.441 95.3635,395.608 87.5,418.5C 33.5556,366.543 9.0556,302.876 14,227.5C 25.6556,139.976 70.8223,76.4757 149.5,37C 216.942,8.13564 284.275,8.46897 351.5,38C 416.99,70.4936 459.49,121.994 479,192.5C 495.871,268.499 480.204,336.832 432,397.5C 424.662,406.005 416.828,414.005 408.5,421.5 Z"/></g>
<g><path style="opacity:1" fill="#4a0d2a" d="M 408.5,421.5 C 409.493,424.144 410.493,426.81 411.5,429.5C 410.99,431.088 409.99,432.255 408.5,433C 391.561,442.804 373.895,450.97 355.5,457.5C 309.347,470.602 262.347,474.769 214.5,470C 191.073,468.531 168.073,464.698 145.5,458.5C 127.089,453.46 109.755,445.96 93.5,436C 90.3333,434.167 87.8333,431.667 86,428.5C 86.1612,425.168 86.6612,421.835 87.5,418.5C 95.3635,395.608 107.697,375.441 124.5,358C 121.287,348.988 122.454,340.488 128,332.5C 135.196,324.818 144.03,320.151 154.5,318.5C 156.062,315.037 156.895,311.37 157,307.5C 158.247,304.671 159.747,302.005 161.5,299.5C 156.247,292.668 151.747,285.335 148,277.5C 145.098,269.097 143.765,260.43 144,251.5C 138.803,237.576 133.803,223.576 129,209.5C 122.99,188.908 120.99,167.908 123,146.5C 126.934,94.061 153.434,58.8944 202.5,41C 250.288,24.8255 294.288,31.8255 334.5,62C 366.143,91.5784 379.643,128.078 375,171.5C 370.977,198.238 363.31,223.904 352,248.5C 352.129,267.449 346.295,284.282 334.5,299C 338.924,304.729 340.591,311.229 339.5,318.5C 345.193,320.179 350.526,322.679 355.5,326C 368.117,334.068 373.617,345.568 372,360.5C 388.462,378.159 400.629,398.492 408.5,421.5 Z"/></g>
<g><path style="opacity:1" fill="#e9619f" d="M 347.5,85.5 C 353.984,98.0711 356.484,111.404 355,125.5C 353.867,127.211 352.367,127.711 350.5,127C 347.917,123.932 345.584,120.765 343.5,117.5C 342.899,113.631 341.232,110.298 338.5,107.5C 337.52,110.086 337.187,112.753 337.5,115.5C 337.676,120.88 337.342,126.213 336.5,131.5C 334.801,131.66 333.134,131.494 331.5,131C 320.714,114.589 306.047,102.922 287.5,96C 286.207,95.51 284.873,95.3433 283.5,95.5C 267.717,89.306 251.384,87.1394 234.5,89C 230.329,89.6693 226.329,90.8359 222.5,92.5C 204.636,96.0136 189.469,104.347 177,117.5C 174.095,122.129 170.595,126.296 166.5,130C 163.364,131.041 160.864,130.207 159,127.5C 157.851,124.607 157.351,121.607 157.5,118.5C 158.766,105.69 157.099,105.357 152.5,117.5C 148.608,123.607 144.941,129.94 141.5,136.5C 140.5,137.833 139.5,137.833 138.5,136.5C 137.372,129.884 137.205,123.218 138,116.5C 139.352,110.094 140.852,103.761 142.5,97.5C 151.208,79.291 164.541,65.4577 182.5,56C 231.244,30.234 278.91,32.234 325.5,62C 334.082,68.7464 341.416,76.5797 347.5,85.5 Z"/></g>
<g><path style="opacity:1" fill="#4a0e2b" d="M 283.5,95.5 C 307.76,108.611 324.594,128.278 334,154.5C 336.34,161.719 338.173,169.053 339.5,176.5C 342.626,162.139 343.293,147.639 341.5,133C 340.956,126.854 339.622,121.021 337.5,115.5C 337.187,112.753 337.52,110.086 338.5,107.5C 341.232,110.298 342.899,113.631 343.5,117.5C 348.6,139.086 348.767,160.752 344,182.5C 335.882,214.331 326.548,245.665 316,276.5C 324.364,268.47 332.364,260.137 340,251.5C 339.201,255.441 337.534,259.107 335,262.5C 323.436,276.697 310.269,289.197 295.5,300C 262.064,322.924 229.397,321.924 197.5,297C 185.148,287.55 173.648,277.05 163,265.5C 159.878,262.094 157.378,258.26 155.5,254C 156.167,253.333 156.833,253.333 157.5,254C 165.03,261.865 172.864,269.365 181,276.5C 168.242,244.877 158.242,212.21 151,178.5C 147.491,158.061 147.991,137.727 152.5,117.5C 157.099,105.357 158.766,105.69 157.5,118.5C 152.874,137.274 152.374,156.274 156,175.5C 163.433,135.939 185.599,108.272 222.5,92.5C 226.329,90.8359 230.329,89.6693 234.5,89C 251.384,87.1394 267.717,89.306 283.5,95.5 Z"/></g>
<g><path style="opacity:1" fill="#c74a90" d="M 347.5,85.5 C 359.824,100.339 366.824,117.506 368.5,137C 371.519,154.604 371.019,172.104 367,189.5C 361.721,209.006 355.054,228.006 347,246.5C 346.667,252.5 346.333,258.5 346,264.5C 345.295,267.476 344.129,270.142 342.5,272.5C 326.264,287.283 309.264,301.116 291.5,314C 294.397,315.772 297.397,315.772 300.5,314C 309.662,310.258 317.996,305.258 325.5,299C 326.448,298.517 327.448,298.351 328.5,298.5C 323.814,303.97 320.314,309.97 318,316.5C 319.049,317.517 320.216,317.684 321.5,317C 324.955,312.589 328.289,308.089 331.5,303.5C 332.298,303.957 332.631,304.624 332.5,305.5C 327.674,311.137 323.841,317.47 321,324.5C 320.333,326.5 320.333,328.5 321,330.5C 327.582,332.484 334.082,334.651 340.5,337C 344.337,340.823 347.337,345.156 349.5,350C 348.799,352.38 347.633,354.547 346,356.5C 340.318,362.015 334.818,367.681 329.5,373.5C 336.533,374.414 343.533,374.081 350.5,372.5C 318.189,396.101 281.855,407.601 241.5,407C 217.407,404.483 194.74,397.649 173.5,386.5C 194.511,389.257 215.511,389.09 236.5,386C 243.046,385.092 249.379,383.425 255.5,381C 235.54,375.019 216.874,366.352 199.5,355C 187.413,346.247 177.413,335.581 169.5,323C 167.966,322.077 166.299,321.577 164.5,321.5C 160.414,323.07 156.414,324.904 152.5,327C 150.288,327.789 148.288,327.622 146.5,326.5C 150.351,325.245 154.185,323.911 158,322.5C 158.756,315.563 161.089,309.229 165,303.5C 168.167,306.667 171.333,309.833 174.5,313C 176.391,313.309 177.725,312.475 178.5,310.5C 168.637,301.094 160.47,290.427 154,278.5C 149.852,269.185 148.518,259.518 150,249.5C 140.948,230.343 134.281,210.343 130,189.5C 125.666,164.836 127,140.502 134,116.5C 136.334,109.84 139.168,103.507 142.5,97.5C 140.852,103.761 139.352,110.094 138,116.5C 137.205,123.218 137.372,129.884 138.5,136.5C 139.5,137.833 140.5,137.833 141.5,136.5C 144.941,129.94 148.608,123.607 152.5,117.5C 147.991,137.727 147.491,158.061 151,178.5C 158.242,212.21 168.242,244.877 181,276.5C 172.864,269.365 165.03,261.865 157.5,254C 156.833,253.333 156.167,253.333 155.5,254C 157.378,258.26 159.878,262.094 163,265.5C 173.648,277.05 185.148,287.55 197.5,297C 229.397,321.924 262.064,322.924 295.5,300C 310.269,289.197 323.436,276.697 335,262.5C 337.534,259.107 339.201,255.441 340,251.5C 332.364,260.137 324.364,268.47 316,276.5C 326.548,245.665 335.882,214.331 344,182.5C 348.767,160.752 348.6,139.086 343.5,117.5C 345.584,120.765 347.917,123.932 350.5,127C 352.367,127.711 353.867,127.211 355,125.5C 356.484,111.404 353.984,98.0711 347.5,85.5 Z"/></g>
<g><path style="opacity:1" fill="#fcdec9" d="M 237.5,93.5 C 269.682,91.0411 295.182,102.708 314,128.5C 327.512,146.536 334.345,166.869 334.5,189.5C 332.194,189.007 329.861,188.674 327.5,188.5C 322.401,169.082 309.734,159.416 289.5,159.5C 270.748,160.247 259.748,169.914 256.5,188.5C 250.344,185.922 244.177,185.922 238,188.5C 234.814,169.245 223.48,159.578 204,159.5C 185.242,159.797 172.742,168.797 166.5,186.5C 164.5,187.5 162.5,188.5 160.5,189.5C 160.032,167.073 166.865,147.073 181,129.5C 196.146,111.522 214.979,99.5217 237.5,93.5 Z"/></g>
<g><path style="opacity:1" fill="#c64a8f" d="M 222.5,92.5 C 185.599,108.272 163.433,135.939 156,175.5C 152.374,156.274 152.874,137.274 157.5,118.5C 157.351,121.607 157.851,124.607 159,127.5C 160.864,130.207 163.364,131.041 166.5,130C 170.595,126.296 174.095,122.129 177,117.5C 189.469,104.347 204.636,96.0136 222.5,92.5 Z"/></g>
<g><path style="opacity:1" fill="#c64a8f" d="M 283.5,95.5 C 284.873,95.3433 286.207,95.51 287.5,96C 306.047,102.922 320.714,114.589 331.5,131C 333.134,131.494 334.801,131.66 336.5,131.5C 337.342,126.213 337.676,120.88 337.5,115.5C 339.622,121.021 340.956,126.854 341.5,133C 343.293,147.639 342.626,162.139 339.5,176.5C 338.173,169.053 336.34,161.719 334,154.5C 324.594,128.278 307.76,108.611 283.5,95.5 Z"/></g>
<g><path style="opacity:1" fill="#4c122b" d="M 204.5,127.5 C 212.054,126.323 216.221,129.323 217,136.5C 209.798,139.851 202.631,143.351 195.5,147C 194.207,147.49 192.873,147.657 191.5,147.5C 191.802,138.201 196.135,131.534 204.5,127.5 Z"/></g>
<g><path style="opacity:1" fill="#4c122a" d="M 282.5,127.5 C 295.044,127.882 301.877,134.216 303,146.5C 302.586,146.957 302.086,147.291 301.5,147.5C 293.943,144.037 286.277,140.871 278.5,138C 276.439,133.186 277.772,129.686 282.5,127.5 Z"/></g>
<g><path style="opacity:1" fill="#b86229" d="M 202.5,132.5 C 205.518,132.335 208.518,132.502 211.5,133C 211.957,133.414 212.291,133.914 212.5,134.5C 206.189,136.653 200.356,139.653 195,143.5C 194.48,141.711 194.813,140.044 196,138.5C 198.063,136.266 200.229,134.266 202.5,132.5 Z"/></g>
<g><path style="opacity:1" fill="#b66129" d="M 282.5,132.5 C 290.413,131.123 296.08,133.956 299.5,141C 299.167,141.5 298.833,142 298.5,142.5C 293.029,139.452 287.362,136.786 281.5,134.5C 281.863,133.817 282.196,133.15 282.5,132.5 Z"/></g>
<g><path style="opacity:1" fill="#fdf1ea" d="M 195.5,164.5 C 221.348,162.185 233.515,173.852 232,199.5C 224.326,221.085 209.826,227.585 188.5,219C 175.401,209.703 170.567,197.203 174,181.5C 179.266,173.398 186.433,167.731 195.5,164.5 Z"/></g>
<g><path style="opacity:1" fill="#fdf1e9" d="M 282.5,164.5 C 293.478,163.244 303.478,165.744 312.5,172C 321.043,178.923 323.877,187.756 321,198.5C 314.619,217.45 301.452,225.283 281.5,222C 266.51,214.527 260.01,202.361 262,185.5C 265.043,174.626 271.876,167.626 282.5,164.5 Z"/></g>
<g><path style="opacity:1" fill="#50172d" d="M 211.5,187.5 C 215.58,187.081 217.58,188.914 217.5,193C 217.778,197.732 215.778,200.899 211.5,202.5C 208.706,201.602 207.372,199.602 207.5,196.5C 208.03,193.11 209.363,190.11 211.5,187.5 Z"/></g>
<g><path style="opacity:1" fill="#4f162d" d="M 278.5,187.5 C 285.241,188.622 287.741,192.622 286,199.5C 282.995,203.595 280.329,203.261 278,198.5C 275.888,194.617 276.055,190.95 278.5,187.5 Z"/></g>
<g><path style="opacity:1" fill="#fddfc9" d="M 240.5,191.5 C 252.519,189.566 258.686,194.566 259,206.5C 271.711,229.804 289.544,234.638 312.5,221C 321.553,214.06 326.22,204.893 326.5,193.5C 329.167,194.167 331.833,194.833 334.5,195.5C 328.669,220.166 321.503,244.499 313,268.5C 300.754,291.051 281.92,304.884 256.5,310C 249.167,310.667 241.833,310.667 234.5,310C 206.522,301.356 187.688,283.189 178,255.5C 171.855,236.287 166.022,216.954 160.5,197.5C 162.118,195.684 164.118,194.351 166.5,193.5C 172.653,220.733 189.32,231.566 216.5,226C 230.268,219.654 237.434,208.821 238,193.5C 238.995,192.934 239.828,192.267 240.5,191.5 Z"/></g>
<g><path style="opacity:1" fill="#52182b" d="M 255.5,225.5 C 257.167,225.5 258.833,225.5 260.5,225.5C 259.616,232.219 255.783,236.219 249,237.5C 243.233,236.196 239.066,232.863 236.5,227.5C 236.833,227.167 237.167,226.833 237.5,226.5C 243.752,229.246 249.752,228.913 255.5,225.5 Z"/></g>
<g><path style="opacity:1" fill="#e7a288" d="M 253.5,229.5 C 254.376,229.369 255.043,229.702 255.5,230.5C 251.604,235.081 247.27,235.581 242.5,232C 246.43,231.758 250.097,230.925 253.5,229.5 Z"/></g>
<g><path style="opacity:1" fill="#4f152b" d="M 266.5,254.5 C 269.272,254.595 271.272,255.929 272.5,258.5C 268.408,262.089 264.408,265.922 260.5,270C 247.953,277.319 236.953,275.653 227.5,265C 226.552,264.517 225.552,264.351 224.5,264.5C 224.5,261.167 226.167,259.5 229.5,259.5C 233.4,268.784 240.4,272.284 250.5,270C 257.032,268.46 262.199,264.96 266,259.5C 266.494,257.866 266.66,256.199 266.5,254.5 Z"/></g>
<g><path style="opacity:1" fill="#e8619e" d="M 342.5,272.5 C 338.863,281.777 334.196,290.444 328.5,298.5C 327.448,298.351 326.448,298.517 325.5,299C 317.996,305.258 309.662,310.258 300.5,314C 297.397,315.772 294.397,315.772 291.5,314C 309.264,301.116 326.264,287.283 342.5,272.5 Z"/></g>
<g><path style="opacity:1" fill="#e8619e" d="M 332.5,305.5 C 333.793,306.842 334.626,308.509 335,310.5C 335.333,314.167 335.667,317.833 336,321.5C 343.749,325.623 351.249,330.123 358.5,335C 366.584,342.573 368.417,351.406 364,361.5C 359.626,365.379 355.126,369.046 350.5,372.5C 343.533,374.081 336.533,374.414 329.5,373.5C 334.818,367.681 340.318,362.015 346,356.5C 347.633,354.547 348.799,352.38 349.5,350C 347.337,345.156 344.337,340.823 340.5,337C 334.082,334.651 327.582,332.484 321,330.5C 320.333,328.5 320.333,326.5 321,324.5C 323.841,317.47 327.674,311.137 332.5,305.5 Z"/></g>
<g><path style="opacity:1" fill="#e9619f" d="M 173.5,386.5 C 156.292,379.487 141.459,369.154 129,355.5C 126.635,340.898 132.468,331.231 146.5,326.5C 148.288,327.622 150.288,327.789 152.5,327C 156.414,324.904 160.414,323.07 164.5,321.5C 166.299,321.577 167.966,322.077 169.5,323C 177.413,335.581 187.413,346.247 199.5,355C 216.874,366.352 235.54,375.019 255.5,381C 249.379,383.425 243.046,385.092 236.5,386C 215.511,389.09 194.511,389.257 173.5,386.5 Z"/></g>
<g><path style="opacity:1" fill="#4a0c2b" d="M 185.5,322.5 C 185.897,321.475 186.563,321.308 187.5,322C 195.131,329.143 203.131,335.81 211.5,342C 229.05,348.996 247.05,350.329 265.5,346C 277.631,341.764 289.631,337.264 301.5,332.5C 290.097,352.049 272.764,361.549 249.5,361C 266.16,366.013 283.16,367.68 300.5,366C 312.42,363.245 324.087,359.912 335.5,356C 317.592,367.727 297.926,372.727 276.5,371C 238.959,367.902 208.626,351.735 185.5,322.5 Z"/></g>
<g><path style="opacity:1" fill="#c3498a" d="M 291.5,340.5 C 292.239,340.369 292.906,340.536 293.5,341C 275.871,359.165 255.537,363.498 232.5,354C 250.991,355.366 268.657,352.366 285.5,345C 287.747,343.723 289.747,342.223 291.5,340.5 Z"/></g>
<g><path style="opacity:1" fill="#df792f" d="M 126.5,362.5 C 133.987,368.477 141.654,374.31 149.5,380C 157.848,385.175 166.515,389.842 175.5,394C 156.341,388.25 139.341,378.584 124.5,365C 125.381,364.292 126.047,363.458 126.5,362.5 Z"/></g>
<g><path style="opacity:1" fill="#fcb561" d="M 368.5,364.5 C 375.9,372.074 382.4,380.408 388,389.5C 394.612,402.014 400.446,414.847 405.5,428C 382.087,442.039 357.087,452.205 330.5,458.5C 330.999,454.51 331.499,450.51 332,446.5C 332.333,427.833 332.667,409.167 333,390.5C 346.139,383.515 357.972,374.849 368.5,364.5 Z"/></g>
<g><path style="opacity:1" fill="#fdb662" d="M 121.5,367.5 C 158.4,394.359 199.733,409.359 245.5,412.5C 244.584,430.48 244.25,448.48 244.5,466.5C 216.233,465.711 188.233,462.544 160.5,457C 134.744,452.146 111.411,441.979 90.5,426.5C 96.9288,404.637 107.262,384.97 121.5,367.5 Z"/></g>
<g><path style="opacity:1" fill="#e9619e" d="M 326.5,393.5 C 327.974,415.379 327.64,437.379 325.5,459.5C 300.409,464.319 275.076,466.652 249.5,466.5C 250.446,448.528 250.779,430.528 250.5,412.5C 262.914,411.731 275.247,410.564 287.5,409C 286.1,423.134 286.267,437.3 288,451.5C 290,455.5 292,455.5 294,451.5C 294.263,446.983 295.263,442.649 297,438.5C 298.001,427.147 299.168,415.813 300.5,404.5C 309.431,401.198 318.097,397.531 326.5,393.5 Z"/></g>
<g><path style="opacity:1" fill="#c74990" d="M 293.5,445.5 C 292.505,432.677 292.171,419.677 292.5,406.5C 294.117,405.962 295.784,405.629 297.5,405.5C 296.239,418.844 294.906,432.178 293.5,445.5 Z"/></g>
<g><path style="opacity:1" fill="#a04850" d="M 292.5,406.5 C 292.171,419.677 292.505,432.677 293.5,445.5C 293.291,446.922 292.791,448.255 292,449.5C 291.173,434.994 291.339,420.661 292.5,406.5 Z"/></g>
<g><path style="opacity:1" fill="#f4c409" d="M 355.5,457.5 C 304.86,481.999 251.86,488.499 196.5,477C 178.632,472.881 161.632,466.714 145.5,458.5C 168.073,464.698 191.073,468.531 214.5,470C 262.347,474.769 309.347,470.602 355.5,457.5 Z"/></g>
</svg>
