<?xml version="1.0" encoding="UTF-8"?>
<!DOCTYPE svg PUBLIC "-//W3C//DTD SVG 1.1//EN" "http://www.w3.org/Graphics/SVG/1.1/DTD/svg11.dtd">
<svg xmlns="http://www.w3.org/2000/svg" version="1.1" width="500px" height="500px" style="shape-rendering:geometricPrecision; text-rendering:geometricPrecision; image-rendering:optimizeQuality; fill-rule:evenodd; clip-rule:evenodd" xmlns:xlink="http://www.w3.org/1999/xlink">
<g><path style="opacity:0.956" fill="#033067" d="M 499.5,226.5 C 499.5,241.5 499.5,256.5 499.5,271.5C 489.907,352.223 451.24,414.723 383.5,459C 311.522,501.255 236.189,508.255 157.5,480C 65.3241,440.498 12.6574,370.998 -0.5,271.5C -0.5,256.5 -0.5,241.5 -0.5,226.5C 9.09228,145.779 47.7589,83.2792 115.5,39C 187.475,-3.25514 262.808,-10.2551 341.5,18C 415.725,48.6118 465.225,102.112 490,178.5C 494.285,194.424 497.452,210.424 499.5,226.5 Z"/></g>
<g><path style="opacity:1" fill="#490e2a" d="M 259.5,15.5 C 261.302,16.4582 263.302,17.1249 265.5,17.5C 285.59,22.7112 303.59,31.8779 319.5,45C 327.366,53.8899 333.866,63.7232 339,74.5C 360.193,82.0377 372.193,97.0377 375,119.5C 376.114,132.991 375.114,146.324 372,159.5C 369.229,170.188 366.396,180.855 363.5,191.5C 365.583,192.959 367.75,194.292 370,195.5C 371.439,197.275 372.439,199.275 373,201.5C 374.529,221.246 368.696,238.413 355.5,253C 348.439,256.695 340.939,258.528 333,258.5C 325.143,277.235 312.809,292.235 296,303.5C 294.931,306.208 293.764,308.875 292.5,311.5C 309.772,327.277 327.772,342.111 346.5,356C 370.418,376.388 387.751,401.221 398.5,430.5C 398.662,432.527 398.495,434.527 398,436.5C 385.59,448.459 371.09,456.959 354.5,462C 347.227,464.152 339.894,465.985 332.5,467.5C 276.469,474.166 220.469,473.833 164.5,466.5C 140.336,463.393 118.336,454.893 98.5,441C 95.628,438.463 93.128,435.63 91,432.5C 90.3412,429.112 90.5078,425.779 91.5,422.5C 92.8722,415.75 95.3722,409.417 99,403.5C 116.594,375.906 139.427,353.739 167.5,337C 176.919,326.91 186.919,317.577 197.5,309C 196.917,306.501 195.584,304.501 193.5,303C 176.715,292.374 164.382,277.874 156.5,259.5C 150.24,262.403 144.24,261.903 138.5,258C 132.955,254.122 128.455,249.289 125,243.5C 120.763,234.547 117.763,225.213 116,215.5C 115.333,210.5 115.333,205.5 116,200.5C 118.121,195.356 121.954,192.522 127.5,192C 122.664,180.658 119.664,168.825 118.5,156.5C 113.508,157.508 111.508,155.508 112.5,150.5C 119.537,103.903 142.204,67.0696 180.5,40C 200.286,28.5751 221.619,23.2418 244.5,24C 241.553,21.5644 239.22,18.7311 237.5,15.5C 237.685,13.1104 239.018,12.1104 241.5,12.5C 247.468,13.7607 253.468,14.7607 259.5,15.5 Z"/></g>
<g><path style="opacity:1" fill="#877430" d="M 259.5,15.5 C 263.371,15.185 267.038,15.5184 270.5,16.5C 268.585,16.2155 266.919,16.5489 265.5,17.5C 263.302,17.1249 261.302,16.4582 259.5,15.5 Z"/></g>
<g><path style="opacity:1" fill="#fdcc01" d="M 237.5,15.5 C 239.22,18.7311 241.553,21.5644 244.5,24C 221.619,23.2418 200.286,28.5751 180.5,40C 142.204,67.0696 119.537,103.903 112.5,150.5C 111.508,155.508 113.508,157.508 118.5,156.5C 119.664,168.825 122.664,180.658 127.5,192C 121.954,192.522 118.121,195.356 116,200.5C 115.333,205.5 115.333,210.5 116,215.5C 117.763,225.213 120.763,234.547 125,243.5C 128.455,249.289 132.955,254.122 138.5,258C 144.24,261.903 150.24,262.403 156.5,259.5C 164.382,277.874 176.715,292.374 193.5,303C 195.584,304.501 196.917,306.501 197.5,309C 186.919,317.577 176.919,326.91 167.5,337C 139.427,353.739 116.594,375.906 99,403.5C 95.3722,409.417 92.8722,415.75 91.5,422.5C 34.8498,370.103 9.01651,305.103 14,227.5C 26.9854,132.329 77.8188,66.4961 166.5,30C 189.425,21.515 213.092,16.6816 237.5,15.5 Z"/></g>
<g><path style="opacity:1" fill="#fdcc00" d="M 265.5,17.5 C 266.919,16.5489 268.585,16.2155 270.5,16.5C 358.26,26.4757 422.427,70.4757 463,148.5C 491.596,211.883 492.929,275.883 467,340.5C 451.115,375.873 428.282,405.873 398.5,430.5C 387.751,401.221 370.418,376.388 346.5,356C 327.772,342.111 309.772,327.277 292.5,311.5C 293.764,308.875 294.931,306.208 296,303.5C 312.809,292.235 325.143,277.235 333,258.5C 340.939,258.528 348.439,256.695 355.5,253C 368.696,238.413 374.529,221.246 373,201.5C 372.439,199.275 371.439,197.275 370,195.5C 367.75,194.292 365.583,192.959 363.5,191.5C 366.396,180.855 369.229,170.188 372,159.5C 375.114,146.324 376.114,132.991 375,119.5C 372.193,97.0377 360.193,82.0377 339,74.5C 333.866,63.7232 327.366,53.8899 319.5,45C 303.59,31.8779 285.59,22.7112 265.5,17.5 Z"/></g>
<g><path style="opacity:1" fill="#765d5c" d="M 364.5,169.5 C 370.891,130.96 357.391,101.96 324,82.5C 323.054,76.2739 320.721,70.6072 317,65.5C 309.459,55.8049 299.959,48.6382 288.5,44C 280.317,40.8286 272.15,37.6619 264,34.5C 263.333,35.1667 263.333,35.8333 264,36.5C 267.071,39.6475 269.904,42.9809 272.5,46.5C 271.5,46.8333 270.5,47.1667 269.5,47.5C 223.827,36.0029 186.327,48.3362 157,84.5C 145.414,99.6665 136.414,116.333 130,134.5C 129.333,137.833 129.333,141.167 130,144.5C 133.658,139.327 137.824,135.327 142.5,132.5C 133.346,146.456 129.846,161.789 132,178.5C 132.975,184.156 133.808,189.823 134.5,195.5C 132.066,194.229 130.566,192.229 130,189.5C 126.892,176.993 124.058,164.493 121.5,152C 120.101,151.405 118.768,151.572 117.5,152.5C 117.149,139.227 119.982,126.56 126,114.5C 138.91,85.8182 158.077,62.3182 183.5,44C 207.125,30.4437 232.458,25.9437 259.5,30.5C 259.719,29.325 259.386,28.325 258.5,27.5C 252.953,26.1202 248.286,23.2868 244.5,19C 274.378,21.524 299.878,33.3573 321,54.5C 326.46,61.9148 331.293,69.7481 335.5,78C 359.22,87.0771 371.22,104.41 371.5,130C 370.62,143.552 368.287,156.718 364.5,169.5 Z"/></g>
<g><path style="opacity:1" fill="#554c4d" d="M 364.5,169.5 C 363.142,177.266 361.309,184.932 359,192.5C 354.556,194.304 350.722,196.971 347.5,200.5C 341.78,185.439 340.113,169.939 342.5,154C 338.742,146.233 336.742,138.066 336.5,129.5C 329.503,130.831 322.503,132.331 315.5,134C 309.109,134.758 302.776,134.424 296.5,133C 305.51,128.644 313.343,122.811 320,115.5C 320.49,114.207 320.657,112.873 320.5,111.5C 316.891,112.638 313.558,114.304 310.5,116.5C 310.158,117.338 309.492,117.672 308.5,117.5C 301.982,119.631 295.316,120.464 288.5,120C 298.495,114.51 305.828,106.677 310.5,96.5C 305.771,98.7005 301.104,101.201 296.5,104C 290.205,105.824 283.872,107.49 277.5,109C 265.469,117.343 252.135,121.01 237.5,120C 245.25,111.914 253.25,104.247 261.5,97C 248.904,102.972 235.571,106.972 221.5,109C 208.215,126.464 190.881,136.964 169.5,140.5C 172.328,134.514 174.662,128.348 176.5,122C 176.167,121.167 175.833,120.333 175.5,119.5C 167.175,129.991 157.675,139.325 147,147.5C 148.462,165.664 147.295,183.664 143.5,201.5C 143.167,202.167 142.833,202.833 142.5,203.5C 140.118,200.452 137.452,197.785 134.5,195.5C 133.808,189.823 132.975,184.156 132,178.5C 129.846,161.789 133.346,146.456 142.5,132.5C 137.824,135.327 133.658,139.327 130,144.5C 129.333,141.167 129.333,137.833 130,134.5C 136.414,116.333 145.414,99.6665 157,84.5C 186.327,48.3362 223.827,36.0029 269.5,47.5C 270.5,47.1667 271.5,46.8333 272.5,46.5C 269.904,42.9809 267.071,39.6475 264,36.5C 263.333,35.8333 263.333,35.1667 264,34.5C 272.15,37.6619 280.317,40.8286 288.5,44C 299.959,48.6382 309.459,55.8049 317,65.5C 320.721,70.6072 323.054,76.2739 324,82.5C 357.391,101.96 370.891,130.96 364.5,169.5 Z"/></g>
<g><path style="opacity:1" fill="#fdc19e" d="M 308.5,117.5 C 309.492,117.672 310.158,117.338 310.5,116.5C 312.842,116.775 312.842,117.608 310.5,119C 304.333,123.167 298.167,127.333 292,131.5C 291.37,133.903 292.203,135.737 294.5,137C 301.753,138.557 309.086,138.89 316.5,138C 321.854,136.828 327.187,135.661 332.5,134.5C 332.793,140.798 334.293,146.798 337,152.5C 336.668,172.485 339.501,191.318 345.5,209C 349.811,203.277 355.311,199.444 362,197.5C 365.439,197.334 367.439,199.001 368,202.5C 369.845,221.311 364.012,237.144 350.5,250C 345.901,252.867 340.901,254.034 335.5,253.5C 335.548,250.687 336.215,248.021 337.5,245.5C 342.086,242.624 346.586,239.624 351,236.5C 352.408,231.924 354.741,227.924 358,224.5C 359.999,219.02 361.166,213.354 361.5,207.5C 360.448,207.351 359.448,207.517 358.5,208C 351.828,215.179 348.328,223.679 348,233.5C 345.333,235.5 342.667,237.5 340,239.5C 341.634,230.832 343.467,222.166 345.5,213.5C 342.95,213.561 341.45,214.894 341,217.5C 336.737,231.621 332.071,245.621 327,259.5C 308.031,297.066 277.531,315.233 235.5,314C 211.242,309.123 190.742,297.623 174,279.5C 168.635,272.107 164.302,264.107 161,255.5C 156.379,242.467 151.879,229.467 147.5,216.5C 146.311,215.571 144.978,215.238 143.5,215.5C 144.668,224.008 147.002,232.175 150.5,240C 146.268,239.697 142.434,238.197 139,235.5C 141.844,225.558 139.344,217.392 131.5,211C 130.552,210.517 129.552,210.351 128.5,210.5C 128.5,211.5 128.5,212.5 128.5,213.5C 128.139,219.065 129.473,224.065 132.5,228.5C 134.268,232.308 135.934,236.142 137.5,240C 142.54,241.677 147.373,243.844 152,246.5C 153.474,249.756 154.64,253.089 155.5,256.5C 146.885,256.942 139.719,253.942 134,247.5C 124.399,234.029 120.065,219.029 121,202.5C 123.705,196.867 127.538,196.033 132.5,200C 136.072,203.815 139.405,207.815 142.5,212C 143.449,212.617 144.282,212.451 145,211.5C 147.126,201.201 149.126,190.868 151,180.5C 151.752,171.145 151.586,161.812 150.5,152.5C 150.39,150.626 151.056,149.126 152.5,148C 157.98,143.807 163.313,139.807 168.5,136C 166.03,138.763 165.196,141.93 166,145.5C 179.576,144.416 192.076,139.916 203.5,132C 210.522,125.976 217.189,119.643 223.5,113C 229.178,111.996 234.845,111.329 240.5,111C 237.948,113.853 235.115,116.353 232,118.5C 229.855,120.895 230.022,123.062 232.5,125C 248.913,127.057 263.58,123.057 276.5,113C 282.534,111.772 288.534,110.772 294.5,110C 290.09,113.621 285.59,117.121 281,120.5C 280.493,121.996 280.993,123.163 282.5,124C 291.622,123.386 300.288,121.22 308.5,117.5 Z"/></g>
<g><path style="opacity:1" fill="#470a28" d="M 201.5,139.5 C 209.794,138.036 213.294,141.37 212,149.5C 210.499,151.584 208.499,152.917 206,153.5C 199.496,155.398 192.996,156.898 186.5,158C 185.251,155.79 185.418,153.624 187,151.5C 191.149,146.503 195.983,142.503 201.5,139.5 Z"/></g>
<g><path style="opacity:1" fill="#480c29" d="M 282.5,139.5 C 291.401,140.202 298.568,144.202 304,151.5C 306.444,154.714 305.944,157.048 302.5,158.5C 295.322,156.898 288.322,154.731 281.5,152C 277.286,147.361 277.619,143.195 282.5,139.5 Z"/></g>
<g><path style="opacity:1" fill="#765854" d="M 201.5,143.5 C 203.527,143.338 205.527,143.505 207.5,144C 208.747,145.494 208.747,146.994 207.5,148.5C 201.944,151.887 195.944,153.721 189.5,154C 192.929,149.795 196.929,146.295 201.5,143.5 Z"/></g>
<g><path style="opacity:1" fill="#775955" d="M 283.5,143.5 C 287.131,143.16 290.464,143.994 293.5,146C 296.167,148.667 298.833,151.333 301.5,154C 295.215,153.594 289.215,151.927 283.5,149C 282.248,147.172 282.248,145.339 283.5,143.5 Z"/></g>
<g><path style="opacity:1" fill="#460a29" d="M 203.5,181.5 C 210.49,180.305 213.49,183.139 212.5,190C 213.611,196.907 210.944,201.407 204.5,203.5C 199.319,201.509 196.986,197.676 197.5,192C 197.324,187.177 199.324,183.677 203.5,181.5 Z"/></g>
<g><path style="opacity:1" fill="#460a29" d="M 281.5,181.5 C 286.814,180.74 290.647,182.74 293,187.5C 294.357,193.584 292.857,198.75 288.5,203C 283.511,203.7 280.345,201.533 279,196.5C 278.333,192.167 278.333,187.833 279,183.5C 279.995,182.934 280.828,182.267 281.5,181.5 Z"/></g>
<g><path style="opacity:1" fill="#da7960" d="M 358.5,212.5 C 359.622,214.288 359.789,216.288 359,218.5C 357.587,221.661 355.92,224.661 354,227.5C 352.513,225.728 352.18,223.728 353,221.5C 354.662,218.351 356.495,215.351 358.5,212.5 Z"/></g>
<g><path style="opacity:1" fill="#cb705a" d="M 128.5,213.5 C 135.046,217.348 137.212,223.015 135,230.5C 134.292,229.619 133.458,228.953 132.5,228.5C 129.473,224.065 128.139,219.065 128.5,213.5 Z"/></g>
<g><path style="opacity:1" fill="#4d112a" d="M 257.5,227.5 C 258.833,227.5 260.167,227.5 261.5,227.5C 258.91,235.746 253.243,240.412 244.5,241.5C 237.356,239.927 232.023,235.927 228.5,229.5C 229,229.167 229.5,228.833 230,228.5C 239.449,231.451 248.615,231.118 257.5,227.5 Z"/></g>
<g><path style="opacity:1" fill="#db7a61" d="M 251.5,232.5 C 253.199,232.34 254.866,232.506 256.5,233C 249.913,240.923 242.913,241.423 235.5,234.5C 240.985,233.833 246.319,233.167 251.5,232.5 Z"/></g>
<g><path style="opacity:1" fill="#4d122a" d="M 275.5,247.5 C 280.187,247.848 283.52,250.181 285.5,254.5C 278.139,257.232 270.806,260.065 263.5,263C 254.925,264.868 246.259,266.035 237.5,266.5C 233.744,266.537 230.078,266.037 226.5,265C 225.663,263.989 225.33,262.822 225.5,261.5C 243.189,264.91 259.856,262.243 275.5,253.5C 275.92,251.674 275.92,249.674 275.5,247.5 Z"/></g>
<g><path style="opacity:1" fill="#ee856e" d="M 213.5,326.5 C 210.269,321.053 206.769,315.719 203,310.5C 202.312,309.668 202.479,309.002 203.5,308.5C 231.943,322.921 260.276,323.088 288.5,309C 276.888,322.307 262.555,331.307 245.5,336C 239.763,336.789 234.097,336.456 228.5,335C 223.101,332.744 218.101,329.91 213.5,326.5 Z"/></g>
<g><path style="opacity:1" fill="#8db6d7" d="M 197.5,314.5 C 198.649,314.791 199.316,315.624 199.5,317C 200.372,322.139 201.038,327.306 201.5,332.5C 197.882,376.421 196.548,420.421 197.5,464.5C 192.786,464.827 188.12,464.493 183.5,463.5C 176.757,455.012 170.257,446.346 164,437.5C 156.718,425.861 156.718,414.195 164,402.5C 173.675,387.815 183.842,373.482 194.5,359.5C 193.998,358.479 193.332,358.312 192.5,359C 183.962,367.869 175.796,377.036 168,386.5C 160.201,381.884 155.368,375.218 153.5,366.5C 153.515,364.366 154.015,362.366 155,360.5C 167.59,343.742 181.756,328.409 197.5,314.5 Z"/></g>
<g><path style="opacity:1" fill="#8db6d8" d="M 291.5,316.5 C 307.518,329.686 321.684,344.686 334,361.5C 337.333,366.5 337.333,371.5 334,376.5C 331.197,381.102 327.697,385.102 323.5,388.5C 316.261,376.429 307.094,366.096 296,357.5C 295.833,357.833 295.667,358.167 295.5,358.5C 304.528,371.029 313.361,383.695 322,396.5C 326.626,404.412 330.126,412.746 332.5,421.5C 330.796,428.914 327.963,435.914 324,442.5C 319.333,449.833 314.667,457.167 310,464.5C 305.222,465.315 300.389,465.981 295.5,466.5C 296.225,428.769 295.058,391.103 292,353.5C 291.222,345.432 290.055,337.432 288.5,329.5C 289.041,325.023 290.041,320.689 291.5,316.5 Z"/></g>
<g><path style="opacity:1" fill="#fcc09d" d="M 213.5,326.5 C 222.592,336.694 233.925,340.194 247.5,337C 261.979,333.679 274.479,326.846 285,316.5C 285.237,332.158 285.903,347.825 287,363.5C 270.014,375.377 251.181,379.877 230.5,377C 220.713,375.356 212.213,371.19 205,364.5C 204.197,349.805 204.53,335.139 206,320.5C 208.086,323.094 210.586,325.094 213.5,326.5 Z"/></g>
<g><path style="opacity:1" fill="#6394c7" d="M 162.5,395.5 C 155.298,389.465 148.964,382.631 143.5,375C 139.454,372.826 135.121,371.993 130.5,372.5C 138.788,363.932 147.621,355.932 157,348.5C 157.667,349.167 157.667,349.833 157,350.5C 147.92,358.144 146.254,367.144 152,377.5C 155.688,382.688 160.188,387.022 165.5,390.5C 164.74,392.36 163.74,394.027 162.5,395.5 Z"/></g>
<g><path style="opacity:1" fill="#6393c6" d="M 359.5,375.5 C 354.707,376.229 350.374,378.063 346.5,381C 340.967,387.363 335.301,393.529 329.5,399.5C 327.538,397.575 326.705,395.242 327,392.5C 332.898,387.021 337.565,380.688 341,373.5C 341.667,370.5 341.667,367.5 341,364.5C 338.839,360.408 336.839,356.408 335,352.5C 343.364,360.033 351.531,367.7 359.5,375.5 Z"/></g>
<g><path style="opacity:1" fill="#fdfdfd" d="M 290.5,454.5 C 289.517,458.298 289.183,462.298 289.5,466.5C 286.615,466.194 283.948,466.527 281.5,467.5C 255.138,467.779 228.805,467.113 202.5,465.5C 202.078,433.475 202.578,401.475 204,369.5C 220.842,382.369 239.676,386.203 260.5,381C 269.993,378.251 278.993,374.418 287.5,369.5C 288.712,378.462 289.545,387.462 290,396.5C 290.5,415.83 290.667,435.164 290.5,454.5 Z"/></g>
<g><path style="opacity:1" fill="#8cb7d9" d="M 130.5,372.5 C 135.121,371.993 139.454,372.826 143.5,375C 148.964,382.631 155.298,389.465 162.5,395.5C 158.08,401.995 155.08,408.995 153.5,416.5C 152.349,421.65 152.183,426.984 153,432.5C 155.817,442.122 159.317,451.455 163.5,460.5C 144.366,458.177 126.366,452.344 109.5,443C 104.714,439.882 100.214,436.382 96,432.5C 95.6589,423.179 97.9922,414.512 103,406.5C 110.507,393.815 119.674,382.481 130.5,372.5 Z"/></g>
<g><path style="opacity:1" fill="#8cb7d9" d="M 359.5,375.5 C 374.825,392.818 385.992,412.485 393,434.5C 374.65,449.919 353.484,459.252 329.5,462.5C 331.491,454.025 333.991,445.691 337,437.5C 337.499,433.514 337.666,429.514 337.5,425.5C 337.665,422.15 337.498,418.817 337,415.5C 334.759,410.02 332.259,404.687 329.5,399.5C 335.301,393.529 340.967,387.363 346.5,381C 350.374,378.063 354.707,376.229 359.5,375.5 Z"/></g>
<g><path style="opacity:1" fill="#6394c7" d="M 153.5,416.5 C 153.167,425.167 155.334,433.167 160,440.5C 165.411,448.582 171.578,456.082 178.5,463C 173.209,463.318 168.209,462.485 163.5,460.5C 159.317,451.455 155.817,442.122 153,432.5C 152.183,426.984 152.349,421.65 153.5,416.5 Z"/></g>
<g><path style="opacity:1" fill="#6394c7" d="M 337.5,425.5 C 337.666,429.514 337.499,433.514 337,437.5C 333.991,445.691 331.491,454.025 329.5,462.5C 324.942,464.32 320.275,464.653 315.5,463.5C 324.421,451.645 331.755,438.978 337.5,425.5 Z"/></g>
<g><path style="opacity:1" fill="#af8b72" d="M 290.5,454.5 C 290.5,458.833 290.5,463.167 290.5,467.5C 287.5,467.5 284.5,467.5 281.5,467.5C 283.948,466.527 286.615,466.194 289.5,466.5C 289.183,462.298 289.517,458.298 290.5,454.5 Z"/></g>
<g><path style="opacity:1" fill="#f5c509" d="M 164.5,466.5 C 220.469,473.833 276.469,474.166 332.5,467.5C 282.859,485.222 232.525,487.056 181.5,473C 175.539,471.296 169.872,469.129 164.5,466.5 Z"/></g>
</svg>
