<?xml version="1.0" encoding="UTF-8"?>
<!DOCTYPE svg PUBLIC "-//W3C//DTD SVG 1.1//EN" "http://www.w3.org/Graphics/SVG/1.1/DTD/svg11.dtd">
<svg xmlns="http://www.w3.org/2000/svg" version="1.1" width="500px" height="500px" style="shape-rendering:geometricPrecision; text-rendering:geometricPrecision; image-rendering:optimizeQuality; fill-rule:evenodd; clip-rule:evenodd" xmlns:xlink="http://www.w3.org/1999/xlink">
<g><path style="opacity:0.957" fill="#033067" d="M 499.5,226.5 C 499.5,241.5 499.5,256.5 499.5,271.5C 489.907,352.223 451.24,414.723 383.5,459C 311.522,501.255 236.189,508.255 157.5,480C 65.3241,440.498 12.6574,370.998 -0.5,271.5C -0.5,256.5 -0.5,241.5 -0.5,226.5C 9.09228,145.779 47.7589,83.2792 115.5,39C 187.475,-3.25514 262.808,-10.2551 341.5,18C 415.725,48.6118 465.225,102.112 490,178.5C 494.285,194.424 497.452,210.424 499.5,226.5 Z"/></g>
<g><path style="opacity:1" fill="#490d29" d="M 250.5,15.5 C 254.316,16.4824 258.316,17.1491 262.5,17.5C 279.921,20.7936 295.088,28.4603 308,40.5C 309.586,43.3405 311.42,46.0072 313.5,48.5C 333.69,40.6504 350.856,44.9838 365,61.5C 383.652,86.4422 389.985,114.109 384,144.5C 382.118,149.044 379.451,153.044 376,156.5C 374.627,166.285 371.461,175.451 366.5,184C 369.408,186.245 371.575,189.078 373,192.5C 374.367,212.401 368.2,229.567 354.5,244C 348.648,248.173 342.148,250.34 335,250.5C 332.925,257.816 330.425,264.983 327.5,272C 333.061,276.568 337.561,282.068 341,288.5C 343.603,296.345 344.27,304.345 343,312.5C 348.926,317.757 353.26,324.09 356,331.5C 357.556,341.882 354.056,350.049 345.5,356C 369.724,377.271 385.057,403.771 391.5,435.5C 386.262,440.466 380.262,444.466 373.5,447.5C 318.852,469.669 262.185,476.836 203.5,469C 181.806,466.075 160.473,461.575 139.5,455.5C 123.989,450.662 109.823,443.329 97,433.5C 96.8195,431.512 96.9862,429.512 97.5,427.5C 105.652,398.846 120.652,374.513 142.5,354.5C 128.733,338.153 130.9,324.153 149,312.5C 148.601,302.772 150.268,293.438 154,284.5C 156.465,279.731 159.298,275.231 162.5,271C 159.538,263.949 156.872,256.783 154.5,249.5C 137.622,249.477 126.455,241.477 121,225.5C 115.78,215.07 113.78,204.07 115,192.5C 117.098,188.569 120.264,185.903 124.5,184.5C 119.93,176.031 117.096,167.031 116,157.5C 107.61,141.442 106.277,124.775 112,107.5C 115.635,98.2276 120.301,89.561 126,81.5C 140.993,62.5031 158.493,46.3364 178.5,33C 186.835,28.3304 195.502,24.4971 204.5,21.5C 209.289,20.2826 213.955,18.9493 218.5,17.5C 228.947,15.7675 239.614,15.1008 250.5,15.5 Z"/></g>
<g><path style="opacity:1" fill="#b18c20" d="M 250.5,15.5 C 256.69,15.1771 262.69,15.5104 268.5,16.5C 266.265,16.2053 264.265,16.5386 262.5,17.5C 258.316,17.1491 254.316,16.4824 250.5,15.5 Z"/></g>
<g><path style="opacity:1" fill="#fdcc00" d="M 262.5,17.5 C 264.265,16.5386 266.265,16.2053 268.5,16.5C 357.101,25.8563 421.934,69.8563 463,148.5C 491.596,211.883 492.929,275.883 467,340.5C 450.156,378.837 424.989,410.504 391.5,435.5C 385.057,403.771 369.724,377.271 345.5,356C 354.056,350.049 357.556,341.882 356,331.5C 353.26,324.09 348.926,317.757 343,312.5C 344.27,304.345 343.603,296.345 341,288.5C 337.561,282.068 333.061,276.568 327.5,272C 330.425,264.983 332.925,257.816 335,250.5C 342.148,250.34 348.648,248.173 354.5,244C 368.2,229.567 374.367,212.401 373,192.5C 371.575,189.078 369.408,186.245 366.5,184C 371.461,175.451 374.627,166.285 376,156.5C 379.451,153.044 382.118,149.044 384,144.5C 389.985,114.109 383.652,86.4422 365,61.5C 350.856,44.9838 333.69,40.6504 313.5,48.5C 311.42,46.0072 309.586,43.3405 308,40.5C 295.088,28.4603 279.921,20.7936 262.5,17.5 Z"/></g>
<g><path style="opacity:1" fill="#af8f25" d="M 218.5,17.5 C 213.955,18.9493 209.289,20.2826 204.5,21.5C 203.791,20.596 202.791,20.2627 201.5,20.5C 206.911,18.7635 212.578,17.7635 218.5,17.5 Z"/></g>
<g><path style="opacity:1" fill="#fdcc01" d="M 201.5,20.5 C 202.791,20.2627 203.791,20.596 204.5,21.5C 195.502,24.4971 186.835,28.3304 178.5,33C 158.493,46.3364 140.993,62.5031 126,81.5C 120.301,89.561 115.635,98.2276 112,107.5C 106.277,124.775 107.61,141.442 116,157.5C 117.096,167.031 119.93,176.031 124.5,184.5C 120.264,185.903 117.098,188.569 115,192.5C 113.78,204.07 115.78,215.07 121,225.5C 126.455,241.477 137.622,249.477 154.5,249.5C 156.872,256.783 159.538,263.949 162.5,271C 159.298,275.231 156.465,279.731 154,284.5C 150.268,293.438 148.601,302.772 149,312.5C 130.9,324.153 128.733,338.153 142.5,354.5C 120.652,374.513 105.652,398.846 97.5,427.5C 36.8894,374.911 9.05604,308.244 14,227.5C 25.6556,139.976 70.8223,76.4757 149.5,37C 166.178,29.3847 183.512,23.8847 201.5,20.5 Z"/></g>
<g><path style="opacity:1" fill="#c2682b" d="M 348.5,192.5 C 355.432,178.36 359.265,163.36 360,147.5C 361.018,138.876 360.518,130.376 358.5,122C 358.667,121.5 358.833,121 359,120.5C 361.682,123.35 364.516,126.016 367.5,128.5C 369.002,102.005 358.669,81.5048 336.5,67C 326.893,61.0126 316.56,59.0126 305.5,61C 300.778,51.9446 293.778,45.2779 284.5,41C 252.844,30.0807 222.511,33.0807 193.5,50C 164.189,68.1374 143.522,93.3041 131.5,125.5C 131.733,126.932 132.4,127.432 133.5,127C 137.391,122.205 141.724,118.705 146.5,116.5C 140.136,125.902 135.969,136.236 134,147.5C 131.895,160.374 132.062,173.208 134.5,186C 134.164,187.03 133.497,187.53 132.5,187.5C 131.099,187.029 129.766,186.362 128.5,185.5C 125.772,180.044 123.605,174.378 122,168.5C 120.334,156.852 120.001,145.186 121,133.5C 117.742,137.941 116.075,142.941 116,148.5C 110.219,124.476 115.219,102.809 131,83.5C 146.09,63.736 164.256,47.5694 185.5,35C 218.881,17.2114 252.881,15.8781 287.5,31C 295.726,35.6843 302.559,41.851 308,49.5C 308.494,51.1341 308.66,52.8008 308.5,54.5C 331.31,44.492 350.144,49.492 365,69.5C 379.014,91.8947 384.348,116.228 381,142.5C 379.924,145.648 378.591,148.648 377,151.5C 377.043,146.784 375.876,142.451 373.5,138.5C 373.091,154.645 368.924,169.978 361,184.5C 356.414,186.541 352.247,189.208 348.5,192.5 Z"/></g>
<g><path style="opacity:1" fill="#a34820" d="M 348.5,192.5 C 347.984,194.2 346.984,195.533 345.5,196.5C 345.167,195.667 344.833,194.833 344.5,194C 345.59,185.858 345.756,177.692 345,169.5C 341.36,165.86 337.694,162.194 334,158.5C 330.883,154.099 328.716,149.266 327.5,144C 327.833,143.167 328.167,142.333 328.5,141.5C 335.205,144.541 342.205,145.708 349.5,145C 349.957,144.586 350.291,144.086 350.5,143.5C 344.575,141.681 338.575,139.848 332.5,138C 324.395,134.894 318.561,129.394 315,121.5C 311.819,111.773 308.486,102.106 305,92.5C 301.997,88.1723 297.83,86.339 292.5,87C 282.099,73.2538 269.766,71.2538 255.5,81C 247.828,89.6767 241.328,99.1767 236,109.5C 226.91,123.074 214.744,131.741 199.5,135.5C 208.871,125.095 214.704,113.095 217,99.5C 204.937,123.241 186.437,139.408 161.5,148C 164.266,141.903 164.766,135.736 163,129.5C 159.906,145.017 153.573,159.017 144,171.5C 143.427,179.723 143.927,187.89 145.5,196C 145.167,196.833 144.833,197.667 144.5,198.5C 140.454,194.783 136.454,191.116 132.5,187.5C 133.497,187.53 134.164,187.03 134.5,186C 132.062,173.208 131.895,160.374 134,147.5C 135.969,136.236 140.136,125.902 146.5,116.5C 141.724,118.705 137.391,122.205 133.5,127C 132.4,127.432 131.733,126.932 131.5,125.5C 143.522,93.3041 164.189,68.1374 193.5,50C 222.511,33.0807 252.844,30.0807 284.5,41C 293.778,45.2779 300.778,51.9446 305.5,61C 316.56,59.0126 326.893,61.0126 336.5,67C 358.669,81.5048 369.002,102.005 367.5,128.5C 364.516,126.016 361.682,123.35 359,120.5C 358.833,121 358.667,121.5 358.5,122C 360.518,130.376 361.018,138.876 360,147.5C 359.265,163.36 355.432,178.36 348.5,192.5 Z"/></g>
<g><path style="opacity:1" fill="#9a451f" d="M 267.5,79.5 C 274.771,78.979 281.104,81.1457 286.5,86C 275.313,83.2665 264.647,84.7665 254.5,90.5C 257.063,85.3066 261.397,81.6399 267.5,79.5 Z"/></g>
<g><path style="opacity:1" fill="#fddfca" d="M 264.5,88.5 C 272.174,88.3336 279.841,88.5003 287.5,89C 290.475,91.0043 293.808,92.0043 297.5,92C 298.667,93.1667 299.833,94.3333 301,95.5C 304.595,103.953 307.595,112.619 310,121.5C 312.17,127.492 315.67,132.492 320.5,136.5C 322.305,151.789 329.472,163.789 342,172.5C 341.081,204.008 335.415,234.675 325,264.5C 317.776,284.703 303.609,296.869 282.5,301C 254.545,307.776 226.879,306.776 199.5,298C 180.286,289.784 167.786,275.618 162,255.5C 153.211,229.089 148.211,202.089 147,174.5C 151.873,167.924 156.373,161.09 160.5,154C 175.228,148.226 188.394,140.059 200,129.5C 199.101,132.632 197.601,135.632 195.5,138.5C 196.171,139.946 197.338,140.612 199,140.5C 212.267,137.536 223.6,131.202 233,121.5C 239.206,112.924 245.039,104.091 250.5,95C 255.137,92.5111 259.804,90.3445 264.5,88.5 Z"/></g>
<g><path style="opacity:1" fill="#4b102a" d="M 193.5,148.5 C 198.742,148.023 203.742,148.856 208.5,151C 212.663,153.821 214.163,157.655 213,162.5C 204.931,162.539 196.765,162.705 188.5,163C 184.135,164.521 179.802,166.021 175.5,167.5C 176.984,161.495 180.318,156.662 185.5,153C 188.391,151.726 191.058,150.226 193.5,148.5 Z"/></g>
<g><path style="opacity:1" fill="#4c112a" d="M 286.5,148.5 C 297.669,148.168 306.503,152.502 313,161.5C 314.128,163.345 314.628,165.345 314.5,167.5C 310.089,166.307 305.756,164.807 301.5,163C 293.447,162.434 285.447,162.434 277.5,163C 276.17,160.123 276.336,157.289 278,154.5C 280.671,152.098 283.505,150.098 286.5,148.5 Z"/></g>
<g><path style="opacity:1" fill="#9b451f" d="M 195.5,152.5 C 201.624,151.231 206.291,153.231 209.5,158.5C 204.226,158.747 198.892,158.913 193.5,159C 189.074,160.041 184.741,161.041 180.5,162C 184.648,157.327 189.648,154.16 195.5,152.5 Z"/></g>
<g><path style="opacity:1" fill="#9b461f" d="M 287.5,152.5 C 296.374,152.104 303.707,155.27 309.5,162C 305.315,160.873 300.982,159.873 296.5,159C 291.141,158.641 285.807,158.641 280.5,159C 282.101,155.893 284.435,153.727 287.5,152.5 Z"/></g>
<g><path style="opacity:1" fill="#490d2a" d="M 195.5,187.5 C 204.414,188.467 206.914,193.134 203,201.5C 199.21,205.854 194.877,206.521 190,203.5C 187.011,196.483 188.844,191.15 195.5,187.5 Z"/></g>
<g><path style="opacity:1" fill="#490e2a" d="M 289.5,187.5 C 298.825,188.322 302.658,193.322 301,202.5C 292.583,207.712 287.416,205.378 285.5,195.5C 285.782,192.269 287.115,189.602 289.5,187.5 Z"/></g>
<g><path style="opacity:1" fill="#f7d7c1" d="M 129.5,211.5 C 129.548,215.813 130.715,219.813 133,223.5C 138.714,229.046 144.881,234.046 151.5,238.5C 152.309,240.071 152.643,241.738 152.5,243.5C 141.022,244.007 132.856,239.007 128,228.5C 122.172,217.857 119.505,206.523 120,194.5C 121.334,190.896 123.834,189.729 127.5,191C 134.667,195.5 140.5,201.333 145,208.5C 146.991,216.446 148.324,224.446 149,232.5C 141.524,225.901 138.191,217.567 139,207.5C 126.481,194.115 123.314,195.448 129.5,211.5 Z"/></g>
<g><path style="opacity:1" fill="#f4d3bd" d="M 360.5,189.5 C 364.182,188.725 366.682,190.059 368,193.5C 369.497,212.335 363.331,228.169 349.5,241C 345.69,243.992 341.357,245.492 336.5,245.5C 336.421,244.07 336.754,242.736 337.5,241.5C 354.026,233.788 362.526,220.788 363,202.5C 366.538,199.423 366.038,197.923 361.5,198C 353.003,203.148 348.836,210.648 349,220.5C 348.308,226.883 345.308,231.883 340,235.5C 341.224,225.486 342.891,215.486 345,205.5C 349.698,199.637 354.865,194.303 360.5,189.5 Z"/></g>
<g><path style="opacity:1" fill="#eaa58c" d="M 129.5,211.5 C 128.915,203.007 130.749,202.34 135,209.5C 137.308,214.936 138.308,220.602 138,226.5C 133.753,222.216 130.92,217.216 129.5,211.5 Z"/></g>
<g><path style="opacity:1" fill="#e5a187" d="M 359.5,205.5 C 360.016,214.442 357.183,222.442 351,229.5C 350.535,220.316 353.368,212.316 359.5,205.5 Z"/></g>
<g><path style="opacity:1" fill="#4e132a" d="M 230.5,212.5 C 231.496,212.414 232.329,212.748 233,213.5C 233.601,217.538 235.768,220.371 239.5,222C 243.5,222.667 247.5,222.667 251.5,222C 256.087,219.87 260.753,218.037 265.5,216.5C 262.95,225.717 256.95,231.05 247.5,232.5C 235.878,230.567 230.211,223.9 230.5,212.5 Z"/></g>
<g><path style="opacity:1" fill="#eea88f" d="M 256.5,222.5 C 257.239,222.369 257.906,222.536 258.5,223C 251.548,232.227 244.215,232.727 236.5,224.5C 236.667,224.167 236.833,223.833 237,223.5C 243.759,226.355 250.259,226.022 256.5,222.5 Z"/></g>
<g><path style="opacity:1" fill="#4e142c" d="M 275.5,234.5 C 290.438,234.962 296.272,242.629 293,257.5C 290.608,263.226 286.774,267.726 281.5,271C 264.216,281.243 245.882,283.909 226.5,279C 218.11,276.604 212.277,271.438 209,263.5C 207.803,250.878 213.469,243.878 226,242.5C 229.998,242.582 233.831,243.416 237.5,245C 251.286,245.459 263.952,241.959 275.5,234.5 Z"/></g>
<g><path style="opacity:1" fill="#fbf9f8" d="M 274.5,239.5 C 278.792,239.035 282.792,239.868 286.5,242C 290.469,248.697 288.469,252.031 280.5,252C 276.5,254.333 272.5,256.667 268.5,259C 275.017,256.925 281.684,255.092 288.5,253.5C 288.125,258.749 285.792,262.915 281.5,266C 264.378,276.762 246.044,279.429 226.5,274C 220.753,271.753 216.42,267.919 213.5,262.5C 213.833,262.167 214.167,261.833 214.5,261.5C 216.776,262.213 219.109,262.713 221.5,263C 223.5,264.333 225.5,265.667 227.5,267C 231.821,267.499 236.154,267.666 240.5,267.5C 240.5,266.5 240.5,265.5 240.5,264.5C 234.598,265.038 228.932,264.205 223.5,262C 221.289,258.122 217.955,256.622 213.5,257.5C 214.236,253.209 216.569,250.042 220.5,248C 231.501,247.961 242.501,247.961 253.5,248C 261.228,246.797 268.228,243.964 274.5,239.5 Z"/></g>
<g><path style="opacity:1" fill="#e25f5e" d="M 176.5,290.5 C 170.825,301.094 168.991,312.428 171,324.5C 174.646,335.476 182.146,342.309 193.5,345C 206.61,349.427 219.944,352.927 233.5,355.5C 237.327,360.478 240.66,365.812 243.5,371.5C 245.821,368.87 247.654,365.87 249,362.5C 251.37,359.961 253.87,357.628 256.5,355.5C 271.238,351.648 285.904,347.482 300.5,343C 320.688,335.195 329.521,320.695 327,299.5C 325.265,294.361 322.765,289.694 319.5,285.5C 321.016,282.467 323.016,279.8 325.5,277.5C 337.781,286.939 342.281,299.272 339,314.5C 343.784,319.956 347.784,325.956 351,332.5C 352.298,343.22 347.798,350.387 337.5,354C 320.718,355.631 304.385,359.297 288.5,365C 285.671,366.247 283.005,367.747 280.5,369.5C 276.741,367.383 276.074,364.716 278.5,361.5C 277.277,360.386 275.944,360.219 274.5,361C 269.524,364.778 267.191,369.611 267.5,375.5C 268.906,374.332 270.072,374.665 271,376.5C 274.854,383.396 277.521,390.73 279,398.5C 279.333,410.167 279.667,421.833 280,433.5C 281.064,437.295 283.564,438.461 287.5,437C 289.604,435.307 291.104,433.14 292,430.5C 294.165,410.657 290.665,391.824 281.5,374C 289.913,369.125 298.913,365.958 308.5,364.5C 314.167,364.5 319.833,364.5 325.5,364.5C 333.909,364.643 342.242,365.476 350.5,367C 368.472,386.451 380.472,408.951 386.5,434.5C 336.393,460.799 283.059,471.299 226.5,466C 192.54,464.075 159.54,457.408 127.5,446C 118.893,442.698 110.893,438.365 103.5,433C 102.77,427.711 103.603,422.544 106,417.5C 111.69,401.777 119.69,387.444 130,374.5C 132.995,372.347 136.162,370.681 139.5,369.5C 143.841,369.342 147.841,368.342 151.5,366.5C 155.215,366.577 158.881,366.244 162.5,365.5C 164.735,365.795 166.735,365.461 168.5,364.5C 182.457,363.877 195.457,367.044 207.5,374C 200.027,391.033 196.527,408.866 197,427.5C 197.273,431.544 198.773,435.044 201.5,438C 204.834,439.212 207.334,438.379 209,435.5C 207.58,414.688 210.913,394.688 219,375.5C 220.011,374.663 221.178,374.33 222.5,374.5C 221.291,368.794 218.291,364.294 213.5,361C 212.365,360.251 211.365,360.417 210.5,361.5C 213.112,364.329 212.612,366.663 209,368.5C 192.408,362.061 175.242,357.894 157.5,356C 140.904,351.307 135.737,341.14 142,325.5C 145.035,322.13 148.368,319.13 152,316.5C 151.23,301.31 155.73,287.977 165.5,276.5C 169.19,281.185 172.857,285.852 176.5,290.5 Z"/></g>
<g><path style="opacity:1" fill="#c73145" d="M 319.5,285.5 C 322.765,289.694 325.265,294.361 327,299.5C 329.521,320.695 320.688,335.195 300.5,343C 285.904,347.482 271.238,351.648 256.5,355.5C 259.93,352.274 263.93,349.774 268.5,348C 280.314,344.737 291.148,339.57 301,332.5C 305.027,327.279 307.86,321.446 309.5,315C 307.873,311.701 306.373,311.868 305,315.5C 303.951,310.349 302.117,305.516 299.5,301C 307.234,297.085 313.901,291.919 319.5,285.5 Z"/></g>
<g><path style="opacity:1" fill="#c63145" d="M 176.5,290.5 C 182.942,294.895 189.609,299.062 196.5,303C 195.22,306.742 192.886,309.575 189.5,311.5C 183.732,326.136 188.399,335.969 203.5,341C 211.578,343.803 219.578,346.803 227.5,350C 229.996,351.331 231.996,353.164 233.5,355.5C 219.944,352.927 206.61,349.427 193.5,345C 182.146,342.309 174.646,335.476 171,324.5C 168.991,312.428 170.825,301.094 176.5,290.5 Z"/></g>
<g><path style="opacity:1" fill="#c13242" d="M 295.5,301.5 C 298.434,302.289 300.268,304.289 301,307.5C 305.107,318.132 302.441,326.465 293,332.5C 289.754,322.818 289.754,313.151 293,303.5C 293.995,302.934 294.828,302.267 295.5,301.5 Z"/></g>
<g><path style="opacity:1" fill="#f8b299" d="M 201.5,305.5 C 210.333,306.358 219.333,307.858 228.5,310C 234.484,310.698 240.484,311.198 246.5,311.5C 259.306,310.198 271.973,308.364 284.5,306C 273.501,317.002 260.501,324.668 245.5,329C 225.285,331.394 210.618,323.561 201.5,305.5 Z"/></g>
<g><path style="opacity:1" fill="#b8333e" d="M 196.5,305.5 C 197.845,308.051 198.511,310.884 198.5,314C 197.94,319.161 197.44,324.327 197,329.5C 196.586,329.957 196.086,330.291 195.5,330.5C 192.677,328.014 191.344,324.848 191.5,321C 191.706,315.334 193.373,310.167 196.5,305.5 Z"/></g>
<g><path style="opacity:1" fill="#fadac5" d="M 285.5,309.5 C 286.278,317.73 287.278,326.063 288.5,334.5C 277.994,338.506 267.661,343.006 257.5,348C 251.277,351.223 246.777,356.057 244,362.5C 241.519,356.388 237.685,351.221 232.5,347C 221.994,342.832 211.494,338.665 201,334.5C 201.377,327.514 202.044,320.514 203,313.5C 224.887,337.532 248.72,339.699 274.5,320C 278.624,316.945 282.291,313.445 285.5,309.5 Z"/></g>
<g><path style="opacity:1" fill="#b8333e" d="M 168.5,364.5 C 166.735,365.461 164.735,365.795 162.5,365.5C 161.207,364.842 159.707,364.508 158,364.5C 155.456,364.336 153.29,365.003 151.5,366.5C 147.018,366.034 143.018,367.034 139.5,369.5C 137.856,369.286 136.356,369.62 135,370.5C 134.333,369.833 134.333,369.167 135,368.5C 139.26,364.951 143.427,361.284 147.5,357.5C 154.576,360.283 161.91,362.116 169.5,363C 163.866,363.634 163.532,364.134 168.5,364.5 Z"/></g>
<g><path style="opacity:1" fill="#aa3538" d="M 325.5,364.5 C 319.833,364.5 314.167,364.5 308.5,364.5C 313.316,363.674 318.316,363.174 323.5,363C 321.167,362.667 318.833,362.333 316.5,362C 324.211,361.096 331.878,359.929 339.5,358.5C 342.301,360.073 344.968,361.906 347.5,364C 340.003,363.601 332.67,363.767 325.5,364.5 Z"/></g>
<g><path style="opacity:1" fill="#632029" d="M 162.5,365.5 C 158.881,366.244 155.215,366.577 151.5,366.5C 153.29,365.003 155.456,364.336 158,364.5C 159.707,364.508 161.207,364.842 162.5,365.5 Z"/></g>
<g><path style="opacity:1" fill="#581828" d="M 151.5,366.5 C 147.841,368.342 143.841,369.342 139.5,369.5C 143.018,367.034 147.018,366.034 151.5,366.5 Z"/></g>
<g><path style="opacity:1" fill="#9ba09c" d="M 214.5,367.5 C 216.134,368.207 217.468,369.373 218.5,371C 207.84,390.829 203.507,411.995 205.5,434.5C 203.089,434.863 201.589,433.863 201,431.5C 198.672,408.633 203.172,387.299 214.5,367.5 Z"/></g>
<g><path style="opacity:1" fill="#9ba09c" d="M 273.5,367.5 C 284.881,385.824 290.048,405.824 289,427.5C 288.138,429.087 287.471,430.754 287,432.5C 285.989,433.337 284.822,433.67 283.5,433.5C 283.666,423.161 283.5,412.828 283,402.5C 281.725,391.004 277.892,380.504 271.5,371C 271.978,369.697 272.645,368.531 273.5,367.5 Z"/></g>
<g><path style="opacity:1" fill="#f4c409" d="M 373.5,447.5 C 318.531,480.333 259.531,490.167 196.5,477C 176.385,472.466 157.385,465.3 139.5,455.5C 160.473,461.575 181.806,466.075 203.5,469C 262.185,476.836 318.852,469.669 373.5,447.5 Z"/></g>
</svg>
