<?xml version="1.0" encoding="UTF-8"?>
<!DOCTYPE svg PUBLIC "-//W3C//DTD SVG 1.1//EN" "http://www.w3.org/Graphics/SVG/1.1/DTD/svg11.dtd">
<svg xmlns="http://www.w3.org/2000/svg" version="1.1" width="500px" height="500px" style="shape-rendering:geometricPrecision; text-rendering:geometricPrecision; image-rendering:optimizeQuality; fill-rule:evenodd; clip-rule:evenodd" xmlns:xlink="http://www.w3.org/1999/xlink">
<g><path style="opacity:0.958" fill="#033067" d="M 499.5,226.5 C 499.5,241.5 499.5,256.5 499.5,271.5C 489.907,352.223 451.24,414.723 383.5,459C 311.522,501.255 236.189,508.255 157.5,480C 65.3241,440.498 12.6574,370.998 -0.5,271.5C -0.5,256.5 -0.5,241.5 -0.5,226.5C 9.09228,145.779 47.7589,83.2792 115.5,39C 187.475,-3.25514 262.808,-10.2551 341.5,18C 415.725,48.6118 465.225,102.112 490,178.5C 494.285,194.424 497.452,210.424 499.5,226.5 Z"/></g>
<g><path style="opacity:1" fill="#fdcb01" d="M 229.5,15.5 C 322.876,11.4406 396.043,47.4406 449,123.5C 491.084,192.723 497.084,265.056 467,340.5C 428.606,421.8 364.773,468.634 275.5,481C 186.459,488.215 114.293,457.048 59,387.5C 14.1753,323.553 2.50866,253.886 24,178.5C 51.4867,101.68 103.987,50.5134 181.5,25C 197.371,20.4587 213.371,17.2921 229.5,15.5 Z"/></g>
<g><path style="opacity:1" fill="#4a0e29" d="M 236.5,24.5 C 286.114,22.7239 324.947,42.0573 353,82.5C 367.282,110.074 373.449,139.408 371.5,170.5C 371.013,187.504 370.846,204.504 371,221.5C 373.851,235.387 377.518,249.053 382,262.5C 382.667,269.5 382.667,276.5 382,283.5C 381.388,286.032 379.888,286.865 377.5,286C 375.451,283.407 373.285,280.907 371,278.5C 366.926,293.559 358.092,304.726 344.5,312C 340.167,320.333 333.833,326.667 325.5,331C 352.838,356.056 371.671,386.556 382,422.5C 382.667,426.833 382.667,431.167 382,435.5C 381.052,437.57 379.552,439.07 377.5,440C 314.165,460.584 249.498,466.251 183.5,457C 161.883,453.683 141.217,447.349 121.5,438C 120.271,436.471 118.771,435.304 117,434.5C 123.998,392.502 143.498,357.502 175.5,329.5C 167.189,324.356 160.356,317.69 155,309.5C 153.836,311.649 152.67,313.815 151.5,316C 149.5,316.667 147.5,316.667 145.5,316C 138.679,310.181 134.013,303.014 131.5,294.5C 124.596,293.431 120.43,289.431 119,282.5C 116.942,275.074 117.275,267.74 120,260.5C 124.236,250.697 127.903,240.697 131,230.5C 129.835,202.186 129.169,173.852 129,145.5C 130.642,121.94 137.309,99.9395 149,79.5C 156.755,66.9046 167.588,58.238 181.5,53.5C 191.018,42.7213 202.685,34.8879 216.5,30C 223.211,27.8394 229.878,26.0061 236.5,24.5 Z"/></g>
<g><path style="opacity:1" fill="#c1672b" d="M 311.5,322.5 C 331.349,308.493 342.182,289.159 344,264.5C 346.942,270.718 349.609,277.051 352,283.5C 359.231,269.677 362.231,255.011 361,239.5C 358.507,227.195 356.173,214.861 354,202.5C 354.317,181.172 354.317,159.839 354,138.5C 352.905,125.157 350.238,112.157 346,99.5C 343.921,95.0074 341.588,90.674 339,86.5C 323.657,70.1496 305.824,57.3162 285.5,48C 260.394,40.4036 235.394,40.7369 210.5,49C 195.428,55.8006 196.428,58.4673 213.5,57C 207.787,58.1264 202.12,59.4598 196.5,61C 193.467,62.1776 190.801,63.8442 188.5,66C 188.759,67.2613 189.426,68.2613 190.5,69C 202.341,72.5853 213.007,78.252 222.5,86C 217.088,83.4741 211.422,81.1408 205.5,79C 197.367,76.8005 189.2,74.9671 181,73.5C 181.262,82.7787 179.928,91.7787 177,100.5C 177.309,92.8481 177.309,85.1815 177,77.5C 175.534,75.6751 173.701,75.1751 171.5,76C 154.369,97.7891 144.535,122.622 142,150.5C 140.418,169.08 141.751,187.413 146,205.5C 147.286,224.835 145.286,243.835 140,262.5C 138.815,273.762 140.815,284.429 146,294.5C 149.704,288.079 153.037,281.412 156,274.5C 156.667,273.167 157.333,273.167 158,274.5C 161.233,284.966 165.566,294.966 171,304.5C 175.747,311.066 180.247,317.732 184.5,324.5C 183.115,325.614 181.615,326.614 180,327.5C 170.123,320.623 161.956,312.123 155.5,302C 154.216,301.316 153.049,301.483 152,302.5C 151.915,306.471 150.915,310.138 149,313.5C 142.323,307.488 137.657,300.155 135,291.5C 134.082,281.398 133.082,271.398 132,261.5C 130.502,264.967 129.502,268.634 129,272.5C 128.7,278.186 128.7,283.853 129,289.5C 122.627,282.557 120.96,274.557 124,265.5C 129.204,253.222 133.204,240.555 136,227.5C 135.619,205.663 134.786,183.83 133.5,162C 132.392,130.922 140.225,102.422 157,76.5C 164.193,67.8254 173.027,61.4921 183.5,57.5C 208.395,33.0205 238.061,24.5205 272.5,32C 329.734,47.2389 360.9,84.4055 366,143.5C 366.327,169.171 366.327,194.838 366,220.5C 368.24,234.221 371.907,247.555 377,260.5C 379.048,267.431 379.548,274.431 378.5,281.5C 373.238,277.133 371.072,271.466 372,264.5C 370.989,263.663 369.822,263.33 368.5,263.5C 366.94,280.953 359.773,295.619 347,307.5C 347.79,303.628 348.29,299.628 348.5,295.5C 348.603,292.963 348.103,290.629 347,288.5C 345.006,301.989 339.172,313.489 329.5,323C 326.958,324.77 324.291,326.27 321.5,327.5C 318.173,325.844 314.839,324.177 311.5,322.5 Z"/></g>
<g><path style="opacity:1" fill="#a34820" d="M 311.5,322.5 C 305.425,319.261 300.425,314.761 296.5,309C 293.562,306.743 290.229,305.576 286.5,305.5C 286.915,300.759 287.749,296.093 289,291.5C 305.108,282.725 317.108,270.059 325,253.5C 336.921,225.508 343.254,196.508 344,166.5C 343,167.833 342,169.167 341,170.5C 330.115,154.982 324.782,137.649 325,118.5C 324.667,118.167 324.333,117.833 324,117.5C 321.87,121.172 321.037,125.172 321.5,129.5C 302.217,131.257 283.55,128.757 265.5,122C 257.378,118.439 249.378,114.606 241.5,110.5C 240.246,112.259 240.579,113.759 242.5,115C 249.342,118.922 256.342,122.588 263.5,126C 241.624,131.267 222.791,125.767 207,109.5C 201.413,101.999 196.579,93.9985 192.5,85.5C 192.199,92.7949 192.032,100.128 192,107.5C 191.294,118.622 187.627,128.622 181,137.5C 181.536,127.198 181.536,116.865 181,106.5C 179.117,116.43 177.45,126.43 176,136.5C 171.554,153.064 163.72,167.731 152.5,180.5C 153.347,181.845 154.513,182.845 156,183.5C 161.095,210.886 169.428,237.219 181,262.5C 188.853,275.439 199.52,285.439 213,292.5C 214.283,296.414 215.116,300.414 215.5,304.5C 211.895,304.799 208.561,305.965 205.5,308C 201.452,311.446 198.118,315.446 195.5,320C 191.812,321.513 188.145,323.013 184.5,324.5C 180.247,317.732 175.747,311.066 171,304.5C 165.566,294.966 161.233,284.966 158,274.5C 157.333,273.167 156.667,273.167 156,274.5C 153.037,281.412 149.704,288.079 146,294.5C 140.815,284.429 138.815,273.762 140,262.5C 145.286,243.835 147.286,224.835 146,205.5C 141.751,187.413 140.418,169.08 142,150.5C 144.535,122.622 154.369,97.7891 171.5,76C 173.701,75.1751 175.534,75.6751 177,77.5C 177.309,85.1815 177.309,92.8481 177,100.5C 179.928,91.7787 181.262,82.7787 181,73.5C 189.2,74.9671 197.367,76.8005 205.5,79C 211.422,81.1408 217.088,83.4741 222.5,86C 213.007,78.252 202.341,72.5853 190.5,69C 189.426,68.2613 188.759,67.2613 188.5,66C 190.801,63.8442 193.467,62.1776 196.5,61C 202.12,59.4598 207.787,58.1264 213.5,57C 196.428,58.4673 195.428,55.8006 210.5,49C 235.394,40.7369 260.394,40.4036 285.5,48C 305.824,57.3162 323.657,70.1496 339,86.5C 341.588,90.674 343.921,95.0074 346,99.5C 350.238,112.157 352.905,125.157 354,138.5C 354.317,159.839 354.317,181.172 354,202.5C 356.173,214.861 358.507,227.195 361,239.5C 362.231,255.011 359.231,269.677 352,283.5C 349.609,277.051 346.942,270.718 344,264.5C 342.182,289.159 331.349,308.493 311.5,322.5 Z"/></g>
<g><path style="opacity:1" fill="#fddfca" d="M 196.5,103.5 C 215.089,129.871 239.922,138.537 271,129.5C 277.167,131 283.333,132.5 289.5,134C 284.222,138.158 284.222,142.491 289.5,147C 297,150.167 304.5,153.333 312,156.5C 313.5,156.333 314.333,155.5 314.5,154C 311.593,145.178 305.926,138.845 297.5,135C 305.826,134.31 314.159,133.81 322.5,133.5C 323.581,149.243 329.081,163.243 339,175.5C 336.657,202.874 329.99,229.208 319,254.5C 305.759,278.696 285.259,292.196 257.5,295C 218.329,297.128 191.829,279.962 178,243.5C 170.373,222.582 164.206,201.248 159.5,179.5C 162.771,174.386 166.271,169.386 170,164.5C 173.216,158.736 175.883,152.736 178,146.5C 190.664,135.023 196.83,120.689 196.5,103.5 Z"/></g>
<g><path style="opacity:1" fill="#490e29" d="M 204.5,134.5 C 209.039,133.957 212.873,135.29 216,138.5C 216.379,143.823 213.879,147.323 208.5,149C 201.243,151.808 193.91,154.308 186.5,156.5C 189.178,146.492 195.178,139.159 204.5,134.5 Z"/></g>
<g><path style="opacity:1" fill="#bb642a" d="M 289.5,138.5 C 298.887,137.874 305.553,141.874 309.5,150.5C 303.893,149.065 298.226,146.898 292.5,144C 290.393,142.736 289.393,140.903 289.5,138.5 Z"/></g>
<g><path style="opacity:1" fill="#b66129" d="M 206.5,138.5 C 212.798,137.931 213.798,139.764 209.5,144C 190.606,153.382 189.606,151.549 206.5,138.5 Z"/></g>
<g><path style="opacity:1" fill="#4c122b" d="M 194.5,182.5 C 202.669,182.166 210.336,183.999 217.5,188C 219.155,189.444 219.822,191.278 219.5,193.5C 213.764,190.638 207.764,188.304 201.5,186.5C 196.577,187.636 191.911,189.303 187.5,191.5C 187.343,190.127 187.51,188.793 188,187.5C 189.965,185.45 192.132,183.783 194.5,182.5 Z"/></g>
<g><path style="opacity:1" fill="#4a0f2a" d="M 295.5,181.5 C 301.974,181.119 307.974,182.619 313.5,186C 316.303,188.222 316.137,190.055 313,191.5C 302.921,184.479 293.421,185.312 284.5,194C 280.176,194.045 279.51,192.379 282.5,189C 286.896,186.473 291.229,183.973 295.5,181.5 Z"/></g>
<g><path style="opacity:1" fill="#4c112a" d="M 237.5,212.5 C 242.202,214.009 247.035,215.009 252,215.5C 256.753,214.38 261.586,213.713 266.5,213.5C 262.479,225.125 254.813,228.291 243.5,223C 240.066,220.297 238.066,216.797 237.5,212.5 Z"/></g>
<g><path style="opacity:1" fill="#e9a48b" d="M 259.5,217.5 C 262.97,217.71 262.97,218.877 259.5,221C 253.735,224.675 248.402,224.175 243.5,219.5C 248.934,220.022 254.267,219.356 259.5,217.5 Z"/></g>
<g><path style="opacity:1" fill="#4b0f2a" d="M 265.5,236.5 C 267.936,236.317 270.103,236.984 272,238.5C 274.256,253.073 270.422,265.906 260.5,277C 251.478,281.456 243.644,279.956 237,272.5C 230.882,262.644 227.048,251.978 225.5,240.5C 237.256,242.093 248.923,241.593 260.5,239C 262.315,238.243 263.981,237.41 265.5,236.5 Z"/></g>
<g><path style="opacity:1" fill="#d84f75" d="M 265.5,241.5 C 268.95,241.573 270.283,243.406 269.5,247C 268.398,252.466 266.398,257.633 263.5,262.5C 256.467,257.994 248.8,256.494 240.5,258C 238.91,259.046 237.41,260.213 236,261.5C 234.044,256.072 232.211,250.572 230.5,245C 237.387,246.324 244.387,246.657 251.5,246C 256.523,245.307 261.189,243.807 265.5,241.5 Z"/></g>
<g><path style="opacity:1" fill="#ef7786" d="M 245.5,260.5 C 251.034,259.817 256.034,261.151 260.5,264.5C 261.135,269.682 258.802,273.182 253.5,275C 246.197,275.066 240.864,271.733 237.5,265C 240.099,263.205 242.766,261.705 245.5,260.5 Z"/></g>
<g><path style="opacity:1" fill="#f4ad95" d="M 279.5,294.5 C 280.239,294.369 280.906,294.536 281.5,295C 276.072,300.431 270.072,305.098 263.5,309C 254.139,313.611 244.806,313.611 235.5,309C 230.313,304.903 225.313,300.57 220.5,296C 233.175,299.541 246.175,300.874 259.5,300C 266.456,298.764 273.122,296.931 279.5,294.5 Z"/></g>
<g><path style="opacity:1" fill="#fcdec9" d="M 281.5,299.5 C 282.224,309.212 283.724,318.879 286,328.5C 280.362,341.113 273.695,353.113 266,364.5C 262.749,368.422 258.916,371.588 254.5,374C 252.167,374.667 249.833,374.667 247.5,374C 233.986,363.478 223.819,350.311 217,334.5C 216.564,332.153 216.064,329.819 215.5,327.5C 218.694,318.787 220.194,309.787 220,300.5C 240.833,319.378 261.333,319.044 281.5,299.5 Z"/></g>
<g><path style="opacity:1" fill="#fe8cc0" d="M 352.5,383.5 C 352.19,382.262 351.69,382.262 351,383.5C 341.386,396.398 334.719,410.732 331,426.5C 328.974,433.739 327.474,441.073 326.5,448.5C 290.792,454.652 254.792,457.152 218.5,456C 202.032,454.366 185.699,451.866 169.5,448.5C 167.723,425.672 161.223,404.339 150,384.5C 146.824,380.222 145.991,380.556 147.5,385.5C 149.12,404.787 149.787,424.12 149.5,443.5C 143.106,441.629 136.772,439.463 130.5,437C 126.618,435.566 123.285,433.4 120.5,430.5C 128.713,397.397 144.213,368.397 167,343.5C 175.957,334.273 186.457,327.44 198.5,323C 202.71,317.122 207.877,312.289 214,308.5C 214.167,309.5 214.333,310.5 214.5,311.5C 213.262,313.924 211.762,316.258 210,318.5C 210.241,333.887 215.241,347.554 225,359.5C 230.5,366.333 236.667,372.5 243.5,378C 246.932,380.072 250.598,380.738 254.5,380C 260.752,377.131 265.919,372.964 270,367.5C 278.332,355.006 285.499,341.839 291.5,328C 292.572,323.876 292.738,319.71 292,315.5C 291,314.167 290,314.167 289,315.5C 286.205,310.534 287.372,309.368 292.5,312C 295.464,315.966 298.797,319.633 302.5,323C 324.949,335.115 342.449,352.282 355,374.5C 355.314,377.858 354.48,380.858 352.5,383.5 Z"/></g>
<g><path style="opacity:1" fill="#fd8bbe" d="M 349.5,443.5 C 349.691,423.972 351.691,404.639 355.5,385.5C 355.703,383.956 356.37,382.622 357.5,381.5C 358.167,380.167 358.833,380.167 359.5,381.5C 368.331,396.486 374.331,412.486 377.5,429.5C 377.167,431.167 376.833,432.833 376.5,434.5C 367.535,437.711 358.535,440.711 349.5,443.5 Z"/></g>
<g><path style="opacity:1" fill="#e95eb6" d="M 352.5,383.5 C 350.298,389.438 348.298,395.438 346.5,401.5C 348.979,395.875 351.979,390.542 355.5,385.5C 351.691,404.639 349.691,423.972 349.5,443.5C 342.012,445.955 334.345,447.622 326.5,448.5C 327.474,441.073 328.974,433.739 331,426.5C 334.719,410.732 341.386,396.398 351,383.5C 351.69,382.262 352.19,382.262 352.5,383.5 Z"/></g>
<g><path style="opacity:1" fill="#e85eb5" d="M 147.5,385.5 C 157.141,404.988 163.141,425.655 165.5,447.5C 159.989,446.789 154.655,445.455 149.5,443.5C 149.787,424.12 149.12,404.787 147.5,385.5 Z"/></g>
<g><path style="opacity:1" fill="#90385a" d="M 346.5,401.5 C 342.381,413.976 338.881,426.642 336,439.5C 337.328,426.182 340.828,413.515 346.5,401.5 Z"/></g>
</svg>
