<?xml version="1.0" encoding="UTF-8"?>
<!DOCTYPE svg PUBLIC "-//W3C//DTD SVG 1.1//EN" "http://www.w3.org/Graphics/SVG/1.1/DTD/svg11.dtd">
<svg xmlns="http://www.w3.org/2000/svg" version="1.1" width="500px" height="500px" style="shape-rendering:geometricPrecision; text-rendering:geometricPrecision; image-rendering:optimizeQuality; fill-rule:evenodd; clip-rule:evenodd" xmlns:xlink="http://www.w3.org/1999/xlink">
<g><path style="opacity:0.957" fill="#033067" d="M 499.5,226.5 C 499.5,241.5 499.5,256.5 499.5,271.5C 489.907,352.223 451.24,414.723 383.5,459C 311.522,501.255 236.189,508.255 157.5,480C 65.3241,440.498 12.6574,370.998 -0.5,271.5C -0.5,256.5 -0.5,241.5 -0.5,226.5C 9.09228,145.779 47.7589,83.2792 115.5,39C 187.475,-3.25514 262.808,-10.2551 341.5,18C 415.725,48.6118 465.225,102.112 490,178.5C 494.285,194.424 497.452,210.424 499.5,226.5 Z"/></g>
<g><path style="opacity:1" fill="#fecc01" d="M 462.5,350.5 C 440.297,318.153 410.964,294.32 374.5,279C 349.541,268.093 323.541,260.927 296.5,257.5C 295.174,242.995 295.174,228.328 296.5,213.5C 318.218,215.96 332.052,206.627 338,185.5C 339.299,179.881 339.632,174.214 339,168.5C 337.431,163.7 335.597,159.034 333.5,154.5C 338.113,139.715 341.946,124.715 345,109.5C 352.129,87.8946 344.629,75.3946 322.5,72C 318.167,71.6667 313.833,71.3333 309.5,71C 290.752,58.5265 270.085,51.1932 247.5,49C 236.167,48.3333 224.833,48.3333 213.5,49C 205.911,50.0768 199.411,53.2434 194,58.5C 192.837,63.3454 194.337,67.1787 198.5,70C 186.04,86.3369 182.04,104.504 186.5,124.5C 184.857,132.884 183.023,141.217 181,149.5C 179.905,154.78 179.405,160.113 179.5,165.5C 174.226,169.105 169.559,173.438 165.5,178.5C 169.254,180.439 173.254,181.439 177.5,181.5C 174.768,198.334 177.268,214.334 185,229.5C 192.621,240.301 202.787,247.301 215.5,250.5C 215.167,254.5 214.833,258.5 214.5,262.5C 152.633,279.204 106.133,315.538 75,371.5C 72.3333,376.833 69.6667,382.167 67,387.5C 66.4795,389.289 66.8129,390.956 68,392.5C 84.1585,411.828 102.659,428.495 123.5,442.5C 124.782,443.958 124.782,445.292 123.5,446.5C 57.0614,403.334 20.5614,342 14,262.5C 11.203,184.28 39.3696,119.78 98.5,69C 163.658,18.2347 236.325,3.56799 316.5,25C 387.366,46.8648 437.866,91.6981 468,159.5C 492.821,223.94 490.988,287.607 462.5,350.5 Z"/></g>
<g><path style="opacity:1" fill="#aca8c3" d="M 333.5,154.5 C 326.356,148.181 318.023,146.014 308.5,148C 303.834,149.232 299.167,150.399 294.5,151.5C 294.667,173.836 294.5,196.169 294,218.5C 292.741,221.356 291.241,224.023 289.5,226.5C 268.525,245.491 243.859,253.491 215.5,250.5C 202.787,247.301 192.621,240.301 185,229.5C 177.268,214.334 174.768,198.334 177.5,181.5C 173.254,181.439 169.254,180.439 165.5,178.5C 169.559,173.438 174.226,169.105 179.5,165.5C 186.301,159.38 193.301,159.047 200.5,164.5C 201.243,168.112 202.91,171.112 205.5,173.5C 206.09,174.766 206.59,176.099 207,177.5C 212.071,171.415 218.404,167.415 226,165.5C 236.853,168.476 247.853,170.809 259,172.5C 265.505,169.83 271.672,166.497 277.5,162.5C 278.34,157.182 278.173,151.848 277,146.5C 276.333,137.5 276.333,128.5 277,119.5C 279.17,110.153 281.337,100.819 283.5,91.5C 257.302,90.1274 231.969,84.794 207.5,75.5C 199.865,84.1036 194.865,94.1036 192.5,105.5C 190.787,106.635 190.12,108.302 190.5,110.5C 189.144,115.271 187.811,119.937 186.5,124.5C 182.04,104.504 186.04,86.3369 198.5,70C 194.337,67.1787 192.837,63.3454 194,58.5C 199.411,53.2434 205.911,50.0768 213.5,49C 224.833,48.3333 236.167,48.3333 247.5,49C 270.085,51.1932 290.752,58.5265 309.5,71C 313.833,71.3333 318.167,71.6667 322.5,72C 344.629,75.3946 352.129,87.8946 345,109.5C 341.946,124.715 338.113,139.715 333.5,154.5 Z"/></g>
<g><path style="opacity:1" fill="#ef7c63" d="M 205.5,173.5 C 207.252,173.582 208.252,172.749 208.5,171C 205.869,164.725 205.036,158.225 206,151.5C 208.192,145.13 210.358,138.796 212.5,132.5C 210.278,132.178 208.444,132.845 207,134.5C 201.579,143.771 199.412,153.771 200.5,164.5C 193.301,159.047 186.301,159.38 179.5,165.5C 179.405,160.113 179.905,154.78 181,149.5C 183.023,141.217 184.857,132.884 186.5,124.5C 187.811,119.937 189.144,115.271 190.5,110.5C 195.519,110.248 200.519,109.748 205.5,109C 207.592,108.047 207.925,106.714 206.5,105C 201.806,104.436 197.14,104.603 192.5,105.5C 194.865,94.1036 199.865,84.1036 207.5,75.5C 231.969,84.794 257.302,90.1274 283.5,91.5C 281.337,100.819 279.17,110.153 277,119.5C 276.333,128.5 276.333,137.5 277,146.5C 278.173,151.848 278.34,157.182 277.5,162.5C 271.672,166.497 265.505,169.83 259,172.5C 247.853,170.809 236.853,168.476 226,165.5C 218.404,167.415 212.071,171.415 207,177.5C 206.59,176.099 206.09,174.766 205.5,173.5 Z"/></g>
<g><path style="opacity:1" fill="#706b7a" d="M 190.5,110.5 C 190.12,108.302 190.787,106.635 192.5,105.5C 197.14,104.603 201.806,104.436 206.5,105C 207.925,106.714 207.592,108.047 205.5,109C 200.519,109.748 195.519,110.248 190.5,110.5 Z"/></g>
<g><path style="opacity:1" fill="#746c79" d="M 228.5,108.5 C 236.326,109.769 243.326,112.769 249.5,117.5C 248.833,118.833 247.833,119.833 246.5,120.5C 240.275,117.927 234.108,115.26 228,112.5C 227.421,111.072 227.588,109.738 228.5,108.5 Z"/></g>
<g><path style="opacity:1" fill="#140b08" d="M 197.5,122.5 C 199.635,122.147 200.968,122.98 201.5,125C 199.766,130.434 198.266,135.934 197,141.5C 193.869,143.166 192.369,142.166 192.5,138.5C 193.641,132.915 195.308,127.581 197.5,122.5 Z"/></g>
<g><path style="opacity:1" fill="#140b08" d="M 236.5,124.5 C 239.243,124.077 240.576,125.244 240.5,128C 239.46,132.868 238.293,137.701 237,142.5C 234.771,145.156 232.938,144.823 231.5,141.5C 233.017,135.759 234.684,130.092 236.5,124.5 Z"/></g>
<g><path style="opacity:1" fill="#0e0706" d="M 205.5,173.5 C 202.91,171.112 201.243,168.112 200.5,164.5C 199.412,153.771 201.579,143.771 207,134.5C 208.444,132.845 210.278,132.178 212.5,132.5C 210.358,138.796 208.192,145.13 206,151.5C 205.036,158.225 205.869,164.725 208.5,171C 208.252,172.749 207.252,173.582 205.5,173.5 Z"/></g>
<g><path style="opacity:1" fill="#0c0b0d" d="M 231.5,177.5 C 233.948,177.01 235.615,177.843 236.5,180C 231.75,189.289 224.25,193.455 214,192.5C 213.316,191.216 213.483,190.049 214.5,189C 222.304,188.114 227.971,184.28 231.5,177.5 Z"/></g>
<g><path style="opacity:1" fill="#ef7c62" d="M 333.5,154.5 C 335.597,159.034 337.431,163.7 339,168.5C 339.632,174.214 339.299,179.881 338,185.5C 332.052,206.627 318.218,215.96 296.5,213.5C 295.174,228.328 295.174,242.995 296.5,257.5C 296.5,259.5 296.5,261.5 296.5,263.5C 287.856,274.163 276.856,281.33 263.5,285C 246.74,289.491 229.74,290.658 212.5,288.5C 212.334,283.821 212.501,279.155 213,274.5C 213.236,272.155 214.07,270.155 215.5,268.5C 238.521,264.486 259.188,255.32 277.5,241C 282.49,236.856 286.49,232.023 289.5,226.5C 291.241,224.023 292.741,221.356 294,218.5C 294.5,196.169 294.667,173.836 294.5,151.5C 299.167,150.399 303.834,149.232 308.5,148C 318.023,146.014 326.356,148.181 333.5,154.5 Z"/></g>
<g><path style="opacity:1" fill="#110806" d="M 318.5,160.5 C 320.167,160.5 321.833,160.5 323.5,160.5C 323.657,161.873 323.49,163.207 323,164.5C 319.5,167.333 316,170.167 312.5,173C 316.776,174.486 321.109,175.819 325.5,177C 326.833,178.333 326.833,179.667 325.5,181C 319.229,180.728 313.062,179.561 307,177.5C 304.047,178.951 301.213,180.618 298.5,182.5C 296.525,181.725 295.691,180.391 296,178.5C 303.661,172.601 311.161,166.601 318.5,160.5 Z"/></g>
<g><path style="opacity:1" fill="#080504" d="M 289.5,226.5 C 286.49,232.023 282.49,236.856 277.5,241C 259.188,255.32 238.521,264.486 215.5,268.5C 214.539,266.735 214.205,264.735 214.5,262.5C 214.833,258.5 215.167,254.5 215.5,250.5C 243.859,253.491 268.525,245.491 289.5,226.5 Z"/></g>
<g><path style="opacity:1" fill="#7b5f52" d="M 296.5,257.5 C 323.541,260.927 349.541,268.093 374.5,279C 410.964,294.32 440.297,318.153 462.5,350.5C 463.616,353.337 463.116,356.004 461,358.5C 411.671,440.029 339.004,481.695 243,483.5C 200.654,482.569 161.154,471.569 124.5,450.5C 123.571,449.311 123.238,447.978 123.5,446.5C 124.782,445.292 124.782,443.958 123.5,442.5C 102.659,428.495 84.1585,411.828 68,392.5C 66.8129,390.956 66.4795,389.289 67,387.5C 69.6667,382.167 72.3333,376.833 75,371.5C 106.133,315.538 152.633,279.204 214.5,262.5C 214.205,264.735 214.539,266.735 215.5,268.5C 214.07,270.155 213.236,272.155 213,274.5C 212.501,279.155 212.334,283.821 212.5,288.5C 207.184,287.704 201.851,287.037 196.5,286.5C 195.965,289.238 196.965,291.072 199.5,292C 224.252,297.634 248.585,296.301 272.5,288C 283.674,283.492 293.174,276.659 301,267.5C 301.638,264.07 300.138,262.737 296.5,263.5C 296.5,261.5 296.5,259.5 296.5,257.5 Z"/></g>
<g><path style="opacity:1" fill="#f8f4f3" d="M 296.5,263.5 C 300.138,262.737 301.638,264.07 301,267.5C 293.174,276.659 283.674,283.492 272.5,288C 248.585,296.301 224.252,297.634 199.5,292C 196.965,291.072 195.965,289.238 196.5,286.5C 201.851,287.037 207.184,287.704 212.5,288.5C 229.74,290.658 246.74,289.491 263.5,285C 276.856,281.33 287.856,274.163 296.5,263.5 Z"/></g>
</svg>
