<?xml version="1.0" encoding="UTF-8"?>
<!DOCTYPE svg PUBLIC "-//W3C//DTD SVG 1.1//EN" "http://www.w3.org/Graphics/SVG/1.1/DTD/svg11.dtd">
<svg xmlns="http://www.w3.org/2000/svg" version="1.1" width="500px" height="500px" style="shape-rendering:geometricPrecision; text-rendering:geometricPrecision; image-rendering:optimizeQuality; fill-rule:evenodd; clip-rule:evenodd" xmlns:xlink="http://www.w3.org/1999/xlink">
<g><path style="opacity:0.957" fill="#023067" d="M 499.5,226.5 C 499.5,241.5 499.5,256.5 499.5,271.5C 489.907,352.223 451.24,414.723 383.5,459C 311.522,501.255 236.189,508.255 157.5,480C 65.3241,440.498 12.6574,370.998 -0.5,271.5C -0.5,256.5 -0.5,241.5 -0.5,226.5C 9.09228,145.779 47.7589,83.2792 115.5,39C 187.475,-3.25514 262.808,-10.2551 341.5,18C 415.725,48.6118 465.225,102.112 490,178.5C 494.285,194.424 497.452,210.424 499.5,226.5 Z"/></g>
<g><path style="opacity:1" fill="#fecc00" d="M 473.5,323.5 C 430.86,285.188 380.86,261.688 323.5,253C 317.511,252.301 311.511,251.801 305.5,251.5C 299.355,250.51 293.022,250.177 286.5,250.5C 286.5,243.5 286.5,236.5 286.5,229.5C 291.33,229.377 295.663,227.877 299.5,225C 304.079,220.926 308.079,216.426 311.5,211.5C 321.023,204.124 326.69,194.457 328.5,182.5C 336.051,168.356 341.551,153.356 345,137.5C 347.696,121.546 341.362,111.213 326,106.5C 318.593,88.5 307.426,73.3334 292.5,61C 285.671,57.1253 278.338,54.792 270.5,54C 240.982,52.7894 211.649,54.6227 182.5,59.5C 179.1,58.3027 175.766,56.8027 172.5,55C 160.977,53.509 157.477,58.009 162,68.5C 169.515,82.212 178.015,95.212 187.5,107.5C 181.61,127.165 177.11,147.165 174,167.5C 173.333,178.833 173.333,190.167 174,201.5C 175.471,218.294 182.971,231.461 196.5,241C 200.503,242.849 204.503,244.349 208.5,245.5C 208.331,250.181 207.998,254.848 207.5,259.5C 206.566,260.568 206.232,261.901 206.5,263.5C 172.381,266.153 139.381,273.653 107.5,286C 96.0217,291.821 85.3551,298.821 75.5,307C 61.6609,320.006 47.9942,333.173 34.5,346.5C -0.628666,263.167 7.538,184.501 59,110.5C 118.866,36.0843 196.366,5.58435 291.5,19C 374.041,36.2224 432.874,83.0558 468,159.5C 489.32,213.49 491.153,268.156 473.5,323.5 Z"/></g>
<g><path style="opacity:1" fill="#020100" d="M 328.5,182.5 C 330.127,170.268 326.127,160.435 316.5,153C 310.051,150.569 303.385,149.902 296.5,151C 288.903,156.202 280.569,158.536 271.5,158C 264.887,155.398 259.387,151.232 255,145.5C 251.208,138.745 247.041,132.245 242.5,126C 237.37,123.92 232.037,123.087 226.5,123.5C 226.297,121.61 226.963,120.11 228.5,119C 232.225,118.24 235.892,118.407 239.5,119.5C 239.833,119 240.167,118.5 240.5,118C 237.723,110.337 234.557,102.837 231,95.5C 229.833,93 228,91.1667 225.5,90C 214.977,87.6032 204.643,88.2699 194.5,92C 191.671,97.0071 189.337,102.174 187.5,107.5C 178.015,95.212 169.515,82.212 162,68.5C 157.477,58.009 160.977,53.509 172.5,55C 175.766,56.8027 179.1,58.3027 182.5,59.5C 211.649,54.6227 240.982,52.7894 270.5,54C 278.338,54.792 285.671,57.1253 292.5,61C 307.426,73.3334 318.593,88.5 326,106.5C 341.362,111.213 347.696,121.546 345,137.5C 341.551,153.356 336.051,168.356 328.5,182.5 Z"/></g>
<g><path style="opacity:1" fill="#f9a194" d="M 328.5,182.5 C 326.69,194.457 321.023,204.124 311.5,211.5C 304.276,215.045 296.609,216.379 288.5,215.5C 287.791,214.596 286.791,214.263 285.5,214.5C 285.179,219.695 285.513,224.695 286.5,229.5C 286.5,236.5 286.5,243.5 286.5,250.5C 286.177,257.022 286.51,263.355 287.5,269.5C 287.5,270.833 287.5,272.167 287.5,273.5C 282.039,278.112 276.373,282.612 270.5,287C 258.362,292.895 245.529,295.728 232,295.5C 222.692,295.519 213.525,294.519 204.5,292.5C 204.694,282.733 205.694,273.067 207.5,263.5C 226.813,261.456 244.147,254.622 259.5,243C 263.167,238.667 266.833,234.333 270.5,230C 254.222,239.367 236.555,244.867 217.5,246.5C 214.449,246.402 211.449,246.069 208.5,245.5C 204.503,244.349 200.503,242.849 196.5,241C 182.971,231.461 175.471,218.294 174,201.5C 173.333,190.167 173.333,178.833 174,167.5C 177.11,147.165 181.61,127.165 187.5,107.5C 189.337,102.174 191.671,97.0071 194.5,92C 204.643,88.2699 214.977,87.6032 225.5,90C 228,91.1667 229.833,93 231,95.5C 234.557,102.837 237.723,110.337 240.5,118C 240.167,118.5 239.833,119 239.5,119.5C 235.892,118.407 232.225,118.24 228.5,119C 226.963,120.11 226.297,121.61 226.5,123.5C 232.037,123.087 237.37,123.92 242.5,126C 247.041,132.245 251.208,138.745 255,145.5C 259.387,151.232 264.887,155.398 271.5,158C 280.569,158.536 288.903,156.202 296.5,151C 303.385,149.902 310.051,150.569 316.5,153C 326.127,160.435 330.127,170.268 328.5,182.5 Z"/></g>
<g><path style="opacity:1" fill="#0e0908" d="M 192.5,118.5 C 196.846,118.334 201.179,118.501 205.5,119C 206.833,120.333 206.833,121.667 205.5,123C 201.833,123.333 198.167,123.667 194.5,124C 192.606,125.404 190.606,126.57 188.5,127.5C 185.918,127.253 185.085,125.92 186,123.5C 188.326,121.934 190.492,120.268 192.5,118.5 Z"/></g>
<g><path style="opacity:1" fill="#120c0b" d="M 190.5,138.5 C 193.95,138.573 195.283,140.406 194.5,144C 194,148.5 193.5,153 193,157.5C 191.667,158.833 190.333,158.833 189,157.5C 188.083,151.004 188.583,144.671 190.5,138.5 Z"/></g>
<g><path style="opacity:1" fill="#17100f" d="M 233.5,140.5 C 234.5,140.5 235.5,140.5 236.5,140.5C 236.666,146.509 236.499,152.509 236,158.5C 234.333,161.167 232.667,161.167 231,158.5C 230.348,152.168 231.182,146.168 233.5,140.5 Z"/></g>
<g><path style="opacity:1" fill="#120c0b" d="M 204.5,153.5 C 206.635,153.147 207.968,153.98 208.5,156C 201.105,167.298 199.438,179.465 203.5,192.5C 201.856,192.714 200.356,192.38 199,191.5C 193.029,177.658 194.862,164.991 204.5,153.5 Z"/></g>
<g><path style="opacity:1" fill="#0d0707" d="M 306.5,165.5 C 307.833,165.5 309.167,165.5 310.5,165.5C 310.657,166.873 310.49,168.207 310,169.5C 307.65,171.683 305.483,174.016 303.5,176.5C 307.622,178.452 311.956,179.952 316.5,181C 318.118,183.8 317.285,185.3 314,185.5C 309.116,184.306 304.283,182.972 299.5,181.5C 296.136,184.701 292.636,187.701 289,190.5C 286.681,189.591 286.014,187.925 287,185.5C 293.703,178.965 300.203,172.298 306.5,165.5 Z"/></g>
<g><path style="opacity:1" fill="#110b0a" d="M 231.5,190.5 C 235.797,191.288 236.63,193.621 234,197.5C 229.278,203.542 223.278,205.875 216,204.5C 215.316,203.216 215.483,202.049 216.5,201C 223.71,200.415 228.71,196.915 231.5,190.5 Z"/></g>
<g><path style="opacity:1" fill="#090603" d="M 311.5,211.5 C 308.079,216.426 304.079,220.926 299.5,225C 295.663,227.877 291.33,229.377 286.5,229.5C 285.897,224.381 286.564,219.715 288.5,215.5C 296.609,216.379 304.276,215.045 311.5,211.5 Z"/></g>
<g><path style="opacity:1" fill="#7f524c" d="M 288.5,215.5 C 286.564,219.715 285.897,224.381 286.5,229.5C 285.513,224.695 285.179,219.695 285.5,214.5C 286.791,214.263 287.791,214.596 288.5,215.5 Z"/></g>
<g><path style="opacity:1" fill="#080504" d="M 207.5,263.5 C 207.5,262.167 207.5,260.833 207.5,259.5C 207.998,254.848 208.331,250.181 208.5,245.5C 211.449,246.069 214.449,246.402 217.5,246.5C 236.555,244.867 254.222,239.367 270.5,230C 266.833,234.333 263.167,238.667 259.5,243C 244.147,254.622 226.813,261.456 207.5,263.5 Z"/></g>
<g><path style="opacity:1" fill="#989835" d="M 286.5,250.5 C 293.022,250.177 299.355,250.51 305.5,251.5C 299.5,251.5 293.5,251.5 287.5,251.5C 287.5,257.5 287.5,263.5 287.5,269.5C 286.51,263.355 286.177,257.022 286.5,250.5 Z"/></g>
<g><path style="opacity:1" fill="#507847" d="M 305.5,251.5 C 311.511,251.801 317.511,252.301 323.5,253C 380.86,261.688 430.86,285.188 473.5,323.5C 473.703,325.044 474.37,326.378 475.5,327.5C 459.167,365.507 435.5,398.174 404.5,425.5C 404.103,424.475 403.437,424.308 402.5,425C 371.752,450.372 336.752,467.205 297.5,475.5C 293.368,410.524 290.035,345.524 287.5,280.5C 287.5,278.167 287.5,275.833 287.5,273.5C 287.5,272.167 287.5,270.833 287.5,269.5C 287.5,263.5 287.5,257.5 287.5,251.5C 293.5,251.5 299.5,251.5 305.5,251.5 Z"/></g>
<g><path style="opacity:1" fill="#507847" d="M 207.5,259.5 C 207.5,260.833 207.5,262.167 207.5,263.5C 205.694,273.067 204.694,282.733 204.5,292.5C 200.863,293.775 200.53,295.775 203.5,298.5C 196.942,356.181 190.275,413.847 183.5,471.5C 177.093,470.03 170.76,468.363 164.5,466.5C 105.859,444.693 61.1928,406.526 30.5,352C 31.965,350.226 33.2983,348.392 34.5,346.5C 47.9942,333.173 61.6609,320.006 75.5,307C 85.3551,298.821 96.0217,291.821 107.5,286C 139.381,273.653 172.381,266.153 206.5,263.5C 206.232,261.901 206.566,260.568 207.5,259.5 Z"/></g>
<g><path style="opacity:1" fill="#fff7f5" d="M 287.5,273.5 C 287.5,275.833 287.5,278.167 287.5,280.5C 271.782,294.967 253.115,301.967 231.5,301.5C 222.057,301.436 212.723,300.436 203.5,298.5C 200.53,295.775 200.863,293.775 204.5,292.5C 213.525,294.519 222.692,295.519 232,295.5C 245.529,295.728 258.362,292.895 270.5,287C 276.373,282.612 282.039,278.112 287.5,273.5 Z"/></g>
<g><path style="opacity:1" fill="#f6734e" d="M 287.5,280.5 C 290.035,345.524 293.368,410.524 297.5,475.5C 259.261,482.997 221.261,481.997 183.5,472.5C 183.5,472.167 183.5,471.833 183.5,471.5C 190.275,413.847 196.942,356.181 203.5,298.5C 212.723,300.436 222.057,301.436 231.5,301.5C 253.115,301.967 271.782,294.967 287.5,280.5 Z"/></g>
<g><path style="opacity:1" fill="#9d8e35" d="M 164.5,466.5 C 170.76,468.363 177.093,470.03 183.5,471.5C 183.5,471.833 183.5,472.167 183.5,472.5C 183.5,472.833 183.5,473.167 183.5,473.5C 176.861,471.734 170.527,469.401 164.5,466.5 Z"/></g>
<g><path style="opacity:1" fill="#e6bb17" d="M 404.5,425.5 C 346.709,472.62 280.709,490.453 206.5,479C 198.701,477.633 191.034,475.8 183.5,473.5C 183.5,473.167 183.5,472.833 183.5,472.5C 221.261,481.997 259.261,482.997 297.5,475.5C 336.752,467.205 371.752,450.372 402.5,425C 403.437,424.308 404.103,424.475 404.5,425.5 Z"/></g>
</svg>
