<?xml version="1.0" encoding="UTF-8"?>
<!DOCTYPE svg PUBLIC "-//W3C//DTD SVG 1.1//EN" "http://www.w3.org/Graphics/SVG/1.1/DTD/svg11.dtd">
<svg xmlns="http://www.w3.org/2000/svg" version="1.1" width="500px" height="500px" style="shape-rendering:geometricPrecision; text-rendering:geometricPrecision; image-rendering:optimizeQuality; fill-rule:evenodd; clip-rule:evenodd" xmlns:xlink="http://www.w3.org/1999/xlink">
<g><path style="opacity:0.957" fill="#033067" d="M 499.5,226.5 C 499.5,241.5 499.5,256.5 499.5,271.5C 489.907,352.223 451.24,414.723 383.5,459C 311.522,501.255 236.189,508.255 157.5,480C 65.3241,440.498 12.6574,370.998 -0.5,271.5C -0.5,256.5 -0.5,241.5 -0.5,226.5C 9.09228,145.779 47.7589,83.2792 115.5,39C 187.475,-3.25514 262.808,-10.2551 341.5,18C 415.725,48.6118 465.225,102.112 490,178.5C 494.285,194.424 497.452,210.424 499.5,226.5 Z"/></g>
<g><path style="opacity:1" fill="#fecc01" d="M 371.5,448.5 C 378.267,443.579 384.933,438.413 391.5,433C 397.667,426.833 403.833,420.667 410,414.5C 408.671,410.405 406.171,406.905 402.5,404C 386.075,389.445 367.408,378.445 346.5,371C 334.564,353.569 318.231,342.735 297.5,338.5C 296.412,332.979 295.412,327.312 294.5,321.5C 294.348,317.076 293.681,312.743 292.5,308.5C 313.7,296.492 325.7,278.158 328.5,253.5C 344.795,254.889 358.961,250.222 371,239.5C 381.286,226.376 382.12,212.709 373.5,198.5C 373.611,197.883 373.944,197.383 374.5,197C 373.207,196.51 371.873,196.343 370.5,196.5C 360.138,188.868 349.471,188.535 338.5,195.5C 338.859,193.629 339.859,192.129 341.5,191C 355.168,187.82 361.002,179.32 359,165.5C 356.747,161.497 354.914,157.33 353.5,153C 353.625,151.373 354.125,149.873 355,148.5C 369.152,135.811 368.985,123.311 354.5,111C 350.791,107.959 346.624,105.792 342,104.5C 342.082,99.1649 339.916,94.9982 335.5,92C 330.19,91.5262 327.523,88.6929 327.5,83.5C 328.662,78.8716 329.162,74.205 329,69.5C 323.623,64.2642 317.123,62.0975 309.5,63C 302.875,58.7093 297.209,53.376 292.5,47C 280.261,37.9557 267.594,37.289 254.5,45C 248.716,50.8063 241.882,54.6396 234,56.5C 228.335,55.5857 223.168,53.4191 218.5,50C 202.45,43.9088 188.95,47.4088 178,60.5C 174.83,66.6844 171.664,72.851 168.5,79C 166.913,79.8624 165.246,80.5291 163.5,81C 140.87,80.796 129.87,91.9627 130.5,114.5C 117.091,119.443 111.258,129.109 113,143.5C 114.646,147.29 116.146,151.123 117.5,155C 115.492,159.518 113.325,164.018 111,168.5C 109.104,179.375 113.604,185.708 124.5,187.5C 124.91,191.104 125.077,194.771 125,198.5C 125.5,199 126,199.5 126.5,200C 129.167,200.333 131.833,200.667 134.5,201C 136.16,202.488 137.16,204.321 137.5,206.5C 124.242,197.638 111.908,198.638 100.5,209.5C 98.7761,209.461 98.4427,209.794 99.5,210.5C 90.588,228.023 93.9213,242.857 109.5,255C 121.998,262.198 135.331,264.364 149.5,261.5C 151.988,279.33 160.655,293.163 175.5,303C 182.56,306.286 189.56,309.453 196.5,312.5C 196.5,324.167 196.5,335.833 196.5,347.5C 194.901,347.232 193.568,347.566 192.5,348.5C 173.942,352.733 159.942,363.066 150.5,379.5C 149.5,380.5 148.5,381.5 147.5,382.5C 126.738,390.929 109.404,403.929 95.5,421.5C 103.22,429.224 111.22,436.557 119.5,443.5C 65.644,408.189 31.8107,358.856 18,295.5C 2.3982,199.937 32.2315,122.103 107.5,62C 184.226,9.12766 265.559,1.12766 351.5,38C 423.765,74.6156 467.598,132.782 483,212.5C 494.023,307.919 461.19,384.086 384.5,441C 380.438,444.029 376.105,446.529 371.5,448.5 Z"/></g>
<g><path style="opacity:1" fill="#ff5e5d" d="M 338.5,195.5 C 337.967,198.122 336.967,200.622 335.5,203C 332.364,204.041 329.864,203.207 328,200.5C 325.524,197.052 324.357,193.219 324.5,189C 325.989,182.888 326.822,176.721 327,170.5C 324.173,166.251 320.506,162.918 316,160.5C 313.576,155.43 312.909,150.097 314,144.5C 316.565,142.037 318.065,139.037 318.5,135.5C 316.759,131.516 315.759,127.349 315.5,123C 315.112,119.362 316.112,116.195 318.5,113.5C 317.635,112.417 316.635,112.251 315.5,113C 310.833,115.667 306.167,118.333 301.5,121C 291.052,124.197 283.552,120.697 279,110.5C 276.386,107.21 273.219,104.71 269.5,103C 266.743,102.416 264.077,102.75 261.5,104C 256.5,107.667 251.5,111.333 246.5,115C 242.594,116.434 238.594,116.767 234.5,116C 230.5,112.667 226.5,109.333 222.5,106C 212.178,101.161 205.845,104.328 203.5,115.5C 204.461,122.953 208.794,126.786 216.5,127C 204.724,132.697 196.224,129.53 191,117.5C 189.38,115.274 187.214,113.94 184.5,113.5C 180.418,116.075 176.751,119.242 173.5,123C 168.541,125.931 163.207,127.764 157.5,128.5C 153.211,134.866 153.711,140.866 159,146.5C 159.667,150.167 159.667,153.833 159,157.5C 155.333,162.5 151.667,167.5 148,172.5C 148.965,181.768 149.299,191.101 149,200.5C 148.152,203.698 146.652,206.531 144.5,209C 143.167,209.667 141.833,209.667 140.5,209C 139.627,207.955 138.627,207.122 137.5,206.5C 137.16,204.321 136.16,202.488 134.5,201C 131.833,200.667 129.167,200.333 126.5,200C 126,199.5 125.5,199 125,198.5C 125.077,194.771 124.91,191.104 124.5,187.5C 113.604,185.708 109.104,179.375 111,168.5C 113.325,164.018 115.492,159.518 117.5,155C 116.146,151.123 114.646,147.29 113,143.5C 111.258,129.109 117.091,119.443 130.5,114.5C 129.87,91.9627 140.87,80.796 163.5,81C 165.246,80.5291 166.913,79.8624 168.5,79C 171.664,72.851 174.83,66.6844 178,60.5C 188.95,47.4088 202.45,43.9088 218.5,50C 223.168,53.4191 228.335,55.5857 234,56.5C 241.882,54.6396 248.716,50.8063 254.5,45C 267.594,37.289 280.261,37.9557 292.5,47C 297.209,53.376 302.875,58.7093 309.5,63C 317.123,62.0975 323.623,64.2642 329,69.5C 329.162,74.205 328.662,78.8716 327.5,83.5C 327.523,88.6929 330.19,91.5262 335.5,92C 339.916,94.9982 342.082,99.1649 342,104.5C 346.624,105.792 350.791,107.959 354.5,111C 368.985,123.311 369.152,135.811 355,148.5C 354.125,149.873 353.625,151.373 353.5,153C 354.914,157.33 356.747,161.497 359,165.5C 361.002,179.32 355.168,187.82 341.5,191C 339.859,192.129 338.859,193.629 338.5,195.5 Z"/></g>
<g><path style="opacity:1" fill="#feb8c1" d="M 338.5,195.5 C 349.471,188.535 360.138,188.868 370.5,196.5C 353.91,204.589 341.41,216.923 333,233.5C 332.009,235.447 331.675,237.447 332,239.5C 339.751,219.581 353.585,205.915 373.5,198.5C 382.12,212.709 381.286,226.376 371,239.5C 358.961,250.222 344.795,254.889 328.5,253.5C 325.7,278.158 313.7,296.492 292.5,308.5C 269.241,317.056 245.241,319.89 220.5,317C 212.727,315.945 205.061,314.445 197.5,312.5C 197.167,312.5 196.833,312.5 196.5,312.5C 189.56,309.453 182.56,306.286 175.5,303C 160.655,293.163 151.988,279.33 149.5,261.5C 135.331,264.364 121.998,262.198 109.5,255C 93.9213,242.857 90.588,228.023 99.5,210.5C 119.232,219.064 134.399,232.73 145,251.5C 144.626,248.725 143.626,246.058 142,243.5C 131.619,227.952 117.786,216.619 100.5,209.5C 111.908,198.638 124.242,197.638 137.5,206.5C 138.627,207.122 139.627,207.955 140.5,209C 141.833,209.667 143.167,209.667 144.5,209C 146.652,206.531 148.152,203.698 149,200.5C 149.299,191.101 148.965,181.768 148,172.5C 151.667,167.5 155.333,162.5 159,157.5C 159.667,153.833 159.667,150.167 159,146.5C 153.711,140.866 153.211,134.866 157.5,128.5C 163.207,127.764 168.541,125.931 173.5,123C 176.751,119.242 180.418,116.075 184.5,113.5C 187.214,113.94 189.38,115.274 191,117.5C 196.224,129.53 204.724,132.697 216.5,127C 208.794,126.786 204.461,122.953 203.5,115.5C 205.845,104.328 212.178,101.161 222.5,106C 226.5,109.333 230.5,112.667 234.5,116C 238.594,116.767 242.594,116.434 246.5,115C 251.5,111.333 256.5,107.667 261.5,104C 264.077,102.75 266.743,102.416 269.5,103C 273.219,104.71 276.386,107.21 279,110.5C 283.552,120.697 291.052,124.197 301.5,121C 306.167,118.333 310.833,115.667 315.5,113C 316.635,112.251 317.635,112.417 318.5,113.5C 316.112,116.195 315.112,119.362 315.5,123C 315.759,127.349 316.759,131.516 318.5,135.5C 318.065,139.037 316.565,142.037 314,144.5C 312.909,150.097 313.576,155.43 316,160.5C 320.506,162.918 324.173,166.251 327,170.5C 326.822,176.721 325.989,182.888 324.5,189C 324.357,193.219 325.524,197.052 328,200.5C 329.864,203.207 332.364,204.041 335.5,203C 336.967,200.622 337.967,198.122 338.5,195.5 Z"/></g>
<g><path style="opacity:1" fill="#ff5f5f" d="M 279.5,153.5 C 292.114,150.567 301.614,154.567 308,165.5C 309.024,171.168 306.691,174.834 301,176.5C 290.094,178.647 279.594,177.481 269.5,173C 266.398,167.478 267.065,162.478 271.5,158C 274.099,156.205 276.766,154.705 279.5,153.5 Z"/></g>
<g><path style="opacity:1" fill="#ff5f5f" d="M 180.5,155.5 C 188.64,154.283 195.973,156.116 202.5,161C 208.5,167.667 207.5,173 199.5,177C 191.055,179.963 182.388,180.963 173.5,180C 165.783,177.73 163.617,172.897 167,165.5C 170.369,160.573 174.869,157.239 180.5,155.5 Z"/></g>
<g><path style="opacity:1" fill="#381814" d="M 283.5,186.5 C 293.024,186.522 296.858,191.189 295,200.5C 292.259,205.419 288.092,207.252 282.5,206C 276.975,203.081 275.142,198.581 277,192.5C 278.494,189.686 280.66,187.686 283.5,186.5 Z"/></g>
<g><path style="opacity:1" fill="#371814" d="M 186.5,188.5 C 196.04,187.87 200.206,192.204 199,201.5C 196.518,206.991 192.351,209.157 186.5,208C 180.891,204.723 179.058,199.89 181,193.5C 182.73,191.598 184.563,189.931 186.5,188.5 Z"/></g>
<g><path style="opacity:1" fill="#482521" d="M 370.5,196.5 C 371.873,196.343 373.207,196.51 374.5,197C 373.944,197.383 373.611,197.883 373.5,198.5C 353.585,205.915 339.751,219.581 332,239.5C 331.675,237.447 332.009,235.447 333,233.5C 341.41,216.923 353.91,204.589 370.5,196.5 Z"/></g>
<g><path style="opacity:1" fill="#4e2926" d="M 100.5,209.5 C 117.786,216.619 131.619,227.952 142,243.5C 143.626,246.058 144.626,248.725 145,251.5C 134.399,232.73 119.232,219.064 99.5,210.5C 98.4427,209.794 98.7761,209.461 100.5,209.5 Z"/></g>
<g><path style="opacity:1" fill="#4e2a27" d="M 225.5,192.5 C 227.485,208.466 228.152,224.799 227.5,241.5C 229.199,241.38 230.865,241.046 232.5,240.5C 234.841,241.783 237.341,242.783 240,243.5C 244.48,241.157 249.313,239.823 254.5,239.5C 255.213,237.224 255.713,234.891 256,232.5C 258.555,240.447 255.722,243.447 247.5,241.5C 245.294,243.199 242.794,244.199 240,244.5C 235.362,242.765 230.695,242.099 226,242.5C 225.5,225.837 225.333,209.17 225.5,192.5 Z"/></g>
<g><path style="opacity:1" fill="#4e2926" d="M 260.5,244.5 C 261.525,244.897 261.692,245.563 261,246.5C 251.339,255.04 240.172,257.874 227.5,255C 224.274,253.894 221.607,252.061 219.5,249.5C 219.833,249.167 220.167,248.833 220.5,248.5C 227.541,254.134 235.541,255.967 244.5,254C 250.99,252.596 256.323,249.429 260.5,244.5 Z"/></g>
<g><path style="opacity:1" fill="#341510" d="M 292.5,308.5 C 293.681,312.743 294.348,317.076 294.5,321.5C 282.382,335.274 267.048,342.441 248.5,343C 229.521,344.841 212.521,340.008 197.5,328.5C 197.5,323.167 197.5,317.833 197.5,312.5C 205.061,314.445 212.727,315.945 220.5,317C 245.241,319.89 269.241,317.056 292.5,308.5 Z"/></g>
<g><path style="opacity:1" fill="#feb8c1" d="M 294.5,321.5 C 295.412,327.312 296.412,332.979 297.5,338.5C 298.167,345.167 298.833,351.833 299.5,358.5C 282.545,371.453 265.878,384.787 249.5,398.5C 249.167,398.5 248.833,398.5 248.5,398.5C 231.283,386.065 214.283,373.399 197.5,360.5C 197.5,349.833 197.5,339.167 197.5,328.5C 212.521,340.008 229.521,344.841 248.5,343C 267.048,342.441 282.382,335.274 294.5,321.5 Z"/></g>
<g><path style="opacity:1" fill="#7fa8c4" d="M 297.5,338.5 C 318.231,342.735 334.564,353.569 346.5,371C 367.408,378.445 386.075,389.445 402.5,404C 406.171,406.905 408.671,410.405 410,414.5C 403.833,420.667 397.667,426.833 391.5,433C 384.933,438.413 378.267,443.579 371.5,448.5C 370.341,450.25 368.674,451.25 366.5,451.5C 365.624,451.631 364.957,451.298 364.5,450.5C 367.823,440.662 368.323,430.662 366,420.5C 362.118,406.738 357.118,393.405 351,380.5C 354.316,390.831 357.983,401.165 362,411.5C 365.966,422.277 366.966,433.277 365,444.5C 364.105,447.951 362.938,451.284 361.5,454.5C 344.735,464.877 326.735,472.544 307.5,477.5C 307.169,469.804 307.503,462.138 308.5,454.5C 315.965,447.845 324.632,445.345 334.5,447C 338.072,448.569 341.072,450.902 343.5,454C 344.167,454.667 344.833,454.667 345.5,454C 338.996,445.498 330.662,442.832 320.5,446C 315.919,447.871 311.752,450.371 308,453.5C 308.403,433.099 309.903,412.766 312.5,392.5C 312.5,391.5 312.5,390.5 312.5,389.5C 312.272,377.385 307.939,367.051 299.5,358.5C 298.833,351.833 298.167,345.167 297.5,338.5 Z"/></g>
<g><path style="opacity:1" fill="#7fa8c4" d="M 192.5,348.5 C 193.833,348.5 195.167,348.5 196.5,348.5C 196.5,352.5 196.5,356.5 196.5,360.5C 191.397,367.295 187.064,374.628 183.5,382.5C 184.747,384.497 185.581,386.497 186,388.5C 185.311,387.643 184.478,386.977 183.5,386.5C 183.167,388.167 182.833,389.833 182.5,391.5C 186.541,413.075 189.708,434.741 192,456.5C 184.311,450.563 175.811,448.73 166.5,451C 161.332,454.922 161.665,455.256 167.5,452C 177.302,450.269 185.802,452.769 193,459.5C 193.556,465.835 194.056,472.168 194.5,478.5C 173.717,473.768 154.383,465.768 136.5,454.5C 137.097,454.265 137.43,453.765 137.5,453C 135.543,445.279 135.043,437.445 136,429.5C 139.732,412.474 144.566,395.808 150.5,379.5C 159.942,363.066 173.942,352.733 192.5,348.5 Z"/></g>
<g><path style="opacity:1" fill="#d5aa63" d="M 196.5,312.5 C 196.833,312.5 197.167,312.5 197.5,312.5C 197.5,317.833 197.5,323.167 197.5,328.5C 197.5,339.167 197.5,349.833 197.5,360.5C 197.167,360.5 196.833,360.5 196.5,360.5C 196.5,356.5 196.5,352.5 196.5,348.5C 195.167,348.5 193.833,348.5 192.5,348.5C 193.568,347.566 194.901,347.232 196.5,347.5C 196.5,335.833 196.5,324.167 196.5,312.5 Z"/></g>
<g><path style="opacity:1" fill="#80a8c4" d="M 147.5,382.5 C 145.429,390.237 142.929,398.237 140,406.5C 134.282,422.223 133.115,438.223 136.5,454.5C 131.457,451.985 126.79,448.985 122.5,445.5C 122.027,444.094 121.027,443.427 119.5,443.5C 111.22,436.557 103.22,429.224 95.5,421.5C 109.404,403.929 126.738,390.929 147.5,382.5 Z"/></g>
<g><path style="opacity:1" fill="#f6dbd0" d="M 299.5,358.5 C 307.939,367.051 312.272,377.385 312.5,389.5C 310.251,391.331 309.085,393.664 309,396.5C 309.949,394.907 311.115,393.574 312.5,392.5C 309.903,412.766 308.403,433.099 308,453.5C 311.752,450.371 315.919,447.871 320.5,446C 330.662,442.832 338.996,445.498 345.5,454C 344.833,454.667 344.167,454.667 343.5,454C 341.072,450.902 338.072,448.569 334.5,447C 324.632,445.345 315.965,447.845 308.5,454.5C 307.503,462.138 307.169,469.804 307.5,477.5C 278.982,485.341 249.982,487.508 220.5,484C 211.559,482.847 202.892,481.013 194.5,478.5C 194.056,472.168 193.556,465.835 193,459.5C 185.802,452.769 177.302,450.269 167.5,452C 161.665,455.256 161.332,454.922 166.5,451C 175.811,448.73 184.311,450.563 192,456.5C 189.708,434.741 186.541,413.075 182.5,391.5C 182.833,389.833 183.167,388.167 183.5,386.5C 184.478,386.977 185.311,387.643 186,388.5C 185.581,386.497 184.747,384.497 183.5,382.5C 187.064,374.628 191.397,367.295 196.5,360.5C 196.833,360.5 197.167,360.5 197.5,360.5C 214.283,373.399 231.283,386.065 248.5,398.5C 247.042,401.39 246.209,404.39 246,407.5C 247,405.5 248,403.5 249,401.5C 250.252,403.001 251.252,404.668 252,406.5C 252.654,407.696 253.154,407.696 253.5,406.5C 252.153,403.807 250.82,401.14 249.5,398.5C 265.878,384.787 282.545,371.453 299.5,358.5 Z"/></g>
<g><path style="opacity:1" fill="#61423c" d="M 312.5,389.5 C 312.5,390.5 312.5,391.5 312.5,392.5C 311.115,393.574 309.949,394.907 309,396.5C 309.085,393.664 310.251,391.331 312.5,389.5 Z"/></g>
<g><path style="opacity:1" fill="#61423b" d="M 248.5,398.5 C 248.833,398.5 249.167,398.5 249.5,398.5C 250.82,401.14 252.153,403.807 253.5,406.5C 253.154,407.696 252.654,407.696 252,406.5C 251.252,404.668 250.252,403.001 249,401.5C 248,403.5 247,405.5 246,407.5C 246.209,404.39 247.042,401.39 248.5,398.5 Z"/></g>
<g><path style="opacity:1" fill="#60413b" d="M 301.5,407.5 C 302.343,404.484 303.843,401.817 306,399.5C 305.625,402.73 304.125,405.397 301.5,407.5 Z"/></g>
<g><path style="opacity:1" fill="#d8cfcd" d="M 366.5,451.5 C 365.341,453.25 363.674,454.25 361.5,454.5C 362.938,451.284 364.105,447.951 365,444.5C 366.966,433.277 365.966,422.277 362,411.5C 357.983,401.165 354.316,390.831 351,380.5C 357.118,393.405 362.118,406.738 366,420.5C 368.323,430.662 367.823,440.662 364.5,450.5C 364.957,451.298 365.624,451.631 366.5,451.5 Z"/></g>
<g><path style="opacity:1" fill="#63443e" d="M 194.5,400.5 C 200.47,408.654 206.304,416.987 212,425.5C 212.982,426.759 213.315,428.092 213,429.5C 206.313,420.116 200.146,410.449 194.5,400.5 Z"/></g>
<g><path style="opacity:1" fill="#5f403a" d="M 301.5,407.5 C 300.617,410.704 298.95,413.371 296.5,415.5C 297.383,412.296 299.05,409.629 301.5,407.5 Z"/></g>
<g><path style="opacity:1" fill="#64453f" d="M 261.5,422.5 C 258.252,418.67 256.085,414.337 255,409.5C 257.705,413.577 259.872,417.91 261.5,422.5 Z"/></g>
<g><path style="opacity:1" fill="#3f201c" d="M 248.5,416.5 C 252.976,416.8 254.31,418.967 252.5,423C 246.339,423.878 245.006,421.711 248.5,416.5 Z"/></g>
<g><path style="opacity:1" fill="#d3cdce" d="M 150.5,379.5 C 144.566,395.808 139.732,412.474 136,429.5C 135.043,437.445 135.543,445.279 137.5,453C 137.43,453.765 137.097,454.265 136.5,454.5C 133.115,438.223 134.282,422.223 140,406.5C 142.929,398.237 145.429,390.237 147.5,382.5C 148.5,381.5 149.5,380.5 150.5,379.5 Z"/></g>
<g><path style="opacity:1" fill="#62443d" d="M 296.5,415.5 C 294.913,419.683 292.579,423.35 289.5,426.5C 291.087,422.317 293.421,418.65 296.5,415.5 Z"/></g>
<g><path style="opacity:1" fill="#3a1b17" d="M 247.5,428.5 C 252.123,427.408 253.956,429.075 253,433.5C 247.42,435.752 245.587,434.085 247.5,428.5 Z"/></g>
<g><path style="opacity:1" fill="#64453f" d="M 261.5,422.5 C 264.593,426.347 266.926,430.68 268.5,435.5C 265.407,431.653 263.074,427.32 261.5,422.5 Z"/></g>
<g><path style="opacity:1" fill="#60423b" d="M 289.5,426.5 C 288.617,429.704 286.95,432.371 284.5,434.5C 285.383,431.296 287.05,428.629 289.5,426.5 Z"/></g>
<g><path style="opacity:1" fill="#65463f" d="M 240.5,417.5 C 241.097,417.735 241.43,418.235 241.5,419C 239.471,424.224 237.305,429.391 235,434.5C 236.213,428.715 238.046,423.048 240.5,417.5 Z"/></g>
<g><path style="opacity:1" fill="#60423b" d="M 284.5,434.5 C 283.657,437.516 282.157,440.183 280,442.5C 280.375,439.27 281.875,436.603 284.5,434.5 Z"/></g>
<g><path style="opacity:1" fill="#3a1b17" d="M 247.5,440.5 C 252.123,439.408 253.956,441.075 253,445.5C 247.42,447.752 245.587,446.085 247.5,440.5 Z"/></g>
<g><path style="opacity:1" fill="#62433d" d="M 268.5,435.5 C 270.977,438.438 272.977,441.771 274.5,445.5C 275.274,446.711 276.107,446.711 277,445.5C 277.333,448.167 276.333,448.833 274,447.5C 271.881,443.598 270.048,439.598 268.5,435.5 Z"/></g>
<g><path style="opacity:1" fill="#c3ad4e" d="M 119.5,443.5 C 121.027,443.427 122.027,444.094 122.5,445.5C 120.973,445.573 119.973,444.906 119.5,443.5 Z"/></g>
<g><path style="opacity:1" fill="#65463f" d="M 219.5,438.5 C 222.158,441.803 224.825,445.136 227.5,448.5C 228.584,447.335 229.417,446.002 230,444.5C 230.335,447.18 229.501,449.513 227.5,451.5C 224.059,447.612 221.392,443.279 219.5,438.5 Z"/></g>
</svg>
