<?xml version="1.0" encoding="UTF-8"?>
<!DOCTYPE svg PUBLIC "-//W3C//DTD SVG 1.1//EN" "http://www.w3.org/Graphics/SVG/1.1/DTD/svg11.dtd">
<svg xmlns="http://www.w3.org/2000/svg" version="1.1" width="500px" height="500px" style="shape-rendering:geometricPrecision; text-rendering:geometricPrecision; image-rendering:optimizeQuality; fill-rule:evenodd; clip-rule:evenodd" xmlns:xlink="http://www.w3.org/1999/xlink">
<g><path style="opacity:0.956" fill="#033067" d="M 499.5,226.5 C 499.5,241.5 499.5,256.5 499.5,271.5C 489.907,352.223 451.24,414.723 383.5,459C 311.522,501.255 236.189,508.255 157.5,480C 65.3241,440.498 12.6574,370.998 -0.5,271.5C -0.5,256.5 -0.5,241.5 -0.5,226.5C 9.09228,145.779 47.7589,83.2792 115.5,39C 187.475,-3.25514 262.808,-10.2551 341.5,18C 415.725,48.6118 465.225,102.112 490,178.5C 494.285,194.424 497.452,210.424 499.5,226.5 Z"/></g>
<g><path style="opacity:1" fill="#fecc00" d="M 484.5,273.5 C 443.913,259.416 402.246,250.249 359.5,246C 341.456,245.115 323.456,245.615 305.5,247.5C 304.5,247.167 303.5,246.833 302.5,246.5C 300.016,240.081 295.349,237.748 288.5,239.5C 287.744,232.509 287.577,225.509 288,218.5C 296.969,208.558 302.136,196.891 303.5,183.5C 331.56,184.61 344.393,171.276 342,143.5C 340.058,136.28 336.558,129.947 331.5,124.5C 334.215,112.983 335.049,101.316 334,89.5C 330.122,80.7377 323.289,76.571 313.5,77C 296.51,39.8728 267.51,20.3728 226.5,18.5C 208.681,18.6519 199.348,27.6519 198.5,45.5C 186.266,38.83 174.266,38.9967 162.5,46C 154.932,53.3203 152.432,62.1536 155,72.5C 159.869,91.6115 167.369,109.611 177.5,126.5C 177.611,127.117 177.944,127.617 178.5,128C 163.033,127.87 154.366,135.37 152.5,150.5C 153.527,170.699 164.027,182.699 184,186.5C 187.638,202.12 195.138,215.454 206.5,226.5C 207.11,227.391 207.443,228.391 207.5,229.5C 208.38,236.123 208.713,242.789 208.5,249.5C 204.16,250.252 200.993,252.586 199,256.5C 198.436,261.194 198.603,265.86 199.5,270.5C 197.5,270.5 196.5,271.5 196.5,273.5C 158.628,282.271 124.628,298.771 94.5,323C 77.3684,336.965 61.3684,352.131 46.5,368.5C 12.2156,308.447 4.71556,245.113 24,178.5C 53.8104,95.6902 111.31,43.1902 196.5,21C 275.622,5.69586 345.956,23.6959 407.5,75C 465.284,128.491 490.951,194.658 484.5,273.5 Z"/></g>
<g><path style="opacity:1" fill="#010100" d="M 331.5,124.5 C 322.28,120.184 313.28,120.684 304.5,126C 301.945,131.662 299.778,137.496 298,143.5C 297.424,146.124 296.09,146.791 294,145.5C 293.092,135.74 293.592,126.073 295.5,116.5C 284.053,115.044 272.719,112.877 261.5,110C 257.179,109.501 252.846,109.334 248.5,109.5C 247.874,105.625 249.541,103.791 253.5,104C 241.452,95.9037 232.452,85.237 226.5,72C 212.161,72.6695 199.995,78.1695 190,88.5C 186.53,93.7736 183.864,99.4402 182,105.5C 180.536,112.645 179.036,119.645 177.5,126.5C 167.369,109.611 159.869,91.6115 155,72.5C 152.432,62.1536 154.932,53.3203 162.5,46C 174.266,38.9967 186.266,38.83 198.5,45.5C 199.348,27.6519 208.681,18.6519 226.5,18.5C 267.51,20.3728 296.51,39.8728 313.5,77C 323.289,76.571 330.122,80.7377 334,89.5C 335.049,101.316 334.215,112.983 331.5,124.5 Z"/></g>
<g><path style="opacity:1" fill="#ef7c62" d="M 331.5,124.5 C 336.558,129.947 340.058,136.28 342,143.5C 344.393,171.276 331.56,184.61 303.5,183.5C 302.136,196.891 296.969,208.558 288,218.5C 287.577,225.509 287.744,232.509 288.5,239.5C 269.038,257.293 246.705,262.127 221.5,254C 218.006,252.421 214.673,250.587 211.5,248.5C 210.583,249.127 209.583,249.461 208.5,249.5C 208.713,242.789 208.38,236.123 207.5,229.5C 213.309,238.808 220.975,246.308 230.5,252C 256.52,257.576 274.353,248.076 284,223.5C 266.52,238.161 246.686,242.661 224.5,237C 217.952,234.234 211.952,230.734 206.5,226.5C 195.138,215.454 187.638,202.12 184,186.5C 164.027,182.699 153.527,170.699 152.5,150.5C 154.366,135.37 163.033,127.87 178.5,128C 177.944,127.617 177.611,127.117 177.5,126.5C 179.036,119.645 180.536,112.645 182,105.5C 183.864,99.4402 186.53,93.7736 190,88.5C 199.995,78.1695 212.161,72.6695 226.5,72C 232.452,85.237 241.452,95.9037 253.5,104C 249.541,103.791 247.874,105.625 248.5,109.5C 252.846,109.334 257.179,109.501 261.5,110C 272.719,112.877 284.053,115.044 295.5,116.5C 293.592,126.073 293.092,135.74 294,145.5C 296.09,146.791 297.424,146.124 298,143.5C 299.778,137.496 301.945,131.662 304.5,126C 313.28,120.684 322.28,120.184 331.5,124.5 Z"/></g>
<g><path style="opacity:1" fill="#120907" d="M 206.5,101.5 C 208.527,101.338 210.527,101.505 212.5,102C 213.833,103.667 213.833,105.333 212.5,107C 206.371,107.232 201.038,109.399 196.5,113.5C 193.074,111.74 192.741,109.574 195.5,107C 199.017,104.674 202.683,102.84 206.5,101.5 Z"/></g>
<g><path style="opacity:1" fill="#130a07" d="M 258.5,120.5 C 260.144,120.286 261.644,120.62 263,121.5C 263.667,127.167 263.667,132.833 263,138.5C 261.333,139.833 259.667,139.833 258,138.5C 257.212,132.418 257.379,126.418 258.5,120.5 Z"/></g>
<g><path style="opacity:1" fill="#170d0a" d="M 203.5,122.5 C 205.144,122.286 206.644,122.62 208,123.5C 208.667,129.5 208.667,135.5 208,141.5C 206.667,142.833 205.333,142.833 204,141.5C 202.367,135.145 202.201,128.812 203.5,122.5 Z"/></g>
<g><path style="opacity:1" fill="#110906" d="M 232.5,131.5 C 234.948,131.085 236.281,132.085 236.5,134.5C 233.61,147.756 233.944,160.923 237.5,174C 236.168,178.437 234.335,178.604 232,174.5C 228.454,162.312 227.787,149.979 230,137.5C 230.236,135.189 231.069,133.189 232.5,131.5 Z"/></g>
<g><path style="opacity:1" fill="#0f0705" d="M 325.5,132.5 C 329.071,132.408 330.238,134.074 329,137.5C 325.318,141.015 321.818,144.682 318.5,148.5C 321.783,151.482 325.449,153.982 329.5,156C 330.995,159.841 329.661,161.174 325.5,160C 321.732,157.7 317.898,155.533 314,153.5C 311.704,154.628 309.871,156.295 308.5,158.5C 304.111,159.266 302.944,157.6 305,153.5C 312.036,146.632 318.869,139.632 325.5,132.5 Z"/></g>
<g><path style="opacity:1" fill="#110806" d="M 160.5,140.5 C 162.288,140.215 163.955,140.548 165.5,141.5C 170.527,148.027 175.36,154.693 180,161.5C 181.211,171.398 179.378,172.065 174.5,163.5C 169.601,162.822 164.767,162.488 160,162.5C 159.28,160.888 159.446,159.388 160.5,158C 163.451,157.904 166.118,157.071 168.5,155.5C 166.527,152.36 164.36,149.36 162,146.5C 160.872,144.655 160.372,142.655 160.5,140.5 Z"/></g>
<g><path style="opacity:1" fill="#0e0705" d="M 258.5,182.5 C 260.167,182.5 261.833,182.5 263.5,182.5C 261.54,191.299 256.206,197.132 247.5,200C 243.959,201.255 240.459,201.422 237,200.5C 236.333,199.167 236.333,197.833 237,196.5C 247.135,196.194 254.302,191.528 258.5,182.5 Z"/></g>
<g><path style="opacity:1" fill="#0b0503" d="M 207.5,229.5 C 207.443,228.391 207.11,227.391 206.5,226.5C 211.952,230.734 217.952,234.234 224.5,237C 246.686,242.661 266.52,238.161 284,223.5C 274.353,248.076 256.52,257.576 230.5,252C 220.975,246.308 213.309,238.808 207.5,229.5 Z"/></g>
<g><path style="opacity:1" fill="#7b5f51" d="M 288.5,239.5 C 295.349,237.748 300.016,240.081 302.5,246.5C 303.5,246.833 304.5,247.167 305.5,247.5C 323.456,245.615 341.456,245.115 359.5,246C 402.246,250.249 443.913,259.416 484.5,273.5C 488.159,274.952 491.825,276.619 495.5,278.5C 486.188,310.785 471.855,340.452 452.5,367.5C 383.816,450.968 295.816,483.801 188.5,466C 157.396,459.108 128.396,447.275 101.5,430.5C 78.5839,415.76 58.5839,397.594 41.5,376C 43.3735,373.629 45.0402,371.129 46.5,368.5C 61.3684,352.131 77.3684,336.965 94.5,323C 124.628,298.771 158.628,282.271 196.5,273.5C 211.672,291.277 230.672,297.11 253.5,291C 255.192,289.599 255.859,287.766 255.5,285.5C 246.246,287.231 236.913,287.731 227.5,287C 223.021,285.729 218.688,284.062 214.5,282C 209.32,278.31 204.32,274.477 199.5,270.5C 198.603,265.86 198.436,261.194 199,256.5C 200.993,252.586 204.16,250.252 208.5,249.5C 209.583,249.461 210.583,249.127 211.5,248.5C 214.673,250.587 218.006,252.421 221.5,254C 246.705,262.127 269.038,257.293 288.5,239.5 Z"/></g>
<g><path style="opacity:1" fill="#f8f6f5" d="M 199.5,270.5 C 204.32,274.477 209.32,278.31 214.5,282C 218.688,284.062 223.021,285.729 227.5,287C 236.913,287.731 246.246,287.231 255.5,285.5C 255.859,287.766 255.192,289.599 253.5,291C 230.672,297.11 211.672,291.277 196.5,273.5C 196.5,271.5 197.5,270.5 199.5,270.5 Z"/></g>
<g><path style="opacity:1" fill="#f6c60a" d="M 452.5,367.5 C 415.514,428.254 361.848,465.42 291.5,479C 220.746,490.646 157.413,474.48 101.5,430.5C 128.396,447.275 157.396,459.108 188.5,466C 295.816,483.801 383.816,450.968 452.5,367.5 Z"/></g>
</svg>
