<?xml version="1.0" encoding="UTF-8"?>
<!DOCTYPE svg PUBLIC "-//W3C//DTD SVG 1.1//EN" "http://www.w3.org/Graphics/SVG/1.1/DTD/svg11.dtd">
<svg xmlns="http://www.w3.org/2000/svg" version="1.1" width="500px" height="500px" style="shape-rendering:geometricPrecision; text-rendering:geometricPrecision; image-rendering:optimizeQuality; fill-rule:evenodd; clip-rule:evenodd" xmlns:xlink="http://www.w3.org/1999/xlink">
<g><path style="opacity:0.958" fill="#033067" d="M 499.5,226.5 C 499.5,241.5 499.5,256.5 499.5,271.5C 489.907,352.223 451.24,414.723 383.5,459C 311.522,501.255 236.189,508.255 157.5,480C 65.3241,440.498 12.6574,370.998 -0.5,271.5C -0.5,256.5 -0.5,241.5 -0.5,226.5C 9.09228,145.779 47.7589,83.2792 115.5,39C 187.475,-3.25514 262.808,-10.2551 341.5,18C 415.725,48.6118 465.225,102.112 490,178.5C 494.285,194.424 497.452,210.424 499.5,226.5 Z"/></g>
<g><path style="opacity:1" fill="#fecc01" d="M 425.5,404.5 C 424.833,403.833 424.167,403.167 423.5,402.5C 403.791,384.295 381.791,369.462 357.5,358C 344.647,352.159 331.314,347.492 317.5,344C 310.247,342.402 302.914,341.569 295.5,341.5C 293.537,340.04 291.704,338.373 290,336.5C 288.246,331.061 286.746,325.561 285.5,320C 286.804,308.849 287.971,297.683 289,286.5C 289.513,285.473 290.013,284.473 290.5,283.5C 297.233,276.431 303.233,268.764 308.5,260.5C 325.579,253.222 331.246,240.888 325.5,223.5C 326.222,223.082 326.722,222.416 327,221.5C 327.435,216.816 327.935,212.149 328.5,207.5C 329.302,206.048 329.802,204.382 330,202.5C 330.499,197.177 330.666,191.844 330.5,186.5C 331.737,181.04 332.404,175.373 332.5,169.5C 332.5,163.5 332.5,157.5 332.5,151.5C 332.833,151.5 333.167,151.5 333.5,151.5C 335.338,131.182 335.671,110.849 334.5,90.5C 330.79,81.2907 324.124,75.4573 314.5,73C 308.207,71.9774 301.874,71.3107 295.5,71C 273.502,70.3422 251.502,69.8422 229.5,69.5C 215.006,68.3391 200.339,68.1724 185.5,69C 184.944,69.3826 184.611,69.8826 184.5,70.5C 177.505,76.1499 173.338,83.4833 172,92.5C 170.895,105.361 171.729,118.028 174.5,130.5C 173.92,134.649 174.586,138.316 176.5,141.5C 176.167,147.5 175.833,153.5 175.5,159.5C 174.71,160.609 174.21,161.942 174,163.5C 173.452,170.835 172.952,178.169 172.5,185.5C 172.761,193.581 172.095,201.581 170.5,209.5C 170.511,211.045 170.844,212.378 171.5,213.5C 162.703,232.636 167.369,247.636 185.5,258.5C 185.5,259.167 185.833,259.5 186.5,259.5C 188.381,268.596 192.381,276.596 198.5,283.5C 198.833,303.511 198.5,323.511 197.5,343.5C 195.018,344.067 192.684,344.734 190.5,345.5C 185.238,346.655 179.904,347.488 174.5,348C 161.175,352.494 148.175,357.661 135.5,363.5C 135.456,360.684 134.456,358.351 132.5,356.5C 132.167,357 131.833,357.5 131.5,358C 132.385,360.654 133.218,363.154 134,365.5C 132.414,366.376 130.914,367.376 129.5,368.5C 128.561,366.947 127.394,365.613 126,364.5C 125.5,364.833 125,365.167 124.5,365.5C 126.439,367.122 126.772,368.956 125.5,371C 107.861,381.805 92.1942,394.971 78.5,410.5C 21.8968,348.107 2.39676,275.44 20,192.5C 39.9014,121.267 83.0681,69.4341 149.5,37C 216.942,8.13564 284.275,8.46897 351.5,38C 426.271,76.0001 470.438,136.5 484,219.5C 491.438,290.007 471.938,351.674 425.5,404.5 Z"/></g>
<g><path style="opacity:1" fill="#bac87e" d="M 229.5,69.5 C 214.452,69.1988 199.452,69.5322 184.5,70.5C 184.611,69.8826 184.944,69.3826 185.5,69C 200.339,68.1724 215.006,68.3391 229.5,69.5 Z"/></g>
<g><path style="opacity:1" fill="#91c2c4" d="M 229.5,69.5 C 251.502,69.8422 273.502,70.3422 295.5,71C 301.874,71.3107 308.207,71.9774 314.5,73C 324.124,75.4573 330.79,81.2907 334.5,90.5C 334.229,110.835 333.896,131.168 333.5,151.5C 333.167,151.5 332.833,151.5 332.5,151.5C 331.167,151.5 329.833,151.5 328.5,151.5C 328.666,143.16 328.5,134.827 328,126.5C 326.837,123.875 325.67,121.209 324.5,118.5C 318.705,113.088 313.205,113.421 308,119.5C 305.858,123.244 304.358,127.244 303.5,131.5C 301.767,124.203 298.1,118.036 292.5,113C 303.34,112.633 314.173,112.133 325,111.5C 327.929,111.475 330.429,110.809 332.5,109.5C 310.018,109.379 287.351,109.379 264.5,109.5C 234.835,107.616 205.335,104.282 176,99.5C 172.915,101.199 173.415,102.366 177.5,103C 190.25,104.292 202.916,106.125 215.5,108.5C 208.756,114.977 203.756,122.644 200.5,131.5C 199.534,124.696 198.034,118.03 196,111.5C 194.139,107.993 191.305,106.827 187.5,108C 180.783,114.195 176.449,121.695 174.5,130.5C 171.729,118.028 170.895,105.361 172,92.5C 173.338,83.4833 177.505,76.1499 184.5,70.5C 199.452,69.5322 214.452,69.1988 229.5,69.5 Z"/></g>
<g><path style="opacity:1" fill="#406c6d" d="M 179.5,82.5 C 205.025,84.9387 230.691,87.1054 256.5,89C 280.829,89.7806 305.162,90.2806 329.5,90.5C 329.5,91.5 329.5,92.5 329.5,93.5C 279.418,92.3103 229.418,89.6436 179.5,85.5C 179.5,84.5 179.5,83.5 179.5,82.5 Z"/></g>
<g><path style="opacity:1" fill="#416d6e" d="M 178.5,91.5 C 227.798,102.264 277.631,105.264 328,100.5C 329.833,100.833 331.667,101.167 333.5,101.5C 328.161,102.303 322.827,103.137 317.5,104C 272.054,107.062 227.054,104.062 182.5,95C 180.456,94.5017 179.122,93.335 178.5,91.5 Z"/></g>
<g><path style="opacity:1" fill="#b8c784" d="M 334.5,90.5 C 335.671,110.849 335.338,131.182 333.5,151.5C 333.896,131.168 334.229,110.835 334.5,90.5 Z"/></g>
<g><path style="opacity:1" fill="#598788" d="M 332.5,109.5 C 309.675,110.737 287.009,110.737 264.5,109.5C 287.351,109.379 310.018,109.379 332.5,109.5 Z"/></g>
<g><path style="opacity:1" fill="#91c2c5" d="M 286.5,147.5 C 274.67,146.193 262.67,145.193 250.5,144.5C 248.167,144.5 245.833,144.5 243.5,144.5C 237.87,142.804 231.87,141.638 225.5,141C 219.843,140.501 214.176,140.334 208.5,140.5C 208.167,140.5 207.833,140.5 207.5,140.5C 205.735,139.539 203.735,139.205 201.5,139.5C 203.635,128.522 208.635,119.022 216.5,111C 219.14,110.161 221.473,110.661 223.5,112.5C 229.679,120.705 232.679,130.039 232.5,140.5C 233.5,140.5 234.5,140.5 235.5,140.5C 236.367,131.416 240.034,123.583 246.5,117C 255.343,113.842 261.51,116.675 265,125.5C 265.499,131.157 265.666,136.824 265.5,142.5C 266.5,142.5 267.5,142.5 268.5,142.5C 268.85,130.987 273.517,121.487 282.5,114C 289.587,113.706 294.753,116.873 298,123.5C 301.149,131.168 302.316,139.168 301.5,147.5C 296.5,147.5 291.5,147.5 286.5,147.5 Z"/></g>
<g><path style="opacity:1" fill="#90c1c4" d="M 314.5,150.5 C 311.946,149.612 309.279,149.279 306.5,149.5C 305.425,148.287 304.759,146.787 304.5,145C 305.391,137.031 306.891,129.197 309,121.5C 316.267,115.265 321.6,116.598 325,125.5C 326.238,133.787 326.738,142.12 326.5,150.5C 322.5,150.5 318.5,150.5 314.5,150.5 Z"/></g>
<g><path style="opacity:1" fill="#3f6a6a" d="M 264.5,109.5 C 287.009,110.737 309.675,110.737 332.5,109.5C 330.429,110.809 327.929,111.475 325,111.5C 314.173,112.133 303.34,112.633 292.5,113C 298.1,118.036 301.767,124.203 303.5,131.5C 304.358,127.244 305.858,123.244 308,119.5C 313.205,113.421 318.705,113.088 324.5,118.5C 325.67,121.209 326.837,123.875 328,126.5C 328.5,134.827 328.666,143.16 328.5,151.5C 323.637,151.819 318.97,151.486 314.5,150.5C 318.5,150.5 322.5,150.5 326.5,150.5C 326.738,142.12 326.238,133.787 325,125.5C 321.6,116.598 316.267,115.265 309,121.5C 306.891,129.197 305.391,137.031 304.5,145C 304.759,146.787 305.425,148.287 306.5,149.5C 299.661,149.111 292.994,148.444 286.5,147.5C 291.5,147.5 296.5,147.5 301.5,147.5C 302.316,139.168 301.149,131.168 298,123.5C 294.753,116.873 289.587,113.706 282.5,114C 273.517,121.487 268.85,130.987 268.5,142.5C 267.5,142.5 266.5,142.5 265.5,142.5C 265.666,136.824 265.499,131.157 265,125.5C 261.51,116.675 255.343,113.842 246.5,117C 240.034,123.583 236.367,131.416 235.5,140.5C 234.5,140.5 233.5,140.5 232.5,140.5C 232.679,130.039 229.679,120.705 223.5,112.5C 221.473,110.661 219.14,110.161 216.5,111C 208.635,119.022 203.635,128.522 201.5,139.5C 203.735,139.205 205.735,139.539 207.5,140.5C 201.288,140.477 195.288,139.81 189.5,138.5C 192.167,138.5 194.833,138.5 197.5,138.5C 198.44,129.072 196.94,120.072 193,111.5C 191.274,110.424 189.441,110.257 187.5,111C 180.94,118.654 177.273,127.487 176.5,137.5C 178.099,137.232 179.432,137.566 180.5,138.5C 179.167,138.5 177.833,138.5 176.5,138.5C 176.5,139.5 176.5,140.5 176.5,141.5C 174.586,138.316 173.92,134.649 174.5,130.5C 176.449,121.695 180.783,114.195 187.5,108C 191.305,106.827 194.139,107.993 196,111.5C 198.034,118.03 199.534,124.696 200.5,131.5C 203.756,122.644 208.756,114.977 215.5,108.5C 202.916,106.125 190.25,104.292 177.5,103C 173.415,102.366 172.915,101.199 176,99.5C 205.335,104.282 234.835,107.616 264.5,109.5 Z"/></g>
<g><path style="opacity:1" fill="#8fc1c4" d="M 189.5,138.5 C 186.5,138.5 183.5,138.5 180.5,138.5C 179.432,137.566 178.099,137.232 176.5,137.5C 177.273,127.487 180.94,118.654 187.5,111C 189.441,110.257 191.274,110.424 193,111.5C 196.94,120.072 198.44,129.072 197.5,138.5C 194.833,138.5 192.167,138.5 189.5,138.5 Z"/></g>
<g><path style="opacity:1" fill="#8dbec1" d="M 222.5,109.5 C 223.097,108.861 223.93,108.528 225,108.5C 243.024,111.01 261.191,112.51 279.5,113C 275.249,117.414 271.583,122.247 268.5,127.5C 265.376,117.464 258.709,112.63 248.5,113C 241.549,117.387 236.882,123.553 234.5,131.5C 232.727,126.112 230.893,120.779 229,115.5C 227.615,112.614 225.449,110.614 222.5,109.5 Z"/></g>
<g><path style="opacity:1" fill="#0b0907" d="M 180.5,138.5 C 183.5,138.5 186.5,138.5 189.5,138.5C 195.288,139.81 201.288,140.477 207.5,140.5C 207.833,140.5 208.167,140.5 208.5,140.5C 220.053,141.626 231.386,143.293 242.5,145.5C 235.221,154.869 226.221,156.869 215.5,151.5C 213.641,153.192 211.641,154.692 209.5,156C 200.656,157.434 192.656,155.601 185.5,150.5C 183.482,171.839 183.315,193.172 185,214.5C 187.088,223.434 189.588,232.267 192.5,241C 196.605,249.828 200.605,258.661 204.5,267.5C 213.697,262.703 223.197,258.369 233,254.5C 248.525,250.336 263.025,252.503 276.5,261C 280.223,263.986 283.89,266.652 287.5,269C 295.363,259.962 301.363,249.795 305.5,238.5C 307.361,230.751 309.527,223.084 312,215.5C 312.781,206.968 313.948,198.634 315.5,190.5C 316.456,182.01 317.123,173.344 317.5,164.5C 317.497,161.645 317.164,158.978 316.5,156.5C 315.292,155.766 313.959,155.433 312.5,155.5C 303.332,154.417 293.998,154.417 284.5,155.5C 278.746,155.392 273.08,154.725 267.5,153.5C 262.5,152.499 257.833,150.666 253.5,148C 252.29,146.961 251.29,145.794 250.5,144.5C 262.67,145.193 274.67,146.193 286.5,147.5C 292.994,148.444 299.661,149.111 306.5,149.5C 309.279,149.279 311.946,149.612 314.5,150.5C 318.97,151.486 323.637,151.819 328.5,151.5C 329.833,151.5 331.167,151.5 332.5,151.5C 332.5,157.5 332.5,163.5 332.5,169.5C 330.795,174.903 330.128,180.57 330.5,186.5C 329.435,193.317 328.768,200.317 328.5,207.5C 326.779,212.562 325.779,217.895 325.5,223.5C 318.182,220.5 313.515,222.834 311.5,230.5C 310.342,233.476 309.342,236.476 308.5,239.5C 306.248,243.586 304.582,247.919 303.5,252.5C 294.441,275.411 281.108,295.578 263.5,313C 260.5,315.333 257.5,317.667 254.5,320C 252.564,320.813 250.564,321.313 248.5,321.5C 243.105,321.733 237.772,321.4 232.5,320.5C 217.751,309.421 206.751,295.421 199.5,278.5C 196.118,269.535 193.118,260.535 190.5,251.5C 189.323,247.282 188.323,242.949 187.5,238.5C 186.074,231.563 184.074,224.897 181.5,218.5C 179.065,215.07 175.731,213.404 171.5,213.5C 170.844,212.378 170.511,211.045 170.5,209.5C 172.095,201.581 172.761,193.581 172.5,185.5C 174.308,177.073 175.308,168.406 175.5,159.5C 175.833,153.5 176.167,147.5 176.5,141.5C 176.5,140.5 176.5,139.5 176.5,138.5C 177.833,138.5 179.167,138.5 180.5,138.5 Z"/></g>
<g><path style="opacity:1" fill="#597273" d="M 208.5,140.5 C 214.176,140.334 219.843,140.501 225.5,141C 231.87,141.638 237.87,142.804 243.5,144.5C 243.5,145.167 243.167,145.5 242.5,145.5C 231.386,143.293 220.053,141.626 208.5,140.5 Z"/></g>
<g><path style="opacity:1" fill="#e5b59d" d="M 243.5,144.5 C 245.833,144.5 248.167,144.5 250.5,144.5C 251.29,145.794 252.29,146.961 253.5,148C 257.833,150.666 262.5,152.499 267.5,153.5C 268.681,155.067 270.347,155.901 272.5,156C 285.833,156.23 299.166,156.064 312.5,155.5C 313.959,155.433 315.292,155.766 316.5,156.5C 315.913,167.824 315.58,179.157 315.5,190.5C 313.948,198.634 312.781,206.968 312,215.5C 309.527,223.084 307.361,230.751 305.5,238.5C 301.363,249.795 295.363,259.962 287.5,269C 283.89,266.652 280.223,263.986 276.5,261C 263.025,252.503 248.525,250.336 233,254.5C 223.197,258.369 213.697,262.703 204.5,267.5C 200.605,258.661 196.605,249.828 192.5,241C 189.588,232.267 187.088,223.434 185,214.5C 183.315,193.172 183.482,171.839 185.5,150.5C 192.656,155.601 200.656,157.434 209.5,156C 211.641,154.692 213.641,153.192 215.5,151.5C 226.221,156.869 235.221,154.869 242.5,145.5C 243.167,145.5 243.5,145.167 243.5,144.5 Z"/></g>
<g><path style="opacity:1" fill="#4a3a33" d="M 267.5,153.5 C 273.08,154.725 278.746,155.392 284.5,155.5C 293.998,154.417 303.332,154.417 312.5,155.5C 299.166,156.064 285.833,156.23 272.5,156C 270.347,155.901 268.681,155.067 267.5,153.5 Z"/></g>
<g><path style="opacity:1" fill="#100c0b" d="M 222.5,174.5 C 233.225,173.661 234.892,176.828 227.5,184C 217.433,188.189 207.1,191.689 196.5,194.5C 196.167,194.167 195.833,193.833 195.5,193.5C 203.007,184.925 212.007,178.591 222.5,174.5 Z"/></g>
<g><path style="opacity:1" fill="#846954" d="M 316.5,156.5 C 317.164,158.978 317.497,161.645 317.5,164.5C 317.123,173.344 316.456,182.01 315.5,190.5C 315.58,179.157 315.913,167.824 316.5,156.5 Z"/></g>
<g><path style="opacity:1" fill="#614e02" d="M 332.5,169.5 C 332.404,175.373 331.737,181.04 330.5,186.5C 330.128,180.57 330.795,174.903 332.5,169.5 Z"/></g>
<g><path style="opacity:1" fill="#6f5901" d="M 175.5,159.5 C 175.308,168.406 174.308,177.073 172.5,185.5C 172.952,178.169 173.452,170.835 174,163.5C 174.21,161.942 174.71,160.609 175.5,159.5 Z"/></g>
<g><path style="opacity:1" fill="#0e0b09" d="M 272.5,187.5 C 277.368,187.24 282.035,188.074 286.5,190C 294.148,193.482 300.815,198.315 306.5,204.5C 304.926,205.631 303.259,205.798 301.5,205C 294.302,202.365 286.968,200.031 279.5,198C 274.117,196.463 271.784,192.963 272.5,187.5 Z"/></g>
<g><path style="opacity:1" fill="#aa8801" d="M 330.5,186.5 C 330.666,191.844 330.499,197.177 330,202.5C 329.802,204.382 329.302,206.048 328.5,207.5C 328.768,200.317 329.435,193.317 330.5,186.5 Z"/></g>
<g><path style="opacity:1" fill="#0d0a09" d="M 217.5,207.5 C 224.109,208.258 226.276,211.925 224,218.5C 219.837,222.747 216.171,222.414 213,217.5C 211.624,212.75 213.124,209.416 217.5,207.5 Z"/></g>
<g><path style="opacity:1" fill="#e5b59a" d="M 171.5,213.5 C 175.731,213.404 179.065,215.07 181.5,218.5C 181.851,220.869 182.018,223.203 182,225.5C 181.043,222.978 179.543,220.811 177.5,219C 176.216,218.316 175.049,218.483 174,219.5C 174.952,222.358 175.785,225.358 176.5,228.5C 172.929,228.408 171.762,230.074 173,233.5C 175.069,234.264 177.236,234.764 179.5,235C 180.227,237.124 180.894,239.291 181.5,241.5C 183.045,242.452 184.712,242.785 186.5,242.5C 186.232,240.901 186.566,239.568 187.5,238.5C 188.323,242.949 189.323,247.282 190.5,251.5C 190.5,253.833 190.5,256.167 190.5,258.5C 188.833,258.5 187.167,258.5 185.5,258.5C 167.369,247.636 162.703,232.636 171.5,213.5 Z"/></g>
<g><path style="opacity:1" fill="#0e0b09" d="M 281.5,214.5 C 288.88,214.043 291.713,217.376 290,224.5C 286.197,229.741 282.53,229.741 279,224.5C 277.861,220.579 278.695,217.246 281.5,214.5 Z"/></g>
<g><path style="opacity:1" fill="#a7714e" d="M 248.5,193.5 C 250.167,193.5 251.833,193.5 253.5,193.5C 252.436,197.099 250.269,200.099 247,202.5C 236.256,215.557 233.089,230.224 237.5,246.5C 244.188,243.16 251.188,240.826 258.5,239.5C 258.739,241.467 258.406,243.301 257.5,245C 250.248,245.809 243.581,248.142 237.5,252C 233.63,253.137 231.797,251.637 232,247.5C 227.653,226.339 233.153,208.339 248.5,193.5 Z"/></g>
<g><path style="opacity:1" fill="#6e5803" d="M 328.5,207.5 C 327.935,212.149 327.435,216.816 327,221.5C 326.722,222.416 326.222,223.082 325.5,223.5C 325.779,217.895 326.779,212.562 328.5,207.5 Z"/></g>
<g><path style="opacity:1" fill="#a77452" d="M 181.5,218.5 C 184.074,224.897 186.074,231.563 187.5,238.5C 186.566,239.568 186.232,240.901 186.5,242.5C 184.712,242.785 183.045,242.452 181.5,241.5C 180.894,239.291 180.227,237.124 179.5,235C 177.236,234.764 175.069,234.264 173,233.5C 171.762,230.074 172.929,228.408 176.5,228.5C 175.785,225.358 174.952,222.358 174,219.5C 175.049,218.483 176.216,218.316 177.5,219C 179.543,220.811 181.043,222.978 182,225.5C 182.018,223.203 181.851,220.869 181.5,218.5 Z"/></g>
<g><path style="opacity:1" fill="#a3704e" d="M 303.5,252.5 C 304.582,247.919 306.248,243.586 308.5,239.5C 308.369,240.239 308.536,240.906 309,241.5C 311.898,236.49 316.065,233.657 321.5,233C 322.022,233.561 322.355,234.228 322.5,235C 321.465,236.274 320.298,237.44 319,238.5C 318.502,241.482 318.335,244.482 318.5,247.5C 315.722,247.978 313.722,246.978 312.5,244.5C 310.639,245.528 309.305,247.028 308.5,249C 307.551,249.617 306.718,249.451 306,248.5C 305.066,249.858 304.232,251.192 303.5,252.5 Z"/></g>
<g><path style="opacity:1" fill="#ad8976" d="M 190.5,251.5 C 193.118,260.535 196.118,269.535 199.5,278.5C 198.833,278.5 198.5,278.833 198.5,279.5C 195.939,273.686 193.439,267.686 191,261.5C 189.89,259.963 188.39,259.297 186.5,259.5C 185.833,259.5 185.5,259.167 185.5,258.5C 187.167,258.5 188.833,258.5 190.5,258.5C 190.5,256.167 190.5,253.833 190.5,251.5 Z"/></g>
<g><path style="opacity:1" fill="#e4b49c" d="M 244.5,256.5 C 247.025,258.177 249.691,259.677 252.5,261C 265.776,258.303 276.443,262.136 284.5,272.5C 278.013,283.964 269.346,293.464 258.5,301C 256.966,301.923 255.299,302.423 253.5,302.5C 246.177,299.383 239.177,299.883 232.5,304C 230.5,304.667 228.5,304.667 226.5,304C 219.102,293.684 212.935,282.851 208,271.5C 211.104,268.067 214.937,265.9 219.5,265C 225.5,264 231.5,263 237.5,262C 240.266,260.629 242.599,258.796 244.5,256.5 Z"/></g>
<g><path style="opacity:1" fill="#130f0a" d="M 186.5,259.5 C 188.39,259.297 189.89,259.963 191,261.5C 193.439,267.686 195.939,273.686 198.5,279.5C 198.5,280.833 198.5,282.167 198.5,283.5C 192.381,276.596 188.381,268.596 186.5,259.5 Z"/></g>
<g><path style="opacity:1" fill="#191309" d="M 308.5,260.5 C 303.233,268.764 297.233,276.431 290.5,283.5C 294.453,276.047 298.62,268.713 303,261.5C 304.699,260.594 306.533,260.261 308.5,260.5 Z"/></g>
<g><path style="opacity:1" fill="#a97451" d="M 253.5,265.5 C 255.948,265.01 257.615,265.843 258.5,268C 253.692,276.165 246.692,279.665 237.5,278.5C 236.253,276.994 236.253,275.494 237.5,274C 244.972,274.813 250.306,271.979 253.5,265.5 Z"/></g>
<g><path style="opacity:1" fill="#e6b79d" d="M 325.5,223.5 C 331.246,240.888 325.579,253.222 308.5,260.5C 306.533,260.261 304.699,260.594 303,261.5C 298.62,268.713 294.453,276.047 290.5,283.5C 290.013,284.473 289.513,285.473 289,286.5C 287.971,297.683 286.804,308.849 285.5,320C 286.746,325.561 288.246,331.061 290,336.5C 291.704,338.373 293.537,340.04 295.5,341.5C 297.971,343.142 300.637,344.475 303.5,345.5C 303.509,347.308 303.009,348.975 302,350.5C 296.927,356.728 292.093,363.062 287.5,369.5C 279.71,376.06 271.044,381.06 261.5,384.5C 245.955,388.94 230.622,388.44 215.5,383C 208.667,378.833 203.167,373.333 199,366.5C 195.833,360.833 192.667,355.167 189.5,349.5C 191.763,348.35 194.096,347.35 196.5,346.5C 194.604,345.534 192.604,345.201 190.5,345.5C 192.684,344.734 195.018,344.067 197.5,343.5C 198.5,323.511 198.833,303.511 198.5,283.5C 198.5,282.167 198.5,280.833 198.5,279.5C 198.5,278.833 198.833,278.5 199.5,278.5C 206.751,295.421 217.751,309.421 232.5,320.5C 232.611,321.117 232.944,321.617 233.5,322C 238.684,322.816 243.684,322.65 248.5,321.5C 250.564,321.313 252.564,320.813 254.5,320C 257.5,317.667 260.5,315.333 263.5,313C 281.108,295.578 294.441,275.411 303.5,252.5C 304.232,251.192 305.066,249.858 306,248.5C 306.718,249.451 307.551,249.617 308.5,249C 309.305,247.028 310.639,245.528 312.5,244.5C 313.722,246.978 315.722,247.978 318.5,247.5C 318.335,244.482 318.502,241.482 319,238.5C 320.298,237.44 321.465,236.274 322.5,235C 322.355,234.228 322.022,233.561 321.5,233C 316.065,233.657 311.898,236.49 309,241.5C 308.536,240.906 308.369,240.239 308.5,239.5C 309.342,236.476 310.342,233.476 311.5,230.5C 313.515,222.834 318.182,220.5 325.5,223.5 Z"/></g>
<g><path style="opacity:1" fill="#7a5e4e" d="M 232.5,320.5 C 237.772,321.4 243.105,321.733 248.5,321.5C 243.684,322.65 238.684,322.816 233.5,322C 232.944,321.617 232.611,321.117 232.5,320.5 Z"/></g>
<g><path style="opacity:1" fill="#dcdbdb" d="M 295.5,341.5 C 302.914,341.569 310.247,342.402 317.5,344C 331.314,347.492 344.647,352.159 357.5,358C 381.791,369.462 403.791,384.295 423.5,402.5C 423.649,403.552 423.483,404.552 423,405.5C 415.803,413.031 408.303,420.198 400.5,427C 388.291,436.595 375.624,445.428 362.5,453.5C 357.516,455.326 352.849,457.659 348.5,460.5C 316.37,475.861 282.37,483.195 246.5,482.5C 246.729,462.831 247.063,443.164 247.5,423.5C 262.818,419.508 276.484,412.341 288.5,402C 302.385,388.684 315.219,374.517 327,359.5C 327.749,358.365 327.583,357.365 326.5,356.5C 312.783,374.054 297.45,390.221 280.5,405C 263.93,417.978 245.263,422.978 224.5,420C 208.762,414.699 195.595,405.532 185,392.5C 177.954,381.729 171.454,370.729 165.5,359.5C 164.417,360.365 164.251,361.365 165,362.5C 173.319,382.814 186.153,399.647 203.5,413C 210.104,416.974 217.104,419.807 224.5,421.5C 224.357,441.504 224.024,461.504 223.5,481.5C 172.087,475.785 127.087,455.951 88.5,422C 84.5615,418.571 81.2281,414.737 78.5,410.5C 92.1942,394.971 107.861,381.805 125.5,371C 126.772,368.956 126.439,367.122 124.5,365.5C 125,365.167 125.5,364.833 126,364.5C 127.394,365.613 128.561,366.947 129.5,368.5C 130.914,367.376 132.414,366.376 134,365.5C 133.218,363.154 132.385,360.654 131.5,358C 131.833,357.5 132.167,357 132.5,356.5C 134.456,358.351 135.456,360.684 135.5,363.5C 148.175,357.661 161.175,352.494 174.5,348C 179.904,347.488 185.238,346.655 190.5,345.5C 192.604,345.201 194.604,345.534 196.5,346.5C 194.096,347.35 191.763,348.35 189.5,349.5C 192.667,355.167 195.833,360.833 199,366.5C 203.167,373.333 208.667,378.833 215.5,383C 230.622,388.44 245.955,388.94 261.5,384.5C 259.615,386.311 257.281,387.478 254.5,388C 234.78,393.876 217.613,389.71 203,375.5C 196.752,366.672 190.752,357.672 185,348.5C 201.949,392.938 231.783,404.104 274.5,382C 284.538,375.635 293.705,368.135 302,359.5C 304.413,356.938 306.08,353.938 307,350.5C 307.749,349.365 307.583,348.365 306.5,347.5C 301.666,356.01 295.333,363.343 287.5,369.5C 292.093,363.062 296.927,356.728 302,350.5C 303.009,348.975 303.509,347.308 303.5,345.5C 300.637,344.475 297.971,343.142 295.5,341.5 Z"/></g>
<g><path style="opacity:1" fill="#756662" d="M 261.5,384.5 C 271.044,381.06 279.71,376.06 287.5,369.5C 295.333,363.343 301.666,356.01 306.5,347.5C 307.583,348.365 307.749,349.365 307,350.5C 306.08,353.938 304.413,356.938 302,359.5C 293.705,368.135 284.538,375.635 274.5,382C 231.783,404.104 201.949,392.938 185,348.5C 190.752,357.672 196.752,366.672 203,375.5C 217.613,389.71 234.78,393.876 254.5,388C 257.281,387.478 259.615,386.311 261.5,384.5 Z"/></g>
<g><path style="opacity:1" fill="#dbdbdb" d="M 243.5,482.5 C 237.741,482.786 232.075,482.452 226.5,481.5C 226.5,461.833 226.5,442.167 226.5,422.5C 232.268,424.297 238.268,424.964 244.5,424.5C 244.042,443.831 243.708,463.164 243.5,482.5 Z"/></g>
<g><path style="opacity:1" fill="#7b6c68" d="M 246.5,482.5 C 245.5,482.5 244.5,482.5 243.5,482.5C 243.708,463.164 244.042,443.831 244.5,424.5C 238.268,424.964 232.268,424.297 226.5,422.5C 226.5,442.167 226.5,461.833 226.5,481.5C 225.5,481.5 224.5,481.5 223.5,481.5C 224.024,461.504 224.357,441.504 224.5,421.5C 217.104,419.807 210.104,416.974 203.5,413C 186.153,399.647 173.319,382.814 165,362.5C 164.251,361.365 164.417,360.365 165.5,359.5C 171.454,370.729 177.954,381.729 185,392.5C 195.595,405.532 208.762,414.699 224.5,420C 245.263,422.978 263.93,417.978 280.5,405C 297.45,390.221 312.783,374.054 326.5,356.5C 327.583,357.365 327.749,358.365 327,359.5C 315.219,374.517 302.385,388.684 288.5,402C 276.484,412.341 262.818,419.508 247.5,423.5C 247.063,443.164 246.729,462.831 246.5,482.5 Z"/></g>
<g><path style="opacity:1" fill="#a77453" d="M 285.5,435.5 C 290.457,438.457 294.457,442.457 297.5,447.5C 297.167,447.833 296.833,448.167 296.5,448.5C 292.395,444.407 288.728,440.073 285.5,435.5 Z"/></g>
<g><path style="opacity:1" fill="#dcb928" d="M 423.5,402.5 C 424.167,403.167 424.833,403.833 425.5,404.5C 407.652,425.03 386.652,441.363 362.5,453.5C 375.624,445.428 388.291,436.595 400.5,427C 408.303,420.198 415.803,413.031 423,405.5C 423.483,404.552 423.649,403.552 423.5,402.5 Z"/></g>
<g><path style="opacity:1" fill="#ac7d5e" d="M 275.5,448.5 C 279.993,450.31 283.659,453.31 286.5,457.5C 285.635,458.583 284.635,458.749 283.5,458C 280.223,455.234 277.557,452.067 275.5,448.5 Z"/></g>
<g><path style="opacity:1" fill="#a77453" d="M 302.5,421.5 C 308.322,424.77 311.989,429.77 313.5,436.5C 315.484,436.617 317.15,435.95 318.5,434.5C 319.521,435.002 319.688,435.668 319,436.5C 306.729,445.603 295.563,455.936 285.5,467.5C 284.417,466.635 284.251,465.635 285,464.5C 293.363,455.803 302.03,447.469 311,439.5C 311.234,432.97 308.568,427.97 303,424.5C 302.517,423.552 302.351,422.552 302.5,421.5 Z"/></g>
<g><path style="opacity:1" fill="#ccb030" d="M 362.5,453.5 C 358.419,456.874 353.753,459.207 348.5,460.5C 352.849,457.659 357.516,455.326 362.5,453.5 Z"/></g>
</svg>
