<?xml version="1.0" encoding="UTF-8"?>
<!DOCTYPE svg PUBLIC "-//W3C//DTD SVG 1.1//EN" "http://www.w3.org/Graphics/SVG/1.1/DTD/svg11.dtd">
<svg xmlns="http://www.w3.org/2000/svg" version="1.1" width="500px" height="500px" style="shape-rendering:geometricPrecision; text-rendering:geometricPrecision; image-rendering:optimizeQuality; fill-rule:evenodd; clip-rule:evenodd" xmlns:xlink="http://www.w3.org/1999/xlink">
<g><path style="opacity:0.957" fill="#033067" d="M 499.5,226.5 C 499.5,241.5 499.5,256.5 499.5,271.5C 489.907,352.223 451.24,414.723 383.5,459C 311.522,501.255 236.189,508.255 157.5,480C 65.3241,440.498 12.6574,370.998 -0.5,271.5C -0.5,256.5 -0.5,241.5 -0.5,226.5C 9.09228,145.779 47.7589,83.2792 115.5,39C 187.475,-3.25514 262.808,-10.2551 341.5,18C 415.725,48.6118 465.225,102.112 490,178.5C 494.285,194.424 497.452,210.424 499.5,226.5 Z"/></g>
<g><path style="opacity:1" fill="#fecc00" d="M 427.5,402.5 C 400.501,341.823 374.001,280.823 348,219.5C 342.288,203.099 340.788,186.265 343.5,169C 344.02,141.428 338.353,115.261 326.5,90.5C 328.117,89.962 329.784,89.6287 331.5,89.5C 331.823,85.3062 330.823,81.4729 328.5,78C 324.514,77.5012 320.514,77.3345 316.5,77.5C 297.411,57.7345 273.911,48.4012 246,49.5C 227.229,49.234 209.729,53.734 193.5,63C 189.273,66.7365 184.94,70.2365 180.5,73.5C 178.076,73.1924 175.743,73.5258 173.5,74.5C 171.833,77.8333 170.167,81.1667 168.5,84.5C 169.947,85.9348 171.614,86.9348 173.5,87.5C 171.71,91.3662 170.21,95.3662 169,99.5C 167.918,110.472 167.251,121.472 167,132.5C 157.537,172.484 149.87,212.817 144,253.5C 139.793,270.953 134.293,287.953 127.5,304.5C 107.243,321.014 90.7428,340.681 78,363.5C 73.0591,373.056 67.8925,382.39 62.5,391.5C 21.1817,336.557 6.01508,274.89 17,206.5C 36.1703,121.665 86.0037,62.8319 166.5,30C 243.589,4.15684 316.256,13.1568 384.5,57C 462.728,114.994 495.228,192.494 482,289.5C 473.95,332.26 455.784,369.927 427.5,402.5 Z"/></g>
<g><path style="opacity:1" fill="#cd7848" d="M 316.5,77.5 C 270.951,83.6147 225.617,82.2813 180.5,73.5C 184.94,70.2365 189.273,66.7365 193.5,63C 209.729,53.734 227.229,49.234 246,49.5C 273.911,48.4012 297.411,57.7345 316.5,77.5 Z"/></g>
<g><path style="opacity:1" fill="#92461d" d="M 223.5,66.5 C 230.287,66.1272 236.954,66.7939 243.5,68.5C 234.651,69.2066 225.818,69.8733 217,70.5C 215.392,70.0261 215.226,69.3594 216.5,68.5C 218.982,67.9329 221.316,67.2663 223.5,66.5 Z"/></g>
<g><path style="opacity:1" fill="#564814" d="M 180.5,73.5 C 225.617,82.2813 270.951,83.6147 316.5,77.5C 320.514,77.3345 324.514,77.5012 328.5,78C 330.823,81.4729 331.823,85.3062 331.5,89.5C 329.784,89.6287 328.117,89.962 326.5,90.5C 314.903,92.8778 303.236,95.0445 291.5,97C 279.174,97.733 266.84,98.233 254.5,98.5C 252.5,98.5 250.5,98.5 248.5,98.5C 222.992,98.0942 197.992,94.4275 173.5,87.5C 171.614,86.9348 169.947,85.9348 168.5,84.5C 170.167,81.1667 171.833,77.8333 173.5,74.5C 175.743,73.5258 178.076,73.1924 180.5,73.5 Z"/></g>
<g><path style="opacity:1" fill="#cf794a" d="M 173.5,87.5 C 197.992,94.4275 222.992,98.0942 248.5,98.5C 243.101,101.035 237.768,103.868 232.5,107C 228.259,108.457 223.926,108.791 219.5,108C 203.964,94.3805 192.464,97.2139 185,116.5C 182.34,125.475 179.84,134.475 177.5,143.5C 177.5,143.833 177.5,144.167 177.5,144.5C 175.564,149.578 174.23,154.912 173.5,160.5C 161.793,167.959 158.459,178.292 163.5,191.5C 157.168,220.289 156.001,249.289 160,278.5C 161.727,281.111 162.227,283.777 161.5,286.5C 149.318,290.924 137.984,296.924 127.5,304.5C 134.293,287.953 139.793,270.953 144,253.5C 149.87,212.817 157.537,172.484 167,132.5C 167.251,121.472 167.918,110.472 169,99.5C 170.21,95.3662 171.71,91.3662 173.5,87.5 Z"/></g>
<g><path style="opacity:1" fill="#ce7849" d="M 326.5,90.5 C 338.353,115.261 344.02,141.428 343.5,169C 340.788,186.265 342.288,203.099 348,219.5C 374.001,280.823 400.501,341.823 427.5,402.5C 424.5,406.167 421.167,409.5 417.5,412.5C 407.29,381.073 392.123,352.406 372,326.5C 364.1,317.931 355.6,310.097 346.5,303C 327.432,295.59 308.432,288.09 289.5,280.5C 288.833,280.5 288.167,280.5 287.5,280.5C 284.397,278.616 281.063,277.282 277.5,276.5C 272.421,275.085 269.421,271.752 268.5,266.5C 269.321,257.528 271.488,248.862 275,240.5C 278.563,224.991 281.063,209.325 282.5,193.5C 282.5,192.833 282.5,192.167 282.5,191.5C 283.427,168.769 280.927,146.435 275,124.5C 272.574,115.141 267.741,107.308 260.5,101C 258.389,100.155 256.389,99.322 254.5,98.5C 266.84,98.233 279.174,97.733 291.5,97C 303.236,95.0445 314.903,92.8778 326.5,90.5 Z"/></g>
<g><path style="opacity:1" fill="#e6b69d" d="M 248.5,98.5 C 250.5,98.5 252.5,98.5 254.5,98.5C 256.389,99.322 258.389,100.155 260.5,101C 267.741,107.308 272.574,115.141 275,124.5C 280.927,146.435 283.427,168.769 282.5,191.5C 275.954,189.43 269.287,187.764 262.5,186.5C 262.823,171.156 255.323,162.823 240,161.5C 231.459,161.684 224.959,165.35 220.5,172.5C 219.279,171.535 217.946,171.702 216.5,173C 215.167,174.333 213.833,175.667 212.5,177C 213.737,177.232 214.737,177.732 215.5,178.5C 212.5,178.5 209.5,178.5 206.5,178.5C 202.033,160.763 191.033,154.763 173.5,160.5C 174.23,154.912 175.564,149.578 177.5,144.5C 177.577,145.75 178.244,146.583 179.5,147C 186.895,149.132 194.228,151.465 201.5,154C 204.833,154.667 208.167,154.667 211.5,154C 214.412,150.575 213.745,147.908 209.5,146C 199.03,142.58 188.363,141.746 177.5,143.5C 179.84,134.475 182.34,125.475 185,116.5C 192.464,97.2139 203.964,94.3805 219.5,108C 223.926,108.791 228.259,108.457 232.5,107C 237.768,103.868 243.101,101.035 248.5,98.5 Z"/></g>
<g><path style="opacity:1" fill="#92461d" d="M 295.5,111.5 C 296.748,112.334 297.415,113.667 297.5,115.5C 301.018,164.864 298.184,213.864 289,262.5C 288.257,264.645 287.424,264.811 286.5,263C 296.227,212.917 299.227,162.417 295.5,111.5 Z"/></g>
<g><path style="opacity:1" fill="#8e421a" d="M 312.5,129.5 C 313.496,129.414 314.329,129.748 315,130.5C 318.332,160.412 319.332,190.412 318,220.5C 317.652,228.018 316.652,235.351 315,242.5C 316.202,216.524 316.536,190.524 316,164.5C 315.487,152.76 314.321,141.094 312.5,129.5 Z"/></g>
<g><path style="opacity:1" fill="#928f8e" d="M 177.5,144.5 C 177.5,144.167 177.5,143.833 177.5,143.5C 188.363,141.746 199.03,142.58 209.5,146C 213.745,147.908 214.412,150.575 211.5,154C 208.167,154.667 204.833,154.667 201.5,154C 194.228,151.465 186.895,149.132 179.5,147C 178.244,146.583 177.577,145.75 177.5,144.5 Z"/></g>
<g><path style="opacity:1" fill="#918f8e" d="M 234.5,145.5 C 248.318,145.937 260.318,150.77 270.5,160C 259.732,159.715 249.065,158.382 238.5,156C 233.916,154.778 231.75,151.944 232,147.5C 232.995,146.934 233.828,146.267 234.5,145.5 Z"/></g>
<g><path style="opacity:1" fill="#fdfaf8" d="M 215.5,178.5 C 218.077,177.394 219.744,175.394 220.5,172.5C 224.959,165.35 231.459,161.684 240,161.5C 255.323,162.823 262.823,171.156 262.5,186.5C 269.287,187.764 275.954,189.43 282.5,191.5C 282.5,192.167 282.5,192.833 282.5,193.5C 280.784,193.371 279.117,193.038 277.5,192.5C 272.43,190.259 267.097,189.259 261.5,189.5C 259.863,197.974 254.863,203.474 246.5,206C 228.543,207.715 218.71,199.549 217,181.5C 216.329,180.748 215.496,180.414 214.5,180.5C 211.881,180.232 209.381,180.565 207,181.5C 205.988,186.038 204.488,190.371 202.5,194.5C 190.716,206.017 178.716,206.35 166.5,195.5C 165.488,194.128 164.488,192.795 163.5,191.5C 158.459,178.292 161.793,167.959 173.5,160.5C 191.033,154.763 202.033,160.763 206.5,178.5C 209.5,178.5 212.5,178.5 215.5,178.5 Z"/></g>
<g><path style="opacity:1" fill="#e6b69d" d="M 177.5,163.5 C 193.833,161.343 201.666,168.343 201,184.5C 196.709,196.229 188.542,200.396 176.5,197C 167.114,191.177 164.281,183.011 168,172.5C 170.406,168.592 173.572,165.592 177.5,163.5 Z"/></g>
<g><path style="opacity:1" fill="#e7b89f" d="M 236.5,166.5 C 252.078,166.304 258.911,173.971 257,189.5C 252.654,199.257 245.154,203.091 234.5,201C 223.808,195.928 220.308,187.761 224,176.5C 226.918,171.396 231.085,168.063 236.5,166.5 Z"/></g>
<g><path style="opacity:1" fill="#120f0d" d="M 188.5,171.5 C 194.052,171.911 196.218,174.911 195,180.5C 190.154,186.114 186.654,185.281 184.5,178C 185.207,175.413 186.541,173.246 188.5,171.5 Z"/></g>
<g><path style="opacity:1" fill="#a97351" d="M 220.5,172.5 C 219.744,175.394 218.077,177.394 215.5,178.5C 214.737,177.732 213.737,177.232 212.5,177C 213.833,175.667 215.167,174.333 216.5,173C 217.946,171.702 219.279,171.535 220.5,172.5 Z"/></g>
<g><path style="opacity:1" fill="#15110f" d="M 244.5,174.5 C 251.317,175.802 252.984,179.468 249.5,185.5C 244.302,188.843 241.302,187.343 240.5,181C 241.207,178.413 242.541,176.246 244.5,174.5 Z"/></g>
<g><path style="opacity:1" fill="#a6714f" d="M 214.5,180.5 C 208.726,187.395 205.726,195.395 205.5,204.5C 210.838,203.998 216.172,203.831 221.5,204C 222.252,204.671 222.586,205.504 222.5,206.5C 215.551,208.412 208.551,209.079 201.5,208.5C 201.283,203.77 201.617,199.103 202.5,194.5C 204.488,190.371 205.988,186.038 207,181.5C 209.381,180.565 211.881,180.232 214.5,180.5 Z"/></g>
<g><path style="opacity:1" fill="#e7b79f" d="M 214.5,180.5 C 215.496,180.414 216.329,180.748 217,181.5C 218.71,199.549 228.543,207.715 246.5,206C 254.863,203.474 259.863,197.974 261.5,189.5C 267.097,189.259 272.43,190.259 277.5,192.5C 272.886,201.952 266.886,210.452 259.5,218C 254.56,221.104 249.226,222.104 243.5,221C 236.62,215.946 229.62,211.113 222.5,206.5C 222.586,205.504 222.252,204.671 221.5,204C 216.172,203.831 210.838,203.998 205.5,204.5C 205.726,195.395 208.726,187.395 214.5,180.5 Z"/></g>
<g><path style="opacity:1" fill="#8e8e8d" d="M 163.5,191.5 C 164.488,192.795 165.488,194.128 166.5,195.5C 167.073,203.728 170.073,210.895 175.5,217C 177.167,217.667 178.833,217.667 180.5,217C 187.521,214.154 194.521,211.321 201.5,208.5C 208.551,209.079 215.551,208.412 222.5,206.5C 229.62,211.113 236.62,215.946 243.5,221C 249.226,222.104 254.56,221.104 259.5,218C 266.886,210.452 272.886,201.952 277.5,192.5C 279.117,193.038 280.784,193.371 282.5,193.5C 281.063,209.325 278.563,224.991 275,240.5C 271.488,248.862 269.321,257.528 268.5,266.5C 256.289,285.375 239.622,298.708 218.5,306.5C 210.118,308.382 201.785,309.715 193.5,310.5C 193.167,310.5 192.833,310.5 192.5,310.5C 185.824,308.496 179.491,305.329 173.5,301C 169.205,296.224 165.205,291.391 161.5,286.5C 162.227,283.777 161.727,281.111 160,278.5C 156.001,249.289 157.168,220.289 163.5,191.5 Z"/></g>
<g><path style="opacity:1" fill="#e6b79f" d="M 202.5,194.5 C 201.617,199.103 201.283,203.77 201.5,208.5C 194.521,211.321 187.521,214.154 180.5,217C 178.833,217.667 177.167,217.667 175.5,217C 170.073,210.895 167.073,203.728 166.5,195.5C 178.716,206.35 190.716,206.017 202.5,194.5 Z"/></g>
<g><path style="opacity:1" fill="#e5b69d" d="M 208.5,211.5 C 217.388,210.694 224.221,214.027 229,221.5C 229.728,224.23 229.562,226.897 228.5,229.5C 219.904,236.07 210.237,238.236 199.5,236C 194.124,234.468 191.79,230.968 192.5,225.5C 192.833,223.5 193.167,221.5 193.5,219.5C 198.434,216.535 203.434,213.869 208.5,211.5 Z"/></g>
<g><path style="opacity:1" fill="#a6704d" d="M 217.5,216.5 C 218.833,216.5 220.167,216.5 221.5,216.5C 221.256,219.263 219.923,221.429 217.5,223C 211.926,226.248 205.926,227.748 199.5,227.5C 199.5,226.167 199.5,224.833 199.5,223.5C 206.657,223.896 212.657,221.563 217.5,216.5 Z"/></g>
<g><path style="opacity:1" fill="#8e431a" d="M 330.5,243.5 C 331.75,243.577 332.583,244.244 333,245.5C 335.045,258.751 340.212,270.584 348.5,281C 347.216,281.684 346.049,281.517 345,280.5C 337.124,269.374 332.291,257.041 330.5,243.5 Z"/></g>
<g><path style="opacity:1" fill="#e7b79f" d="M 268.5,266.5 C 269.421,271.752 272.421,275.085 277.5,276.5C 276.507,310.683 259.507,322.85 226.5,313C 223.58,311.054 220.913,308.887 218.5,306.5C 239.622,298.708 256.289,285.375 268.5,266.5 Z"/></g>
<g><path style="opacity:1" fill="#dbdbda" d="M 277.5,276.5 C 281.063,277.282 284.397,278.616 287.5,280.5C 290.831,309.998 277.831,326.831 248.5,331C 238.059,332.212 227.893,331.045 218,327.5C 217.228,327.645 216.561,327.978 216,328.5C 210.397,348.45 207.064,368.784 206,389.5C 205.5,419.498 205.333,449.498 205.5,479.5C 200.697,479.006 196.03,478.006 191.5,476.5C 192.466,433.441 194.633,390.441 198,347.5C 198.992,338.186 201.825,329.52 206.5,321.5C 201.539,318.527 197.205,314.861 193.5,310.5C 201.785,309.715 210.118,308.382 218.5,306.5C 220.913,308.887 223.58,311.054 226.5,313C 259.507,322.85 276.507,310.683 277.5,276.5 Z"/></g>
<g><path style="opacity:1" fill="#dcdcdc" d="M 289.5,280.5 C 308.432,288.09 327.432,295.59 346.5,303C 355.6,310.097 364.1,317.931 372,326.5C 392.123,352.406 407.29,381.073 417.5,412.5C 398.877,432.318 377.21,447.984 352.5,459.5C 348.085,433.121 344.752,406.454 342.5,379.5C 344.294,368.528 345.961,357.528 347.5,346.5C 346.5,346.5 345.5,346.5 344.5,346.5C 344.558,354.26 343.725,361.927 342,369.5C 340.344,354.807 338.511,340.14 336.5,325.5C 336.167,326.833 335.833,328.167 335.5,329.5C 339.341,373.256 344.007,416.923 349.5,460.5C 308.351,479.958 265.018,487.125 219.5,482C 215.57,481.758 211.903,480.925 208.5,479.5C 208.333,445.498 208.5,411.498 209,377.5C 210.362,361.529 213.195,345.862 217.5,330.5C 232.882,334.664 248.216,334.498 263.5,330C 284.907,320.358 293.574,303.858 289.5,280.5 Z"/></g>
<g><path style="opacity:1" fill="#dcdcdc" d="M 161.5,286.5 C 165.205,291.391 169.205,296.224 173.5,301C 179.491,305.329 185.824,308.496 192.5,310.5C 192.709,311.922 193.209,313.255 194,314.5C 197.114,317.296 200.281,319.962 203.5,322.5C 200.244,328.102 198.077,334.102 197,340.5C 195.82,349.143 194.82,357.81 194,366.5C 191.635,402.965 189.801,439.298 188.5,475.5C 154.672,466.753 124.339,451.42 97.5,429.5C 101.732,401.047 107.398,372.88 114.5,345C 114.167,344.5 113.833,344 113.5,343.5C 111.393,347.914 109.893,352.581 109,357.5C 106.001,371.492 103.001,385.492 100,399.5C 97.8218,387.076 95.3218,374.743 92.5,362.5C 93.3751,377.448 95.7085,392.281 99.5,407C 97.7495,413.754 96.4162,420.588 95.5,427.5C 82.3162,417.324 71.3162,405.324 62.5,391.5C 67.8925,382.39 73.0591,373.056 78,363.5C 90.7428,340.681 107.243,321.014 127.5,304.5C 137.984,296.924 149.318,290.924 161.5,286.5 Z"/></g>
<g><path style="opacity:1" fill="#786966" d="M 352.5,459.5 C 351.791,460.404 350.791,460.737 349.5,460.5C 344.007,416.923 339.341,373.256 335.5,329.5C 335.833,328.167 336.167,326.833 336.5,325.5C 338.511,340.14 340.344,354.807 342,369.5C 343.725,361.927 344.558,354.26 344.5,346.5C 345.5,346.5 346.5,346.5 347.5,346.5C 345.961,357.528 344.294,368.528 342.5,379.5C 344.752,406.454 348.085,433.121 352.5,459.5 Z"/></g>
<g><path style="opacity:1" fill="#7b6c69" d="M 192.5,310.5 C 192.833,310.5 193.167,310.5 193.5,310.5C 197.205,314.861 201.539,318.527 206.5,321.5C 201.825,329.52 198.992,338.186 198,347.5C 194.633,390.441 192.466,433.441 191.5,476.5C 190.209,476.737 189.209,476.404 188.5,475.5C 189.801,439.298 191.635,402.965 194,366.5C 194.82,357.81 195.82,349.143 197,340.5C 198.077,334.102 200.244,328.102 203.5,322.5C 200.281,319.962 197.114,317.296 194,314.5C 193.209,313.255 192.709,311.922 192.5,310.5 Z"/></g>
<g><path style="opacity:1" fill="#776764" d="M 97.5,429.5 C 96.5,429.167 95.8333,428.5 95.5,427.5C 96.4162,420.588 97.7495,413.754 99.5,407C 95.7085,392.281 93.3751,377.448 92.5,362.5C 95.3218,374.743 97.8218,387.076 100,399.5C 103.001,385.492 106.001,371.492 109,357.5C 109.893,352.581 111.393,347.914 113.5,343.5C 113.833,344 114.167,344.5 114.5,345C 107.398,372.88 101.732,401.047 97.5,429.5 Z"/></g>
<g><path style="opacity:1" fill="#7d6e6b" d="M 287.5,280.5 C 288.167,280.5 288.833,280.5 289.5,280.5C 293.574,303.858 284.907,320.358 263.5,330C 248.216,334.498 232.882,334.664 217.5,330.5C 213.195,345.862 210.362,361.529 209,377.5C 208.5,411.498 208.333,445.498 208.5,479.5C 207.5,479.5 206.5,479.5 205.5,479.5C 205.333,449.498 205.5,419.498 206,389.5C 207.064,368.784 210.397,348.45 216,328.5C 216.561,327.978 217.228,327.645 218,327.5C 227.893,331.045 238.059,332.212 248.5,331C 277.831,326.831 290.831,309.998 287.5,280.5 Z"/></g>
</svg>
