<?xml version="1.0" encoding="UTF-8"?>
<!DOCTYPE svg PUBLIC "-//W3C//DTD SVG 1.1//EN" "http://www.w3.org/Graphics/SVG/1.1/DTD/svg11.dtd">
<svg xmlns="http://www.w3.org/2000/svg" version="1.1" width="500px" height="500px" style="shape-rendering:geometricPrecision; text-rendering:geometricPrecision; image-rendering:optimizeQuality; fill-rule:evenodd; clip-rule:evenodd" xmlns:xlink="http://www.w3.org/1999/xlink">
<g><path style="opacity:0.958" fill="#033067" d="M 499.5,226.5 C 499.5,241.5 499.5,256.5 499.5,271.5C 489.907,352.223 451.24,414.723 383.5,459C 311.522,501.255 236.189,508.255 157.5,480C 65.3241,440.498 12.6574,370.998 -0.5,271.5C -0.5,256.5 -0.5,241.5 -0.5,226.5C 9.09228,145.779 47.7589,83.2792 115.5,39C 187.475,-3.25514 262.808,-10.2551 341.5,18C 415.725,48.6118 465.225,102.112 490,178.5C 494.285,194.424 497.452,210.424 499.5,226.5 Z"/></g>
<g><path style="opacity:1" fill="#fecc00" d="M 389.5,436.5 C 386.515,401.562 378.349,367.895 365,335.5C 356.153,314.328 341.986,297.828 322.5,286C 307.104,278.302 291.771,270.636 276.5,263C 269.386,260.221 262.053,258.388 254.5,257.5C 253.89,256.609 253.557,255.609 253.5,254.5C 269.691,250.377 285.358,244.544 300.5,237C 308.665,232.496 312.498,225.662 312,216.5C 309.888,207.886 307.388,199.386 304.5,191C 307.306,187.866 310.472,185.033 314,182.5C 317.623,177.794 319.123,172.461 318.5,166.5C 319.16,156.642 316.16,148.142 309.5,141C 304.216,137.506 298.549,136.672 292.5,138.5C 291.018,123.904 287.351,109.904 281.5,96.5C 291.889,93.3716 295.723,86.7049 293,76.5C 291.2,74.683 289.034,73.5163 286.5,73C 272.747,72.1906 259.08,72.5239 245.5,74C 257.235,68.0411 265.402,58.8745 270,46.5C 271.78,34.9466 266.947,30.1132 255.5,32C 254.333,33.1667 253.167,34.3333 252,35.5C 251.615,48.321 246.782,59.1543 237.5,68C 228.112,72.0983 218.445,75.4316 208.5,78C 206.5,79.3333 204.5,80.6667 202.5,82C 192.749,93.9241 181.082,103.424 167.5,110.5C 162.058,111.758 156.724,113.425 151.5,115.5C 150.548,117.045 150.215,118.712 150.5,120.5C 145.353,124.803 140.02,128.97 134.5,133C 131.93,135.067 129.93,137.567 128.5,140.5C 132.112,145.389 134.945,150.723 137,156.5C 137.077,169.556 137.744,182.556 139,195.5C 140.744,200.079 143.91,203.079 148.5,204.5C 149.568,205.434 150.901,205.768 152.5,205.5C 149.403,223.139 155.737,235.973 171.5,244C 174.817,244.498 178.15,244.665 181.5,244.5C 186.252,249.717 191.918,253.717 198.5,256.5C 199.915,260.958 200.915,265.625 201.5,270.5C 181.207,281.61 162.707,295.277 146,311.5C 137.139,322.568 132.139,335.235 131,349.5C 119.315,375.612 114.315,402.945 116,431.5C 116.784,435.05 117.617,438.55 118.5,442C 118.272,442.399 117.938,442.565 117.5,442.5C 58.5151,401.939 24.3484,345.939 15,274.5C 8.03606,186.953 38.8694,116.119 107.5,62C 184.226,9.12766 265.559,1.12766 351.5,38C 423.765,74.6156 467.598,132.782 483,212.5C 493.498,295.687 468.331,365.853 407.5,423C 401.619,427.761 395.619,432.261 389.5,436.5 Z"/></g>
<g><path style="opacity:1" fill="#030201" d="M 292.5,138.5 C 290.871,139.625 289.371,140.959 288,142.5C 282.056,127.61 276.389,112.61 271,97.5C 270.576,95.3855 269.409,94.5521 267.5,95C 269.478,97.4973 269.978,100.331 269,103.5C 267.829,104.893 266.329,105.727 264.5,106C 248.254,109.845 231.921,110.345 215.5,107.5C 214.5,107.833 213.5,108.167 212.5,108.5C 214.641,115.706 211.974,120.206 204.5,122C 197.802,122.891 191.135,123.891 184.5,125C 176.084,130.915 167.084,135.749 157.5,139.5C 164.759,156.609 171.425,173.943 177.5,191.5C 166.484,189.647 158.484,193.814 153.5,204C 151.866,204.494 150.199,204.66 148.5,204.5C 143.91,203.079 140.744,200.079 139,195.5C 137.744,182.556 137.077,169.556 137,156.5C 134.945,150.723 132.112,145.389 128.5,140.5C 129.93,137.567 131.93,135.067 134.5,133C 140.02,128.97 145.353,124.803 150.5,120.5C 156.339,117.415 162.006,114.082 167.5,110.5C 181.082,103.424 192.749,93.9241 202.5,82C 204.5,80.6667 206.5,79.3333 208.5,78C 218.445,75.4316 228.112,72.0983 237.5,68C 246.782,59.1543 251.615,48.321 252,35.5C 253.167,34.3333 254.333,33.1667 255.5,32C 266.947,30.1132 271.78,34.9466 270,46.5C 265.402,58.8745 257.235,68.0411 245.5,74C 259.08,72.5239 272.747,72.1906 286.5,73C 289.034,73.5163 291.2,74.683 293,76.5C 295.723,86.7049 291.889,93.3716 281.5,96.5C 287.351,109.904 291.018,123.904 292.5,138.5 Z"/></g>
<g><path style="opacity:1" fill="#e6b79d" d="M 292.5,138.5 C 298.549,136.672 304.216,137.506 309.5,141C 316.16,148.142 319.16,156.642 318.5,166.5C 319.123,172.461 317.623,177.794 314,182.5C 310.472,185.033 307.306,187.866 304.5,191C 307.388,199.386 309.888,207.886 312,216.5C 312.498,225.662 308.665,232.496 300.5,237C 285.358,244.544 269.691,250.377 253.5,254.5C 242.283,256.554 231.283,259.388 220.5,263C 232.963,264.755 245.296,266.921 257.5,269.5C 259.717,277.503 259.883,285.503 258,293.5C 247.808,301 236.308,304.666 223.5,304.5C 216.611,305.1 211.445,302.433 208,296.5C 205.513,287.887 203.347,279.221 201.5,270.5C 200.915,265.625 199.915,260.958 198.5,256.5C 198.149,250.393 197.149,244.393 195.5,238.5C 191.543,242.145 186.876,244.145 181.5,244.5C 178.15,244.665 174.817,244.498 171.5,244C 155.737,235.973 149.403,223.139 152.5,205.5C 150.901,205.768 149.568,205.434 148.5,204.5C 150.199,204.66 151.866,204.494 153.5,204C 158.484,193.814 166.484,189.647 177.5,191.5C 171.425,173.943 164.759,156.609 157.5,139.5C 167.084,135.749 176.084,130.915 184.5,125C 191.135,123.891 197.802,122.891 204.5,122C 211.974,120.206 214.641,115.706 212.5,108.5C 213.5,108.167 214.5,107.833 215.5,107.5C 231.921,110.345 248.254,109.845 264.5,106C 266.329,105.727 267.829,104.893 269,103.5C 269.978,100.331 269.478,97.4973 267.5,95C 269.409,94.5521 270.576,95.3855 271,97.5C 276.389,112.61 282.056,127.61 288,142.5C 289.371,140.959 290.871,139.625 292.5,138.5 Z"/></g>
<g><path style="opacity:1" fill="#dcaf93" d="M 167.5,110.5 C 162.006,114.082 156.339,117.415 150.5,120.5C 150.215,118.712 150.548,117.045 151.5,115.5C 156.724,113.425 162.058,111.758 167.5,110.5 Z"/></g>
<g><path style="opacity:1" fill="#070505" d="M 248.5,126.5 C 259.273,125.687 268.607,128.853 276.5,136C 265.505,136.5 254.505,136.667 243.5,136.5C 243.682,134.409 243.348,132.409 242.5,130.5C 244.29,128.684 246.29,127.351 248.5,126.5 Z"/></g>
<g><path style="opacity:1" fill="#080605" d="M 202.5,140.5 C 208.437,139.272 210.937,141.606 210,147.5C 201.159,153.253 192.492,159.253 184,165.5C 185.079,156.706 189.245,149.539 196.5,144C 198.727,143.059 200.727,141.892 202.5,140.5 Z"/></g>
<g><path style="opacity:1" fill="#a7724e" d="M 302.5,146.5 C 304.665,146.116 306.332,146.783 307.5,148.5C 305.5,151.5 303.5,154.5 301.5,157.5C 304.701,161.069 306.701,165.236 307.5,170C 306.917,174.309 305.084,175.142 302,172.5C 301.774,169.905 301.274,167.405 300.5,165C 300.167,164.833 299.833,164.667 299.5,164.5C 298.719,165.729 298.219,167.062 298,168.5C 294.595,170.11 293.095,168.944 293.5,165C 294.777,157.948 297.777,151.781 302.5,146.5 Z"/></g>
<g><path style="opacity:1" fill="#a6704c" d="M 230.5,156.5 C 232.199,156.34 233.866,156.506 235.5,157C 249.095,165.927 259.928,177.427 268,191.5C 268.781,192.944 268.614,194.277 267.5,195.5C 261.363,199.434 254.697,201.767 247.5,202.5C 247.286,200.856 247.62,199.356 248.5,198C 252.616,196.795 256.616,195.295 260.5,193.5C 261.583,192.635 261.749,191.635 261,190.5C 253.691,178.024 243.857,168.024 231.5,160.5C 230.571,159.311 230.238,157.978 230.5,156.5 Z"/></g>
<g><path style="opacity:1" fill="#090706" d="M 264.5,163.5 C 273.661,164.14 276.494,168.806 273,177.5C 268.155,180.798 264.488,179.798 262,174.5C 260.812,170.259 261.645,166.592 264.5,163.5 Z"/></g>
<g><path style="opacity:1" fill="#0a0706" d="M 208.5,182.5 C 215.465,182.961 218.632,186.628 218,193.5C 213.375,200.323 209.041,199.99 205,192.5C 204.182,188.469 205.349,185.136 208.5,182.5 Z"/></g>
<g><path style="opacity:1" fill="#a6704d" d="M 164.5,207.5 C 174.593,208.13 183.093,212.13 190,219.5C 190.915,221.92 190.082,223.253 187.5,223.5C 185.003,221.174 182.336,219.007 179.5,217C 178.551,216.383 177.718,216.549 177,217.5C 176.078,223.92 178.911,227.42 185.5,228C 186.38,229.356 186.714,230.856 186.5,232.5C 174.342,231.888 169.675,225.554 172.5,213.5C 169.834,213.067 167.168,212.567 164.5,212C 163.272,210.51 163.272,209.01 164.5,207.5 Z"/></g>
<g><path style="opacity:1" fill="#a6704c" d="M 235.5,215.5 C 236.978,215.238 238.311,215.571 239.5,216.5C 240.693,218.527 242.36,220.027 244.5,221C 247.856,221.215 251.189,221.215 254.5,221C 255.517,222.049 255.684,223.216 255,224.5C 245.979,228.573 239.145,226.239 234.5,217.5C 234.863,216.817 235.196,216.15 235.5,215.5 Z"/></g>
<g><path style="opacity:1" fill="#130f0a" d="M 198.5,256.5 C 191.918,253.717 186.252,249.717 181.5,244.5C 186.876,244.145 191.543,242.145 195.5,238.5C 197.149,244.393 198.149,250.393 198.5,256.5 Z"/></g>
<g><path style="opacity:1" fill="#a7714d" d="M 253.5,254.5 C 253.557,255.609 253.89,256.609 254.5,257.5C 255.5,261.5 256.5,265.5 257.5,269.5C 245.296,266.921 232.963,264.755 220.5,263C 231.283,259.388 242.283,256.554 253.5,254.5 Z"/></g>
<g><path style="opacity:1" fill="#ce7849" d="M 254.5,257.5 C 262.053,258.388 269.386,260.221 276.5,263C 291.771,270.636 307.104,278.302 322.5,286C 341.986,297.828 356.153,314.328 365,335.5C 378.349,367.895 386.515,401.562 389.5,436.5C 369.377,452.065 347.043,463.731 322.5,471.5C 323.046,438.987 324.046,406.487 325.5,374C 325.167,371.167 324.833,368.333 324.5,365.5C 323.914,365.709 323.414,366.043 323,366.5C 321.13,401.476 320.297,436.476 320.5,471.5C 298.88,478.714 276.547,482.381 253.5,482.5C 242.302,452.744 230.802,423.077 219,393.5C 215.519,386.044 211.852,378.711 208,371.5C 206.959,369.415 205.459,367.748 203.5,366.5C 202.417,367.365 202.251,368.365 203,369.5C 209.973,379.779 215.64,390.779 220,402.5C 230.458,429.077 240.624,455.744 250.5,482.5C 219.023,482.871 188.69,477.204 159.5,465.5C 158.851,461.049 157.684,456.716 156,452.5C 145.721,432.997 139.054,412.33 136,390.5C 135.5,383.174 135.334,375.841 135.5,368.5C 134.5,368.5 133.5,368.5 132.5,368.5C 131.811,389.554 135.311,409.888 143,429.5C 148.361,440.546 152.861,451.88 156.5,463.5C 142.408,458.291 129.408,451.291 117.5,442.5C 117.938,442.565 118.272,442.399 118.5,442C 117.617,438.55 116.784,435.05 116,431.5C 114.315,402.945 119.315,375.612 131,349.5C 132.139,335.235 137.139,322.568 146,311.5C 162.707,295.277 181.207,281.61 201.5,270.5C 203.347,279.221 205.513,287.887 208,296.5C 211.445,302.433 216.611,305.1 223.5,304.5C 236.308,304.666 247.808,301 258,293.5C 259.883,285.503 259.717,277.503 257.5,269.5C 256.5,265.5 255.5,261.5 254.5,257.5 Z"/></g>
<g><path style="opacity:1" fill="#8d4119" d="M 266.5,297.5 C 268.465,297.948 268.798,298.948 267.5,300.5C 256.304,306.765 244.637,311.932 232.5,316C 227.833,316.667 223.167,316.667 218.5,316C 214.626,315.273 211.293,313.607 208.5,311C 208.833,310.5 209.167,310 209.5,309.5C 217.06,313.31 225.06,314.477 233.5,313C 245.107,308.867 256.107,303.7 266.5,297.5 Z"/></g>
<g><path style="opacity:1" fill="#8d4219" d="M 322.5,471.5 C 321.833,471.5 321.167,471.5 320.5,471.5C 320.297,436.476 321.13,401.476 323,366.5C 323.414,366.043 323.914,365.709 324.5,365.5C 324.833,368.333 325.167,371.167 325.5,374C 324.046,406.487 323.046,438.987 322.5,471.5 Z"/></g>
<g><path style="opacity:1" fill="#8c4118" d="M 253.5,482.5 C 252.5,482.5 251.5,482.5 250.5,482.5C 240.624,455.744 230.458,429.077 220,402.5C 215.64,390.779 209.973,379.779 203,369.5C 202.251,368.365 202.417,367.365 203.5,366.5C 205.459,367.748 206.959,369.415 208,371.5C 211.852,378.711 215.519,386.044 219,393.5C 230.802,423.077 242.302,452.744 253.5,482.5 Z"/></g>
<g><path style="opacity:1" fill="#8d421a" d="M 159.5,465.5 C 158.29,465.068 157.29,464.401 156.5,463.5C 152.861,451.88 148.361,440.546 143,429.5C 135.311,409.888 131.811,389.554 132.5,368.5C 133.5,368.5 134.5,368.5 135.5,368.5C 135.334,375.841 135.5,383.174 136,390.5C 139.054,412.33 145.721,432.997 156,452.5C 157.684,456.716 158.851,461.049 159.5,465.5 Z"/></g>
<g><path style="opacity:1" fill="#8c4119" d="M 302.5,405.5 C 304.225,405.843 304.725,406.843 304,408.5C 292.902,425.029 282.568,442.029 273,459.5C 272.5,459.167 272,458.833 271.5,458.5C 280.664,440.037 290.998,422.37 302.5,405.5 Z"/></g>
<g><path style="opacity:1" fill="#8d4219" d="M 304.5,421.5 C 305.675,421.281 306.675,421.614 307.5,422.5C 299.715,431.24 292.049,440.073 284.5,449C 283.365,449.749 282.365,449.583 281.5,448.5C 289.587,439.755 297.254,430.755 304.5,421.5 Z"/></g>
</svg>
