<?xml version="1.0" encoding="UTF-8"?>
<!DOCTYPE svg PUBLIC "-//W3C//DTD SVG 1.1//EN" "http://www.w3.org/Graphics/SVG/1.1/DTD/svg11.dtd">
<svg xmlns="http://www.w3.org/2000/svg" version="1.1" width="500px" height="500px" style="shape-rendering:geometricPrecision; text-rendering:geometricPrecision; image-rendering:optimizeQuality; fill-rule:evenodd; clip-rule:evenodd" xmlns:xlink="http://www.w3.org/1999/xlink">
<g><path style="opacity:0.957" fill="#033067" d="M 499.5,226.5 C 499.5,241.5 499.5,256.5 499.5,271.5C 489.907,352.223 451.24,414.723 383.5,459C 311.522,501.255 236.189,508.255 157.5,480C 65.3241,440.498 12.6574,370.998 -0.5,271.5C -0.5,256.5 -0.5,241.5 -0.5,226.5C 9.09228,145.779 47.7589,83.2792 115.5,39C 187.475,-3.25514 262.808,-10.2551 341.5,18C 415.725,48.6118 465.225,102.112 490,178.5C 494.285,194.424 497.452,210.424 499.5,226.5 Z"/></g>
<g><path style="opacity:1" fill="#fecc01" d="M 409.5,420.5 C 403.822,407.326 394.822,397.159 382.5,390C 367.833,384 353.167,378 338.5,372C 329.752,368.729 320.752,366.563 311.5,365.5C 310.384,358.354 309.717,351.02 309.5,343.5C 321.392,334.744 329.058,323.078 332.5,308.5C 340.607,305.558 345.774,299.891 348,291.5C 351.562,280.044 351.229,268.711 347,257.5C 345.066,251.233 340.9,247.399 334.5,246C 335.416,245.722 336.082,245.222 336.5,244.5C 337.333,206.002 337.833,167.335 338,128.5C 339.731,126.383 341.898,124.883 344.5,124C 359.761,120.044 371.594,111.544 380,98.5C 381.424,91.2414 378.59,86.408 371.5,84C 348.876,79.5648 328.876,85.0648 311.5,100.5C 311.6,84.7311 307.767,70.0645 300,56.5C 293.931,49.3453 288.931,50.0119 285,58.5C 282.147,71.9888 280.647,85.6555 280.5,99.5C 260.318,78.1638 236.318,62.6638 208.5,53C 196.349,50.6437 191.515,55.4771 194,67.5C 196.014,75.0437 198.514,82.377 201.5,89.5C 200.448,89.6495 199.448,89.4828 198.5,89C 179.798,71.3165 157.965,59.1499 133,52.5C 124.277,53.916 121.277,58.916 124,67.5C 125.556,72.2798 127.889,76.6131 131,80.5C 135.982,86.3164 141.149,91.9831 146.5,97.5C 145.167,97.8333 143.833,98.1667 142.5,98.5C 132.064,96.8034 121.564,95.8034 111,95.5C 102.675,95.3324 94.5085,96.3324 86.5,98.5C 85.6698,103.538 86.8365,108.205 90,112.5C 98.9486,126.229 111.449,134.896 127.5,138.5C 119.32,142.742 110.986,146.909 102.5,151C 96.0157,154.081 94.8491,158.581 99,164.5C 105.156,172.161 112.989,177.161 122.5,179.5C 124.215,189.791 125.715,200.125 127,210.5C 129.82,242.516 132.82,274.516 136,306.5C 137.198,322.082 144.365,333.915 157.5,342C 182.386,354.211 208.72,359.711 236.5,358.5C 236.5,362.833 236.5,367.167 236.5,371.5C 226.14,372.451 216.14,374.951 206.5,379C 171.295,393.418 139.962,413.585 112.5,439.5C 42.2731,386.689 9.43975,316.022 14,227.5C 26.0972,136.761 73.5972,72.261 156.5,34C 218.458,9.42623 280.458,9.42623 342.5,34C 425.402,72.2594 472.902,136.759 485,227.5C 489.926,303.933 464.76,368.266 409.5,420.5 Z"/></g>
<g><path style="opacity:1" fill="#020100" d="M 336.5,244.5 C 328.191,244.081 320.024,244.747 312,246.5C 310.716,258.637 307.716,270.304 303,281.5C 302.667,280.833 302.333,280.167 302,279.5C 300.889,270.224 300.389,260.89 300.5,251.5C 301.417,222.17 301.583,192.836 301,163.5C 253.228,168.587 205.395,174.421 157.5,181C 145.7,182.025 134.033,181.525 122.5,179.5C 112.989,177.161 105.156,172.161 99,164.5C 94.8491,158.581 96.0157,154.081 102.5,151C 110.986,146.909 119.32,142.742 127.5,138.5C 111.449,134.896 98.9486,126.229 90,112.5C 86.8365,108.205 85.6698,103.538 86.5,98.5C 94.5085,96.3324 102.675,95.3324 111,95.5C 121.564,95.8034 132.064,96.8034 142.5,98.5C 143.833,98.1667 145.167,97.8333 146.5,97.5C 141.149,91.9831 135.982,86.3164 131,80.5C 127.889,76.6131 125.556,72.2798 124,67.5C 121.277,58.916 124.277,53.916 133,52.5C 157.965,59.1499 179.798,71.3165 198.5,89C 199.448,89.4828 200.448,89.6495 201.5,89.5C 198.514,82.377 196.014,75.0437 194,67.5C 191.515,55.4771 196.349,50.6437 208.5,53C 236.318,62.6638 260.318,78.1638 280.5,99.5C 280.647,85.6555 282.147,71.9888 285,58.5C 288.931,50.0119 293.931,49.3453 300,56.5C 307.767,70.0645 311.6,84.7311 311.5,100.5C 328.876,85.0648 348.876,79.5648 371.5,84C 378.59,86.408 381.424,91.2414 380,98.5C 371.594,111.544 359.761,120.044 344.5,124C 341.898,124.883 339.731,126.383 338,128.5C 337.833,167.335 337.333,206.002 336.5,244.5 Z"/></g>
<g><path style="opacity:1" fill="#e7b69d" d="M 336.5,244.5 C 336.082,245.222 335.416,245.722 334.5,246C 340.9,247.399 345.066,251.233 347,257.5C 351.229,268.711 351.562,280.044 348,291.5C 345.774,299.891 340.607,305.558 332.5,308.5C 324.848,311.746 316.848,313.412 308.5,313.5C 308.833,323.5 309.167,333.5 309.5,343.5C 309.717,351.02 310.384,358.354 311.5,365.5C 311.5,365.833 311.5,366.167 311.5,366.5C 311.666,374.507 311.5,382.507 311,390.5C 304.002,398.584 295.169,403.418 284.5,405C 269.409,406.812 254.743,405.145 240.5,400C 240,399.5 239.5,399 239,398.5C 238.5,391.174 238.334,383.841 238.5,376.5C 238.5,375.5 238.5,374.5 238.5,373.5C 254.551,367.538 270.884,362.038 287.5,357C 270.522,357.646 253.522,358.146 236.5,358.5C 208.72,359.711 182.386,354.211 157.5,342C 144.365,333.915 137.198,322.082 136,306.5C 132.82,274.516 129.82,242.516 127,210.5C 125.715,200.125 124.215,189.791 122.5,179.5C 134.033,181.525 145.7,182.025 157.5,181C 205.395,174.421 253.228,168.587 301,163.5C 301.583,192.836 301.417,222.17 300.5,251.5C 300.389,260.89 300.889,270.224 302,279.5C 302.333,280.167 302.667,280.833 303,281.5C 307.716,270.304 310.716,258.637 312,246.5C 320.024,244.747 328.191,244.081 336.5,244.5 Z"/></g>
<g><path style="opacity:1" fill="#070504" d="M 157.5,197.5 C 161.24,197.241 164.906,197.574 168.5,198.5C 169.833,201.167 169.833,203.833 168.5,206.5C 157.222,209.538 146.055,212.871 135,216.5C 139.521,206.825 147.021,200.492 157.5,197.5 Z"/></g>
<g><path style="opacity:1" fill="#0b0807" d="M 252.5,197.5 C 267.149,196.988 278.149,202.988 285.5,215.5C 273.692,213.463 262.025,210.13 250.5,205.5C 251.169,202.803 251.836,200.137 252.5,197.5 Z"/></g>
<g><path style="opacity:1" fill="#a56f4c" d="M 205.5,229.5 C 207.199,229.34 208.866,229.506 210.5,230C 211.059,230.725 211.392,231.558 211.5,232.5C 205.464,245.442 201.131,258.942 198.5,273C 198.833,274.167 199.167,275.333 199.5,276.5C 204.995,274.052 210.661,272.552 216.5,272C 218.602,273.733 218.935,275.733 217.5,278C 209.5,280.5 201.5,283 193.5,285.5C 192.558,285.392 191.725,285.059 191,284.5C 191.637,265.084 196.47,246.751 205.5,229.5 Z"/></g>
<g><path style="opacity:1" fill="#060504" d="M 159.5,246.5 C 169.659,245.158 173.826,249.491 172,259.5C 169.103,264.155 164.937,265.655 159.5,264C 151.542,258.086 151.542,252.252 159.5,246.5 Z"/></g>
<g><path style="opacity:1" fill="#070505" d="M 254.5,247.5 C 265.383,246.537 269.55,251.204 267,261.5C 260.833,268.412 255.167,268.079 250,260.5C 249.333,257.833 249.333,255.167 250,252.5C 251.707,250.963 253.207,249.296 254.5,247.5 Z"/></g>
<g><path style="opacity:1" fill="#a56f4b" d="M 332.5,259.5 C 337.068,259.083 338.568,261.083 337,265.5C 334.876,266.622 333.043,268.122 331.5,270C 335.953,270.111 337.787,272.277 337,276.5C 332.596,277.519 328.263,278.852 324,280.5C 322.054,282.881 320.221,285.381 318.5,288C 315.433,289.164 313.767,288.164 313.5,285C 317.748,274.922 324.081,266.422 332.5,259.5 Z"/></g>
<g><path style="opacity:1" fill="#a56f4c" d="M 229.5,297.5 C 234.006,296.527 236.172,298.194 236,302.5C 227.001,321.426 214.168,324.592 197.5,312C 193.022,307.778 193.688,304.778 199.5,303C 209.689,301.444 219.689,299.61 229.5,297.5 Z"/></g>
<g><path style="opacity:1" fill="#f6f0ed" d="M 223.5,305.5 C 225.028,305.517 225.528,306.184 225,307.5C 219.416,313.324 213.25,313.991 206.5,309.5C 212.326,308.292 217.993,306.958 223.5,305.5 Z"/></g>
<g><path style="opacity:1" fill="#0a0805" d="M 332.5,308.5 C 329.058,323.078 321.392,334.744 309.5,343.5C 309.167,333.5 308.833,323.5 308.5,313.5C 316.848,313.412 324.848,311.746 332.5,308.5 Z"/></g>
<g><path style="opacity:1" fill="#a56f4a" d="M 238.5,373.5 C 237.167,373.5 236.5,372.833 236.5,371.5C 236.5,367.167 236.5,362.833 236.5,358.5C 253.522,358.146 270.522,357.646 287.5,357C 270.884,362.038 254.551,367.538 238.5,373.5 Z"/></g>
<g><path style="opacity:1" fill="#873d15" d="M 311.5,366.5 C 322.591,367.335 328.258,373.335 328.5,384.5C 327.268,396.118 321.268,404.285 310.5,409C 298.146,413.059 285.479,415.392 272.5,416C 271.514,425.75 271.181,435.584 271.5,445.5C 270.5,445.5 269.5,445.5 268.5,445.5C 268.5,435.833 268.5,426.167 268.5,416.5C 254.569,418.291 242.403,414.624 232,405.5C 225.268,395.55 226.101,386.384 234.5,378C 235.745,377.209 237.078,376.709 238.5,376.5C 238.334,383.841 238.5,391.174 239,398.5C 239.5,399 240,399.5 240.5,400C 254.743,405.145 269.409,406.812 284.5,405C 295.169,403.418 304.002,398.584 311,390.5C 311.5,382.507 311.666,374.507 311.5,366.5 Z"/></g>
<g><path style="opacity:1" fill="#c6672b" d="M 311.5,366.5 C 311.5,366.167 311.5,365.833 311.5,365.5C 320.752,366.563 329.752,368.729 338.5,372C 353.167,378 367.833,384 382.5,390C 394.822,397.159 403.822,407.326 409.5,420.5C 406.109,425.728 401.775,430.228 396.5,434C 337.011,478.452 270.678,493.452 197.5,479C 190.235,477.298 183.235,475.131 176.5,472.5C 178.124,451.46 181.791,430.794 187.5,410.5C 186.178,410.33 185.011,410.663 184,411.5C 177.853,431.029 174.353,451.029 173.5,471.5C 152.025,464.595 132.025,454.762 113.5,442C 112.748,441.329 112.414,440.496 112.5,439.5C 139.962,413.585 171.295,393.418 206.5,379C 216.14,374.951 226.14,372.451 236.5,371.5C 236.5,372.833 237.167,373.5 238.5,373.5C 238.5,374.5 238.5,375.5 238.5,376.5C 237.078,376.709 235.745,377.209 234.5,378C 226.101,386.384 225.268,395.55 232,405.5C 242.403,414.624 254.569,418.291 268.5,416.5C 268.5,426.167 268.5,435.833 268.5,445.5C 269.5,445.5 270.5,445.5 271.5,445.5C 271.181,435.584 271.514,425.75 272.5,416C 285.479,415.392 298.146,413.059 310.5,409C 321.268,404.285 327.268,396.118 328.5,384.5C 328.258,373.335 322.591,367.335 311.5,366.5 Z"/></g>
<g><path style="opacity:1" fill="#893e15" d="M 359.5,385.5 C 361.045,386.23 361.878,387.563 362,389.5C 363.342,388.098 364.176,388.431 364.5,390.5C 362.576,394.933 360.409,399.266 358,403.5C 357.51,404.793 357.343,406.127 357.5,407.5C 355.365,407.853 354.032,407.02 353.5,405C 353.807,397.916 355.807,391.416 359.5,385.5 Z"/></g>
<g><path style="opacity:1" fill="#893e15" d="M 176.5,472.5 C 175.209,472.737 174.209,472.404 173.5,471.5C 174.353,451.029 177.853,431.029 184,411.5C 185.011,410.663 186.178,410.33 187.5,410.5C 181.791,430.794 178.124,451.46 176.5,472.5 Z"/></g>
</svg>
