<?xml version="1.0" encoding="UTF-8"?>
<!DOCTYPE svg PUBLIC "-//W3C//DTD SVG 1.1//EN" "http://www.w3.org/Graphics/SVG/1.1/DTD/svg11.dtd">
<svg xmlns="http://www.w3.org/2000/svg" version="1.1" width="500px" height="500px" style="shape-rendering:geometricPrecision; text-rendering:geometricPrecision; image-rendering:optimizeQuality; fill-rule:evenodd; clip-rule:evenodd" xmlns:xlink="http://www.w3.org/1999/xlink">
<g><path style="opacity:0.958" fill="#033067" d="M 499.5,226.5 C 499.5,241.5 499.5,256.5 499.5,271.5C 489.907,352.223 451.24,414.723 383.5,459C 311.522,501.255 236.189,508.255 157.5,480C 65.3241,440.498 12.6574,370.998 -0.5,271.5C -0.5,256.5 -0.5,241.5 -0.5,226.5C 9.09228,145.779 47.7589,83.2792 115.5,39C 187.475,-3.25514 262.808,-10.2551 341.5,18C 415.725,48.6118 465.225,102.112 490,178.5C 494.285,194.424 497.452,210.424 499.5,226.5 Z"/></g>
<g><path style="opacity:1" fill="#fecc02" d="M 434.5,393.5 C 432.251,355.51 425.084,318.51 413,282.5C 412.426,280.508 411.259,279.008 409.5,278C 394.144,271.904 378.977,265.404 364,258.5C 359.986,248.125 356.986,237.458 355,226.5C 353.953,204.128 352.286,181.795 350,159.5C 347.859,138.746 341.526,119.412 331,101.5C 324.843,93.1683 317.343,86.5017 308.5,81.5C 311.339,77.8341 311.005,74.3341 307.5,71C 308.416,70.6258 309.25,70.1258 310,69.5C 310.667,67.1667 310.667,64.8333 310,62.5C 307.128,60.489 303.962,59.1557 300.5,58.5C 299.607,51.5417 295.94,46.7084 289.5,44C 276.788,37.2067 263.288,33.0401 249,31.5C 231.591,33.0414 215.924,39.0414 202,49.5C 200.336,52.3271 199.17,55.3271 198.5,58.5C 196.146,58.838 193.813,59.338 191.5,60C 186.629,63.1779 186.296,66.8445 190.5,71C 186.983,74.2234 186.65,77.7234 189.5,81.5C 171.846,92.0171 160.346,107.35 155,127.5C 151.916,138.336 149.583,149.336 148,160.5C 145.794,182.798 144.127,205.131 143,227.5C 141.088,238.148 138.088,248.482 134,258.5C 119.053,265.387 103.886,271.887 88.5,278C 84.0181,287.11 80.5181,296.61 78,306.5C 71.3354,335.155 66.8354,364.155 64.5,393.5C 29.9421,350.334 12.9421,300.834 13.5,245C 17.2027,162.906 52.8693,98.906 120.5,53C 194.815,8.49192 271.815,3.49192 351.5,38C 423.765,74.6156 467.598,132.782 483,212.5C 491.361,270.698 480.028,324.698 449,374.5C 444.631,381.262 439.798,387.595 434.5,393.5 Z"/></g>
<g><path style="opacity:1" fill="#fcfcfb" d="M 300.5,58.5 C 266.465,51.9316 232.465,51.9316 198.5,58.5C 199.17,55.3271 200.336,52.3271 202,49.5C 215.924,39.0414 231.591,33.0414 249,31.5C 263.288,33.0401 276.788,37.2067 289.5,44C 295.94,46.7084 299.607,51.5417 300.5,58.5 Z"/></g>
<g><path style="opacity:1" fill="#040403" d="M 300.5,58.5 C 303.962,59.1557 307.128,60.489 310,62.5C 310.667,64.8333 310.667,67.1667 310,69.5C 309.25,70.1258 308.416,70.6258 307.5,71C 311.005,74.3341 311.339,77.8341 308.5,81.5C 289.021,73.5523 268.687,69.8856 247.5,70.5C 227.261,69.7219 207.927,73.3885 189.5,81.5C 186.65,77.7234 186.983,74.2234 190.5,71C 186.296,66.8445 186.629,63.1779 191.5,60C 193.813,59.338 196.146,58.838 198.5,58.5C 232.465,51.9316 266.465,51.9316 300.5,58.5 Z"/></g>
<g><path style="opacity:1" fill="#fefefe" d="M 308.5,81.5 C 317.343,86.5017 324.843,93.1683 331,101.5C 341.526,119.412 347.859,138.746 350,159.5C 352.286,181.795 353.953,204.128 355,226.5C 356.986,237.458 359.986,248.125 364,258.5C 378.977,265.404 394.144,271.904 409.5,278C 411.259,279.008 412.426,280.508 413,282.5C 425.084,318.51 432.251,355.51 434.5,393.5C 386.552,452.218 324.385,481.885 248,482.5C 172.831,480.995 111.664,451.329 64.5,393.5C 66.8354,364.155 71.3354,335.155 78,306.5C 80.5181,296.61 84.0181,287.11 88.5,278C 103.886,271.887 119.053,265.387 134,258.5C 138.088,248.482 141.088,238.148 143,227.5C 144.127,205.131 145.794,182.798 148,160.5C 149.583,149.336 151.916,138.336 155,127.5C 160.346,107.35 171.846,92.0171 189.5,81.5C 207.927,73.3885 227.261,69.7219 247.5,70.5C 268.687,69.8856 289.021,73.5523 308.5,81.5 Z"/></g>
<g><path style="opacity:1" fill="#dfba91" d="M 257.5,99.5 C 255.052,100.473 252.385,100.806 249.5,100.5C 249.5,123.833 249.5,147.167 249.5,170.5C 247.577,169.149 245.41,168.482 243,168.5C 237.774,169.598 232.607,170.931 227.5,172.5C 226.9,178.27 229.566,181.937 235.5,183.5C 239.97,184.486 244.637,184.819 249.5,184.5C 249.5,189.5 249.5,194.5 249.5,199.5C 240.304,200.495 232.138,198.162 225,192.5C 222.8,185.565 220.8,178.565 219,171.5C 203.476,150.413 196.976,126.747 199.5,100.5C 204.401,98.9481 209.568,98.2814 215,98.5C 229.157,99.2524 243.324,99.5857 257.5,99.5 Z"/></g>
<g><path style="opacity:1" fill="#d9a977" d="M 299.5,100.5 C 301.44,126.831 294.607,150.498 279,171.5C 277.645,178.255 275.978,184.922 274,191.5C 272.062,194.106 269.562,195.939 266.5,197C 261.012,199.016 255.345,199.849 249.5,199.5C 249.5,194.5 249.5,189.5 249.5,184.5C 244.637,184.819 239.97,184.486 235.5,183.5C 245.172,183.666 254.839,183.5 264.5,183C 270.023,181.069 272.19,177.569 271,172.5C 265.556,170.931 260.056,169.597 254.5,168.5C 252.486,168.437 250.819,169.103 249.5,170.5C 249.5,147.167 249.5,123.833 249.5,100.5C 252.385,100.806 255.052,100.473 257.5,99.5C 271.58,97.8366 285.58,98.1699 299.5,100.5 Z"/></g>
<g><path style="opacity:1" fill="#dcac7a" d="M 305.5,103.5 C 309.833,105.833 313.167,109.167 315.5,113.5C 315.295,125.105 313.461,136.438 310,147.5C 309.004,149.66 307.504,151.327 305.5,152.5C 305.5,136.167 305.5,119.833 305.5,103.5 Z"/></g>
<g><path style="opacity:1" fill="#daab79" d="M 193.5,102.5 C 193.5,119.167 193.5,135.833 193.5,152.5C 191.983,152.489 190.816,151.823 190,150.5C 185.324,138.283 183.157,125.616 183.5,112.5C 185.812,108.188 189.145,104.855 193.5,102.5 Z"/></g>
<g><path style="opacity:1" fill="#191716" d="M 211.5,106.5 C 222.232,107.744 232.898,109.41 243.5,111.5C 244.007,115.865 242.174,118.198 238,118.5C 231.139,116.743 224.306,114.91 217.5,113C 213.29,112.262 209.124,112.428 205,113.5C 203.743,113.15 203.409,112.483 204,111.5C 206.426,109.548 208.926,107.881 211.5,106.5 Z"/></g>
<g><path style="opacity:1" fill="#0e0b07" d="M 276.5,106.5 C 284.273,104.919 290.606,107.085 295.5,113C 295,113.167 294.5,113.333 294,113.5C 289.542,112.421 285.042,112.254 280.5,113C 273.799,114.734 267.132,116.568 260.5,118.5C 256.678,117.895 255.012,115.562 255.5,111.5C 262.803,110.59 269.803,108.923 276.5,106.5 Z"/></g>
<g><path style="opacity:1" fill="#ded2b6" d="M 315.5,113.5 C 318.105,117.05 319.939,121.05 321,125.5C 322.845,132.06 324.179,138.726 325,145.5C 325.766,169.525 325.266,193.525 323.5,217.5C 323.591,225.95 324.591,234.283 326.5,242.5C 318.357,239.897 310.357,236.897 302.5,233.5C 300.833,225.499 299.167,217.499 297.5,209.5C 300.686,202.778 303.186,195.778 305,188.5C 305.5,176.505 305.667,164.505 305.5,152.5C 307.504,151.327 309.004,149.66 310,147.5C 313.461,136.438 315.295,125.105 315.5,113.5 Z"/></g>
<g><path style="opacity:1" fill="#ded2b5" d="M 183.5,112.5 C 183.157,125.616 185.324,138.283 190,150.5C 190.816,151.823 191.983,152.489 193.5,152.5C 193.333,164.838 193.5,177.171 194,189.5C 195.677,196.032 197.844,202.366 200.5,208.5C 199.041,216.876 197.374,225.209 195.5,233.5C 187.551,236.539 179.718,239.873 172,243.5C 174.717,226.934 175.05,210.267 173,193.5C 172.333,178.5 172.333,163.5 173,148.5C 173.578,140.7 174.911,133.034 177,125.5C 178.33,120.632 180.496,116.299 183.5,112.5 Z"/></g>
<g><path style="opacity:1" fill="#111110" d="M 199.5,100.5 C 196.976,126.747 203.476,150.413 219,171.5C 220.8,178.565 222.8,185.565 225,192.5C 232.138,198.162 240.304,200.495 249.5,199.5C 249.5,211.833 249.5,224.167 249.5,236.5C 227.873,236.193 211.539,226.859 200.5,208.5C 197.844,202.366 195.677,196.032 194,189.5C 193.5,177.171 193.333,164.838 193.5,152.5C 193.5,135.833 193.5,119.167 193.5,102.5C 195.297,101.27 197.297,100.604 199.5,100.5 Z"/></g>
<g><path style="opacity:1" fill="#050403" d="M 299.5,100.5 C 301.75,101.13 303.75,102.13 305.5,103.5C 305.5,119.833 305.5,136.167 305.5,152.5C 305.667,164.505 305.5,176.505 305,188.5C 303.186,195.778 300.686,202.778 297.5,209.5C 286.387,226.9 270.387,235.9 249.5,236.5C 249.5,224.167 249.5,211.833 249.5,199.5C 255.345,199.849 261.012,199.016 266.5,197C 269.562,195.939 272.062,194.106 274,191.5C 275.978,184.922 277.645,178.255 279,171.5C 294.607,150.498 301.44,126.831 299.5,100.5 Z"/></g>
<g><path style="opacity:1" fill="#aa693b" d="M 236.5,146.5 C 241.558,146.228 244.558,148.561 245.5,153.5C 240.978,154.38 237.645,152.88 235.5,149C 235.743,148.098 236.077,147.265 236.5,146.5 Z"/></g>
<g><path style="opacity:1" fill="#ab6a3c" d="M 257.5,146.5 C 265.05,147.334 265.384,149.501 258.5,153C 256.421,153.808 254.421,153.641 252.5,152.5C 253.72,150.019 255.386,148.019 257.5,146.5 Z"/></g>
<g><path style="opacity:1" fill="#a86638" d="M 249.5,170.5 C 250.819,169.103 252.486,168.437 254.5,168.5C 260.056,169.597 265.556,170.931 271,172.5C 272.19,177.569 270.023,181.069 264.5,183C 254.839,183.5 245.172,183.666 235.5,183.5C 229.566,181.937 226.9,178.27 227.5,172.5C 232.607,170.931 237.774,169.598 243,168.5C 245.41,168.482 247.577,169.149 249.5,170.5 Z"/></g>
<g><path style="opacity:1" fill="#e1bb93" d="M 200.5,208.5 C 211.539,226.859 227.873,236.193 249.5,236.5C 249.5,240.833 249.5,245.167 249.5,249.5C 251.833,249.5 254.167,249.5 256.5,249.5C 238.96,250.897 221.96,248.064 205.5,241C 201.724,239.053 198.39,236.553 195.5,233.5C 197.374,225.209 199.041,216.876 200.5,208.5 Z"/></g>
<g><path style="opacity:1" fill="#daab78" d="M 297.5,209.5 C 299.167,217.499 300.833,225.499 302.5,233.5C 298.208,237.654 293.208,240.82 287.5,243C 277.437,246.512 267.104,248.679 256.5,249.5C 254.167,249.5 251.833,249.5 249.5,249.5C 249.5,245.167 249.5,240.833 249.5,236.5C 270.387,235.9 286.387,226.9 297.5,209.5 Z"/></g>
</svg>
