<?xml version="1.0" encoding="UTF-8"?>
<!DOCTYPE svg PUBLIC "-//W3C//DTD SVG 1.1//EN" "http://www.w3.org/Graphics/SVG/1.1/DTD/svg11.dtd">
<svg xmlns="http://www.w3.org/2000/svg" version="1.1" width="500px" height="500px" style="shape-rendering:geometricPrecision; text-rendering:geometricPrecision; image-rendering:optimizeQuality; fill-rule:evenodd; clip-rule:evenodd" xmlns:xlink="http://www.w3.org/1999/xlink">
<g><path style="opacity:0.958" fill="#023067" d="M 499.5,226.5 C 499.5,241.5 499.5,256.5 499.5,271.5C 489.907,352.223 451.24,414.723 383.5,459C 311.522,501.255 236.189,508.255 157.5,480C 65.3241,440.498 12.6574,370.998 -0.5,271.5C -0.5,256.5 -0.5,241.5 -0.5,226.5C 9.09228,145.779 47.7589,83.2792 115.5,39C 187.475,-3.25514 262.808,-10.2551 341.5,18C 415.725,48.6118 465.225,102.112 490,178.5C 494.285,194.424 497.452,210.424 499.5,226.5 Z"/></g>
<g><path style="opacity:1" fill="#fdcc00" d="M 430.5,398.5 C 426.755,376.612 421.922,354.946 416,333.5C 412.286,320.726 405.119,310.393 394.5,302.5C 384.167,243.498 369,185.831 349,129.5C 342.412,112.324 334.745,95.6576 326,79.5C 312.51,57.002 293.344,41.502 268.5,33C 262.303,31.1137 255.97,30.2804 249.5,30.5C 222.377,31.478 200.211,42.478 183,63.5C 177.253,70.6545 172.253,78.3212 168,86.5C 154.162,115.182 142.829,144.849 134,175.5C 122.28,217.046 112.447,259.046 104.5,301.5C 99.7308,306.491 94.5642,311.158 89,315.5C 82.9706,326.219 78.6373,337.552 76,349.5C 73.0388,365.168 69.5388,380.501 65.5,395.5C 15.3086,330.385 1.47522,258.052 24,178.5C 51.4867,101.68 103.987,50.5134 181.5,25C 261.936,3.70099 334.936,18.3677 400.5,69C 474.379,134.313 499.879,215.146 477,311.5C 467.716,344.082 452.216,373.082 430.5,398.5 Z"/></g>
<g><path style="opacity:1" fill="#252524" d="M 249.5,30.5 C 249.5,44.1667 249.5,57.8333 249.5,71.5C 252.059,71.1984 254.393,71.5318 256.5,72.5C 223.536,70.3964 202.036,85.0631 192,116.5C 189.593,124.346 188.593,132.346 189,140.5C 189.383,139.944 189.883,139.611 190.5,139.5C 190.303,168.409 198.803,194.409 216,217.5C 224.607,228.385 235.774,234.385 249.5,235.5C 250.5,235.5 251.5,235.5 252.5,235.5C 251.791,236.404 250.791,236.737 249.5,236.5C 249.5,293.833 249.5,351.167 249.5,408.5C 249.5,433.167 249.5,457.833 249.5,482.5C 249.167,482.5 248.833,482.5 248.5,482.5C 248.5,457.833 248.5,433.167 248.5,408.5C 211.977,409.654 182.81,395.654 161,366.5C 150.988,349.805 139.988,333.805 128,318.5C 121.214,311.209 113.38,305.542 104.5,301.5C 112.447,259.046 122.28,217.046 134,175.5C 142.829,144.849 154.162,115.182 168,86.5C 172.253,78.3212 177.253,70.6545 183,63.5C 200.211,42.478 222.377,31.478 249.5,30.5 Z"/></g>
<g><path style="opacity:1" fill="#0d0d0d" d="M 249.5,30.5 C 255.97,30.2804 262.303,31.1137 268.5,33C 293.344,41.502 312.51,57.002 326,79.5C 334.745,95.6576 342.412,112.324 349,129.5C 369,185.831 384.167,243.498 394.5,302.5C 383.02,306.672 373.52,313.672 366,323.5C 355.086,338.993 344.419,354.66 334,370.5C 312.277,397.105 284.111,409.772 249.5,408.5C 249.5,351.167 249.5,293.833 249.5,236.5C 250.791,236.737 251.791,236.404 252.5,235.5C 261.164,234.168 268.831,230.668 275.5,225C 289.495,211.187 298.995,194.687 304,175.5C 307.484,162.141 309.318,148.808 309.5,135.5C 308.511,112.015 298.511,93.5149 279.5,80C 272.378,75.8034 264.711,73.3034 256.5,72.5C 254.393,71.5318 252.059,71.1984 249.5,71.5C 249.5,57.8333 249.5,44.1667 249.5,30.5 Z"/></g>
<g><path style="opacity:1" fill="#fdc045" d="M 256.5,72.5 C 264.711,73.3034 272.378,75.8034 279.5,80C 298.511,93.5149 308.511,112.015 309.5,135.5C 309.657,136.873 309.49,138.207 309,139.5C 293.077,122.021 273.244,113.354 249.5,113.5C 225.791,113.192 206.124,121.858 190.5,139.5C 189.883,139.611 189.383,139.944 189,140.5C 188.593,132.346 189.593,124.346 192,116.5C 202.036,85.0631 223.536,70.3964 256.5,72.5 Z"/></g>
<g><path style="opacity:1" fill="#e0ba91" d="M 249.5,113.5 C 249.5,140.167 249.5,166.833 249.5,193.5C 247.714,192.278 245.714,191.611 243.5,191.5C 238.331,192.835 233.331,194.668 228.5,197C 233.017,205.261 240.017,209.428 249.5,209.5C 249.5,218.167 249.5,226.833 249.5,235.5C 235.774,234.385 224.607,228.385 216,217.5C 198.803,194.409 190.303,168.409 190.5,139.5C 206.124,121.858 225.791,113.192 249.5,113.5 Z"/></g>
<g><path style="opacity:1" fill="#daaa77" d="M 249.5,113.5 C 273.244,113.354 293.077,122.021 309,139.5C 309.49,138.207 309.657,136.873 309.5,135.5C 309.318,148.808 307.484,162.141 304,175.5C 298.995,194.687 289.495,211.187 275.5,225C 268.831,230.668 261.164,234.168 252.5,235.5C 251.5,235.5 250.5,235.5 249.5,235.5C 249.5,226.833 249.5,218.167 249.5,209.5C 259.005,209.418 266.005,205.252 270.5,197C 265.134,194.767 259.634,192.934 254,191.5C 252.167,191.519 250.667,192.185 249.5,193.5C 249.5,166.833 249.5,140.167 249.5,113.5 Z"/></g>
<g><path style="opacity:1" fill="#181511" d="M 208.5,130.5 C 219.857,131.172 231.19,132.172 242.5,133.5C 242.993,137.338 241.326,139.338 237.5,139.5C 231.844,137.674 226.177,135.84 220.5,134C 216.167,133.333 211.833,133.333 207.5,134C 205.945,135.289 204.279,135.956 202.5,136C 204.396,133.932 206.396,132.099 208.5,130.5 Z"/></g>
<g><path style="opacity:1" fill="#18130f" d="M 275.5,130.5 C 280.913,130.229 286.246,130.729 291.5,132C 295.44,135.724 294.773,136.39 289.5,134C 284.833,133.333 280.167,133.333 275.5,134C 270.547,136.429 265.38,138.262 260,139.5C 256.438,139.099 254.938,137.099 255.5,133.5C 262.445,133.505 269.112,132.505 275.5,130.5 Z"/></g>
<g><path style="opacity:1" fill="#b98660" d="M 249.5,193.5 C 249.5,198.833 249.5,204.167 249.5,209.5C 240.017,209.428 233.017,205.261 228.5,197C 233.331,194.668 238.331,192.835 243.5,191.5C 245.714,191.611 247.714,192.278 249.5,193.5 Z"/></g>
<g><path style="opacity:1" fill="#a96739" d="M 249.5,209.5 C 249.5,204.167 249.5,198.833 249.5,193.5C 250.667,192.185 252.167,191.519 254,191.5C 259.634,192.934 265.134,194.767 270.5,197C 266.005,205.252 259.005,209.418 249.5,209.5 Z"/></g>
<g><path style="opacity:1" fill="#333333" d="M 104.5,301.5 C 113.38,305.542 121.214,311.209 128,318.5C 139.988,333.805 150.988,349.805 161,366.5C 182.81,395.654 211.977,409.654 248.5,408.5C 248.5,433.167 248.5,457.833 248.5,482.5C 174.031,481.092 113.031,452.092 65.5,395.5C 69.5388,380.501 73.0388,365.168 76,349.5C 78.6373,337.552 82.9706,326.219 89,315.5C 94.5642,311.158 99.7308,306.491 104.5,301.5 Z"/></g>
<g><path style="opacity:1" fill="#000000" d="M 394.5,302.5 C 405.119,310.393 412.286,320.726 416,333.5C 421.922,354.946 426.755,376.612 430.5,398.5C 383.086,453.699 322.753,481.699 249.5,482.5C 249.5,457.833 249.5,433.167 249.5,408.5C 284.111,409.772 312.277,397.105 334,370.5C 344.419,354.66 355.086,338.993 366,323.5C 373.52,313.672 383.02,306.672 394.5,302.5 Z"/></g>
</svg>
