<?xml version="1.0" encoding="UTF-8"?>
<!DOCTYPE svg PUBLIC "-//W3C//DTD SVG 1.1//EN" "http://www.w3.org/Graphics/SVG/1.1/DTD/svg11.dtd">
<svg xmlns="http://www.w3.org/2000/svg" version="1.1" width="500px" height="500px" style="shape-rendering:geometricPrecision; text-rendering:geometricPrecision; image-rendering:optimizeQuality; fill-rule:evenodd; clip-rule:evenodd" xmlns:xlink="http://www.w3.org/1999/xlink">
<g><path style="opacity:0.957" fill="#033067" d="M 499.5,226.5 C 499.5,241.5 499.5,256.5 499.5,271.5C 489.907,352.223 451.24,414.723 383.5,459C 311.522,501.255 236.189,508.255 157.5,480C 65.3241,440.498 12.6574,370.998 -0.5,271.5C -0.5,256.5 -0.5,241.5 -0.5,226.5C 9.09228,145.779 47.7589,83.2792 115.5,39C 187.475,-3.25514 262.808,-10.2551 341.5,18C 415.725,48.6118 465.225,102.112 490,178.5C 494.285,194.424 497.452,210.424 499.5,226.5 Z"/></g>
<g><path style="opacity:1" fill="#fecc01" d="M 445.5,379.5 C 440.316,360.125 434.482,340.791 428,321.5C 424.364,312.229 420.197,303.229 415.5,294.5C 377.315,278.106 338.981,262.106 300.5,246.5C 297.509,235.229 294.509,223.896 291.5,212.5C 295.21,208.792 298.543,204.792 301.5,200.5C 302.813,188.14 302.813,175.64 301.5,163C 305.649,159.876 308.149,155.709 309,150.5C 312.539,138.593 313.205,126.593 311,114.5C 308.174,112.66 305.007,111.994 301.5,112.5C 301.5,109.5 301.5,106.5 301.5,103.5C 301.904,85.9223 299.07,68.9223 293,52.5C 278.21,40.6911 261.376,33.6911 242.5,31.5C 226.751,33.5383 212.085,38.705 198.5,47C 195.705,48.7932 193.205,50.9598 191,53.5C 186.236,67.0818 183.736,81.0818 183.5,95.5C 182.511,100.975 182.178,106.642 182.5,112.5C 173.593,111.923 170.26,116.09 172.5,125C 172.267,136.646 174.434,147.812 179,158.5C 180,159.5 181,160.5 182,161.5C 182.169,174.673 182.669,187.673 183.5,200.5C 186.122,204.457 189.122,208.124 192.5,211.5C 190.793,223.418 188.127,235.085 184.5,246.5C 146.375,261.767 108.375,277.433 70.5,293.5C 65.2789,301.276 61.1122,309.609 58,318.5C 52.8288,333.51 47.9955,348.51 43.5,363.5C 11.8372,304.566 5.3372,242.899 24,178.5C 53.8104,95.6902 111.31,43.1902 196.5,21C 275.622,5.69586 345.956,23.6959 407.5,75C 481.72,146.718 502.887,231.884 471,330.5C 464.048,347.741 455.548,364.075 445.5,379.5 Z"/></g>
<g><path style="opacity:1" fill="#fffefe" d="M 242.5,31.5 C 242.5,53.1667 242.5,74.8333 242.5,96.5C 222.871,96.5566 203.537,98.8899 184.5,103.5C 183.52,100.914 183.187,98.2469 183.5,95.5C 183.736,81.0818 186.236,67.0818 191,53.5C 193.205,50.9598 195.705,48.7932 198.5,47C 212.085,38.705 226.751,33.5383 242.5,31.5 Z"/></g>
<g><path style="opacity:1" fill="#eee5d0" d="M 242.5,31.5 C 261.376,33.6911 278.21,40.6911 293,52.5C 299.07,68.9223 301.904,85.9223 301.5,103.5C 282.11,98.994 262.443,96.6607 242.5,96.5C 242.5,74.8333 242.5,53.1667 242.5,31.5 Z"/></g>
<g><path style="opacity:1" fill="#e0ba91" d="M 183.5,95.5 C 183.187,98.2469 183.52,100.914 184.5,103.5C 203.537,98.8899 222.871,96.5566 242.5,96.5C 242.5,124.167 242.5,151.833 242.5,179.5C 240.608,178.149 238.442,177.482 236,177.5C 229.963,179.384 223.796,180.717 217.5,181.5C 218.16,186.315 220.494,190.149 224.5,193C 230.407,194.361 236.407,194.861 242.5,194.5C 242.791,200.923 242.458,207.256 241.5,213.5C 235.108,215.461 228.608,217.128 222,218.5C 215.158,216.663 210.491,212.329 208,205.5C 204.931,197.626 202.264,189.626 200,181.5C 194.667,176.167 189.333,170.833 184,165.5C 183.5,177.162 183.333,188.829 183.5,200.5C 182.669,187.673 182.169,174.673 182,161.5C 181,160.5 180,159.5 179,158.5C 174.434,147.812 172.267,136.646 172.5,125C 170.26,116.09 173.593,111.923 182.5,112.5C 182.178,106.642 182.511,100.975 183.5,95.5 Z"/></g>
<g><path style="opacity:1" fill="#daaa77" d="M 242.5,96.5 C 262.443,96.6607 282.11,98.994 301.5,103.5C 301.5,106.5 301.5,109.5 301.5,112.5C 305.007,111.994 308.174,112.66 311,114.5C 313.205,126.593 312.539,138.593 309,150.5C 308.149,155.709 305.649,159.876 301.5,163C 302.813,175.64 302.813,188.14 301.5,200.5C 301.667,188.829 301.5,177.162 301,165.5C 295.667,170.833 290.333,176.167 285,181.5C 282.847,187.775 280.847,194.108 279,200.5C 276.711,206.251 273.545,211.418 269.5,216C 266.845,217.441 264.012,218.274 261,218.5C 254.636,216.323 248.136,214.657 241.5,213.5C 242.458,207.256 242.791,200.923 242.5,194.5C 249.061,195.081 255.395,194.248 261.5,192C 264.934,189.297 266.934,185.797 267.5,181.5C 260.934,180.568 254.434,179.234 248,177.5C 246.167,177.519 244.667,178.185 243.5,179.5C 243.167,179.5 242.833,179.5 242.5,179.5C 242.5,151.833 242.5,124.167 242.5,96.5 Z"/></g>
<g><path style="opacity:1" fill="#120f0c" d="M 199.5,108.5 C 209.429,109.231 219.095,111.397 228.5,115C 230.473,115.495 232.473,115.662 234.5,115.5C 235.225,119.367 233.892,122.034 230.5,123.5C 223.948,120.725 217.281,118.225 210.5,116C 204.564,114.861 198.564,114.195 192.5,114C 194.54,111.664 196.873,109.831 199.5,108.5 Z"/></g>
<g><path style="opacity:1" fill="#120e0a" d="M 275.5,108.5 C 280.371,108.192 285.037,109.025 289.5,111C 290.357,111.689 291.023,112.522 291.5,113.5C 279.04,113.708 267.374,116.875 256.5,123C 251.404,123.4 249.071,120.9 249.5,115.5C 258.578,114.358 267.245,112.024 275.5,108.5 Z"/></g>
<g><path style="opacity:1" fill="#bb8a63" d="M 229.5,155.5 C 234.833,156.167 237.833,159.167 238.5,164.5C 233.696,164.765 230.03,162.932 227.5,159C 227.978,157.697 228.645,156.531 229.5,155.5 Z"/></g>
<g><path style="opacity:1" fill="#ac6c3d" d="M 252.5,155.5 C 258.658,157.151 258.991,159.651 253.5,163C 251.26,163.977 248.927,164.477 246.5,164.5C 246.884,160.445 248.884,157.445 252.5,155.5 Z"/></g>
<g><path style="opacity:1" fill="#030202" d="M 241.5,213.5 C 248.136,214.657 254.636,216.323 261,218.5C 264.012,218.274 266.845,217.441 269.5,216C 273.545,211.418 276.711,206.251 279,200.5C 280.847,194.108 282.847,187.775 285,181.5C 290.333,176.167 295.667,170.833 301,165.5C 301.5,177.162 301.667,188.829 301.5,200.5C 298.543,204.792 295.21,208.792 291.5,212.5C 282.33,220.166 272.997,227.666 263.5,235C 256.368,237.239 249.035,238.073 241.5,237.5C 235.824,237.666 230.157,237.499 224.5,237C 213.382,229.047 202.715,220.547 192.5,211.5C 189.122,208.124 186.122,204.457 183.5,200.5C 183.333,188.829 183.5,177.162 184,165.5C 189.333,170.833 194.667,176.167 200,181.5C 202.264,189.626 204.931,197.626 208,205.5C 210.491,212.329 215.158,216.663 222,218.5C 228.608,217.128 235.108,215.461 241.5,213.5 Z"/></g>
<g><path style="opacity:1" fill="#b98660" d="M 242.5,179.5 C 242.833,179.5 243.167,179.5 243.5,179.5C 242.555,184.405 242.221,189.405 242.5,194.5C 236.407,194.861 230.407,194.361 224.5,193C 220.494,190.149 218.16,186.315 217.5,181.5C 223.796,180.717 229.963,179.384 236,177.5C 238.442,177.482 240.608,178.149 242.5,179.5 Z"/></g>
<g><path style="opacity:1" fill="#a96739" d="M 242.5,194.5 C 242.221,189.405 242.555,184.405 243.5,179.5C 244.667,178.185 246.167,177.519 248,177.5C 254.434,179.234 260.934,180.568 267.5,181.5C 266.934,185.797 264.934,189.297 261.5,192C 255.395,194.248 249.061,195.081 242.5,194.5 Z"/></g>
<g><path style="opacity:1" fill="#e1bb92" d="M 192.5,211.5 C 202.715,220.547 213.382,229.047 224.5,237C 230.157,237.499 235.824,237.666 241.5,237.5C 241.5,246.167 241.5,254.833 241.5,263.5C 220.657,263.479 201.657,257.812 184.5,246.5C 188.127,235.085 190.793,223.418 192.5,211.5 Z"/></g>
<g><path style="opacity:1" fill="#dbac78" d="M 291.5,212.5 C 294.509,223.896 297.509,235.229 300.5,246.5C 282.61,257.894 262.943,263.56 241.5,263.5C 241.5,254.833 241.5,246.167 241.5,237.5C 249.035,238.073 256.368,237.239 263.5,235C 272.997,227.666 282.33,220.166 291.5,212.5 Z"/></g>
<g><path style="opacity:1" fill="#fefefe" d="M 184.5,246.5 C 201.657,257.812 220.657,263.479 241.5,263.5C 262.943,263.56 282.61,257.894 300.5,246.5C 338.981,262.106 377.315,278.106 415.5,294.5C 420.197,303.229 424.364,312.229 428,321.5C 434.482,340.791 440.316,360.125 445.5,379.5C 409.116,432.061 359.449,465.228 296.5,479C 208.948,493.482 134.448,468.982 73,405.5C 61.4343,392.697 51.601,378.697 43.5,363.5C 47.9955,348.51 52.8288,333.51 58,318.5C 61.1122,309.609 65.2789,301.276 70.5,293.5C 108.375,277.433 146.375,261.767 184.5,246.5 Z"/></g>
</svg>
