<?xml version="1.0" encoding="UTF-8"?>
<!DOCTYPE svg PUBLIC "-//W3C//DTD SVG 1.1//EN" "http://www.w3.org/Graphics/SVG/1.1/DTD/svg11.dtd">
<svg xmlns="http://www.w3.org/2000/svg" version="1.1" width="500px" height="500px" style="shape-rendering:geometricPrecision; text-rendering:geometricPrecision; image-rendering:optimizeQuality; fill-rule:evenodd; clip-rule:evenodd" xmlns:xlink="http://www.w3.org/1999/xlink">
<g><path style="opacity:0.957" fill="#023067" d="M 499.5,226.5 C 499.5,241.5 499.5,256.5 499.5,271.5C 489.907,352.223 451.24,414.723 383.5,459C 311.522,501.255 236.189,508.255 157.5,480C 65.3241,440.498 12.6574,370.998 -0.5,271.5C -0.5,256.5 -0.5,241.5 -0.5,226.5C 9.09228,145.779 47.7589,83.2792 115.5,39C 187.475,-3.25514 262.808,-10.2551 341.5,18C 415.725,48.6118 465.225,102.112 490,178.5C 494.285,194.424 497.452,210.424 499.5,226.5 Z"/></g>
<g><path style="opacity:1" fill="#fecc01" d="M 422.5,407.5 C 419.835,376.184 417.502,344.851 415.5,313.5C 414.868,289.737 404.868,270.904 385.5,257C 372.833,249.333 360.167,241.667 347.5,234C 328.356,216.871 318.522,195.371 318,169.5C 317.431,153.662 317.598,137.828 318.5,122C 319.84,88.3483 306.84,62.015 279.5,43C 268.928,37.087 257.595,33.9203 245.5,33.5C 211.772,36.7148 189.272,54.3815 178,86.5C 176.239,92.4001 174.905,98.4001 174,104.5C 173.667,128.5 173.333,152.5 173,176.5C 171.116,204.123 158.616,225.29 135.5,240C 117.487,247.68 101.987,258.846 89,273.5C 79.9462,285.282 75.7796,298.615 76.5,313.5C 75.2029,339.883 73.2029,366.216 70.5,392.5C 70.4714,395.269 69.8048,397.603 68.5,399.5C 15.8611,333.715 1.02777,260.048 24,178.5C 51.4867,101.68 103.987,50.5134 181.5,25C 251.254,6.11865 316.921,15.452 378.5,53C 462.713,112.3 496.879,193.133 481,295.5C 471.696,338.451 452.196,375.785 422.5,407.5 Z"/></g>
<g><path style="opacity:1" fill="#fecd69" d="M 245.5,33.5 C 245.5,43.5 245.5,53.5 245.5,63.5C 247.415,63.2155 249.081,63.5489 250.5,64.5C 217.385,64.1026 195.885,79.7693 186,111.5C 184.584,116.412 183.751,121.412 183.5,126.5C 181.111,157.943 188.611,186.943 206,213.5C 213.084,223.588 222.251,231.088 233.5,236C 237.44,237.015 241.44,237.515 245.5,237.5C 245.833,237.5 246.167,237.5 246.5,237.5C 246.5,274.5 246.5,311.5 246.5,348.5C 240.5,348.5 234.5,348.5 228.5,348.5C 175.502,346.768 124.835,335.102 76.5,313.5C 75.7796,298.615 79.9462,285.282 89,273.5C 101.987,258.846 117.487,247.68 135.5,240C 158.616,225.29 171.116,204.123 173,176.5C 173.333,152.5 173.667,128.5 174,104.5C 174.905,98.4001 176.239,92.4001 178,86.5C 189.272,54.3815 211.772,36.7148 245.5,33.5 Z"/></g>
<g><path style="opacity:1" fill="#fec144" d="M 245.5,33.5 C 257.595,33.9203 268.928,37.087 279.5,43C 306.84,62.015 319.84,88.3483 318.5,122C 317.598,137.828 317.431,153.662 318,169.5C 318.522,195.371 328.356,216.871 347.5,234C 360.167,241.667 372.833,249.333 385.5,257C 404.868,270.904 414.868,289.737 415.5,313.5C 366.175,335.233 314.508,346.9 260.5,348.5C 255.833,348.5 251.167,348.5 246.5,348.5C 246.5,311.5 246.5,274.5 246.5,237.5C 260.697,236.151 272.197,229.818 281,218.5C 299.226,193.968 308.392,166.301 308.5,135.5C 309.648,105.473 296.982,83.3059 270.5,69C 264.031,66.5491 257.365,65.0491 250.5,64.5C 249.081,63.5489 247.415,63.2155 245.5,63.5C 245.5,53.5 245.5,43.5 245.5,33.5 Z"/></g>
<g><path style="opacity:1" fill="#222f40" d="M 250.5,64.5 C 257.365,65.0491 264.031,66.5491 270.5,69C 296.982,83.3059 309.648,105.473 308.5,135.5C 291.816,116.662 270.816,107.328 245.5,107.5C 221.094,107.62 200.594,116.62 184,134.5C 183.503,131.854 183.336,129.187 183.5,126.5C 183.751,121.412 184.584,116.412 186,111.5C 195.885,79.7693 217.385,64.1026 250.5,64.5 Z"/></g>
<g><path style="opacity:1" fill="#e0ba92" d="M 245.5,107.5 C 245.5,134.833 245.5,162.167 245.5,189.5C 243.843,188.425 242.009,187.758 240,187.5C 234.771,189.132 229.604,190.965 224.5,193C 228.719,201.778 235.719,205.945 245.5,205.5C 245.5,216.167 245.5,226.833 245.5,237.5C 241.44,237.515 237.44,237.015 233.5,236C 222.251,231.088 213.084,223.588 206,213.5C 188.611,186.943 181.111,157.943 183.5,126.5C 183.336,129.187 183.503,131.854 184,134.5C 200.594,116.62 221.094,107.62 245.5,107.5 Z"/></g>
<g><path style="opacity:1" fill="#daab78" d="M 245.5,107.5 C 270.816,107.328 291.816,116.662 308.5,135.5C 308.392,166.301 299.226,193.968 281,218.5C 272.197,229.818 260.697,236.151 246.5,237.5C 246.167,237.5 245.833,237.5 245.5,237.5C 245.5,226.833 245.5,216.167 245.5,205.5C 255.304,205.935 262.304,201.769 266.5,193C 261.267,190.884 255.934,189.051 250.5,187.5C 248.7,187.902 247.033,188.569 245.5,189.5C 245.5,162.167 245.5,134.833 245.5,107.5 Z"/></g>
<g><path style="opacity:1" fill="#13100d" d="M 205.5,125.5 C 216.463,127.092 227.463,128.425 238.5,129.5C 239.492,133.57 237.992,135.57 234,135.5C 226.034,132.456 217.867,130.122 209.5,128.5C 205.014,128.44 201.014,129.773 197.5,132.5C 197.167,132.333 196.833,132.167 196.5,132C 198.897,128.819 201.897,126.653 205.5,125.5 Z"/></g>
<g><path style="opacity:1" fill="#0d0a06" d="M 272.5,126.5 C 277.844,126.334 283.177,126.501 288.5,127C 290.246,127.471 291.913,128.138 293.5,129C 295.007,129.837 295.507,131.004 295,132.5C 291.069,129.933 286.735,128.599 282,128.5C 273.95,130.128 266.117,132.461 258.5,135.5C 254.674,135.338 253.007,133.338 253.5,129.5C 260.147,129.669 266.48,128.669 272.5,126.5 Z"/></g>
<g><path style="opacity:1" fill="#b98660" d="M 245.5,189.5 C 245.5,194.833 245.5,200.167 245.5,205.5C 235.719,205.945 228.719,201.778 224.5,193C 229.604,190.965 234.771,189.132 240,187.5C 242.009,187.758 243.843,188.425 245.5,189.5 Z"/></g>
<g><path style="opacity:1" fill="#a86739" d="M 245.5,205.5 C 245.5,200.167 245.5,194.833 245.5,189.5C 247.033,188.569 248.7,187.902 250.5,187.5C 255.934,189.051 261.267,190.884 266.5,193C 262.304,201.769 255.304,205.935 245.5,205.5 Z"/></g>
<g><path style="opacity:1" fill="#000f1b" d="M 415.5,313.5 C 417.502,344.851 419.835,376.184 422.5,407.5C 422.657,408.873 422.49,410.207 422,411.5C 404.608,429.568 384.941,444.568 363,456.5C 362.329,455.748 361.496,455.414 360.5,455.5C 362.113,431.41 359.947,407.41 354,383.5C 353.163,381.156 351.829,379.156 350,377.5C 349.5,405.165 349.333,432.831 349.5,460.5C 349.719,461.675 349.386,462.675 348.5,463.5C 315.678,477.798 281.344,484.798 245.5,484.5C 245.5,473.5 245.5,462.5 245.5,451.5C 246.498,417.671 246.832,383.671 246.5,349.5C 251.363,349.819 256.03,349.486 260.5,348.5C 314.508,346.9 366.175,335.233 415.5,313.5 Z"/></g>
<g><path style="opacity:1" fill="#202e40" d="M 76.5,313.5 C 124.835,335.102 175.502,346.768 228.5,348.5C 233.975,349.489 239.642,349.822 245.5,349.5C 245.5,383.5 245.5,417.5 245.5,451.5C 245.5,462.5 245.5,473.5 245.5,484.5C 209.138,483.826 174.805,475.16 142.5,458.5C 141.702,458.043 141.369,457.376 141.5,456.5C 142.829,430.33 142.829,403.997 141.5,377.5C 140.893,377.624 140.56,377.957 140.5,378.5C 136.806,385.253 134.64,392.587 134,400.5C 131.387,417.072 129.887,433.738 129.5,450.5C 105.927,437.612 85.5935,420.612 68.5,399.5C 69.8048,397.603 70.4714,395.269 70.5,392.5C 73.2029,366.216 75.2029,339.883 76.5,313.5 Z"/></g>
<g><path style="opacity:1" fill="#413f1f" d="M 228.5,348.5 C 234.5,348.5 240.5,348.5 246.5,348.5C 251.167,348.5 255.833,348.5 260.5,348.5C 256.03,349.486 251.363,349.819 246.5,349.5C 246.832,383.671 246.498,417.671 245.5,451.5C 245.5,417.5 245.5,383.5 245.5,349.5C 239.642,349.822 233.975,349.489 228.5,348.5 Z"/></g>
<g><path style="opacity:1" fill="#f6c707" d="M 140.5,378.5 C 141.498,404.328 141.831,430.328 141.5,456.5C 137.527,454.513 133.527,452.513 129.5,450.5C 129.887,433.738 131.387,417.072 134,400.5C 134.64,392.587 136.806,385.253 140.5,378.5 Z"/></g>
<g><path style="opacity:1" fill="#a0891c" d="M 140.5,378.5 C 140.56,377.957 140.893,377.624 141.5,377.5C 142.829,403.997 142.829,430.33 141.5,456.5C 141.831,430.328 141.498,404.328 140.5,378.5 Z"/></g>
<g><path style="opacity:1" fill="#f4c503" d="M 360.5,455.5 C 356.957,457.438 353.29,459.105 349.5,460.5C 349.333,432.831 349.5,405.165 350,377.5C 351.829,379.156 353.163,381.156 354,383.5C 359.947,407.41 362.113,431.41 360.5,455.5 Z"/></g>
</svg>
