<?xml version="1.0" encoding="UTF-8"?>
<!DOCTYPE svg PUBLIC "-//W3C//DTD SVG 1.1//EN" "http://www.w3.org/Graphics/SVG/1.1/DTD/svg11.dtd">
<svg xmlns="http://www.w3.org/2000/svg" version="1.1" width="500px" height="500px" style="shape-rendering:geometricPrecision; text-rendering:geometricPrecision; image-rendering:optimizeQuality; fill-rule:evenodd; clip-rule:evenodd" xmlns:xlink="http://www.w3.org/1999/xlink">
<g><path style="opacity:0.958" fill="#023067" d="M 499.5,226.5 C 499.5,241.5 499.5,256.5 499.5,271.5C 489.907,352.223 451.24,414.723 383.5,459C 311.522,501.255 236.189,508.255 157.5,480C 65.3241,440.498 12.6574,370.998 -0.5,271.5C -0.5,256.5 -0.5,241.5 -0.5,226.5C 9.09228,145.779 47.7589,83.2792 115.5,39C 187.475,-3.25514 262.808,-10.2551 341.5,18C 415.725,48.6118 465.225,102.112 490,178.5C 494.285,194.424 497.452,210.424 499.5,226.5 Z"/></g>
<g><path style="opacity:1" fill="#fecc00" d="M 427.5,402.5 C 422.013,380.89 416.346,359.223 410.5,337.5C 406.24,320.907 396.24,309.24 380.5,302.5C 377.958,290.457 371.125,281.791 360,276.5C 363.768,253.298 356.935,233.965 339.5,218.5C 360.069,165.721 353.903,116.387 321,70.5C 301.931,47.3824 277.431,35.0491 247.5,33.5C 217.518,34.9913 193.018,47.3246 174,70.5C 145.897,108.342 137.231,150.342 148,196.5C 150.473,205.753 153.64,214.753 157.5,223.5C 144.715,239.239 136.048,257.072 131.5,277C 122.206,283.09 116.539,291.59 114.5,302.5C 98.5147,308.489 88.5147,319.822 84.5,336.5C 78.9864,357.556 73.653,378.556 68.5,399.5C 15.8611,333.715 1.02777,260.048 24,178.5C 51.4867,101.68 103.987,50.5134 181.5,25C 261.936,3.70099 334.936,18.3677 400.5,69C 474.379,134.313 499.879,215.146 477,311.5C 467.229,345.724 450.729,376.057 427.5,402.5 Z"/></g>
<g><path style="opacity:1" fill="#e65024" d="M 247.5,33.5 C 247.5,44.5 247.5,55.5 247.5,66.5C 245.585,66.2155 243.919,66.5489 242.5,67.5C 223.537,68.6475 208.203,76.6475 196.5,91.5C 193.59,93.2391 191.09,95.5724 189,98.5C 167.804,128.712 162.138,161.712 172,197.5C 179.894,226.38 197.394,246.88 224.5,259C 231.884,261.966 239.551,263.133 247.5,262.5C 246.615,316.828 246.282,371.161 246.5,425.5C 231.68,426.545 218.013,423.045 205.5,415C 195.21,408.377 186.543,400.044 179.5,390C 156.02,386.179 136.187,375.679 120,358.5C 116.748,353.666 113.748,348.666 111,343.5C 103.827,334.718 94.9935,332.384 84.5,336.5C 88.5147,319.822 98.5147,308.489 114.5,302.5C 116.539,291.59 122.206,283.09 131.5,277C 136.048,257.072 144.715,239.239 157.5,223.5C 153.64,214.753 150.473,205.753 148,196.5C 137.231,150.342 145.897,108.342 174,70.5C 193.018,47.3246 217.518,34.9913 247.5,33.5 Z"/></g>
<g><path style="opacity:1" fill="#ac2c16" d="M 247.5,33.5 C 277.431,35.0491 301.931,47.3824 321,70.5C 353.903,116.387 360.069,165.721 339.5,218.5C 356.935,233.965 363.768,253.298 360,276.5C 371.125,281.791 377.958,290.457 380.5,302.5C 396.24,309.24 406.24,320.907 410.5,337.5C 400.44,332.283 391.607,333.95 384,342.5C 375.054,360.113 361.554,372.946 343.5,381C 334.078,384.772 324.411,387.772 314.5,390C 298.309,413.429 275.975,425.262 247.5,425.5C 247.167,425.5 246.833,425.5 246.5,425.5C 246.282,371.161 246.615,316.828 247.5,262.5C 239.551,263.133 231.884,261.966 224.5,259C 197.394,246.88 179.894,226.38 172,197.5C 162.138,161.712 167.804,128.712 189,98.5C 191.09,95.5724 193.59,93.2391 196.5,91.5C 185.959,106.793 180.626,123.793 180.5,142.5C 180.737,174.145 189.904,202.811 208,228.5C 215.12,237.629 223.953,244.462 234.5,249C 236.74,249.977 239.073,250.477 241.5,250.5C 244.5,251.833 247.5,251.833 250.5,250.5C 263.062,248.636 273.562,242.969 282,233.5C 302.924,206.9 313.424,176.566 313.5,142.5C 313.539,116.74 303.873,95.5737 284.5,79C 271.8,70.4913 257.8,66.658 242.5,67.5C 243.919,66.5489 245.585,66.2155 247.5,66.5C 247.5,55.5 247.5,44.5 247.5,33.5 Z"/></g>
<g><path style="opacity:1" fill="#222e40" d="M 242.5,67.5 C 257.8,66.658 271.8,70.4913 284.5,79C 303.873,95.5737 313.539,116.74 313.5,142.5C 295.615,122.86 273.281,112.86 246.5,112.5C 220.264,113.287 198.264,123.287 180.5,142.5C 180.626,123.793 185.959,106.793 196.5,91.5C 208.203,76.6475 223.537,68.6475 242.5,67.5 Z"/></g>
<g><path style="opacity:1" fill="#e0ba91" d="M 246.5,112.5 C 246.831,142.671 246.498,172.671 245.5,202.5C 242.592,201.431 239.592,201.264 236.5,202C 232.277,203.944 227.944,205.611 223.5,207C 228.31,216.403 235.976,221.236 246.5,221.5C 246.5,231.167 246.5,240.833 246.5,250.5C 244.833,250.5 243.167,250.5 241.5,250.5C 239.073,250.477 236.74,249.977 234.5,249C 223.953,244.462 215.12,237.629 208,228.5C 189.904,202.811 180.737,174.145 180.5,142.5C 198.264,123.287 220.264,113.287 246.5,112.5 Z"/></g>
<g><path style="opacity:1" fill="#daaa77" d="M 246.5,112.5 C 273.281,112.86 295.615,122.86 313.5,142.5C 313.424,176.566 302.924,206.9 282,233.5C 273.562,242.969 263.062,248.636 250.5,250.5C 249.5,250.5 248.5,250.5 247.5,250.5C 247.5,240.833 247.5,231.167 247.5,221.5C 249.415,221.784 251.081,221.451 252.5,220.5C 260.931,219.236 266.931,214.736 270.5,207C 265.768,205.534 261.102,203.867 256.5,202C 253.177,201.068 250.177,201.568 247.5,203.5C 246.508,203.672 245.842,203.338 245.5,202.5C 246.498,172.671 246.831,142.671 246.5,112.5 Z"/></g>
<g><path style="opacity:1" fill="#120f0c" d="M 201.5,132.5 C 206.844,132.334 212.177,132.501 217.5,133C 224.363,135.033 231.363,136.199 238.5,136.5C 239.492,140.57 237.992,142.57 234,142.5C 228.385,141.073 222.885,139.239 217.5,137C 209.505,134.344 202.005,135.177 195,139.5C 194.333,138.833 194.333,138.167 195,137.5C 196.965,135.45 199.132,133.783 201.5,132.5 Z"/></g>
<g><path style="opacity:1" fill="#0e0a07" d="M 274.5,132.5 C 279.844,132.334 285.177,132.501 290.5,133C 294.834,133.884 297.501,136.051 298.5,139.5C 296.664,138.081 294.664,136.914 292.5,136C 287.5,135.333 282.5,135.333 277.5,136C 271.481,138.593 265.315,140.76 259,142.5C 255.438,142.099 253.938,140.099 254.5,136.5C 261.514,136.297 268.18,134.964 274.5,132.5 Z"/></g>
<g><path style="opacity:1" fill="#bb8660" d="M 245.5,202.5 C 245.842,203.338 246.508,203.672 247.5,203.5C 247.5,209.167 247.5,214.833 247.5,220.5C 249.167,220.5 250.833,220.5 252.5,220.5C 251.081,221.451 249.415,221.784 247.5,221.5C 247.5,231.167 247.5,240.833 247.5,250.5C 248.5,250.5 249.5,250.5 250.5,250.5C 247.5,251.833 244.5,251.833 241.5,250.5C 243.167,250.5 244.833,250.5 246.5,250.5C 246.5,240.833 246.5,231.167 246.5,221.5C 235.976,221.236 228.31,216.403 223.5,207C 227.944,205.611 232.277,203.944 236.5,202C 239.592,201.264 242.592,201.431 245.5,202.5 Z"/></g>
<g><path style="opacity:1" fill="#a86638" d="M 252.5,220.5 C 250.833,220.5 249.167,220.5 247.5,220.5C 247.5,214.833 247.5,209.167 247.5,203.5C 250.177,201.568 253.177,201.068 256.5,202C 261.102,203.867 265.768,205.534 270.5,207C 266.931,214.736 260.931,219.236 252.5,220.5 Z"/></g>
<g><path style="opacity:1" fill="#212e3f" d="M 246.5,425.5 C 246.833,425.5 247.167,425.5 247.5,425.5C 247.5,444.5 247.5,463.5 247.5,482.5C 175.423,480.954 115.757,453.287 68.5,399.5C 73.653,378.556 78.9864,357.556 84.5,336.5C 94.9935,332.384 103.827,334.718 111,343.5C 113.748,348.666 116.748,353.666 120,358.5C 136.187,375.679 156.02,386.179 179.5,390C 186.543,400.044 195.21,408.377 205.5,415C 218.013,423.045 231.68,426.545 246.5,425.5 Z"/></g>
<g><path style="opacity:1" fill="#010f1b" d="M 410.5,337.5 C 416.346,359.223 422.013,380.89 427.5,402.5C 379.647,455.746 319.647,482.412 247.5,482.5C 247.5,463.5 247.5,444.5 247.5,425.5C 275.975,425.262 298.309,413.429 314.5,390C 324.411,387.772 334.078,384.772 343.5,381C 361.554,372.946 375.054,360.113 384,342.5C 391.607,333.95 400.44,332.283 410.5,337.5 Z"/></g>
</svg>
