<?xml version="1.0" encoding="UTF-8"?>
<!DOCTYPE svg PUBLIC "-//W3C//DTD SVG 1.1//EN" "http://www.w3.org/Graphics/SVG/1.1/DTD/svg11.dtd">
<svg xmlns="http://www.w3.org/2000/svg" version="1.1" width="500px" height="500px" style="shape-rendering:geometricPrecision; text-rendering:geometricPrecision; image-rendering:optimizeQuality; fill-rule:evenodd; clip-rule:evenodd" xmlns:xlink="http://www.w3.org/1999/xlink">
<g><path style="opacity:0.956" fill="#033067" d="M 499.5,226.5 C 499.5,241.5 499.5,256.5 499.5,271.5C 489.907,352.223 451.24,414.723 383.5,459C 311.522,501.255 236.189,508.255 157.5,480C 65.3241,440.498 12.6574,370.998 -0.5,271.5C -0.5,256.5 -0.5,241.5 -0.5,226.5C 9.09228,145.779 47.7589,83.2792 115.5,39C 187.475,-3.25514 262.808,-10.2551 341.5,18C 415.725,48.6118 465.225,102.112 490,178.5C 494.285,194.424 497.452,210.424 499.5,226.5 Z"/></g>
<g><path style="opacity:1" fill="#fdcb01" d="M 355.5,457.5 C 364.381,451.554 372.714,444.888 380.5,437.5C 398.1,421.947 412.6,403.947 424,383.5C 425.914,380.702 426.914,377.702 427,374.5C 423.376,371.611 419.876,368.611 416.5,365.5C 405.69,356.585 393.69,349.418 380.5,344C 359.514,336.727 338.514,329.56 317.5,322.5C 312.629,320.815 308.129,318.482 304,315.5C 301.994,312.464 301.16,309.131 301.5,305.5C 304.977,303.898 308.643,302.898 312.5,302.5C 319.697,303.954 326.697,306.121 333.5,309C 335.81,309.497 338.143,309.663 340.5,309.5C 357.111,314.129 371.278,310.129 383,297.5C 386.038,292.757 388.538,287.757 390.5,282.5C 391.841,275.59 393.341,268.59 395,261.5C 399.699,256.466 404.699,251.8 410,247.5C 415.019,241.793 417.519,235.126 417.5,227.5C 416.067,220.363 414.734,213.196 413.5,206C 416.167,196 418.833,186 421.5,176C 421.643,171.781 420.476,167.948 418,164.5C 412.224,158.057 407.224,151.057 403,143.5C 401.836,135.218 401.169,126.884 401,118.5C 399.167,112.667 395.333,108.833 389.5,107C 381.5,104.667 373.5,102.333 365.5,100C 359.601,96.7694 354.268,92.7694 349.5,88C 346.911,86.8035 344.244,85.8035 341.5,85C 331.505,85.1562 321.505,85.1562 311.5,85C 305.237,81.6834 300.404,76.85 297,70.5C 292.682,65.4242 287.182,62.5908 280.5,62C 273.167,61.6667 265.833,61.3333 258.5,61C 249.774,57.6046 242.108,52.6046 235.5,46C 222.697,37.4884 209.364,36.4884 195.5,43C 188.5,48.6667 181.5,54.3333 174.5,60C 166.26,62.3813 157.927,64.3813 149.5,66C 128.927,74.9444 118.761,90.7777 119,113.5C 118.275,115.949 117.275,118.283 116,120.5C 110.693,125.318 105.027,129.652 99,133.5C 92.2962,140.943 89.6296,149.61 91,159.5C 95.3917,168.725 97.0584,178.392 96,188.5C 91.5126,196.97 88.0126,205.803 85.5,215C 85.8654,218.763 87.032,222.263 89,225.5C 93.0599,229.292 96.3932,233.626 99,238.5C 98.5572,250.16 98.2239,261.826 98,273.5C 99.5,279 103,282.5 108.5,284C 116.159,284.5 123.826,284.666 131.5,284.5C 138.945,308.066 154.945,317.566 179.5,313C 185.254,310.405 189.921,306.572 193.5,301.5C 202.55,303.627 211.55,305.961 220.5,308.5C 220.792,313.985 218.792,318.319 214.5,321.5C 212.176,322.656 209.843,323.656 207.5,324.5C 170.826,331.447 135.826,343.28 102.5,360C 94.3734,364.975 86.7068,370.475 79.5,376.5C 75.5138,378.951 73.0138,382.284 72,386.5C 83.7979,406.453 97.9645,424.453 114.5,440.5C 57.0694,400.013 23.9027,344.679 15,274.5C 7.90038,180.21 43.067,106.376 120.5,53C 189.331,11.0839 261.664,4.08394 337.5,32C 413.473,64.6425 461.306,121.143 481,201.5C 496.544,295.224 468.044,372.391 395.5,433C 382.946,442.444 369.612,450.61 355.5,457.5 Z"/></g>
<g><path style="opacity:1" fill="#33140f" d="M 390.5,282.5 C 392.587,268.359 388.254,256.692 377.5,247.5C 388.27,237.691 392.103,225.691 389,211.5C 388.152,209.126 386.819,207.126 385,205.5C 372.679,211.154 363.679,220.154 358,232.5C 357.333,231.167 357.333,229.833 358,228.5C 363.644,216.855 372.477,208.688 384.5,204C 376.603,196.434 368.103,195.601 359,201.5C 358.075,200.953 357.242,200.287 356.5,199.5C 354.653,192.399 352.486,185.399 350,178.5C 346.248,175.371 342.081,172.871 337.5,171C 332.789,166.86 331.289,161.694 333,155.5C 335.422,149.733 336.922,143.733 337.5,137.5C 337.853,132.04 335.519,128.207 330.5,126C 318.665,123.152 310.165,116.318 305,105.5C 303.648,102.28 302.814,98.9466 302.5,95.5C 293.521,94.1761 284.521,92.6761 275.5,91C 260.568,89.5168 245.901,90.8501 231.5,95C 209.679,100.8 199.846,114.967 202,137.5C 201.171,143.66 198.004,148.16 192.5,151C 187.167,152.667 181.833,154.333 176.5,156C 174,157.167 172.167,159 171,161.5C 170.945,168.445 171.778,175.278 173.5,182C 173.502,190.496 170.168,197.329 163.5,202.5C 162.076,200.282 160.076,198.782 157.5,198C 149.976,196.077 143.643,197.91 138.5,203.5C 152.675,210.153 161.841,220.82 166,235.5C 160.318,221.745 150.818,211.745 137.5,205.5C 133.238,209.502 131.238,214.502 131.5,220.5C 132.437,232.717 137.77,242.383 147.5,249.5C 134.908,257.693 129.575,269.36 131.5,284.5C 123.826,284.666 116.159,284.5 108.5,284C 103,282.5 99.5,279 98,273.5C 98.2239,261.826 98.5572,250.16 99,238.5C 96.3932,233.626 93.0599,229.292 89,225.5C 87.032,222.263 85.8654,218.763 85.5,215C 88.0126,205.803 91.5126,196.97 96,188.5C 97.0584,178.392 95.3917,168.725 91,159.5C 89.6296,149.61 92.2962,140.943 99,133.5C 105.027,129.652 110.693,125.318 116,120.5C 117.275,118.283 118.275,115.949 119,113.5C 118.761,90.7777 128.927,74.9444 149.5,66C 157.927,64.3813 166.26,62.3813 174.5,60C 181.5,54.3333 188.5,48.6667 195.5,43C 209.364,36.4884 222.697,37.4884 235.5,46C 242.108,52.6046 249.774,57.6046 258.5,61C 265.833,61.3333 273.167,61.6667 280.5,62C 287.182,62.5908 292.682,65.4242 297,70.5C 300.404,76.85 305.237,81.6834 311.5,85C 321.505,85.1562 331.505,85.1562 341.5,85C 344.244,85.8035 346.911,86.8035 349.5,88C 354.268,92.7694 359.601,96.7694 365.5,100C 373.5,102.333 381.5,104.667 389.5,107C 395.333,108.833 399.167,112.667 401,118.5C 401.169,126.884 401.836,135.218 403,143.5C 407.224,151.057 412.224,158.057 418,164.5C 420.476,167.948 421.643,171.781 421.5,176C 418.833,186 416.167,196 413.5,206C 414.734,213.196 416.067,220.363 417.5,227.5C 417.519,235.126 415.019,241.793 410,247.5C 404.699,251.8 399.699,256.466 395,261.5C 393.341,268.59 391.841,275.59 390.5,282.5 Z"/></g>
<g><path style="opacity:1" fill="#d15229" d="M 377.5,247.5 C 372.734,244.63 367.567,242.63 362,241.5C 360,242.167 360,242.833 362,243.5C 366.577,244.3 370.744,245.967 374.5,248.5C 373.251,250.136 371.584,251.303 369.5,252C 364.667,254.085 359.667,255.585 354.5,256.5C 352.521,267.96 346.855,277.126 337.5,284C 325.94,291.125 313.607,295.958 300.5,298.5C 274.149,301.88 247.816,302.213 221.5,299.5C 208.08,298.416 195.747,294.249 184.5,287C 176.846,277.888 172.18,267.388 170.5,255.5C 163.122,256.255 156.455,254.589 150.5,250.5C 153.793,248.433 157.46,247.1 161.5,246.5C 156.445,245.401 151.778,246.401 147.5,249.5C 137.77,242.383 132.437,232.717 131.5,220.5C 131.238,214.502 133.238,209.502 137.5,205.5C 150.818,211.745 160.318,221.745 166,235.5C 161.841,220.82 152.675,210.153 138.5,203.5C 143.643,197.91 149.976,196.077 157.5,198C 160.076,198.782 162.076,200.282 163.5,202.5C 170.168,197.329 173.502,190.496 173.5,182C 171.778,175.278 170.945,168.445 171,161.5C 172.167,159 174,157.167 176.5,156C 181.833,154.333 187.167,152.667 192.5,151C 198.004,148.16 201.171,143.66 202,137.5C 199.846,114.967 209.679,100.8 231.5,95C 245.901,90.8501 260.568,89.5168 275.5,91C 284.521,92.6761 293.521,94.1761 302.5,95.5C 302.814,98.9466 303.648,102.28 305,105.5C 310.165,116.318 318.665,123.152 330.5,126C 335.519,128.207 337.853,132.04 337.5,137.5C 336.922,143.733 335.422,149.733 333,155.5C 331.289,161.694 332.789,166.86 337.5,171C 342.081,172.871 346.248,175.371 350,178.5C 352.486,185.399 354.653,192.399 356.5,199.5C 357.242,200.287 358.075,200.953 359,201.5C 368.103,195.601 376.603,196.434 384.5,204C 372.477,208.688 363.644,216.855 358,228.5C 357.333,229.833 357.333,231.167 358,232.5C 363.679,220.154 372.679,211.154 385,205.5C 386.819,207.126 388.152,209.126 389,211.5C 392.103,225.691 388.27,237.691 377.5,247.5 Z"/></g>
<g><path style="opacity:1" fill="#371510" d="M 299.5,156.5 C 314.745,156.288 326.412,162.622 334.5,175.5C 334,175.833 333.5,176.167 333,176.5C 322.012,172.835 310.845,170.002 299.5,168C 295.567,164.124 295.567,160.29 299.5,156.5 Z"/></g>
<g><path style="opacity:1" fill="#36150f" d="M 220.5,156.5 C 229.316,154.494 233.15,157.827 232,166.5C 231.5,167 231,167.5 230.5,168C 218.463,169.84 206.797,173.007 195.5,177.5C 195.167,177.167 194.833,176.833 194.5,176.5C 200.588,166.459 209.255,159.792 220.5,156.5 Z"/></g>
<g><path style="opacity:1" fill="#36150f" d="M 302.5,180.5 C 311.822,180.652 315.989,185.319 315,194.5C 312.081,200.025 307.581,201.858 301.5,200C 295.975,197.081 294.142,192.581 296,186.5C 297.914,184.144 300.081,182.144 302.5,180.5 Z"/></g>
<g><path style="opacity:1" fill="#371510" d="M 211.5,182.5 C 221.519,182.691 225.352,187.691 223,197.5C 219.702,202.22 215.202,203.72 209.5,202C 203.818,198.469 202.318,193.635 205,187.5C 206.965,185.45 209.132,183.783 211.5,182.5 Z"/></g>
<g><path style="opacity:1" fill="#441a12" d="M 288.5,207.5 C 290.89,207.685 291.89,209.018 291.5,211.5C 291.61,213.374 290.944,214.874 289.5,216C 285.768,217.969 281.768,218.969 277.5,219C 272.221,223.187 266.221,224.52 259.5,223C 254.37,220.457 249.037,219.79 243.5,221C 240.932,219.873 239.598,217.873 239.5,215C 239.6,212.63 240.6,210.797 242.5,209.5C 242.742,212.319 242.742,215.319 242.5,218.5C 251.653,218.628 260.653,219.461 269.5,221C 272.071,220.099 274.404,218.766 276.5,217C 280.084,215.927 283.75,215.26 287.5,215C 289.837,212.806 290.17,210.306 288.5,207.5 Z"/></g>
<g><path style="opacity:1" fill="#fb8172" d="M 299.5,237.5 C 286.633,240.37 273.466,241.704 260,241.5C 248.971,241.508 238.138,240.842 227.5,239.5C 232.248,239.725 236.915,239.225 241.5,238C 249.889,231.972 259.223,228.472 269.5,227.5C 278.092,228.464 285.759,231.631 292.5,237C 294.81,237.497 297.143,237.663 299.5,237.5 Z"/></g>
<g><path style="opacity:1" fill="#fa8173" d="M 301.5,239.5 C 288.167,254.842 271.5,260.008 251.5,255C 243.644,250.604 235.977,246.104 228.5,241.5C 252.948,244.615 277.281,243.948 301.5,239.5 Z"/></g>
<g><path style="opacity:1" fill="#4b211b" d="M 301.5,239.5 C 277.281,243.948 252.948,244.615 228.5,241.5C 226.396,241.799 224.396,241.466 222.5,240.5C 224.045,239.548 225.712,239.215 227.5,239.5C 238.138,240.842 248.971,241.508 260,241.5C 273.466,241.704 286.633,240.37 299.5,237.5C 302.554,236.679 305.554,236.679 308.5,237.5C 306.157,238.275 303.823,238.942 301.5,239.5 Z"/></g>
<g><path style="opacity:1" fill="#341510" d="M 374.5,248.5 C 385.895,256.486 390.395,267.486 388,281.5C 387.183,285.789 385.683,289.789 383.5,293.5C 376.036,297.422 368.036,299.589 359.5,300C 354.405,302.875 349.405,305.708 344.5,308.5C 337.24,305.574 331.907,300.574 328.5,293.5C 328.167,294 327.833,294.5 327.5,295C 330.291,301.287 334.624,306.12 340.5,309.5C 338.143,309.663 335.81,309.497 333.5,309C 326.697,306.121 319.697,303.954 312.5,302.5C 308.643,302.898 304.977,303.898 301.5,305.5C 301.326,303.139 300.993,300.806 300.5,298.5C 313.607,295.958 325.94,291.125 337.5,284C 346.855,277.126 352.521,267.96 354.5,256.5C 359.667,255.585 364.667,254.085 369.5,252C 371.584,251.303 373.251,250.136 374.5,248.5 Z"/></g>
<g><path style="opacity:1" fill="#34150f" d="M 150.5,250.5 C 156.455,254.589 163.122,256.255 170.5,255.5C 172.18,267.388 176.846,277.888 184.5,287C 195.747,294.249 208.08,298.416 221.5,299.5C 221.5,301.5 221.5,303.5 221.5,305.5C 221.737,306.791 221.404,307.791 220.5,308.5C 211.55,305.961 202.55,303.627 193.5,301.5C 194.434,299.761 194.434,298.095 193.5,296.5C 192.491,298.518 191.491,300.518 190.5,302.5C 185.041,303.031 179.708,304.198 174.5,306C 167.859,307.406 161.859,306.073 156.5,302C 151.167,297.333 145.833,292.667 140.5,288C 138.35,286.589 136.016,285.755 133.5,285.5C 130.992,269.615 136.659,257.949 150.5,250.5 Z"/></g>
<g><path style="opacity:1" fill="#fbca12" d="M 133.5,285.5 C 136.016,285.755 138.35,286.589 140.5,288C 145.833,292.667 151.167,297.333 156.5,302C 161.859,306.073 167.859,307.406 174.5,306C 179.708,304.198 185.041,303.031 190.5,302.5C 181.981,312.382 171.315,315.549 158.5,312C 145.504,307.506 137.171,298.672 133.5,285.5 Z"/></g>
<g><path style="opacity:1" fill="#7c301b" d="M 300.5,298.5 C 300.993,300.806 301.326,303.139 301.5,305.5C 300.883,305.389 300.383,305.056 300,304.5C 287.996,314.842 273.996,319.508 258,318.5C 243.831,319.313 231.665,314.979 221.5,305.5C 221.5,303.5 221.5,301.5 221.5,299.5C 247.816,302.213 274.149,301.88 300.5,298.5 Z"/></g>
<g><path style="opacity:1" fill="#f4eee2" d="M 150.5,250.5 C 136.659,257.949 130.992,269.615 133.5,285.5C 137.171,298.672 145.504,307.506 158.5,312C 171.315,315.549 181.981,312.382 190.5,302.5C 191.491,300.518 192.491,298.518 193.5,296.5C 194.434,298.095 194.434,299.761 193.5,301.5C 189.921,306.572 185.254,310.405 179.5,313C 154.945,317.566 138.945,308.066 131.5,284.5C 129.575,269.36 134.908,257.693 147.5,249.5C 151.778,246.401 156.445,245.401 161.5,246.5C 157.46,247.1 153.793,248.433 150.5,250.5 Z"/></g>
<g><path style="opacity:1" fill="#efe8db" d="M 377.5,247.5 C 388.254,256.692 392.587,268.359 390.5,282.5C 388.538,287.757 386.038,292.757 383,297.5C 371.278,310.129 357.111,314.129 340.5,309.5C 334.624,306.12 330.291,301.287 327.5,295C 327.833,294.5 328.167,294 328.5,293.5C 331.907,300.574 337.24,305.574 344.5,308.5C 360.864,311.939 373.864,306.939 383.5,293.5C 385.683,289.789 387.183,285.789 388,281.5C 390.395,267.486 385.895,256.486 374.5,248.5C 370.744,245.967 366.577,244.3 362,243.5C 360,242.833 360,242.167 362,241.5C 367.567,242.63 372.734,244.63 377.5,247.5 Z"/></g>
<g><path style="opacity:1" fill="#f9c810" d="M 383.5,293.5 C 373.864,306.939 360.864,311.939 344.5,308.5C 349.405,305.708 354.405,302.875 359.5,300C 368.036,299.589 376.036,297.422 383.5,293.5 Z"/></g>
<g><path style="opacity:1" fill="#d2542a" d="M 301.5,305.5 C 301.16,309.131 301.994,312.464 304,315.5C 308.129,318.482 312.629,320.815 317.5,322.5C 314.453,336.942 307.119,348.609 295.5,357.5C 295.167,357.167 294.833,356.833 294.5,356.5C 295.752,354.265 296.252,351.931 296,349.5C 294.769,352.961 293.269,356.294 291.5,359.5C 272.184,370.01 252.517,371.01 232.5,362.5C 225.663,349.163 219.663,335.496 214.5,321.5C 218.792,318.319 220.792,313.985 220.5,308.5C 221.404,307.791 221.737,306.791 221.5,305.5C 231.665,314.979 243.831,319.313 258,318.5C 273.996,319.508 287.996,314.842 300,304.5C 300.383,305.056 300.883,305.389 301.5,305.5 Z"/></g>
<g><path style="opacity:1" fill="#db6a3a" d="M 214.5,321.5 C 219.663,335.496 225.663,349.163 232.5,362.5C 220.585,354.435 212.918,342.268 209.5,326C 209.164,324.97 208.497,324.47 207.5,324.5C 209.843,323.656 212.176,322.656 214.5,321.5 Z"/></g>
<g><path style="opacity:1" fill="#f8ddd2" d="M 317.5,322.5 C 338.514,329.56 359.514,336.727 380.5,344C 393.69,349.418 405.69,356.585 416.5,365.5C 411.562,369.936 406.729,374.603 402,379.5C 400.517,382.702 400.183,386.036 401,389.5C 403.83,393.463 405.163,397.796 405,402.5C 404,404.5 403,406.5 402,408.5C 395.667,413.833 389.333,419.167 383,424.5C 380.826,428.546 379.993,432.879 380.5,437.5C 372.714,444.888 364.381,451.554 355.5,457.5C 296.208,492.761 234.208,498.261 169.5,474C 151.475,466.668 135.142,456.835 120.5,444.5C 121.268,443.737 121.768,442.737 122,441.5C 122.667,437.167 122.667,432.833 122,428.5C 118.407,423.916 113.907,420.416 108.5,418C 106.19,416.363 104.69,414.196 104,411.5C 104.929,404.254 105.263,396.92 105,389.5C 100.183,384.886 94.3497,382.386 87.5,382C 84.2444,380.884 81.5777,379.051 79.5,376.5C 86.7068,370.475 94.3734,364.975 102.5,360C 135.826,343.28 170.826,331.447 207.5,324.5C 208.497,324.47 209.164,324.97 209.5,326C 212.918,342.268 220.585,354.435 232.5,362.5C 252.517,371.01 272.184,370.01 291.5,359.5C 293.269,356.294 294.769,352.961 296,349.5C 296.252,351.931 295.752,354.265 294.5,356.5C 294.833,356.833 295.167,357.167 295.5,357.5C 307.119,348.609 314.453,336.942 317.5,322.5 Z"/></g>
<g><path style="opacity:1" fill="#d2552b" d="M 416.5,365.5 C 419.876,368.611 423.376,371.611 427,374.5C 426.914,377.702 425.914,380.702 424,383.5C 412.6,403.947 398.1,421.947 380.5,437.5C 379.993,432.879 380.826,428.546 383,424.5C 389.333,419.167 395.667,413.833 402,408.5C 403,406.5 404,404.5 405,402.5C 405.163,397.796 403.83,393.463 401,389.5C 400.183,386.036 400.517,382.702 402,379.5C 406.729,374.603 411.562,369.936 416.5,365.5 Z"/></g>
<g><path style="opacity:1" fill="#d2552a" d="M 79.5,376.5 C 81.5777,379.051 84.2444,380.884 87.5,382C 94.3497,382.386 100.183,384.886 105,389.5C 105.263,396.92 104.929,404.254 104,411.5C 104.69,414.196 106.19,416.363 108.5,418C 113.907,420.416 118.407,423.916 122,428.5C 122.667,432.833 122.667,437.167 122,441.5C 121.768,442.737 121.268,443.737 120.5,444.5C 118.205,443.525 116.205,442.192 114.5,440.5C 97.9645,424.453 83.7979,406.453 72,386.5C 73.0138,382.284 75.5138,378.951 79.5,376.5 Z"/></g>
<g><path style="opacity:1" fill="#fdc895" d="M 234.5,368.5 C 243.161,384.154 250.994,400.154 258,416.5C 249.35,400.866 241.516,384.866 234.5,368.5 Z"/></g>
<g><path style="opacity:1" fill="#fec385" d="M 259.5,418.5 C 261.81,421.102 263.643,424.102 265,427.5C 266.185,425.623 267.185,423.623 268,421.5C 268,423.5 268,425.5 268,427.5C 276.953,431.082 279.62,437.415 276,446.5C 270.874,452.996 264.708,454.163 257.5,450C 249.485,439.771 251.485,432.104 263.5,427C 261.754,424.341 260.42,421.508 259.5,418.5 Z"/></g>
<g><path style="opacity:1" fill="#f9ddd0" d="M 261.5,429.5 C 272.042,428.539 276.542,433.206 275,443.5C 270.108,451.484 264.108,452.484 257,446.5C 252.758,439.274 254.258,433.607 261.5,429.5 Z"/></g>
</svg>
