<?xml version="1.0" encoding="UTF-8"?>
<!DOCTYPE svg PUBLIC "-//W3C//DTD SVG 1.1//EN" "http://www.w3.org/Graphics/SVG/1.1/DTD/svg11.dtd">
<svg xmlns="http://www.w3.org/2000/svg" version="1.1" width="500px" height="500px" style="shape-rendering:geometricPrecision; text-rendering:geometricPrecision; image-rendering:optimizeQuality; fill-rule:evenodd; clip-rule:evenodd" xmlns:xlink="http://www.w3.org/1999/xlink">
<g><path style="opacity:0.957" fill="#023067" d="M 499.5,226.5 C 499.5,241.5 499.5,256.5 499.5,271.5C 489.907,352.223 451.24,414.723 383.5,459C 311.522,501.255 236.189,508.255 157.5,480C 65.3241,440.498 12.6574,370.998 -0.5,271.5C -0.5,256.5 -0.5,241.5 -0.5,226.5C 9.09228,145.779 47.7589,83.2792 115.5,39C 187.475,-3.25514 262.808,-10.2551 341.5,18C 415.725,48.6118 465.225,102.112 490,178.5C 494.285,194.424 497.452,210.424 499.5,226.5 Z"/></g>
<g><path style="opacity:1" fill="#fecc01" d="M 457.5,360.5 C 454.294,353.783 450.961,346.95 447.5,340C 428.194,332.296 409.194,324.129 390.5,315.5C 386.11,304.827 382.61,293.827 380,282.5C 377.819,256.52 375.819,230.52 374,204.5C 372.05,179.448 366.05,155.448 356,132.5C 346.924,115.257 333.758,102.257 316.5,93.5C 322.67,92.8383 325.17,89.505 324,83.5C 323.578,81.5743 322.411,80.5743 320.5,80.5C 323.909,77.6532 325.076,73.9865 324,69.5C 322.786,67.9512 321.286,66.7845 319.5,66C 316.258,65.5939 313.258,64.7605 310.5,63.5C 309.223,60.4475 307.556,57.6141 305.5,55C 287.624,43.5964 268.124,36.7631 247,34.5C 226.982,37.2603 208.482,44.0936 191.5,55C 189.444,57.6141 187.777,60.4475 186.5,63.5C 182.873,64.4293 179.207,65.2627 175.5,66C 173.274,67.6195 171.94,69.7862 171.5,72.5C 172.448,75.4227 173.781,78.0893 175.5,80.5C 170.544,83.8149 170.211,87.6482 174.5,92C 176.345,93.128 178.345,93.628 180.5,93.5C 158.587,103.918 143.42,120.585 135,143.5C 129.075,160.379 125.075,177.712 123,195.5C 120.081,224.122 117.748,252.789 116,281.5C 113.595,293.211 110.095,304.544 105.5,315.5C 86.8063,324.129 67.8063,332.296 48.5,340C 45.6446,344.713 43.3113,349.713 41.5,355C 41.1639,356.03 40.4972,356.53 39.5,356.5C 10.8868,298.139 6.05345,237.806 25,175.5C 54.0781,97.4222 108.578,46.5889 188.5,23C 258.851,6.09449 324.184,17.4278 384.5,57C 466.181,118.252 498.014,199.418 480,300.5C 475.007,321.478 467.507,341.478 457.5,360.5 Z"/></g>
<g><path style="opacity:1" fill="#fcfcfb" d="M 310.5,63.5 C 269.139,55.674 227.805,55.674 186.5,63.5C 187.777,60.4475 189.444,57.6141 191.5,55C 208.482,44.0936 226.982,37.2603 247,34.5C 268.124,36.7631 287.624,43.5964 305.5,55C 307.556,57.6141 309.223,60.4475 310.5,63.5 Z"/></g>
<g><path style="opacity:1" fill="#121211" d="M 310.5,63.5 C 313.258,64.7605 316.258,65.5939 319.5,66C 321.286,66.7845 322.786,67.9512 324,69.5C 325.076,73.9865 323.909,77.6532 320.5,80.5C 282.036,70.081 243.036,67.9143 203.5,74C 193.894,75.2357 184.561,77.4023 175.5,80.5C 173.781,78.0893 172.448,75.4227 171.5,72.5C 171.94,69.7862 173.274,67.6195 175.5,66C 179.207,65.2627 182.873,64.4293 186.5,63.5C 227.805,55.674 269.139,55.674 310.5,63.5 Z"/></g>
<g><path style="opacity:1" fill="#050504" d="M 320.5,80.5 C 322.411,80.5743 323.578,81.5743 324,83.5C 325.17,89.505 322.67,92.8383 316.5,93.5C 293.52,85.5083 269.854,82.175 245.5,83.5C 223.133,82.7 201.467,86.0334 180.5,93.5C 178.345,93.628 176.345,93.128 174.5,92C 170.211,87.6482 170.544,83.8149 175.5,80.5C 184.561,77.4023 193.894,75.2357 203.5,74C 243.036,67.9143 282.036,70.081 320.5,80.5 Z"/></g>
<g><path style="opacity:1" fill="#fefefe" d="M 316.5,93.5 C 333.758,102.257 346.924,115.257 356,132.5C 366.05,155.448 372.05,179.448 374,204.5C 375.819,230.52 377.819,256.52 380,282.5C 382.61,293.827 386.11,304.827 390.5,315.5C 389.833,315.5 389.167,315.5 388.5,315.5C 376.142,309.598 363.475,304.264 350.5,299.5C 343.84,355.792 337.507,412.125 331.5,468.5C 283.652,485.919 234.985,488.086 185.5,475C 178.288,472.765 171.288,470.265 164.5,467.5C 158.852,411.375 152.186,355.375 144.5,299.5C 131.702,304.088 119.369,309.421 107.5,315.5C 106.833,315.5 106.167,315.5 105.5,315.5C 110.095,304.544 113.595,293.211 116,281.5C 117.748,252.789 120.081,224.122 123,195.5C 125.075,177.712 129.075,160.379 135,143.5C 143.42,120.585 158.587,103.918 180.5,93.5C 201.467,86.0334 223.133,82.7 245.5,83.5C 269.854,82.175 293.52,85.5083 316.5,93.5 Z"/></g>
<g><path style="opacity:1" fill="#e0ba91" d="M 248.5,119.5 C 248.5,143.5 248.5,167.5 248.5,191.5C 241.189,190.531 233.856,190.364 226.5,191C 218.93,193.117 213.263,197.617 209.5,204.5C 203.411,197.334 198.578,189.334 195,180.5C 188.239,160.939 185.072,140.939 185.5,120.5C 187.877,119.113 190.543,118.279 193.5,118C 198,117.833 202.5,117.667 207,117.5C 220.835,118.191 234.669,118.857 248.5,119.5 Z"/></g>
<g><path style="opacity:1" fill="#daaa78" d="M 309.5,120.5 C 313.073,151.88 305.573,180.214 287,205.5C 280.727,195.027 271.394,190.027 259,190.5C 255.466,190.635 251.966,190.969 248.5,191.5C 248.5,167.5 248.5,143.5 248.5,119.5C 260.666,118.871 272.833,118.204 285,117.5C 289.5,117.667 294,117.833 298.5,118C 302.465,118.108 306.132,118.941 309.5,120.5 Z"/></g>
<g><path style="opacity:1" fill="#0a0705" d="M 281.5,122.5 C 289.033,121.528 296.033,122.861 302.5,126.5C 306.885,130.938 306.219,132.104 300.5,130C 296.167,129.333 291.833,129.333 287.5,130C 278.938,132.298 270.438,134.798 262,137.5C 257.162,136.511 255.329,133.511 256.5,128.5C 265.125,127.282 273.459,125.282 281.5,122.5 Z"/></g>
<g><path style="opacity:1" fill="#d3b08a" d="M 179.5,122.5 C 179.5,157.833 179.5,193.167 179.5,228.5C 178.669,214.006 178.169,199.339 178,184.5C 173.818,179.974 171.152,174.64 170,168.5C 167.46,157.302 166.293,145.969 166.5,134.5C 169.554,129.113 173.887,125.113 179.5,122.5 Z"/></g>
<g><path style="opacity:1" fill="#161514" d="M 200.5,122.5 C 206.545,122.428 212.545,122.928 218.5,124C 225.655,126.456 232.988,127.956 240.5,128.5C 241.193,133.479 239.193,136.479 234.5,137.5C 225.869,134.901 217.202,132.401 208.5,130C 202.83,129.025 197.33,129.525 192,131.5C 191.5,131.333 191,131.167 190.5,131C 192.896,126.982 196.23,124.149 200.5,122.5 Z"/></g>
<g><path style="opacity:1" fill="#dcac79" d="M 317.5,123.5 C 323.189,125.855 327.189,129.855 329.5,135.5C 330.328,151.871 327.494,167.538 321,182.5C 319.887,183.305 318.721,183.972 317.5,184.5C 317.5,164.167 317.5,143.833 317.5,123.5 Z"/></g>
<g><path style="opacity:1" fill="#dbc9a1" d="M 166.5,134.5 C 166.293,145.969 167.46,157.302 170,168.5C 171.152,174.64 173.818,179.974 178,184.5C 178.169,199.339 178.669,214.006 179.5,228.5C 181.309,237.594 184.309,246.26 188.5,254.5C 185.641,264.316 183.641,274.316 182.5,284.5C 172.307,287.927 162.307,291.927 152.5,296.5C 152.167,296.167 151.833,295.833 151.5,295.5C 154.33,284.53 155.664,273.363 155.5,262C 153.685,233.523 153.185,205.023 154,176.5C 155.236,167.754 156.902,159.087 159,150.5C 160.729,144.714 163.229,139.38 166.5,134.5 Z"/></g>
<g><path style="opacity:1" fill="#dbc9a1" d="M 329.5,135.5 C 333.226,140.141 335.726,145.474 337,151.5C 339.715,161.312 341.382,171.312 342,181.5C 342.731,208.522 342.231,235.522 340.5,262.5C 340.265,272.955 341.265,283.288 343.5,293.5C 343.333,294.5 343.167,295.5 343,296.5C 333.268,292.202 323.435,288.202 313.5,284.5C 312.356,274.299 310.356,264.299 307.5,254.5C 311.54,246.886 314.707,238.886 317,230.5C 317.5,215.17 317.667,199.837 317.5,184.5C 318.721,183.972 319.887,183.305 321,182.5C 327.494,167.538 330.328,151.871 329.5,135.5 Z"/></g>
<g><path style="opacity:1" fill="#111111" d="M 185.5,120.5 C 185.072,140.939 188.239,160.939 195,180.5C 198.578,189.334 203.411,197.334 209.5,204.5C 213.263,197.617 218.93,193.117 226.5,191C 233.856,190.364 241.189,190.531 248.5,191.5C 248.175,199.019 248.508,206.352 249.5,213.5C 249.265,214.097 248.765,214.43 248,214.5C 239.051,210.333 229.885,209 220.5,210.5C 217.093,210.703 214.426,212.203 212.5,215C 213.752,221.354 215.585,227.52 218,233.5C 226.82,240.706 236.987,243.706 248.5,242.5C 248.5,257.5 248.5,272.5 248.5,287.5C 245.5,287.5 242.5,287.5 239.5,287.5C 221.336,285.668 206.503,277.668 195,263.5C 192.812,260.433 190.645,257.433 188.5,254.5C 184.309,246.26 181.309,237.594 179.5,228.5C 179.5,193.167 179.5,157.833 179.5,122.5C 181.297,121.27 183.297,120.604 185.5,120.5 Z"/></g>
<g><path style="opacity:1" fill="#030201" d="M 309.5,120.5 C 312.542,120.733 315.208,121.733 317.5,123.5C 317.5,143.833 317.5,164.167 317.5,184.5C 317.667,199.837 317.5,215.17 317,230.5C 314.707,238.886 311.54,246.886 307.5,254.5C 294.275,276.621 274.608,287.621 248.5,287.5C 248.5,272.5 248.5,257.5 248.5,242.5C 257.644,242.729 266.31,240.895 274.5,237C 276,235.5 277.5,234 279,232.5C 280.704,227.055 282.204,221.555 283.5,216C 283.415,214.893 283.081,213.893 282.5,213C 280.512,212.062 278.512,211.228 276.5,210.5C 267.258,209.012 258.258,210.012 249.5,213.5C 248.508,206.352 248.175,199.019 248.5,191.5C 251.966,190.969 255.466,190.635 259,190.5C 271.394,190.027 280.727,195.027 287,205.5C 305.573,180.214 313.073,151.88 309.5,120.5 Z"/></g>
<g><path style="opacity:1" fill="#ab6b3d" d="M 232.5,176.5 C 238.888,176.224 242.555,179.224 243.5,185.5C 237.906,186.363 233.572,184.53 230.5,180C 230.978,178.697 231.645,177.531 232.5,176.5 Z"/></g>
<g><path style="opacity:1" fill="#a96739" d="M 258.5,176.5 C 263.006,175.527 265.172,177.194 265,181.5C 261.408,184.53 257.242,185.864 252.5,185.5C 252.351,184.448 252.517,183.448 253,182.5C 255.04,180.63 256.873,178.63 258.5,176.5 Z"/></g>
<g><path style="opacity:1" fill="#a46538" d="M 249.5,213.5 C 258.258,210.012 267.258,209.012 276.5,210.5C 275.488,215.68 272.488,219.18 267.5,221C 261.258,222.37 254.925,222.87 248.5,222.5C 242.491,222.666 236.491,222.499 230.5,222C 225.147,219.82 221.813,215.987 220.5,210.5C 229.885,209 239.051,210.333 248,214.5C 248.765,214.43 249.265,214.097 249.5,213.5 Z"/></g>
<g><path style="opacity:1" fill="#deb890" d="M 220.5,210.5 C 221.813,215.987 225.147,219.82 230.5,222C 236.491,222.499 242.491,222.666 248.5,222.5C 248.5,229.167 248.5,235.833 248.5,242.5C 236.987,243.706 226.82,240.706 218,233.5C 215.585,227.52 213.752,221.354 212.5,215C 214.426,212.203 217.093,210.703 220.5,210.5 Z"/></g>
<g><path style="opacity:1" fill="#d9a977" d="M 276.5,210.5 C 278.512,211.228 280.512,212.062 282.5,213C 283.081,213.893 283.415,214.893 283.5,216C 282.204,221.555 280.704,227.055 279,232.5C 277.5,234 276,235.5 274.5,237C 266.31,240.895 257.644,242.729 248.5,242.5C 248.5,235.833 248.5,229.167 248.5,222.5C 254.925,222.87 261.258,222.37 267.5,221C 272.488,219.18 275.488,215.68 276.5,210.5 Z"/></g>
<g><path style="opacity:1" fill="#e1bb92" d="M 188.5,254.5 C 190.645,257.433 192.812,260.433 195,263.5C 206.503,277.668 221.336,285.668 239.5,287.5C 242.287,288.477 245.287,288.81 248.5,288.5C 248.5,293.833 248.5,299.167 248.5,304.5C 227.713,304.887 208.046,300.387 189.5,291C 186.669,289.334 184.336,287.168 182.5,284.5C 183.641,274.316 185.641,264.316 188.5,254.5 Z"/></g>
<g><path style="opacity:1" fill="#d9aa78" d="M 307.5,254.5 C 310.356,264.299 312.356,274.299 313.5,284.5C 307.149,291.017 299.482,295.517 290.5,298C 276.877,302.692 262.877,304.859 248.5,304.5C 248.5,299.167 248.5,293.833 248.5,288.5C 245.287,288.81 242.287,288.477 239.5,287.5C 242.5,287.5 245.5,287.5 248.5,287.5C 274.608,287.621 294.275,276.621 307.5,254.5 Z"/></g>
<g><path style="opacity:1" fill="#fecd6a" d="M 164.5,467.5 C 153.282,463.556 142.615,458.556 132.5,452.5C 126.289,406.32 117.955,360.653 107.5,315.5C 119.369,309.421 131.702,304.088 144.5,299.5C 152.186,355.375 158.852,411.375 164.5,467.5 Z"/></g>
<g><path style="opacity:1" fill="#fec145" d="M 388.5,315.5 C 378.318,361.418 369.651,407.752 362.5,454.5C 352.818,460.506 342.485,465.172 331.5,468.5C 337.507,412.125 343.84,355.792 350.5,299.5C 363.475,304.264 376.142,309.598 388.5,315.5 Z"/></g>
<g><path style="opacity:1" fill="#333333" d="M 105.5,315.5 C 106.167,315.5 106.833,315.5 107.5,315.5C 117.955,360.653 126.289,406.32 132.5,452.5C 92.0112,429.678 61.0112,397.678 39.5,356.5C 40.4972,356.53 41.1639,356.03 41.5,355C 43.3113,349.713 45.6446,344.713 48.5,340C 67.8063,332.296 86.8063,324.129 105.5,315.5 Z"/></g>
<g><path style="opacity:1" fill="#010100" d="M 388.5,315.5 C 389.167,315.5 389.833,315.5 390.5,315.5C 409.194,324.129 428.194,332.296 447.5,340C 450.961,346.95 454.294,353.783 457.5,360.5C 435.094,401.24 403.427,432.573 362.5,454.5C 369.651,407.752 378.318,361.418 388.5,315.5 Z"/></g>
</svg>
