<?xml version="1.0" encoding="UTF-8"?>
<!DOCTYPE svg PUBLIC "-//W3C//DTD SVG 1.1//EN" "http://www.w3.org/Graphics/SVG/1.1/DTD/svg11.dtd">
<svg xmlns="http://www.w3.org/2000/svg" version="1.1" width="500px" height="500px" style="shape-rendering:geometricPrecision; text-rendering:geometricPrecision; image-rendering:optimizeQuality; fill-rule:evenodd; clip-rule:evenodd" xmlns:xlink="http://www.w3.org/1999/xlink">
<g><path style="opacity:0.956" fill="#033067" d="M 499.5,226.5 C 499.5,241.5 499.5,256.5 499.5,271.5C 489.907,352.223 451.24,414.723 383.5,459C 311.522,501.255 236.189,508.255 157.5,480C 65.3241,440.498 12.6574,370.998 -0.5,271.5C -0.5,256.5 -0.5,241.5 -0.5,226.5C 9.09228,145.779 47.7589,83.2792 115.5,39C 187.475,-3.25514 262.808,-10.2551 341.5,18C 415.725,48.6118 465.225,102.112 490,178.5C 494.285,194.424 497.452,210.424 499.5,226.5 Z"/></g>
<g><path style="opacity:1" fill="#fecc01" d="M 447.5,376.5 C 430.52,361.014 410.52,352.014 387.5,349.5C 376.62,344.56 365.62,339.894 354.5,335.5C 348.135,331.987 341.468,328.987 334.5,326.5C 336.042,301.294 328.709,279.127 312.5,260C 327.656,236.52 339.156,211.353 347,184.5C 354.446,136.189 342.779,93.1895 312,55.5C 296.752,37.4596 277.585,25.9596 254.5,21C 233.094,18.4139 213.427,23.0806 195.5,35C 157.647,60.3672 139.314,96.0339 140.5,142C 141.587,171.945 145.754,201.445 153,230.5C 156.16,240.993 160.66,250.827 166.5,260C 157.376,281.577 153.043,304.077 153.5,327.5C 144.46,329.734 135.793,332.734 127.5,336.5C 111.146,342 97.1459,351 85.5,363.5C 76.5329,371.132 67.8663,379.132 59.5,387.5C 20.1939,333.344 6.02722,273.011 17,206.5C 34.9144,125.816 81.4144,68.3156 156.5,34C 229.182,5.64773 299.849,9.98107 368.5,47C 436.294,88.1907 475.127,148.357 485,227.5C 488.935,281.426 476.435,331.093 447.5,376.5 Z"/></g>
<g><path style="opacity:1" fill="#1c1f4c" d="M 334.5,326.5 C 334.007,331.464 333.007,336.297 331.5,341C 283.257,360.101 233.59,365.101 182.5,356C 172.182,353.761 163.682,348.594 157,340.5C 155.137,336.351 153.97,332.018 153.5,327.5C 153.043,304.077 157.376,281.577 166.5,260C 160.66,250.827 156.16,240.993 153,230.5C 145.754,201.445 141.587,171.945 140.5,142C 139.314,96.0339 157.647,60.3672 195.5,35C 213.427,23.0806 233.094,18.4139 254.5,21C 277.585,25.9596 296.752,37.4596 312,55.5C 342.779,93.1895 354.446,136.189 347,184.5C 339.156,211.353 327.656,236.52 312.5,260C 328.709,279.127 336.042,301.294 334.5,326.5 Z"/></g>
<g><path style="opacity:1" fill="#1f0c0d" d="M 233.5,49.5 C 234.5,49.5 235.5,49.5 236.5,49.5C 236.67,50.8221 236.337,51.9887 235.5,53C 221.833,61.5 208.167,70 194.5,78.5C 193.269,77.3493 193.269,76.1827 194.5,75C 207.907,66.9737 220.907,58.4737 233.5,49.5 Z"/></g>
<g><path style="opacity:1" fill="#f88570" d="M 303.5,122.5 C 300.228,121.242 296.894,120.075 293.5,119C 282.76,118.072 272.093,118.405 261.5,120C 257.872,123.831 256.705,128.331 258,133.5C 263.652,131.416 269.485,129.916 275.5,129C 285.494,128.5 295.494,128.334 305.5,128.5C 307.905,132.756 309.405,137.423 310,142.5C 313.169,176.143 308.169,208.476 295,239.5C 279.566,255.218 260.899,264.885 239,268.5C 223.898,265.58 210.064,259.747 197.5,251C 169.193,213.663 161.86,172.497 175.5,127.5C 193.099,125.404 210.433,126.737 227.5,131.5C 227.683,126.548 226.349,122.048 223.5,118C 211.833,117.333 200.167,117.333 188.5,118C 184.528,119.319 180.861,121.153 177.5,123.5C 180.856,114.622 185.856,106.789 192.5,100C 209.483,89.0239 225.316,76.5239 240,62.5C 255.409,79.5807 272.909,94.0807 292.5,106C 297.056,110.955 300.722,116.455 303.5,122.5 Z"/></g>
<g><path style="opacity:1" fill="#1f0c0c" d="M 271.5,72.5 C 272.873,72.3433 274.207,72.51 275.5,73C 286.379,80.2664 297.046,87.7664 307.5,95.5C 305.813,96.568 304.146,96.4014 302.5,95C 292.5,88.3333 282.5,81.6667 272.5,75C 271.748,74.3292 271.414,73.4959 271.5,72.5 Z"/></g>
<g><path style="opacity:1" fill="#220d06" d="M 175.5,127.5 C 176.167,126.167 176.833,124.833 177.5,123.5C 180.861,121.153 184.528,119.319 188.5,118C 200.167,117.333 211.833,117.333 223.5,118C 226.349,122.048 227.683,126.548 227.5,131.5C 210.433,126.737 193.099,125.404 175.5,127.5 Z"/></g>
<g><path style="opacity:1" fill="#26100a" d="M 303.5,122.5 C 304.738,124.214 305.405,126.214 305.5,128.5C 295.494,128.334 285.494,128.5 275.5,129C 269.485,129.916 263.652,131.416 258,133.5C 256.705,128.331 257.872,123.831 261.5,120C 272.093,118.405 282.76,118.072 293.5,119C 296.894,120.075 300.228,121.242 303.5,122.5 Z"/></g>
<g><path style="opacity:1" fill="#1f0c0c" d="M 173.5,120.5 C 175.225,120.843 175.725,121.843 175,123.5C 169.667,128.167 164.333,132.833 159,137.5C 157.77,136.725 157.437,135.725 158,134.5C 163.362,129.968 168.528,125.301 173.5,120.5 Z"/></g>
<g><path style="opacity:1" fill="#301510" d="M 225.5,118.5 C 225.897,117.475 226.563,117.308 227.5,118C 230.291,122.101 231.125,126.601 230,131.5C 229.427,126.721 227.927,122.387 225.5,118.5 Z"/></g>
<g><path style="opacity:1" fill="#2d140e" d="M 256.5,119.5 C 257.376,119.369 258.043,119.702 258.5,120.5C 256.894,124.353 255.728,128.353 255,132.5C 254.15,127.979 254.65,123.645 256.5,119.5 Z"/></g>
<g><path style="opacity:1" fill="#1f0c0d" d="M 315.5,127.5 C 316.822,127.33 317.989,127.663 319,128.5C 323.833,136.167 328.667,143.833 333.5,151.5C 332.349,152.731 331.183,152.731 330,151.5C 324.473,143.832 319.64,135.832 315.5,127.5 Z"/></g>
<g><path style="opacity:1" fill="#b54e4d" d="M 222.5,161.5 C 210.298,150.521 196.631,148.521 181.5,155.5C 188.56,146.199 197.893,142.699 209.5,145C 216.563,148.242 220.896,153.742 222.5,161.5 Z"/></g>
<g><path style="opacity:1" fill="#b44d4c" d="M 302.5,155.5 C 291.077,150.044 279.743,150.21 268.5,156C 266.63,158.04 264.63,159.873 262.5,161.5C 266.039,146.225 275.372,141.058 290.5,146C 295.62,147.975 299.62,151.142 302.5,155.5 Z"/></g>
<g><path style="opacity:1" fill="#240e07" d="M 222.5,161.5 C 224.136,163.383 224.469,165.383 223.5,167.5C 221.211,164.709 218.711,162.042 216,159.5C 216.11,169.39 211.276,173.557 201.5,172C 194.833,166.333 194.833,160.667 201.5,155C 198.167,154.333 194.833,154.333 191.5,155C 186.437,157.202 181.437,159.369 176.5,161.5C 177.363,158.884 179.03,156.884 181.5,155.5C 196.631,148.521 210.298,150.521 222.5,161.5 Z"/></g>
<g><path style="opacity:1" fill="#250f08" d="M 302.5,155.5 C 304.392,156.702 306.226,158.035 308,159.5C 308.591,160.483 308.257,161.15 307,161.5C 299.516,156.671 291.35,154.504 282.5,155C 288.544,157.932 290.044,162.432 287,168.5C 282.236,173.158 277.07,173.658 271.5,170C 269.354,167.205 268.187,164.039 268,160.5C 265.622,162.709 263.455,165.042 261.5,167.5C 260.23,165.243 260.564,163.243 262.5,161.5C 264.63,159.873 266.63,158.04 268.5,156C 279.743,150.21 291.077,150.044 302.5,155.5 Z"/></g>
<g><path style="opacity:1" fill="#261009" d="M 233.5,195.5 C 238.297,195.121 242.964,195.621 247.5,197C 242.167,199 236.833,199 231.5,197C 232.416,196.722 233.082,196.222 233.5,195.5 Z"/></g>
<g><path style="opacity:1" fill="#b54d4d" d="M 256.5,220.5 C 250.996,222.987 245.163,223.987 239,223.5C 235.167,223.333 231.333,223.167 227.5,223C 226.473,222.487 225.473,221.987 224.5,221.5C 228.06,216.222 233.06,213.888 239.5,214.5C 246.223,213.918 251.89,215.918 256.5,220.5 Z"/></g>
<g><path style="opacity:1" fill="#301410" d="M 258.5,223.5 C 246.597,228.271 234.597,228.604 222.5,224.5C 217.201,222.853 212.534,220.186 208.5,216.5C 209,216.167 209.5,215.833 210,215.5C 214.435,218.468 219.268,220.468 224.5,221.5C 225.473,221.987 226.473,222.487 227.5,223C 231.333,223.167 235.167,223.333 239,223.5C 245.163,223.987 250.996,222.987 256.5,220.5C 261.177,218.494 265.844,216.494 270.5,214.5C 270.439,216.592 269.439,218.092 267.5,219C 264.473,220.513 261.473,222.013 258.5,223.5 Z"/></g>
<g><path style="opacity:1" fill="#b74e4e" d="M 258.5,223.5 C 258.282,230.559 254.616,234.725 247.5,236C 240.097,237.378 233.097,236.378 226.5,233C 224.218,230.603 222.884,227.769 222.5,224.5C 234.597,228.604 246.597,228.271 258.5,223.5 Z"/></g>
<g><path style="opacity:1" fill="#2f1510" d="M 225.5,235.5 C 235.354,239.118 245.354,239.451 255.5,236.5C 255.5,237.5 255.5,238.5 255.5,239.5C 245.755,242.303 236.088,242.136 226.5,239C 225.663,237.989 225.33,236.822 225.5,235.5 Z"/></g>
<g><path style="opacity:1" fill="#1f0b0b" d="M 181.5,272.5 C 182.552,272.351 183.552,272.517 184.5,273C 213.013,294.252 244.347,299.419 278.5,288.5C 279.737,288.556 280.737,289.056 281.5,290C 247.446,302.124 215.446,298.124 185.5,278C 183.536,276.549 182.203,274.716 181.5,272.5 Z"/></g>
<g><path style="opacity:1" fill="#1f0c0c" d="M 308.5,293.5 C 309.497,293.47 310.164,293.97 310.5,295C 309.899,296.605 308.899,297.938 307.5,299C 285.433,315.474 260.766,326.141 233.5,331C 213.55,333.404 196.216,327.904 181.5,314.5C 182.723,313.386 184.056,313.219 185.5,314C 201.3,327.097 219.3,331.43 239.5,327C 265.267,321.114 288.267,309.947 308.5,293.5 Z"/></g>
<g><path style="opacity:1" fill="#c77741" d="M 334.5,326.5 C 341.468,328.987 348.135,331.987 354.5,335.5C 338.617,368.934 322.45,402.267 306,435.5C 281.508,452.545 254.341,459.379 224.5,456C 205.085,453.586 187.418,446.752 171.5,435.5C 158.063,404.958 144.896,374.291 132,343.5C 130.946,340.686 129.446,338.353 127.5,336.5C 135.793,332.734 144.46,329.734 153.5,327.5C 153.97,332.018 155.137,336.351 157,340.5C 163.682,348.594 172.182,353.761 182.5,356C 233.59,365.101 283.257,360.101 331.5,341C 333.007,336.297 334.007,331.464 334.5,326.5 Z"/></g>
<g><path style="opacity:1" fill="#f3baae" d="M 354.5,335.5 C 365.62,339.894 376.62,344.56 387.5,349.5C 375.908,381.356 363.742,413.023 351,444.5C 349.649,450.072 349.149,455.738 349.5,461.5C 311.959,479.417 272.292,486.917 230.5,484C 191.06,480.687 154.726,468.52 121.5,447.5C 121.666,440.825 121.5,434.158 121,427.5C 108.889,406.273 97.0553,384.94 85.5,363.5C 97.1459,351 111.146,342 127.5,336.5C 129.446,338.353 130.946,340.686 132,343.5C 144.896,374.291 158.063,404.958 171.5,435.5C 187.418,446.752 205.085,453.586 224.5,456C 254.341,459.379 281.508,452.545 306,435.5C 322.45,402.267 338.617,368.934 354.5,335.5 Z"/></g>
<g><path style="opacity:1" fill="#c77841" d="M 387.5,349.5 C 410.52,352.014 430.52,361.014 447.5,376.5C 435.352,395.319 420.685,411.986 403.5,426.5C 403.776,421.786 404.442,417.119 405.5,412.5C 405.167,411.5 404.833,410.5 404.5,409.5C 404.167,409.667 403.833,409.833 403.5,410C 401.794,416.733 400.46,423.566 399.5,430.5C 384.407,443.237 367.74,453.57 349.5,461.5C 349.149,455.738 349.649,450.072 351,444.5C 363.742,413.023 375.908,381.356 387.5,349.5 Z"/></g>
<g><path style="opacity:1" fill="#c77841" d="M 85.5,363.5 C 97.0553,384.94 108.889,406.273 121,427.5C 121.5,434.158 121.666,440.825 121.5,447.5C 96.9211,432.429 75.9211,413.262 58.5,390C 59.2524,389.329 59.5858,388.496 59.5,387.5C 67.8663,379.132 76.5329,371.132 85.5,363.5 Z"/></g>
<g><path style="opacity:1" fill="#29130b" d="M 403.5,426.5 C 402.5,428.167 401.167,429.5 399.5,430.5C 400.46,423.566 401.794,416.733 403.5,410C 403.833,409.833 404.167,409.667 404.5,409.5C 404.833,410.5 405.167,411.5 405.5,412.5C 404.442,417.119 403.776,421.786 403.5,426.5 Z"/></g>
</svg>
