<?xml version="1.0" encoding="UTF-8"?>
<!DOCTYPE svg PUBLIC "-//W3C//DTD SVG 1.1//EN" "http://www.w3.org/Graphics/SVG/1.1/DTD/svg11.dtd">
<svg xmlns="http://www.w3.org/2000/svg" version="1.1" width="500px" height="500px" style="shape-rendering:geometricPrecision; text-rendering:geometricPrecision; image-rendering:optimizeQuality; fill-rule:evenodd; clip-rule:evenodd" xmlns:xlink="http://www.w3.org/1999/xlink">
<g><path style="opacity:0.957" fill="#023067" d="M 499.5,226.5 C 499.5,241.5 499.5,256.5 499.5,271.5C 489.907,352.223 451.24,414.723 383.5,459C 311.522,501.255 236.189,508.255 157.5,480C 65.3241,440.498 12.6574,370.998 -0.5,271.5C -0.5,256.5 -0.5,241.5 -0.5,226.5C 9.09228,145.779 47.7589,83.2792 115.5,39C 187.475,-3.25514 262.808,-10.2551 341.5,18C 415.725,48.6118 465.225,102.112 490,178.5C 494.285,194.424 497.452,210.424 499.5,226.5 Z"/></g>
<g><path style="opacity:1" fill="#fecc01" d="M 386.5,438.5 C 385.125,423.581 382.458,408.914 378.5,394.5C 374.823,340.455 350.156,299.121 304.5,270.5C 309.304,264.56 312.804,257.893 315,250.5C 317.259,240.611 318.759,230.611 319.5,220.5C 348.033,205.438 360.2,181.771 356,149.5C 353.752,106.846 336.918,71.3459 305.5,43C 298.595,38.0483 291.261,33.8816 283.5,30.5C 282.292,29.7659 280.959,29.4326 279.5,29.5C 259.104,20.8679 238.104,19.3679 216.5,25C 211.433,26.5119 206.767,28.6786 202.5,31.5C 200.031,32.5686 197.698,33.9019 195.5,35.5C 193.495,37.334 191.328,39.0007 189,40.5C 188.36,42.265 188.527,43.9317 189.5,45.5C 172.094,58.9496 161.261,76.6163 157,98.5C 156.341,106.603 156.674,114.603 158,122.5C 153.476,129.524 147.309,134.524 139.5,137.5C 136.183,140.74 135.683,144.407 138,148.5C 140.95,151.031 144.117,153.198 147.5,155C 145.332,157.998 142.999,160.831 140.5,163.5C 136.355,167.802 136.688,171.802 141.5,175.5C 141.5,176.167 141.5,176.833 141.5,177.5C 140.883,177.611 140.383,177.944 140,178.5C 138.562,185.907 141.729,189.574 149.5,189.5C 145.226,204.055 150.559,212.555 165.5,215C 178.123,217.468 190.79,217.968 203.5,216.5C 198.85,225.47 195.017,234.803 192,244.5C 189.704,252.749 189.037,261.083 190,269.5C 157.645,304.865 131.812,344.532 112.5,388.5C 110.831,392.504 109.164,396.504 107.5,400.5C 106.503,400.47 105.836,400.97 105.5,402C 102.922,410.564 100.256,419.064 97.5,427.5C 36.8894,374.911 9.05604,308.244 14,227.5C 25.6556,139.976 70.8223,76.4757 149.5,37C 211.447,10.154 274.113,8.48733 337.5,32C 405.009,60.508 450.842,109.341 475,178.5C 498.474,262.141 482.474,337.141 427,403.5C 420.5,410 414,416.5 407.5,423C 400.885,428.795 393.885,433.961 386.5,438.5 Z"/></g>
<g><path style="opacity:1" fill="#e7e2db" d="M 279.5,29.5 C 278.377,31.5806 277.377,33.7473 276.5,36C 277.802,38.7783 279.468,41.2783 281.5,43.5C 282.829,40.8422 284.162,38.1756 285.5,35.5C 284.544,33.9246 283.877,32.258 283.5,30.5C 291.261,33.8816 298.595,38.0483 305.5,43C 336.918,71.3459 353.752,106.846 356,149.5C 360.2,181.771 348.033,205.438 319.5,220.5C 318.759,230.611 317.259,240.611 315,250.5C 312.804,257.893 309.304,264.56 304.5,270.5C 350.156,299.121 374.823,340.455 378.5,394.5C 376.988,401.741 375.154,409.075 373,416.5C 368.314,428.384 360.48,437.551 349.5,444C 333.022,451.735 315.688,456.069 297.5,457C 264.57,460.034 232.904,455.201 202.5,442.5C 204.813,438.362 203.979,434.695 200,431.5C 198.667,433.5 197.333,435.5 196,437.5C 195.329,438.252 194.496,438.586 193.5,438.5C 173.967,430.589 155.967,420.256 139.5,407.5C 141.096,404.639 142.43,401.639 143.5,398.5C 143.012,395.526 141.512,393.193 139,391.5C 137.5,393.833 136,396.167 134.5,398.5C 136.796,401.018 137.796,403.685 137.5,406.5C 130.167,401.491 123.167,395.991 116.5,390C 115.255,389.209 113.922,388.709 112.5,388.5C 131.812,344.532 157.645,304.865 190,269.5C 189.037,261.083 189.704,252.749 192,244.5C 195.017,234.803 198.85,225.47 203.5,216.5C 204.167,216.5 204.833,216.5 205.5,216.5C 205.611,217.117 205.944,217.617 206.5,218C 234.336,218.384 262.169,218.884 290,219.5C 296.833,219.167 303.667,218.833 310.5,218.5C 306.555,217.509 302.555,217.176 298.5,217.5C 293.167,216.833 287.833,216.167 282.5,215.5C 288.165,213.003 293.498,210.003 298.5,206.5C 290.962,207.925 283.962,211.092 277.5,216C 267.833,216.667 258.167,216.667 248.5,216C 268,195.167 287.5,174.333 307,153.5C 307.749,152.365 307.583,151.365 306.5,150.5C 286.012,171.823 265.678,193.323 245.5,215C 241.5,215.667 237.5,215.667 233.5,215C 238.748,208.918 243.415,202.418 247.5,195.5C 247.043,194.702 246.376,194.369 245.5,194.5C 243.26,193.432 241.426,191.766 240,189.5C 238.877,192.249 237.377,194.749 235.5,197C 237.219,198.87 238.219,201.037 238.5,203.5C 235.966,207.392 233.3,211.225 230.5,215C 224.509,215.499 218.509,215.666 212.5,215.5C 210.545,200.253 210.045,184.92 211,169.5C 213.136,158.318 215.97,147.318 219.5,136.5C 209.891,106.008 199.891,75.6746 189.5,45.5C 188.527,43.9317 188.36,42.265 189,40.5C 191.328,39.0007 193.495,37.334 195.5,35.5C 196.658,38.483 198.325,41.1497 200.5,43.5C 201.829,40.8422 203.162,38.1756 204.5,35.5C 203.82,34.1401 203.153,32.8068 202.5,31.5C 206.767,28.6786 211.433,26.5119 216.5,25C 238.104,19.3679 259.104,20.8679 279.5,29.5 Z"/></g>
<g><path style="opacity:1" fill="#b2aead" d="M 279.5,29.5 C 280.959,29.4326 282.292,29.7659 283.5,30.5C 283.877,32.258 284.544,33.9246 285.5,35.5C 284.162,38.1756 282.829,40.8422 281.5,43.5C 279.468,41.2783 277.802,38.7783 276.5,36C 277.377,33.7473 278.377,31.5806 279.5,29.5 Z"/></g>
<g><path style="opacity:1" fill="#311f1b" d="M 238.5,31.5 C 239.787,32.8714 240.453,34.7047 240.5,37C 238.274,62.7155 235.107,88.2155 231,113.5C 232.727,86.1155 235.227,58.7822 238.5,31.5 Z"/></g>
<g><path style="opacity:1" fill="#b3afad" d="M 202.5,31.5 C 203.153,32.8068 203.82,34.1401 204.5,35.5C 203.162,38.1756 201.829,40.8422 200.5,43.5C 198.325,41.1497 196.658,38.483 195.5,35.5C 197.698,33.9019 200.031,32.5686 202.5,31.5 Z"/></g>
<g><path style="opacity:1" fill="#301e1a" d="M 216.5,73.5 C 217.08,77.0406 218.08,80.3739 219.5,83.5C 221.831,94.158 224.164,104.825 226.5,115.5C 225.5,115.5 224.5,115.5 223.5,115.5C 218.622,91.6546 212.955,67.9879 206.5,44.5C 207.035,42.7295 207.869,42.3961 209,43.5C 211.813,53.4356 214.313,63.4356 216.5,73.5 Z"/></g>
<g><path style="opacity:1" fill="#fa8670" d="M 189.5,45.5 C 199.891,75.6746 209.891,106.008 219.5,136.5C 215.97,147.318 213.136,158.318 211,169.5C 210.045,184.92 210.545,200.253 212.5,215.5C 209.941,215.198 207.607,215.532 205.5,216.5C 204.833,216.5 204.167,216.5 203.5,216.5C 190.79,217.968 178.123,217.468 165.5,215C 150.559,212.555 145.226,204.055 149.5,189.5C 151.833,189.5 154.167,189.5 156.5,189.5C 156.963,186.518 157.296,183.518 157.5,180.5C 159.384,180.288 160.717,179.288 161.5,177.5C 160.3,176.708 158.967,176.708 157.5,177.5C 150.998,175.172 146.165,170.839 143,164.5C 142.329,163.748 141.496,163.414 140.5,163.5C 142.999,160.831 145.332,157.998 147.5,155C 144.117,153.198 140.95,151.031 138,148.5C 135.683,144.407 136.183,140.74 139.5,137.5C 147.309,134.524 153.476,129.524 158,122.5C 156.674,114.603 156.341,106.603 157,98.5C 161.261,76.6163 172.094,58.9496 189.5,45.5 Z"/></g>
<g><path style="opacity:1" fill="#ada8a7" d="M 219.5,83.5 C 218.08,80.3739 217.08,77.0406 216.5,73.5C 217.804,72.0131 218.97,70.3464 220,68.5C 225.136,72.7191 225.636,77.3857 221.5,82.5C 221.043,83.2975 220.376,83.6309 219.5,83.5 Z"/></g>
<g><path style="opacity:1" fill="#b1adac" d="M 259.5,69.5 C 262.37,70.5279 264.37,72.5279 265.5,75.5C 264,78.5 262.5,81.5 261,84.5C 259.111,81.8884 257.611,79.0551 256.5,76C 257.377,73.7473 258.377,71.5806 259.5,69.5 Z"/></g>
<g><path style="opacity:1" fill="#b0acac" d="M 300.5,68.5 C 306.668,73.039 307.002,78.039 301.5,83.5C 299.588,81.3428 297.921,79.0094 296.5,76.5C 297.847,73.8068 299.18,71.1401 300.5,68.5 Z"/></g>
<g><path style="opacity:1" fill="#240f08" d="M 171.5,89.5 C 180.068,89.5218 188.068,91.6884 195.5,96C 199.727,99.3109 202.227,103.478 203,108.5C 192.16,100.745 179.994,97.245 166.5,98C 166.167,97.6667 165.833,97.3333 165.5,97C 168.118,94.8943 170.118,92.3943 171.5,89.5 Z"/></g>
<g><path style="opacity:1" fill="#30150f" d="M 167.5,89.5 C 168.552,89.3505 169.552,89.5172 170.5,90C 168.333,92.1667 166.167,94.3333 164,96.5C 163.576,93.3478 164.743,91.0144 167.5,89.5 Z"/></g>
<g><path style="opacity:1" fill="#2e1c18" d="M 309.5,97.5 C 311.927,98.2789 311.927,99.4455 309.5,101C 280.5,117.167 251.5,133.333 222.5,149.5C 221.406,148.132 221.74,146.965 223.5,146C 252.391,130.059 281.058,113.892 309.5,97.5 Z"/></g>
<g><path style="opacity:1" fill="#b0acac" d="M 239.5,109.5 C 241.951,111.123 243.951,113.289 245.5,116C 243.873,118.754 242.373,121.588 241,124.5C 235.766,119.919 235.266,114.919 239.5,109.5 Z"/></g>
<g><path style="opacity:1" fill="#b1adac" d="M 320.5,109.5 C 326.607,113.682 327.107,118.682 322,124.5C 319.971,121.971 318.138,119.304 316.5,116.5C 318.098,114.302 319.431,111.969 320.5,109.5 Z"/></g>
<g><path style="opacity:1" fill="#b64e4d" d="M 196.5,121.5 C 195.448,121.351 194.448,121.517 193.5,122C 187.437,128.682 180.104,130.682 171.5,128C 168.916,125.567 166.249,123.4 163.5,121.5C 163.859,119.629 164.859,118.129 166.5,117C 177.669,111.346 187.669,112.846 196.5,121.5 Z"/></g>
<g><path style="opacity:1" fill="#2c120d" d="M 163.5,121.5 C 166.249,123.4 168.916,125.567 171.5,128C 180.104,130.682 187.437,128.682 193.5,122C 194.448,121.517 195.448,121.351 196.5,121.5C 192.651,128.43 186.651,131.764 178.5,131.5C 170.876,131.869 165.876,128.535 163.5,121.5 Z"/></g>
<g><path style="opacity:1" fill="#2e1c18" d="M 226.5,123.5 C 227.497,123.47 228.164,123.97 228.5,125C 226.725,129.044 225.392,133.211 224.5,137.5C 223.325,137.719 222.325,137.386 221.5,136.5C 222.979,132.06 224.645,127.726 226.5,123.5 Z"/></g>
<g><path style="opacity:1" fill="#2e1c18" d="M 282.5,215.5 C 281.711,215.783 281.044,216.283 280.5,217C 286.491,217.499 292.491,217.666 298.5,217.5C 302.555,217.176 306.555,217.509 310.5,218.5C 303.667,218.833 296.833,219.167 290,219.5C 262.169,218.884 234.336,218.384 206.5,218C 205.944,217.617 205.611,217.117 205.5,216.5C 207.607,215.532 209.941,215.198 212.5,215.5C 218.509,215.666 224.509,215.499 230.5,215C 233.3,211.225 235.966,207.392 238.5,203.5C 241.064,200.72 243.397,197.72 245.5,194.5C 246.376,194.369 247.043,194.702 247.5,195.5C 243.415,202.418 238.748,208.918 233.5,215C 237.5,215.667 241.5,215.667 245.5,215C 265.678,193.323 286.012,171.823 306.5,150.5C 307.583,151.365 307.749,152.365 307,153.5C 287.5,174.333 268,195.167 248.5,216C 258.167,216.667 267.833,216.667 277.5,216C 283.962,211.092 290.962,207.925 298.5,206.5C 293.498,210.003 288.165,213.003 282.5,215.5 Z"/></g>
<g><path style="opacity:1" fill="#b2aeae" d="M 219.5,149.5 C 225.836,153.941 226.169,158.941 220.5,164.5C 218.833,161.833 217.167,159.167 215.5,156.5C 217.098,154.302 218.431,151.969 219.5,149.5 Z"/></g>
<g><path style="opacity:1" fill="#b2aeae" d="M 259.5,149.5 C 262.144,151.153 264.144,153.487 265.5,156.5C 264.253,159.329 262.753,161.995 261,164.5C 258.861,162.194 257.361,159.527 256.5,156.5C 257.767,154.297 258.767,151.963 259.5,149.5 Z"/></g>
<g><path style="opacity:1" fill="#b1adac" d="M 340.5,149.5 C 343.144,151.153 345.144,153.487 346.5,156.5C 344.733,159.037 343.233,161.703 342,164.5C 339.861,162.194 338.361,159.527 337.5,156.5C 338.767,154.297 339.767,151.963 340.5,149.5 Z"/></g>
<g><path style="opacity:1" fill="#b9514e" d="M 140.5,163.5 C 141.496,163.414 142.329,163.748 143,164.5C 146.165,170.839 150.998,175.172 157.5,177.5C 154.36,178.641 151.027,178.808 147.5,178C 145.593,176.878 143.593,176.045 141.5,175.5C 136.688,171.802 136.355,167.802 140.5,163.5 Z"/></g>
<g><path style="opacity:1" fill="#2f130f" d="M 141.5,175.5 C 143.593,176.045 145.593,176.878 147.5,178C 151.027,178.808 154.36,178.641 157.5,177.5C 158.967,176.708 160.3,176.708 161.5,177.5C 160.717,179.288 159.384,180.288 157.5,180.5C 151.61,182.402 146.277,181.402 141.5,177.5C 141.5,176.833 141.5,176.167 141.5,175.5 Z"/></g>
<g><path style="opacity:1" fill="#ad4b48" d="M 141.5,177.5 C 146.277,181.402 151.61,182.402 157.5,180.5C 157.296,183.518 156.963,186.518 156.5,189.5C 154.167,189.5 151.833,189.5 149.5,189.5C 141.729,189.574 138.562,185.907 140,178.5C 140.383,177.944 140.883,177.611 141.5,177.5 Z"/></g>
<g><path style="opacity:1" fill="#afaaaa" d="M 245.5,194.5 C 243.397,197.72 241.064,200.72 238.5,203.5C 238.219,201.037 237.219,198.87 235.5,197C 237.377,194.749 238.877,192.249 240,189.5C 241.426,191.766 243.26,193.432 245.5,194.5 Z"/></g>
<g><path style="opacity:1" fill="#b0acac" d="M 320.5,189.5 C 322.894,191.278 324.56,193.611 325.5,196.5C 324.336,199.495 323.17,202.495 322,205.5C 320.291,202.582 318.458,199.748 316.5,197C 317.986,194.525 319.319,192.025 320.5,189.5 Z"/></g>
<g><path style="opacity:1" fill="#b1adad" d="M 280.5,189.5 C 282.497,191.513 284.164,193.846 285.5,196.5C 284.162,199.176 282.829,201.842 281.5,204.5C 279.468,202.278 277.802,199.778 276.5,197C 277.644,194.367 278.977,191.867 280.5,189.5 Z"/></g>
<g><path style="opacity:1" fill="#8e827b" d="M 282.5,215.5 C 287.833,216.167 293.167,216.833 298.5,217.5C 292.491,217.666 286.491,217.499 280.5,217C 281.044,216.283 281.711,215.783 282.5,215.5 Z"/></g>
<g><path style="opacity:1" fill="#321f1c" d="M 301.5,234.5 C 303.942,234.354 304.609,235.187 303.5,237C 270.341,250.469 236.675,251.969 202.5,241.5C 202.5,240.5 202.5,239.5 202.5,238.5C 228.459,246.495 254.792,247.661 281.5,242C 288.515,240.093 295.182,237.593 301.5,234.5 Z"/></g>
<g><path style="opacity:1" fill="#2f1d19" d="M 283.5,272.5 C 280.672,273.655 278.005,274.989 275.5,276.5C 247.736,286.614 219.903,286.948 192,277.5C 191.409,276.517 191.743,275.85 193,275.5C 207.448,280.229 222.281,282.229 237.5,281.5C 240.385,281.806 243.052,281.473 245.5,280.5C 264.426,278.525 281.759,272.191 297.5,261.5C 298.833,262.5 298.833,263.5 297.5,264.5C 293.074,267.594 288.407,270.261 283.5,272.5 Z"/></g>
<g><path style="opacity:1" fill="#ada9a8" d="M 245.5,280.5 C 243.052,281.473 240.385,281.806 237.5,281.5C 235.853,277.124 236.853,273.457 240.5,270.5C 243.733,273.095 244.733,276.262 243.5,280C 244.094,280.464 244.761,280.631 245.5,280.5 Z"/></g>
<g><path style="opacity:1" fill="#b1acac" d="M 283.5,272.5 C 285.847,277.238 285.014,281.572 281,285.5C 279.141,282.436 277.308,279.436 275.5,276.5C 278.005,274.989 280.672,273.655 283.5,272.5 Z"/></g>
<g><path style="opacity:1" fill="#b1adac" d="M 178.5,310.5 C 181.144,312.153 183.144,314.487 184.5,317.5C 183.253,320.329 181.753,322.995 180,325.5C 178.086,323.252 176.586,320.752 175.5,318C 176.651,315.535 177.651,313.035 178.5,310.5 Z"/></g>
<g><path style="opacity:1" fill="#b1adad" d="M 219.5,310.5 C 225.836,314.941 226.169,319.941 220.5,325.5C 218.455,323.241 216.789,320.741 215.5,318C 216.966,315.568 218.299,313.068 219.5,310.5 Z"/></g>
<g><path style="opacity:1" fill="#b1adac" d="M 259.5,310.5 C 262.144,312.153 264.144,314.487 265.5,317.5C 264.253,320.329 262.753,322.995 261,325.5C 259.086,323.252 257.586,320.752 256.5,318C 257.651,315.535 258.651,313.035 259.5,310.5 Z"/></g>
<g><path style="opacity:1" fill="#b2aead" d="M 300.5,310.5 C 306.836,314.941 307.169,319.941 301.5,325.5C 299.455,323.241 297.789,320.741 296.5,318C 297.966,315.568 299.299,313.068 300.5,310.5 Z"/></g>
<g><path style="opacity:1" fill="#b2aead" d="M 340.5,310.5 C 343.144,312.153 345.144,314.487 346.5,317.5C 345.253,320.329 343.753,322.995 342,325.5C 339.865,323.398 338.365,320.898 337.5,318C 338.651,315.535 339.651,313.035 340.5,310.5 Z"/></g>
<g><path style="opacity:1" fill="#b1adac" d="M 320.5,350.5 C 322.532,352.538 324.198,354.871 325.5,357.5C 324.825,360.691 323.658,363.691 322,366.5C 319.63,364.13 318.13,361.296 317.5,358C 318.626,355.577 319.626,353.077 320.5,350.5 Z"/></g>
<g><path style="opacity:1" fill="#b1adad" d="M 158.5,351.5 C 160.916,352.916 162.916,354.916 164.5,357.5C 163,360.5 161.5,363.5 160,366.5C 158.23,363.958 156.73,361.291 155.5,358.5C 156.237,356.03 157.237,353.696 158.5,351.5 Z"/></g>
<g><path style="opacity:1" fill="#b1adad" d="M 239.5,351.5 C 241.916,352.916 243.916,354.916 245.5,357.5C 244,360.5 242.5,363.5 241,366.5C 239.23,363.958 237.73,361.291 236.5,358.5C 237.237,356.03 238.237,353.696 239.5,351.5 Z"/></g>
<g><path style="opacity:1" fill="#b2aeae" d="M 361.5,350.5 C 363.39,352.59 365.057,354.923 366.5,357.5C 364.984,360.531 363.484,363.531 362,366.5C 360.483,363.657 358.983,360.823 357.5,358C 358.644,355.367 359.977,352.867 361.5,350.5 Z"/></g>
<g><path style="opacity:1" fill="#b1adad" d="M 199.5,350.5 C 201.521,352.693 203.188,355.193 204.5,358C 201.712,367.789 198.712,367.789 195.5,358C 196.966,355.568 198.299,353.068 199.5,350.5 Z"/></g>
<g><path style="opacity:1" fill="#b3afae" d="M 280.5,350.5 C 282.521,352.693 284.188,355.193 285.5,358C 284.389,361.055 282.889,363.888 281,366.5C 279.483,363.657 277.983,360.823 276.5,358C 277.966,355.568 279.299,353.068 280.5,350.5 Z"/></g>
<g><path style="opacity:1" fill="#2a347a" d="M 112.5,388.5 C 113.922,388.709 115.255,389.209 116.5,390C 123.167,395.991 130.167,401.491 137.5,406.5C 137.842,407.338 138.508,407.672 139.5,407.5C 155.967,420.256 173.967,430.589 193.5,438.5C 196.088,440.592 199.088,441.925 202.5,442.5C 232.904,455.201 264.57,460.034 297.5,457C 315.688,456.069 333.022,451.735 349.5,444C 360.48,437.551 368.314,428.384 373,416.5C 375.154,409.075 376.988,401.741 378.5,394.5C 382.458,408.914 385.125,423.581 386.5,438.5C 386.586,439.496 386.252,440.329 385.5,441C 336.828,473.752 283.161,487.586 224.5,482.5C 229.786,475.375 235.286,468.375 241,461.5C 241.591,460.517 241.257,459.85 240,459.5C 233.27,466.393 227.104,473.727 221.5,481.5C 175.958,476.335 135.624,459.335 100.5,430.5C 102.693,420.731 105.36,411.064 108.5,401.5C 108.376,400.893 108.043,400.56 107.5,400.5C 109.164,396.504 110.831,392.504 112.5,388.5 Z"/></g>
<g><path style="opacity:1" fill="#b1adad" d="M 340.5,391.5 C 343.038,393.001 345.038,395.168 346.5,398C 344.873,400.754 343.373,403.588 342,406.5C 340.23,403.958 338.73,401.291 337.5,398.5C 338.251,396.004 339.251,393.67 340.5,391.5 Z"/></g>
<g><path style="opacity:1" fill="#b3afaf" d="M 139.5,407.5 C 138.508,407.672 137.842,407.338 137.5,406.5C 137.796,403.685 136.796,401.018 134.5,398.5C 136,396.167 137.5,393.833 139,391.5C 141.512,393.193 143.012,395.526 143.5,398.5C 142.43,401.639 141.096,404.639 139.5,407.5 Z"/></g>
<g><path style="opacity:1" fill="#b2aeae" d="M 178.5,391.5 C 181.163,393.089 183.163,395.422 184.5,398.5C 183.253,401.329 181.753,403.995 180,406.5C 178.23,403.958 176.73,401.291 175.5,398.5C 176.767,396.297 177.767,393.963 178.5,391.5 Z"/></g>
<g><path style="opacity:1" fill="#b2aeae" d="M 219.5,391.5 C 225.836,395.941 226.169,400.941 220.5,406.5C 218.833,403.833 217.167,401.167 215.5,398.5C 216.861,396.15 218.194,393.816 219.5,391.5 Z"/></g>
<g><path style="opacity:1" fill="#b1adad" d="M 259.5,391.5 C 262.163,393.089 264.163,395.422 265.5,398.5C 263.733,401.037 262.233,403.703 261,406.5C 259.23,403.958 257.73,401.291 256.5,398.5C 257.251,396.004 258.251,393.67 259.5,391.5 Z"/></g>
<g><path style="opacity:1" fill="#b2aead" d="M 300.5,391.5 C 302.894,393.278 304.56,395.611 305.5,398.5C 304.18,401.139 302.847,403.806 301.5,406.5C 299.833,403.833 298.167,401.167 296.5,398.5C 297.861,396.15 299.194,393.816 300.5,391.5 Z"/></g>
<g><path style="opacity:1" fill="#271515" d="M 107.5,400.5 C 108.043,400.56 108.376,400.893 108.5,401.5C 105.36,411.064 102.693,420.731 100.5,430.5C 99.2719,429.694 98.2719,428.694 97.5,427.5C 100.256,419.064 102.922,410.564 105.5,402C 105.836,400.97 106.503,400.47 107.5,400.5 Z"/></g>
<g><path style="opacity:1" fill="#b0acac" d="M 239.5,431.5 C 245.634,435.763 246.134,440.763 241,446.5C 239.045,444.089 237.211,441.589 235.5,439C 236.986,436.525 238.319,434.025 239.5,431.5 Z"/></g>
<g><path style="opacity:1" fill="#b0acac" d="M 320.5,431.5 C 326.836,435.941 327.169,440.941 321.5,446.5C 319.957,443.914 318.291,441.414 316.5,439C 317.986,436.525 319.319,434.025 320.5,431.5 Z"/></g>
<g><path style="opacity:1" fill="#b0acad" d="M 202.5,442.5 C 199.088,441.925 196.088,440.592 193.5,438.5C 194.496,438.586 195.329,438.252 196,437.5C 197.333,435.5 198.667,433.5 200,431.5C 203.979,434.695 204.813,438.362 202.5,442.5 Z"/></g>
<g><path style="opacity:1" fill="#b1adad" d="M 279.5,431.5 C 282.163,433.089 284.163,435.422 285.5,438.5C 284.162,441.176 282.829,443.842 281.5,446.5C 279.468,444.278 277.802,441.778 276.5,439C 277.651,436.535 278.651,434.035 279.5,431.5 Z"/></g>
<g><path style="opacity:1" fill="#200f14" d="M 224.5,482.5 C 223.209,482.737 222.209,482.404 221.5,481.5C 227.104,473.727 233.27,466.393 240,459.5C 241.257,459.85 241.591,460.517 241,461.5C 235.286,468.375 229.786,475.375 224.5,482.5 Z"/></g>
</svg>
