<?xml version="1.0" encoding="UTF-8"?>
<!DOCTYPE svg PUBLIC "-//W3C//DTD SVG 1.1//EN" "http://www.w3.org/Graphics/SVG/1.1/DTD/svg11.dtd">
<svg xmlns="http://www.w3.org/2000/svg" version="1.1" width="500px" height="500px" style="shape-rendering:geometricPrecision; text-rendering:geometricPrecision; image-rendering:optimizeQuality; fill-rule:evenodd; clip-rule:evenodd" xmlns:xlink="http://www.w3.org/1999/xlink">
<g><path style="opacity:0.958" fill="#023067" d="M 499.5,226.5 C 499.5,241.5 499.5,256.5 499.5,271.5C 489.907,352.223 451.24,414.723 383.5,459C 311.522,501.255 236.189,508.255 157.5,480C 65.3241,440.498 12.6574,370.998 -0.5,271.5C -0.5,256.5 -0.5,241.5 -0.5,226.5C 9.09228,145.779 47.7589,83.2792 115.5,39C 187.475,-3.25514 262.808,-10.2551 341.5,18C 415.725,48.6118 465.225,102.112 490,178.5C 494.285,194.424 497.452,210.424 499.5,226.5 Z"/></g>
<g><path style="opacity:1" fill="#fecc00" d="M 447.5,375.5 C 444.87,377.628 442.37,379.961 440,382.5C 444.009,352.854 432.509,331.52 405.5,318.5C 404.657,316.827 403.324,315.66 401.5,315C 378.41,307.706 357.243,296.873 338,282.5C 336.075,260.891 330.575,240.224 321.5,220.5C 328.463,215.679 335.463,210.846 342.5,206C 361.438,188.633 367.272,167.467 360,142.5C 356.675,121.189 350.342,100.855 341,81.5C 320.021,48.0689 289.854,28.2355 250.5,22C 216.036,18.0425 186.536,28.2092 162,52.5C 156.112,59.6051 151.779,67.6051 149,76.5C 146.315,88.6826 144.815,101.016 144.5,113.5C 145.121,133.176 145.955,152.843 147,172.5C 151.981,202.635 165.481,228.135 187.5,249C 193.022,253.256 198.688,257.256 204.5,261C 201.863,266.441 199.363,271.941 197,277.5C 189.364,284.135 182.03,291.135 175,298.5C 174.805,299.819 174.972,301.153 175.5,302.5C 171.645,304.286 167.645,305.786 163.5,307C 131.208,308.887 106.042,323.053 88,349.5C 84.615,355.602 81.7816,361.935 79.5,368.5C 77.3501,365.849 75.0168,363.349 72.5,361C 71.5,360.333 70.5,360.333 69.5,361C 64.6235,367.699 59.2901,373.866 53.5,379.5C 12.612,316.045 3.11202,248.045 25,175.5C 54.0781,97.4222 108.578,46.5889 188.5,23C 258.851,6.09449 324.184,17.4278 384.5,57C 466.181,118.252 498.014,199.418 480,300.5C 473.893,327.691 463.059,352.691 447.5,375.5 Z"/></g>
<g><path style="opacity:1" fill="#391d08" d="M 405.5,318.5 C 405.439,320.592 404.439,322.092 402.5,323C 384.18,328.731 365.513,333.065 346.5,336C 328.534,339.217 310.534,342.217 292.5,345C 258.667,351.453 226.667,346.453 196.5,330C 185.996,323.484 178.996,314.318 175.5,302.5C 174.972,301.153 174.805,299.819 175,298.5C 182.03,291.135 189.364,284.135 197,277.5C 199.363,271.941 201.863,266.441 204.5,261C 198.688,257.256 193.022,253.256 187.5,249C 165.481,228.135 151.981,202.635 147,172.5C 145.955,152.843 145.121,133.176 144.5,113.5C 144.815,101.016 146.315,88.6826 149,76.5C 151.779,67.6051 156.112,59.6051 162,52.5C 186.536,28.2092 216.036,18.0425 250.5,22C 289.854,28.2355 320.021,48.0689 341,81.5C 350.342,100.855 356.675,121.189 360,142.5C 367.272,167.467 361.438,188.633 342.5,206C 335.463,210.846 328.463,215.679 321.5,220.5C 330.575,240.224 336.075,260.891 338,282.5C 357.243,296.873 378.41,307.706 401.5,315C 403.324,315.66 404.657,316.827 405.5,318.5 Z"/></g>
<g><path style="opacity:1" fill="#f8856f" d="M 157.5,160.5 C 166.665,165.635 175.998,165.802 185.5,161C 187.559,159.815 187.726,158.648 186,157.5C 179.608,161.159 172.775,162.326 165.5,161C 162.279,159.896 159.612,158.063 157.5,155.5C 157.5,149.5 157.5,143.5 157.5,137.5C 165.58,137.403 173.58,138.07 181.5,139.5C 181.09,135.098 179.423,131.265 176.5,128C 170.796,127.313 165.13,127.479 159.5,128.5C 158.5,128.5 157.5,128.5 156.5,128.5C 158.425,98.2978 171.925,74.9645 197,58.5C 200.49,60.651 203.99,62.8176 207.5,65C 217.501,68.5572 227.168,72.8906 236.5,78C 254.409,89.9754 263.909,106.809 265,128.5C 266.965,164.748 261.298,199.748 248,233.5C 234.22,245.237 218.387,249.737 200.5,247C 192.271,243.783 185.438,238.616 180,231.5C 170.273,218.719 162.606,204.719 157,189.5C 156.095,184.206 155.595,178.872 155.5,173.5C 155.316,168.893 155.983,164.56 157.5,160.5 Z"/></g>
<g><path style="opacity:1" fill="#230d06" d="M 214.5,117.5 C 224.889,117.13 235.223,117.63 245.5,119C 251.108,120.474 255.775,123.474 259.5,128C 252.097,127.019 244.597,126.519 237,126.5C 228.314,126.091 219.814,127.091 211.5,129.5C 210.43,125.034 211.43,121.034 214.5,117.5 Z"/></g>
<g><path style="opacity:1" fill="#3b1a15" d="M 210.5,116.5 C 211.376,116.369 212.043,116.702 212.5,117.5C 210.443,121.263 208.943,125.263 208,129.5C 207.333,127.167 207.333,124.833 208,122.5C 209.122,120.593 209.955,118.593 210.5,116.5 Z"/></g>
<g><path style="opacity:1" fill="#25100a" d="M 157.5,137.5 C 156.527,135.052 156.194,132.385 156.5,129.5C 157.791,129.737 158.791,129.404 159.5,128.5C 165.13,127.479 170.796,127.313 176.5,128C 179.423,131.265 181.09,135.098 181.5,139.5C 173.58,138.07 165.58,137.403 157.5,137.5 Z"/></g>
<g><path style="opacity:1" fill="#2f150f" d="M 179.5,127.5 C 183.076,129.823 184.243,133.157 183,137.5C 181.925,134.106 180.758,130.772 179.5,127.5 Z"/></g>
<g><path style="opacity:1" fill="#261009" d="M 157.5,155.5 C 159.612,158.063 162.279,159.896 165.5,161C 172.775,162.326 179.608,161.159 186,157.5C 187.726,158.648 187.559,159.815 185.5,161C 175.998,165.802 166.665,165.635 157.5,160.5C 153.864,157.253 151.198,153.253 149.5,148.5C 149.733,147.068 150.4,146.568 151.5,147C 153.399,149.988 155.399,152.821 157.5,155.5 Z"/></g>
<g><path style="opacity:1" fill="#2b130d" d="M 216.5,151.5 C 219.787,152.264 222.454,154.097 224.5,157C 235.388,161.959 246.054,161.293 256.5,155C 257.944,154.219 259.277,154.386 260.5,155.5C 251.315,162.388 240.981,164.888 229.5,163C 225.325,161.416 221.659,159.082 218.5,156C 216.963,154.89 216.297,153.39 216.5,151.5 Z"/></g>
<g><path style="opacity:1" fill="#361914" d="M 192.5,184.5 C 196.167,184.164 199.5,184.997 202.5,187C 197.833,189 193.167,189 188.5,187C 189.858,186.066 191.192,185.232 192.5,184.5 Z"/></g>
<g><path style="opacity:1" fill="#b54d4d" d="M 222.5,196.5 C 217.101,200.25 211.101,202.75 204.5,204C 196.144,204.665 187.811,204.499 179.5,203.5C 179.577,202.25 180.244,201.417 181.5,201C 194.494,194.08 208.161,192.58 222.5,196.5 Z"/></g>
<g><path style="opacity:1" fill="#28100a" d="M 225.5,198.5 C 211.952,206.942 197.286,209.608 181.5,206.5C 180.094,206.027 179.427,205.027 179.5,203.5C 187.811,204.499 196.144,204.665 204.5,204C 211.101,202.75 217.101,200.25 222.5,196.5C 225.407,195.096 226.407,195.763 225.5,198.5 Z"/></g>
<g><path style="opacity:1" fill="#b24c4b" d="M 225.5,198.5 C 225.159,201.516 223.993,204.182 222,206.5C 218.897,210.114 215.397,213.114 211.5,215.5C 204.869,216.331 198.202,216.664 191.5,216.5C 187.909,213.575 184.575,210.242 181.5,206.5C 197.286,209.608 211.952,206.942 225.5,198.5 Z"/></g>
<g><path style="opacity:1" fill="#311511" d="M 211.5,215.5 C 210.152,217.48 208.152,218.647 205.5,219C 200.845,219.499 196.179,219.666 191.5,219.5C 191.5,218.5 191.5,217.5 191.5,216.5C 198.202,216.664 204.869,216.331 211.5,215.5 Z"/></g>
<g><path style="opacity:1" fill="#f3baae" d="M 175.5,302.5 C 178.996,314.318 185.996,323.484 196.5,330C 226.667,346.453 258.667,351.453 292.5,345C 310.534,342.217 328.534,339.217 346.5,336C 365.513,333.065 384.18,328.731 402.5,323C 404.439,322.092 405.439,320.592 405.5,318.5C 432.509,331.52 444.009,352.854 440,382.5C 442.37,379.961 444.87,377.628 447.5,375.5C 407.356,435.939 351.023,471.106 278.5,481C 184.022,489.413 109.022,455.58 53.5,379.5C 59.2901,373.866 64.6235,367.699 69.5,361C 70.5,360.333 71.5,360.333 72.5,361C 75.0168,363.349 77.3501,365.849 79.5,368.5C 81.7816,361.935 84.615,355.602 88,349.5C 106.042,323.053 131.208,308.887 163.5,307C 167.645,305.786 171.645,304.286 175.5,302.5 Z"/></g>
</svg>
