<?xml version="1.0" encoding="UTF-8"?>
<!DOCTYPE svg PUBLIC "-//W3C//DTD SVG 1.1//EN" "http://www.w3.org/Graphics/SVG/1.1/DTD/svg11.dtd">
<svg xmlns="http://www.w3.org/2000/svg" version="1.1" width="500px" height="500px" style="shape-rendering:geometricPrecision; text-rendering:geometricPrecision; image-rendering:optimizeQuality; fill-rule:evenodd; clip-rule:evenodd" xmlns:xlink="http://www.w3.org/1999/xlink">
<g><path style="opacity:0.957" fill="#033067" d="M 499.5,226.5 C 499.5,241.5 499.5,256.5 499.5,271.5C 489.907,352.223 451.24,414.723 383.5,459C 311.522,501.255 236.189,508.255 157.5,480C 65.3241,440.498 12.6574,370.998 -0.5,271.5C -0.5,256.5 -0.5,241.5 -0.5,226.5C 9.09228,145.779 47.7589,83.2792 115.5,39C 187.475,-3.25514 262.808,-10.2551 341.5,18C 415.725,48.6118 465.225,102.112 490,178.5C 494.285,194.424 497.452,210.424 499.5,226.5 Z"/></g>
<g><path style="opacity:1" fill="#fecc01" d="M 428.5,398.5 C 413.929,383.865 396.929,372.698 377.5,365C 365.864,362.759 354.531,359.592 343.5,355.5C 345.214,342.346 343.381,329.68 338,317.5C 330.651,302.784 321.818,289.117 311.5,276.5C 323.225,272.283 332.058,264.616 338,253.5C 346.39,238.718 352.557,223.051 356.5,206.5C 377.596,197.311 386.429,181.311 383,158.5C 377.592,146.874 368.425,141.541 355.5,142.5C 355.71,133.95 355.043,125.616 353.5,117.5C 352.091,88.1792 339.758,64.6792 316.5,47C 281.165,19.0407 243.498,15.374 203.5,36C 190.333,45.1667 179.167,56.3333 170,69.5C 139.943,109.771 128.943,154.771 137,204.5C 141.776,224.616 152.276,241.116 168.5,254C 178.223,261.389 188.223,268.389 198.5,275C 196.217,278.682 194.217,282.515 192.5,286.5C 151.62,321.553 108.62,353.72 63.5,383C 61.5932,384.122 59.5932,384.955 57.5,385.5C 16.8289,326.835 4.32889,262.502 20,192.5C 42.1721,114.326 91.0054,60.1598 166.5,30C 243.589,4.15684 316.256,13.1568 384.5,57C 462.728,114.994 495.228,192.494 482,289.5C 474.302,330.889 456.969,367.556 430,399.5C 429.617,398.944 429.117,398.611 428.5,398.5 Z"/></g>
<g><path style="opacity:1" fill="#c77740" d="M 353.5,117.5 C 351.167,117.5 348.833,117.5 346.5,117.5C 345.736,114.213 343.903,111.546 341,109.5C 332.929,86.4377 318.595,68.4377 298,55.5C 269.072,83.919 242.905,114.586 219.5,147.5C 218.448,147.351 217.448,147.517 216.5,148C 205.833,159.333 195.167,170.667 184.5,182C 185.275,183.23 186.275,183.563 187.5,183C 198.033,171.635 208.7,160.468 219.5,149.5C 219.844,158.253 220.844,166.919 222.5,175.5C 223.989,180.457 225.322,185.457 226.5,190.5C 233.66,218.151 244.66,244.151 259.5,268.5C 269.153,270.656 278.82,272.823 288.5,275C 296.138,275.985 303.804,276.485 311.5,276.5C 321.818,289.117 330.651,302.784 338,317.5C 343.381,329.68 345.214,342.346 343.5,355.5C 341.507,362.483 338.174,368.817 333.5,374.5C 325.606,383.042 316.273,389.709 305.5,394.5C 280.617,405.093 254.617,410.093 227.5,409.5C 210.479,409.4 193.812,407.066 177.5,402.5C 164.106,399.2 151.439,394.033 139.5,387C 128.923,380.218 118.923,372.718 109.5,364.5C 98.2919,369.206 88.9585,376.373 81.5,386C 76.353,389.32 71.6864,393.153 67.5,397.5C 65.2843,396.797 63.451,395.464 62,393.5C 59.8431,391.183 58.3431,388.516 57.5,385.5C 59.5932,384.955 61.5932,384.122 63.5,383C 108.62,353.72 151.62,321.553 192.5,286.5C 194.217,282.515 196.217,278.682 198.5,275C 188.223,268.389 178.223,261.389 168.5,254C 152.276,241.116 141.776,224.616 137,204.5C 128.943,154.771 139.943,109.771 170,69.5C 179.167,56.3333 190.333,45.1667 203.5,36C 243.498,15.374 281.165,19.0407 316.5,47C 339.758,64.6792 352.091,88.1792 353.5,117.5 Z"/></g>
<g><path style="opacity:1" fill="#f98670" d="M 346.5,117.5 C 338.463,117.943 330.463,118.776 322.5,120C 318.877,124.561 317.71,129.728 319,135.5C 327.68,131.204 336.847,128.538 346.5,127.5C 348.436,131.715 349.103,136.381 348.5,141.5C 340.585,140.707 334.085,143.374 329,149.5C 326.228,153.388 323.728,157.388 321.5,161.5C 319.47,163.537 317.804,165.87 316.5,168.5C 317.325,169.386 318.325,169.719 319.5,169.5C 318.766,170.708 318.433,172.041 318.5,173.5C 316.409,173.318 314.409,173.652 312.5,174.5C 308.792,160.287 299.625,152.954 285,152.5C 281.142,152.679 277.309,153.013 273.5,153.5C 261.476,151.675 251.809,155.675 244.5,165.5C 243.013,166.804 241.346,167.97 239.5,169C 238.177,169.816 237.511,170.983 237.5,172.5C 232.61,173.585 227.61,174.585 222.5,175.5C 220.844,166.919 219.844,158.253 219.5,149.5C 219.5,148.833 219.5,148.167 219.5,147.5C 242.905,114.586 269.072,83.919 298,55.5C 318.595,68.4377 332.929,86.4377 341,109.5C 343.903,111.546 345.736,114.213 346.5,117.5 Z"/></g>
<g><path style="opacity:1" fill="#2b130a" d="M 262.5,62.5 C 264.686,62.5106 265.519,63.5106 265,65.5C 253.294,78.2041 241.96,91.2041 231,104.5C 229.989,105.337 228.822,105.67 227.5,105.5C 227.351,104.448 227.517,103.448 228,102.5C 240.083,89.5896 251.583,76.2562 262.5,62.5 Z"/></g>
<g><path style="opacity:1" fill="#291209" d="M 209.5,71.5 C 210.497,71.4701 211.164,71.9701 211.5,73C 197.736,93.1011 183.569,112.934 169,132.5C 167.989,133.337 166.822,133.67 165.5,133.5C 165.351,132.448 165.517,131.448 166,130.5C 180.509,110.804 195.009,91.1371 209.5,71.5 Z"/></g>
<g><path style="opacity:1" fill="#220d06" d="M 274.5,117.5 C 276.857,117.337 279.19,117.503 281.5,118C 284.447,121.727 286.447,125.894 287.5,130.5C 268.307,128.095 249.64,129.928 231.5,136C 235.268,130.231 240.268,125.898 246.5,123C 255.833,120.46 265.166,118.626 274.5,117.5 Z"/></g>
<g><path style="opacity:1" fill="#230d07" d="M 346.5,117.5 C 348.833,117.5 351.167,117.5 353.5,117.5C 353.5,120.5 353.5,123.5 353.5,126.5C 350.941,126.198 348.607,126.532 346.5,127.5C 336.847,128.538 327.68,131.204 319,135.5C 317.71,129.728 318.877,124.561 322.5,120C 330.463,118.776 338.463,117.943 346.5,117.5 Z"/></g>
<g><path style="opacity:1" fill="#381914" d="M 283.5,117.5 C 284.189,116.226 285.023,116.226 286,117.5C 288.768,121.467 290.102,125.8 290,130.5C 287.916,126.054 285.75,121.721 283.5,117.5 Z"/></g>
<g><path style="opacity:1" fill="#2a120c" d="M 317.5,120.5 C 318.097,120.735 318.43,121.235 318.5,122C 317.506,126.465 316.672,130.965 316,135.5C 315.017,130.28 315.517,125.28 317.5,120.5 Z"/></g>
<g><path style="opacity:1" fill="#c4773d" d="M 353.5,117.5 C 355.043,125.616 355.71,133.95 355.5,142.5C 353.5,142.5 351.5,142.5 349.5,142.5C 349.5,141.833 349.167,141.5 348.5,141.5C 349.103,136.381 348.436,131.715 346.5,127.5C 348.607,126.532 350.941,126.198 353.5,126.5C 353.5,123.5 353.5,120.5 353.5,117.5 Z"/></g>
<g><path style="opacity:1" fill="#b85251" d="M 348.5,141.5 C 349.167,141.5 349.5,141.833 349.5,142.5C 339.638,145.93 331.305,151.597 324.5,159.5C 323.5,160.167 322.5,160.833 321.5,161.5C 323.728,157.388 326.228,153.388 329,149.5C 334.085,143.374 340.585,140.707 348.5,141.5 Z"/></g>
<g><path style="opacity:1" fill="#e5dfd7" d="M 349.5,142.5 C 351.5,142.5 353.5,142.5 355.5,142.5C 368.425,141.541 377.592,146.874 383,158.5C 386.429,181.311 377.596,197.311 356.5,206.5C 338.742,212.527 325.909,207.194 318,190.5C 317.501,186.179 317.334,181.846 317.5,177.5C 315.418,177.472 313.584,178.139 312,179.5C 309.057,199.446 297.89,212.279 278.5,218C 264.756,220.653 254.256,216.153 247,204.5C 245.025,200.037 244.192,195.371 244.5,190.5C 238.5,190.5 232.5,190.5 226.5,190.5C 225.322,185.457 223.989,180.457 222.5,175.5C 227.61,174.585 232.61,173.585 237.5,172.5C 238.833,172.5 240.167,172.5 241.5,172.5C 244.787,171.839 248.12,171.339 251.5,171C 252.305,169.887 252.972,168.721 253.5,167.5C 256.167,165.5 258.5,163.167 260.5,160.5C 265.032,158.403 269.365,156.069 273.5,153.5C 277.309,153.013 281.142,152.679 285,152.5C 299.625,152.954 308.792,160.287 312.5,174.5C 314.409,173.652 316.409,173.318 318.5,173.5C 318.433,172.041 318.766,170.708 319.5,169.5C 321.167,166.167 322.833,162.833 324.5,159.5C 331.305,151.597 339.638,145.93 349.5,142.5 Z"/></g>
<g><path style="opacity:1" fill="#2a1209" d="M 197.5,144.5 C 199.686,144.511 200.519,145.511 200,147.5C 194.856,154.278 189.356,160.778 183.5,167C 182.365,167.749 181.365,167.583 180.5,166.5C 186.215,159.129 191.881,151.796 197.5,144.5 Z"/></g>
<g><path style="opacity:1" fill="#2a130a" d="M 219.5,147.5 C 219.5,148.167 219.5,148.833 219.5,149.5C 208.7,160.468 198.033,171.635 187.5,183C 186.275,183.563 185.275,183.23 184.5,182C 195.167,170.667 205.833,159.333 216.5,148C 217.448,147.517 218.448,147.351 219.5,147.5 Z"/></g>
<g><path style="opacity:1" fill="#210d07" d="M 350.5,149.5 C 365.811,147.826 374.811,154.493 377.5,169.5C 375.649,185.061 367.316,195.228 352.5,200C 340.41,203.366 331.576,199.533 326,188.5C 322.747,175.822 326.247,165.322 336.5,157C 340.815,153.678 345.482,151.178 350.5,149.5 Z"/></g>
<g><path style="opacity:1" fill="#b7504f" d="M 273.5,153.5 C 269.365,156.069 265.032,158.403 260.5,160.5C 254.989,161.588 249.656,163.255 244.5,165.5C 251.809,155.675 261.476,151.675 273.5,153.5 Z"/></g>
<g><path style="opacity:1" fill="#210c06" d="M 277.5,159.5 C 296.528,158.057 305.361,166.723 304,185.5C 297.942,204.213 285.108,212.38 265.5,210C 260.065,208.231 256.232,204.731 254,199.5C 249.935,187.132 252.769,176.632 262.5,168C 267.27,164.619 272.27,161.786 277.5,159.5 Z"/></g>
<g><path style="opacity:1" fill="#2b130e" d="M 260.5,160.5 C 258.5,163.167 256.167,165.5 253.5,167.5C 253.631,166.624 253.298,165.957 252.5,165.5C 248.26,167.109 244.593,169.442 241.5,172.5C 240.167,172.5 238.833,172.5 237.5,172.5C 237.511,170.983 238.177,169.816 239.5,169C 241.346,167.97 243.013,166.804 244.5,165.5C 249.656,163.255 254.989,161.588 260.5,160.5 Z"/></g>
<g><path style="opacity:1" fill="#311814" d="M 324.5,159.5 C 322.833,162.833 321.167,166.167 319.5,169.5C 318.325,169.719 317.325,169.386 316.5,168.5C 317.804,165.87 319.47,163.537 321.5,161.5C 322.5,160.833 323.5,160.167 324.5,159.5 Z"/></g>
<g><path style="opacity:1" fill="#e77f6a" d="M 253.5,167.5 C 252.972,168.721 252.305,169.887 251.5,171C 248.12,171.339 244.787,171.839 241.5,172.5C 244.593,169.442 248.26,167.109 252.5,165.5C 253.298,165.957 253.631,166.624 253.5,167.5 Z"/></g>
<g><path style="opacity:1" fill="#f98670" d="M 356.5,206.5 C 352.557,223.051 346.39,238.718 338,253.5C 332.058,264.616 323.225,272.283 311.5,276.5C 303.804,276.485 296.138,275.985 288.5,275C 278.82,272.823 269.153,270.656 259.5,268.5C 244.66,244.151 233.66,218.151 226.5,190.5C 232.5,190.5 238.5,190.5 244.5,190.5C 244.192,195.371 245.025,200.037 247,204.5C 254.256,216.153 264.756,220.653 278.5,218C 297.89,212.279 309.057,199.446 312,179.5C 313.584,178.139 315.418,177.472 317.5,177.5C 317.334,181.846 317.501,186.179 318,190.5C 325.909,207.194 338.742,212.527 356.5,206.5 Z"/></g>
<g><path style="opacity:1" fill="#2f1510" d="M 313.5,206.5 C 317.846,206.334 322.179,206.501 326.5,207C 321.128,210.636 315.462,211.303 309.5,209C 311.066,208.392 312.4,207.558 313.5,206.5 Z"/></g>
<g><path style="opacity:1" fill="#2a130a" d="M 208.5,208.5 C 209.496,208.414 210.329,208.748 211,209.5C 222.941,228.438 235.274,247.104 248,265.5C 249.009,267.025 249.509,268.692 249.5,270.5C 248.325,270.719 247.325,270.386 246.5,269.5C 234,250.5 221.5,231.5 209,212.5C 208.51,211.207 208.343,209.873 208.5,208.5 Z"/></g>
<g><path style="opacity:1" fill="#b64d4d" d="M 336.5,230.5 C 331.258,233.529 325.591,235.696 319.5,237C 311.421,237.8 303.421,237.633 295.5,236.5C 299.707,230.452 305.207,226.119 312,223.5C 313.823,223.887 315.657,224.221 317.5,224.5C 320.71,223.056 324.043,222.556 327.5,223C 330.665,225.335 333.665,227.835 336.5,230.5 Z"/></g>
<g><path style="opacity:1" fill="#291209" d="M 171.5,229.5 C 172.552,229.351 173.552,229.517 174.5,230C 187.685,242.019 201.018,253.852 214.5,265.5C 215.386,266.325 215.719,267.325 215.5,268.5C 214.448,268.649 213.448,268.483 212.5,268C 201.5,258.333 190.5,248.667 179.5,239C 176.223,236.234 173.557,233.067 171.5,229.5 Z"/></g>
<g><path style="opacity:1" fill="#2e130f" d="M 338.5,233.5 C 324.54,240.939 309.873,242.939 294.5,239.5C 291.939,239.553 289.939,238.553 288.5,236.5C 290.771,235.637 293.105,235.637 295.5,236.5C 303.421,237.633 311.421,237.8 319.5,237C 325.591,235.696 331.258,233.529 336.5,230.5C 341.887,229.063 342.553,230.063 338.5,233.5 Z"/></g>
<g><path style="opacity:1" fill="#b64e4d" d="M 338.5,233.5 C 337.934,237.797 335.934,241.297 332.5,244C 320.377,252.372 308.211,252.539 296,244.5C 294.991,242.975 294.491,241.308 294.5,239.5C 309.873,242.939 324.54,240.939 338.5,233.5 Z"/></g>
<g><path style="opacity:1" fill="#2c130e" d="M 322.5,250.5 C 324.288,250.215 325.955,250.548 327.5,251.5C 323.455,254.622 318.788,255.955 313.5,255.5C 311.167,255.333 308.833,255.167 306.5,255C 305.027,254.29 304.36,253.124 304.5,251.5C 309.796,252.509 315.129,252.676 320.5,252C 321.416,251.722 322.082,251.222 322.5,250.5 Z"/></g>
<g><path style="opacity:1" fill="#2c140a" d="M 218.5,254.5 C 223.052,256.713 227.052,259.713 230.5,263.5C 228.813,264.568 227.146,264.401 225.5,263C 223.241,261.285 221.074,259.452 219,257.5C 218.517,256.552 218.351,255.552 218.5,254.5 Z"/></g>
<g><path style="opacity:1" fill="#2b130b" d="M 308.5,287.5 C 311.315,287.783 311.815,288.783 310,290.5C 274.997,303.154 239.83,303.654 204.5,292C 203.027,291.29 202.36,290.124 202.5,288.5C 230.328,298.008 258.661,299.841 287.5,294C 294.766,292.349 301.766,290.182 308.5,287.5 Z"/></g>
<g><path style="opacity:1" fill="#291209" d="M 323.5,314.5 C 324.5,314.5 325.5,314.5 326.5,314.5C 320.567,345.23 304.567,369.063 278.5,386C 250.887,398.602 223.221,398.602 195.5,386C 185.044,381.272 174.711,376.272 164.5,371C 158.725,367.716 153.391,363.883 148.5,359.5C 149.723,358.386 151.056,358.219 152.5,359C 171.556,372.194 192.223,382.194 214.5,389C 263.409,399.296 297.576,381.463 317,335.5C 319.877,328.705 322.043,321.705 323.5,314.5 Z"/></g>
<g><path style="opacity:1" fill="#283377" d="M 343.5,355.5 C 354.531,359.592 365.864,362.759 377.5,365C 396.929,372.698 413.929,383.865 428.5,398.5C 428.649,399.552 428.483,400.552 428,401.5C 407.412,424.936 383.246,443.602 355.5,457.5C 351.492,451.594 350.658,445.261 353,438.5C 355.08,436.877 357.246,435.377 359.5,434C 368.85,431.331 378.183,428.665 387.5,426C 390.349,423.441 391.183,420.274 390,416.5C 388.207,413.705 386.04,411.205 383.5,409C 366.996,398.582 350.663,387.915 334.5,377C 333.748,376.329 333.414,375.496 333.5,374.5C 338.174,368.817 341.507,362.483 343.5,355.5 Z"/></g>
<g><path style="opacity:1" fill="#283377" d="M 177.5,402.5 C 168.869,411.632 160.036,420.632 151,429.5C 147.814,433.298 146.814,437.632 148,442.5C 149.579,444.041 151.413,445.208 153.5,446C 161.5,446.333 169.5,446.667 177.5,447C 185.953,446.858 190.62,450.858 191.5,459C 190.87,464.685 189.537,470.185 187.5,475.5C 139.224,462.358 98.8903,436.858 66.5,399C 67.056,398.617 67.3893,398.117 67.5,397.5C 71.6864,393.153 76.353,389.32 81.5,386C 88.9585,376.373 98.2919,369.206 109.5,364.5C 118.923,372.718 128.923,380.218 139.5,387C 151.439,394.033 164.106,399.2 177.5,402.5 Z"/></g>
<g><path style="opacity:1" fill="#1b1f4d" d="M 333.5,374.5 C 333.414,375.496 333.748,376.329 334.5,377C 350.663,387.915 366.996,398.582 383.5,409C 386.04,411.205 388.207,413.705 390,416.5C 391.183,420.274 390.349,423.441 387.5,426C 378.183,428.665 368.85,431.331 359.5,434C 357.246,435.377 355.08,436.877 353,438.5C 350.658,445.261 351.492,451.594 355.5,457.5C 342.5,464.508 328.834,470.174 314.5,474.5C 313.831,472.369 313.165,470.369 312.5,468.5C 310.753,443.776 308.42,419.109 305.5,394.5C 316.273,389.709 325.606,383.042 333.5,374.5 Z"/></g>
<g><path style="opacity:1" fill="#e6e2db" d="M 305.5,394.5 C 308.42,419.109 310.753,443.776 312.5,468.5C 312.756,470.792 312.423,472.959 311.5,475C 286.424,481.808 261.09,484.308 235.5,482.5C 232.102,458.252 229.435,433.919 227.5,409.5C 254.617,410.093 280.617,405.093 305.5,394.5 Z"/></g>
<g><path style="opacity:1" fill="#1b1f4d" d="M 177.5,402.5 C 193.812,407.066 210.479,409.4 227.5,409.5C 229.435,433.919 232.102,458.252 235.5,482.5C 219.182,482.113 203.182,479.78 187.5,475.5C 189.537,470.185 190.87,464.685 191.5,459C 190.62,450.858 185.953,446.858 177.5,447C 169.5,446.667 161.5,446.333 153.5,446C 151.413,445.208 149.579,444.041 148,442.5C 146.814,437.632 147.814,433.298 151,429.5C 160.036,420.632 168.869,411.632 177.5,402.5 Z"/></g>
</svg>
