<?xml version="1.0" encoding="UTF-8"?>
<!DOCTYPE svg PUBLIC "-//W3C//DTD SVG 1.1//EN" "http://www.w3.org/Graphics/SVG/1.1/DTD/svg11.dtd">
<svg xmlns="http://www.w3.org/2000/svg" version="1.1" width="500px" height="500px" style="shape-rendering:geometricPrecision; text-rendering:geometricPrecision; image-rendering:optimizeQuality; fill-rule:evenodd; clip-rule:evenodd" xmlns:xlink="http://www.w3.org/1999/xlink">
<g><path style="opacity:0.957" fill="#033067" d="M 499.5,226.5 C 499.5,241.5 499.5,256.5 499.5,271.5C 489.907,352.223 451.24,414.723 383.5,459C 311.522,501.255 236.189,508.255 157.5,480C 65.3241,440.498 12.6574,370.998 -0.5,271.5C -0.5,256.5 -0.5,241.5 -0.5,226.5C 9.09228,145.779 47.7589,83.2792 115.5,39C 187.475,-3.25514 262.808,-10.2551 341.5,18C 415.725,48.6118 465.225,102.112 490,178.5C 494.285,194.424 497.452,210.424 499.5,226.5 Z"/></g>
<g><path style="opacity:1" fill="#fecc01" d="M 459.5,142.5 C 459.5,143.167 459.5,143.833 459.5,144.5C 458.19,142.565 456.857,140.565 455.5,138.5C 454.185,140.316 452.685,141.983 451,143.5C 444.141,157.08 437.474,170.747 431,184.5C 416.544,201.656 398.378,213.156 376.5,219C 360.829,223.834 344.829,226.501 328.5,227C 343.635,211.393 352.635,192.726 355.5,171C 360.079,147.905 360.579,124.738 357,101.5C 344.059,60.2371 316.225,35.4038 273.5,27C 257.302,23.8381 240.969,22.8381 224.5,24C 220.619,24.6072 217.286,26.2738 214.5,29C 176.083,35.4171 153.583,57.9171 147,96.5C 143.285,130.629 146.951,163.963 158,196.5C 166.842,223.028 178.008,248.528 191.5,273C 188.502,279.159 186.835,285.659 186.5,292.5C 185.833,298.346 185.167,304.346 184.5,310.5C 137.578,320.922 108.745,349.588 98,396.5C 97.2505,406.491 96.7505,416.491 96.5,426.5C 41.4491,378.876 13.7824,318.376 13.5,245C 17.8694,159.231 56.2028,93.5639 128.5,48C 201.13,8.31426 275.463,4.98093 351.5,38C 398.832,61.1658 434.832,95.9992 459.5,142.5 Z"/></g>
<g><path style="opacity:1" fill="#f3baae" d="M 459.5,144.5 C 471.952,170.189 479.952,197.189 483.5,225.5C 483.662,227.527 483.495,229.527 483,231.5C 467.409,252.883 446.576,266.05 420.5,271C 442.038,271.732 463.371,272.898 484.5,274.5C 484.768,276.099 484.434,277.432 483.5,278.5C 483.649,277.448 483.483,276.448 483,275.5C 482.547,278.84 482.047,282.174 481.5,285.5C 481.52,286.726 481.853,287.726 482.5,288.5C 481.023,296.432 479.023,304.099 476.5,311.5C 466.638,309.58 456.638,308.58 446.5,308.5C 424.512,295.92 400.846,290.42 375.5,292C 370.609,293.696 365.776,295.529 361,297.5C 352.964,295.423 344.797,294.423 336.5,294.5C 335.432,293.566 334.099,293.232 332.5,293.5C 329.167,293.5 325.833,293.5 322.5,293.5C 321.093,297.44 318.593,300.774 315,303.5C 311.343,307.135 309.677,311.468 310,316.5C 311.608,319.772 313.608,322.772 316,325.5C 316.365,333.093 315.031,340.427 312,347.5C 301.991,370.519 290.657,392.852 278,414.5C 264.155,437.528 250.322,460.528 236.5,483.5C 224.332,482.705 212.332,481.038 200.5,478.5C 200.77,450.8 199.936,423.133 198,395.5C 195.385,369.364 191.885,343.364 187.5,317.5C 189.85,315.787 190.85,313.453 190.5,310.5C 189.167,310.5 187.833,310.5 186.5,310.5C 186.5,304.5 186.5,298.5 186.5,292.5C 186.835,285.659 188.502,279.159 191.5,273C 178.008,248.528 166.842,223.028 158,196.5C 146.951,163.963 143.285,130.629 147,96.5C 153.583,57.9171 176.083,35.4171 214.5,29C 217.286,26.2738 220.619,24.6072 224.5,24C 240.969,22.8381 257.302,23.8381 273.5,27C 316.225,35.4038 344.059,60.2371 357,101.5C 360.579,124.738 360.079,147.905 355.5,171C 352.635,192.726 343.635,211.393 328.5,227C 344.829,226.501 360.829,223.834 376.5,219C 398.378,213.156 416.544,201.656 431,184.5C 437.474,170.747 444.141,157.08 451,143.5C 452.685,141.983 454.185,140.316 455.5,138.5C 456.857,140.565 458.19,142.565 459.5,144.5 Z"/></g>
<g><path style="opacity:1" fill="#fa8670" d="M 262.5,101.5 C 254.472,101.169 246.472,101.502 238.5,102.5C 235.734,106.553 234.734,110.886 235.5,115.5C 246.472,111.449 257.805,109.783 269.5,110.5C 297.236,150.414 298.736,191.414 274,233.5C 259.839,245.722 243.339,251.722 224.5,251.5C 222.858,249.919 220.858,249.253 218.5,249.5C 214.307,249.047 210.307,247.881 206.5,246C 195.243,238.078 186.077,228.245 179,216.5C 171.536,205.904 166.536,194.237 164,181.5C 163.999,167.507 164.166,153.507 164.5,139.5C 164.369,138.761 164.536,138.094 165,137.5C 167.023,147.502 172.856,150.669 182.5,147C 184.816,144.695 186.15,141.862 186.5,138.5C 190.438,141.049 194.271,143.716 198,146.5C 200.319,145.591 200.986,143.925 200,141.5C 196.956,138.949 193.789,136.616 190.5,134.5C 183.339,123.888 174.006,121.221 162.5,126.5C 162.354,122.481 162.021,118.481 161.5,114.5C 171.679,114.546 181.679,115.879 191.5,118.5C 192.209,119.404 193.209,119.737 194.5,119.5C 194.457,115.107 194.957,114.774 196,118.5C 197.31,113.548 196.31,109.215 193,105.5C 193.476,107.32 193.309,108.987 192.5,110.5C 191.883,108.771 190.883,107.271 189.5,106C 179.839,105.5 170.172,105.334 160.5,105.5C 160.334,100.821 160.501,96.1548 161,91.5C 176.312,71.5377 196.312,58.8711 221,53.5C 229.931,63.1026 238.931,72.7692 248,82.5C 253.073,88.7283 257.907,95.0617 262.5,101.5 Z"/></g>
<g><path style="opacity:1" fill="#230e08" d="M 262.5,101.5 C 265.185,104.19 267.518,107.19 269.5,110.5C 257.805,109.783 246.472,111.449 235.5,115.5C 234.734,110.886 235.734,106.553 238.5,102.5C 246.472,101.502 254.472,101.169 262.5,101.5 Z"/></g>
<g><path style="opacity:1" fill="#2f150f" d="M 234.5,102.5 C 235.097,102.735 235.43,103.235 235.5,104C 234.431,107.443 233.598,110.943 233,114.5C 232.081,110.269 232.581,106.269 234.5,102.5 Z"/></g>
<g><path style="opacity:1" fill="#250f09" d="M 160.5,105.5 C 170.172,105.334 179.839,105.5 189.5,106C 190.883,107.271 191.883,108.771 192.5,110.5C 192.938,112.126 193.272,113.793 193.5,115.5C 193.36,117.03 192.693,118.03 191.5,118.5C 181.679,115.879 171.679,114.546 161.5,114.5C 160.523,111.713 160.19,108.713 160.5,105.5 Z"/></g>
<g><path style="opacity:1" fill="#623026" d="M 191.5,118.5 C 192.693,118.03 193.36,117.03 193.5,115.5C 193.272,113.793 192.938,112.126 192.5,110.5C 193.309,108.987 193.476,107.32 193,105.5C 196.31,109.215 197.31,113.548 196,118.5C 194.957,114.774 194.457,115.107 194.5,119.5C 193.209,119.737 192.209,119.404 191.5,118.5 Z"/></g>
<g><path style="opacity:1" fill="#b24c4b" d="M 266.5,127.5 C 260.195,126.513 253.862,126.347 247.5,127C 244.057,128.618 241.057,130.785 238.5,133.5C 237.478,133.145 236.811,132.478 236.5,131.5C 239.474,122.087 245.808,118.921 255.5,122C 259.787,122.81 263.454,124.643 266.5,127.5 Z"/></g>
<g><path style="opacity:1" fill="#b24c4c" d="M 190.5,134.5 C 181.389,128.961 172.056,128.295 162.5,132.5C 161.478,132.145 160.811,131.478 160.5,130.5C 161.674,129.486 162.34,128.153 162.5,126.5C 174.006,121.221 183.339,123.888 190.5,134.5 Z"/></g>
<g><path style="opacity:1" fill="#230d07" d="M 266.5,127.5 C 270.433,129.033 274.433,130.367 278.5,131.5C 278.5,133.167 278.5,134.833 278.5,136.5C 273.696,135.789 269.03,134.456 264.5,132.5C 263.804,143.698 258.137,147.531 247.5,144C 245.19,142.363 243.69,140.196 243,137.5C 242.564,140.284 241.064,141.45 238.5,141C 234.036,138.723 231.369,135.223 230.5,130.5C 232.621,130.325 234.621,130.659 236.5,131.5C 236.811,132.478 237.478,133.145 238.5,133.5C 241.057,130.785 244.057,128.618 247.5,127C 253.862,126.347 260.195,126.513 266.5,127.5 Z"/></g>
<g><path style="opacity:1" fill="#230e08" d="M 160.5,130.5 C 160.811,131.478 161.478,132.145 162.5,132.5C 172.056,128.295 181.389,128.961 190.5,134.5C 193.789,136.616 196.956,138.949 200,141.5C 200.986,143.925 200.319,145.591 198,146.5C 194.271,143.716 190.438,141.049 186.5,138.5C 186.15,141.862 184.816,144.695 182.5,147C 172.856,150.669 167.023,147.502 165,137.5C 164.536,138.094 164.369,138.761 164.5,139.5C 162.834,140.666 161.167,140.666 159.5,139.5C 158,137.167 156.5,134.833 155,132.5C 153.746,128.889 154.912,127.389 158.5,128C 159.066,128.995 159.733,129.828 160.5,130.5 Z"/></g>
<g><path style="opacity:1" fill="#341813" d="M 200.5,171.5 C 204.394,171.11 208.06,171.777 211.5,173.5C 206.585,175.924 201.585,176.091 196.5,174C 198.066,173.392 199.4,172.558 200.5,171.5 Z"/></g>
<g><path style="opacity:1" fill="#dbb52a" d="M 459.5,142.5 C 473.249,168.422 481.582,196.089 484.5,225.5C 484.167,225.5 483.833,225.5 483.5,225.5C 479.952,197.189 471.952,170.189 459.5,144.5C 459.5,143.833 459.5,143.167 459.5,142.5 Z"/></g>
<g><path style="opacity:1" fill="#b74e4e" d="M 225.5,195.5 C 226.398,196.158 227.398,196.824 228.5,197.5C 225.005,200.058 221.005,201.558 216.5,202C 208.768,202.856 201.102,202.523 193.5,201C 192.572,200.612 191.905,199.945 191.5,199C 192.658,197.739 192.658,196.573 191.5,195.5C 194.224,193.283 196.891,190.783 199.5,188C 204.5,187.333 209.5,187.333 214.5,188C 217.578,191.526 221.244,194.026 225.5,195.5 Z"/></g>
<g><path style="opacity:1" fill="#47201a" d="M 191.5,195.5 C 192.658,196.573 192.658,197.739 191.5,199C 191.905,199.945 192.572,200.612 193.5,201C 201.102,202.523 208.768,202.856 216.5,202C 221.005,201.558 225.005,200.058 228.5,197.5C 227.398,196.824 226.398,196.158 225.5,195.5C 228.271,194.367 231.104,193.367 234,192.5C 237.285,192.7 238.118,194.2 236.5,197C 220.268,205.588 203.601,206.588 186.5,200C 185.167,198.667 185.167,197.333 186.5,196C 188.134,195.506 189.801,195.34 191.5,195.5 Z"/></g>
<g><path style="opacity:1" fill="#29120c" d="M 219.5,209.5 C 221.467,209.261 223.301,209.594 225,210.5C 225.865,212.888 225.032,214.388 222.5,215C 216.316,217.168 209.983,217.835 203.5,217C 201.473,215.604 201.14,213.938 202.5,212C 207.5,211.667 212.5,211.333 217.5,211C 218.416,210.722 219.082,210.222 219.5,209.5 Z"/></g>
<g><path style="opacity:1" fill="#26120d" d="M 320.5,222.5 C 325.465,223.608 325.798,225.774 321.5,229C 299.949,245.393 278.283,261.559 256.5,277.5C 252.961,276.365 252.628,274.532 255.5,272C 277.351,255.637 299.018,239.137 320.5,222.5 Z"/></g>
<g><path style="opacity:1" fill="#fccb0c" d="M 483.5,225.5 C 483.833,225.5 484.167,225.5 484.5,225.5C 485.691,241.801 485.691,258.135 484.5,274.5C 463.371,272.898 442.038,271.732 420.5,271C 446.576,266.05 467.409,252.883 483,231.5C 483.495,229.527 483.662,227.527 483.5,225.5 Z"/></g>
<g><path style="opacity:1" fill="#27130e" d="M 257.5,247.5 C 261.138,246.737 262.638,248.07 262,251.5C 259.083,255.666 256.416,259.999 254,264.5C 249.942,267.589 248.275,266.589 249,261.5C 252.096,256.972 254.929,252.305 257.5,247.5 Z"/></g>
<g><path style="opacity:1" fill="#27130f" d="M 218.5,249.5 C 220.858,249.253 222.858,249.919 224.5,251.5C 232.46,260.63 240.627,269.63 249,278.5C 249.611,282.088 248.111,283.254 244.5,282C 235.667,272.5 226.833,263 218,253.5C 217.421,252.072 217.588,250.738 218.5,249.5 Z"/></g>
<g><path style="opacity:1" fill="#24100b" d="M 299.5,254.5 C 311.548,257.012 323.548,259.845 335.5,263C 339.13,263.271 340.13,264.938 338.5,268C 337.5,268.167 336.5,268.333 335.5,268.5C 323.24,265.394 311.074,262.061 299,258.5C 298.421,257.072 298.588,255.738 299.5,254.5 Z"/></g>
<g><path style="opacity:1" fill="#26130e" d="M 379.5,267.5 C 389.5,267.5 399.5,267.5 409.5,267.5C 409.714,269.144 409.38,270.644 408.5,272C 395.53,273.237 382.53,273.737 369.5,273.5C 369.286,271.856 369.62,270.356 370.5,269C 373.695,268.819 376.695,268.319 379.5,267.5 Z"/></g>
<g><path style="opacity:1" fill="#e6ba3c" d="M 483.5,278.5 C 483.167,281.833 482.833,285.167 482.5,288.5C 481.853,287.726 481.52,286.726 481.5,285.5C 482.047,282.174 482.547,278.84 483,275.5C 483.483,276.448 483.649,277.448 483.5,278.5 Z"/></g>
<g><path style="opacity:1" fill="#c77740" d="M 446.5,308.5 C 450.651,311.803 454.985,314.97 459.5,318C 463.369,322.037 467.369,325.87 471.5,329.5C 458.026,364.796 437.36,395.129 409.5,420.5C 409.494,415.785 408.994,411.118 408,406.5C 405.52,404.91 403.687,405.41 402.5,408C 403.878,413.438 404.878,418.938 405.5,424.5C 369.366,455.891 327.366,474.891 279.5,481.5C 296.945,470.27 314.945,459.77 333.5,450C 351.124,439.793 355.958,425.293 348,406.5C 342.977,397.805 336.81,389.972 329.5,383C 345,372.167 360.5,361.333 376,350.5C 376.738,347.788 376.071,345.455 374,343.5C 361.491,327.137 348.991,310.803 336.5,294.5C 344.797,294.423 352.964,295.423 361,297.5C 365.776,295.529 370.609,293.696 375.5,292C 400.846,290.42 424.512,295.92 446.5,308.5 Z"/></g>
<g><path style="opacity:1" fill="#c77741" d="M 332.5,293.5 C 331.197,296.119 331.697,298.453 334,300.5C 346.319,315.808 358.153,331.475 369.5,347.5C 356.732,357.724 343.399,367.224 329.5,376C 326.703,377.721 324.369,379.887 322.5,382.5C 329.204,389.707 335.371,397.374 341,405.5C 349.889,419.387 348.056,431.553 335.5,442C 318.167,452 300.833,462 283.5,472C 278.084,475.03 273.084,478.53 268.5,482.5C 257.865,483.404 247.198,483.737 236.5,483.5C 250.322,460.528 264.155,437.528 278,414.5C 290.657,392.852 301.991,370.519 312,347.5C 315.031,340.427 316.365,333.093 316,325.5C 313.608,322.772 311.608,319.772 310,316.5C 309.677,311.468 311.343,307.135 315,303.5C 318.593,300.774 321.093,297.44 322.5,293.5C 325.833,293.5 329.167,293.5 332.5,293.5 Z"/></g>
<g><path style="opacity:1" fill="#240f06" d="M 332.5,293.5 C 334.099,293.232 335.432,293.566 336.5,294.5C 348.991,310.803 361.491,327.137 374,343.5C 376.071,345.455 376.738,347.788 376,350.5C 360.5,361.333 345,372.167 329.5,383C 336.81,389.972 342.977,397.805 348,406.5C 355.958,425.293 351.124,439.793 333.5,450C 314.945,459.77 296.945,470.27 279.5,481.5C 275.821,481.724 272.154,482.058 268.5,482.5C 273.084,478.53 278.084,475.03 283.5,472C 300.833,462 318.167,452 335.5,442C 348.056,431.553 349.889,419.387 341,405.5C 335.371,397.374 329.204,389.707 322.5,382.5C 324.369,379.887 326.703,377.721 329.5,376C 343.399,367.224 356.732,357.724 369.5,347.5C 358.153,331.475 346.319,315.808 334,300.5C 331.697,298.453 331.197,296.119 332.5,293.5 Z"/></g>
<g><path style="opacity:1" fill="#27130e" d="M 298.5,296.5 C 302.797,297.288 303.63,299.621 301,303.5C 278.125,333.187 247.958,347.02 210.5,345C 205.402,344.077 200.569,342.577 196,340.5C 195.085,338.08 195.918,336.747 198.5,336.5C 240.725,345.315 274.058,331.982 298.5,296.5 Z"/></g>
<g><path style="opacity:1" fill="#fcca08" d="M 446.5,308.5 C 456.638,308.58 466.638,309.58 476.5,311.5C 475.239,317.615 473.573,323.615 471.5,329.5C 467.369,325.87 463.369,322.037 459.5,318C 454.985,314.97 450.651,311.803 446.5,308.5 Z"/></g>
<g><path style="opacity:1" fill="#230d06" d="M 186.5,310.5 C 187.833,310.5 189.167,310.5 190.5,310.5C 190.85,313.453 189.85,315.787 187.5,317.5C 173.66,330.506 160.327,344.006 147.5,358C 154.965,365.797 162.799,373.297 171,380.5C 171.781,381.944 171.614,383.277 170.5,384.5C 157.631,388.848 146.464,395.848 137,405.5C 132.344,413.628 132.677,421.628 138,429.5C 145.667,438.5 153.333,447.5 161,456.5C 164.082,460.734 166.916,465.067 169.5,469.5C 166.215,469.072 163.215,468.072 160.5,466.5C 160.938,466.565 161.272,466.399 161.5,466C 152.215,455.259 143.048,444.426 134,433.5C 124.874,418.423 127.041,405.256 140.5,394C 147.712,388.893 155.379,384.56 163.5,381C 155.667,373.833 147.833,366.667 140,359.5C 139.333,358.833 139.333,358.167 140,357.5C 155.702,341.965 171.202,326.299 186.5,310.5 Z"/></g>
<g><path style="opacity:1" fill="#c67740" d="M 186.5,292.5 C 186.5,298.5 186.5,304.5 186.5,310.5C 171.202,326.299 155.702,341.965 140,357.5C 139.333,358.167 139.333,358.833 140,359.5C 147.833,366.667 155.667,373.833 163.5,381C 155.379,384.56 147.712,388.893 140.5,394C 127.041,405.256 124.874,418.423 134,433.5C 143.048,444.426 152.215,455.259 161.5,466C 161.272,466.399 160.938,466.565 160.5,466.5C 146.243,461.041 132.91,454.041 120.5,445.5C 120.462,442.193 121.128,439.026 122.5,436C 121.313,433.41 119.48,432.91 117,434.5C 115.921,437.063 115.421,439.729 115.5,442.5C 107.86,438.511 101.526,433.177 96.5,426.5C 96.7505,416.491 97.2505,406.491 98,396.5C 108.745,349.588 137.578,320.922 184.5,310.5C 185.167,304.346 185.833,298.346 186.5,292.5 Z"/></g>
<g><path style="opacity:1" fill="#c67740" d="M 187.5,317.5 C 191.885,343.364 195.385,369.364 198,395.5C 199.936,423.133 200.77,450.8 200.5,478.5C 189.83,476.583 179.497,473.583 169.5,469.5C 166.916,465.067 164.082,460.734 161,456.5C 153.333,447.5 145.667,438.5 138,429.5C 132.677,421.628 132.344,413.628 137,405.5C 146.464,395.848 157.631,388.848 170.5,384.5C 171.614,383.277 171.781,381.944 171,380.5C 162.799,373.297 154.965,365.797 147.5,358C 160.327,344.006 173.66,330.506 187.5,317.5 Z"/></g>
<g><path style="opacity:1" fill="#281410" d="M 209.5,355.5 C 210.873,355.343 212.207,355.51 213.5,356C 233.934,375.899 257.767,381.399 285,372.5C 287.319,373.409 287.986,375.075 287,377.5C 257.322,387.414 231.322,381.414 209,359.5C 208.421,358.072 208.588,356.738 209.5,355.5 Z"/></g>
<g><path style="opacity:1" fill="#251108" d="M 409.5,420.5 C 408.5,422.167 407.167,423.5 405.5,424.5C 404.878,418.938 403.878,413.438 402.5,408C 403.687,405.41 405.52,404.91 408,406.5C 408.994,411.118 409.494,415.785 409.5,420.5 Z"/></g>
<g><path style="opacity:1" fill="#261008" d="M 120.5,445.5 C 118.566,444.89 116.899,443.89 115.5,442.5C 115.421,439.729 115.921,437.063 117,434.5C 119.48,432.91 121.313,433.41 122.5,436C 121.128,439.026 120.462,442.193 120.5,445.5 Z"/></g>
</svg>
