<?xml version="1.0" encoding="UTF-8"?>
<!DOCTYPE svg PUBLIC "-//W3C//DTD SVG 1.1//EN" "http://www.w3.org/Graphics/SVG/1.1/DTD/svg11.dtd">
<svg xmlns="http://www.w3.org/2000/svg" version="1.1" width="500px" height="500px" style="shape-rendering:geometricPrecision; text-rendering:geometricPrecision; image-rendering:optimizeQuality; fill-rule:evenodd; clip-rule:evenodd" xmlns:xlink="http://www.w3.org/1999/xlink">
<g><path style="opacity:0.958" fill="#023067" d="M 499.5,226.5 C 499.5,241.5 499.5,256.5 499.5,271.5C 489.907,352.223 451.24,414.723 383.5,459C 311.522,501.255 236.189,508.255 157.5,480C 65.3241,440.498 12.6574,370.998 -0.5,271.5C -0.5,256.5 -0.5,241.5 -0.5,226.5C 9.09228,145.779 47.7589,83.2792 115.5,39C 187.475,-3.25514 262.808,-10.2551 341.5,18C 415.725,48.6118 465.225,102.112 490,178.5C 494.285,194.424 497.452,210.424 499.5,226.5 Z"/></g>
<g><path style="opacity:1" fill="#fdcc01" d="M 439.5,387.5 C 438.883,387.389 438.383,387.056 438,386.5C 433.044,371.798 428.21,357.132 423.5,342.5C 422.106,334.696 419.273,327.363 415,320.5C 393.252,282.661 370.252,245.661 346,209.5C 328.128,190.074 318.128,167.074 316,140.5C 315.891,121.47 315.224,102.47 314,83.5C 308.424,60.9218 295.591,43.7552 275.5,32C 236.951,15.9587 204.451,24.1253 178,56.5C 169.725,73.5413 165.391,91.5413 165,110.5C 160.279,143.212 155.279,175.879 150,208.5C 143.677,224.5 133.843,238 120.5,249C 102.817,261.07 87.9839,275.904 76,293.5C 70.0241,305.095 65.0241,317.095 61,329.5C 58.4041,339.751 57.9041,350.084 59.5,360.5C 58.6448,367.588 57.3114,374.588 55.5,381.5C 18.0251,326.969 5.52511,266.969 18,201.5C 36.8164,123.02 82.9831,67.1865 156.5,34C 229.182,5.64773 299.849,9.98107 368.5,47C 436.294,88.1907 475.127,148.357 485,227.5C 489.336,286.626 474.17,339.96 439.5,387.5 Z"/></g>
<g><path style="opacity:1" fill="#1b1f4c" d="M 423.5,342.5 C 418.125,357.394 408.459,368.894 394.5,377C 388.736,380.216 382.736,382.883 376.5,385C 367.396,386.232 358.396,387.899 349.5,390C 343.848,392.75 339.014,396.583 335,401.5C 330.333,409.5 325.667,417.5 321,425.5C 303.531,442.485 282.698,452.985 258.5,457C 249.84,457.5 241.173,457.666 232.5,457.5C 226.504,452.001 219.504,448.334 211.5,446.5C 210.432,445.566 209.099,445.232 207.5,445.5C 206.167,444.5 204.833,443.5 203.5,442.5C 197.952,430.404 192.119,418.404 186,406.5C 174.31,391.065 158.81,381.899 139.5,379C 118.826,378.137 98.1594,377.47 77.5,377C 68.7195,374.381 62.7195,368.881 59.5,360.5C 57.9041,350.084 58.4041,339.751 61,329.5C 65.0241,317.095 70.0241,305.095 76,293.5C 87.9839,275.904 102.817,261.07 120.5,249C 133.843,238 143.677,224.5 150,208.5C 155.279,175.879 160.279,143.212 165,110.5C 165.391,91.5413 169.725,73.5413 178,56.5C 204.451,24.1253 236.951,15.9587 275.5,32C 295.591,43.7552 308.424,60.9218 314,83.5C 315.224,102.47 315.891,121.47 316,140.5C 318.128,167.074 328.128,190.074 346,209.5C 370.252,245.661 393.252,282.661 415,320.5C 419.273,327.363 422.106,334.696 423.5,342.5 Z"/></g>
<g><path style="opacity:1" fill="#f88570" d="M 237.5,59.5 C 267.36,67.1842 289.86,84.5175 305,111.5C 312.341,146.7 302.841,176.2 276.5,200C 265.687,208.162 253.52,212.995 240,214.5C 205.616,207.451 184.282,186.784 176,152.5C 170.94,104.625 191.44,73.6245 237.5,59.5 Z"/></g>
<g><path style="opacity:1" fill="#26100a" d="M 194.5,98.5 C 204.506,98.3335 214.506,98.5002 224.5,99C 225.46,100.419 226.293,101.919 227,103.5C 226.954,101.687 227.12,100.021 227.5,98.5C 229.436,101.208 229.936,104.208 229,107.5C 228.667,106.5 228.333,105.5 228,104.5C 227.506,106.134 227.34,107.801 227.5,109.5C 213.373,105.662 199.04,104.495 184.5,106C 187.723,103.236 191.056,100.736 194.5,98.5 Z"/></g>
<g><path style="opacity:1" fill="#2a120d" d="M 260.5,97.5 C 268.893,97.1696 277.227,97.6696 285.5,99C 290.231,100.061 294.231,102.394 297.5,106C 287.859,105.509 278.192,105.509 268.5,106C 264.035,106.699 259.702,107.866 255.5,109.5C 254.702,107.922 254.202,106.256 254,104.5C 253.667,105.833 253.333,107.167 253,108.5C 252.004,104.793 252.67,101.459 255,98.5C 254.106,104.235 254.773,104.568 257,99.5C 258.302,98.9152 259.469,98.2485 260.5,97.5 Z"/></g>
<g><path style="opacity:1" fill="#b34d4c" d="M 219.5,124.5 C 216.862,122.176 213.862,120.343 210.5,119C 204.13,118.294 197.797,118.461 191.5,119.5C 199.16,112.45 207.327,111.784 216,117.5C 217.705,119.577 218.872,121.91 219.5,124.5 Z"/></g>
<g><path style="opacity:1" fill="#b24c4b" d="M 287.5,120.5 C 281.005,118.51 274.339,118.01 267.5,119C 264.138,120.343 261.138,122.176 258.5,124.5C 261.433,115.732 267.433,112.232 276.5,114C 280.858,115.172 284.525,117.339 287.5,120.5 Z"/></g>
<g><path style="opacity:1" fill="#230d07" d="M 219.5,124.5 C 220.836,126.01 222.003,127.677 223,129.5C 223.833,132.667 222.667,133.833 219.5,133C 218.696,131.229 217.529,129.729 216,128.5C 213.259,133.419 209.092,135.252 203.5,134C 199.083,131.84 197.749,128.506 199.5,124C 198.167,123.333 196.833,123.333 195.5,124C 192.046,125.302 188.712,126.802 185.5,128.5C 181.724,127.079 181.724,125.245 185.5,123C 187.727,122.059 189.727,120.892 191.5,119.5C 197.797,118.461 204.13,118.294 210.5,119C 213.862,120.343 216.862,122.176 219.5,124.5 Z"/></g>
<g><path style="opacity:1" fill="#230d07" d="M 287.5,120.5 C 291.893,121.559 294.559,124.226 295.5,128.5C 290.375,127.038 285.209,125.372 280,123.5C 279.5,123.667 279,123.833 278.5,124C 279.798,132.361 276.131,135.695 267.5,134C 265,132.833 263.167,131 262,128.5C 260.54,130.466 258.873,132.132 257,133.5C 255.5,133.333 254.667,132.5 254.5,131C 255.25,128.429 256.583,126.262 258.5,124.5C 261.138,122.176 264.138,120.343 267.5,119C 274.339,118.01 281.005,118.51 287.5,120.5 Z"/></g>
<g><path style="opacity:1" fill="#341812" d="M 235.5,157.5 C 239.226,157.177 242.893,157.511 246.5,158.5C 242.592,160.892 238.592,161.058 234.5,159C 235.056,158.617 235.389,158.117 235.5,157.5 Z"/></g>
<g><path style="opacity:1" fill="#b34f4e" d="M 255.5,175.5 C 256.833,177.167 256.833,178.833 255.5,180.5C 253.898,182.074 251.898,182.741 249.5,182.5C 249.918,181.778 250.584,181.278 251.5,181C 243.833,176.333 236.167,176.333 228.5,181C 229.416,181.278 230.082,181.778 230.5,182.5C 228.214,182.405 226.214,181.738 224.5,180.5C 223.438,178.901 223.438,177.234 224.5,175.5C 234.8,167.505 245.133,167.505 255.5,175.5 Z"/></g>
<g><path style="opacity:1" fill="#29110b" d="M 255.5,180.5 C 256.833,178.833 256.833,177.167 255.5,175.5C 258.176,174.162 260.843,172.828 263.5,171.5C 267.499,173.069 267.499,174.902 263.5,177C 260.929,178.454 258.262,179.62 255.5,180.5 Z"/></g>
<g><path style="opacity:1" fill="#29110b" d="M 224.5,175.5 C 223.438,177.234 223.438,178.901 224.5,180.5C 220.279,179.565 216.946,177.398 214.5,174C 214.667,172.5 215.5,171.667 217,171.5C 219.432,172.966 221.932,174.299 224.5,175.5 Z"/></g>
<g><path style="opacity:1" fill="#f7f3f3" d="M 249.5,182.5 C 243.167,183.833 236.833,183.833 230.5,182.5C 230.082,181.778 229.416,181.278 228.5,181C 236.167,176.333 243.833,176.333 251.5,181C 250.584,181.278 249.918,181.778 249.5,182.5 Z"/></g>
<g><path style="opacity:1" fill="#be5552" d="M 246.5,189.5 C 244.866,190.161 243.033,190.494 241,190.5C 237.85,190.64 235.017,189.973 232.5,188.5C 233.239,188.631 233.906,188.464 234.5,188C 233.328,187.581 232.328,186.915 231.5,186C 238.11,184.559 244.776,184.226 251.5,185C 249.844,186.829 247.844,188.163 245.5,189C 245.728,189.399 246.062,189.565 246.5,189.5 Z"/></g>
<g><path style="opacity:1" fill="#27110b" d="M 232.5,188.5 C 235.017,189.973 237.85,190.64 241,190.5C 243.033,190.494 244.866,190.161 246.5,189.5C 249.127,188.908 251.794,188.575 254.5,188.5C 254.714,190.144 254.38,191.644 253.5,193C 245.5,196.333 237.5,196.333 229.5,193C 226.756,189.538 227.756,188.038 232.5,188.5 Z"/></g>
<g><path style="opacity:1" fill="#c67740" d="M 423.5,342.5 C 428.21,357.132 433.044,371.798 438,386.5C 438.383,387.056 438.883,387.389 439.5,387.5C 420.451,413.893 396.784,434.893 368.5,450.5C 368.666,444.491 368.499,438.491 368,432.5C 366.951,431.483 365.784,431.316 364.5,432C 363.705,439.444 363.039,446.944 362.5,454.5C 325.983,474.005 286.983,483.339 245.5,482.5C 243,473.166 238.667,464.833 232.5,457.5C 241.173,457.666 249.84,457.5 258.5,457C 282.698,452.985 303.531,442.485 321,425.5C 325.667,417.5 330.333,409.5 335,401.5C 339.014,396.583 343.848,392.75 349.5,390C 358.396,387.899 367.396,386.232 376.5,385C 382.736,382.883 388.736,380.216 394.5,377C 408.459,368.894 418.125,357.394 423.5,342.5 Z"/></g>
<g><path style="opacity:1" fill="#c77741" d="M 59.5,360.5 C 62.7195,368.881 68.7195,374.381 77.5,377C 98.1594,377.47 118.826,378.137 139.5,379C 158.81,381.899 174.31,391.065 186,406.5C 192.119,418.404 197.952,430.404 203.5,442.5C 186.762,434.198 169.429,427.364 151.5,422C 145.563,420.877 144.563,422.211 148.5,426C 146.744,426.14 145.078,425.64 143.5,424.5C 143.167,425 142.833,425.5 142.5,426C 151.452,437.286 161.452,447.62 172.5,457C 171.833,457.667 171.167,457.667 170.5,457C 161.029,449.098 151.029,441.931 140.5,435.5C 139.401,438.359 139.901,441.026 142,443.5C 149.061,451.39 156.228,459.057 163.5,466.5C 138.585,457.202 116.252,443.868 96.5,426.5C 96.6208,422.175 95.9542,418.009 94.5,414C 93.2161,413.316 92.0495,413.483 91,414.5C 90.5034,416.81 90.3367,419.143 90.5,421.5C 76.6035,409.949 64.9369,396.615 55.5,381.5C 57.3114,374.588 58.6448,367.588 59.5,360.5 Z"/></g>
<g><path style="opacity:1" fill="#29150c" d="M 96.5,426.5 C 93.8908,425.557 91.8908,423.89 90.5,421.5C 90.3367,419.143 90.5034,416.81 91,414.5C 92.0495,413.483 93.2161,413.316 94.5,414C 95.9542,418.009 96.6208,422.175 96.5,426.5 Z"/></g>
<g><path style="opacity:1" fill="#f6856e" d="M 203.5,442.5 C 204.833,443.5 206.167,444.5 207.5,445.5C 206.588,446.738 206.421,448.072 207,449.5C 215.375,458.21 224.042,466.543 233,474.5C 235.502,473.499 236.002,471.833 234.5,469.5C 226.479,462.146 218.812,454.479 211.5,446.5C 219.504,448.334 226.504,452.001 232.5,457.5C 238.667,464.833 243,473.166 245.5,482.5C 217.106,482.421 189.772,477.088 163.5,466.5C 156.228,459.057 149.061,451.39 142,443.5C 139.901,441.026 139.401,438.359 140.5,435.5C 151.029,441.931 161.029,449.098 170.5,457C 171.167,457.667 171.833,457.667 172.5,457C 161.452,447.62 151.452,437.286 142.5,426C 142.833,425.5 143.167,425 143.5,424.5C 145.078,425.64 146.744,426.14 148.5,426C 144.563,422.211 145.563,420.877 151.5,422C 169.429,427.364 186.762,434.198 203.5,442.5 Z"/></g>
<g><path style="opacity:1" fill="#28110c" d="M 152.5,427.5 C 160.205,429.601 167.371,432.935 174,437.5C 174.833,440.667 173.667,441.833 170.5,441C 164.342,438.088 158.342,434.921 152.5,431.5C 151.374,430.192 151.374,428.858 152.5,427.5 Z"/></g>
<g><path style="opacity:1" fill="#2c160d" d="M 368.5,450.5 C 366.795,452.192 364.795,453.525 362.5,454.5C 363.039,446.944 363.705,439.444 364.5,432C 365.784,431.316 366.951,431.483 368,432.5C 368.499,438.491 368.666,444.491 368.5,450.5 Z"/></g>
<g><path style="opacity:1" fill="#28110b" d="M 177.5,439.5 C 178.552,439.351 179.552,439.517 180.5,440C 185.365,445.2 190.532,450.033 196,454.5C 196.72,456.112 196.554,457.612 195.5,459C 188.585,455.117 182.419,449.95 177,443.5C 176.421,442.072 176.588,440.738 177.5,439.5 Z"/></g>
<g><path style="opacity:1" fill="#28110c" d="M 207.5,445.5 C 209.099,445.232 210.432,445.566 211.5,446.5C 218.812,454.479 226.479,462.146 234.5,469.5C 236.002,471.833 235.502,473.499 233,474.5C 224.042,466.543 215.375,458.21 207,449.5C 206.421,448.072 206.588,446.738 207.5,445.5 Z"/></g>
</svg>
