<?xml version="1.0" encoding="UTF-8"?>
<!DOCTYPE svg PUBLIC "-//W3C//DTD SVG 1.1//EN" "http://www.w3.org/Graphics/SVG/1.1/DTD/svg11.dtd">
<svg xmlns="http://www.w3.org/2000/svg" version="1.1" width="500px" height="500px" style="shape-rendering:geometricPrecision; text-rendering:geometricPrecision; image-rendering:optimizeQuality; fill-rule:evenodd; clip-rule:evenodd" xmlns:xlink="http://www.w3.org/1999/xlink">
<g><path style="opacity:0.958" fill="#033067" d="M 499.5,226.5 C 499.5,241.5 499.5,256.5 499.5,271.5C 489.907,352.223 451.24,414.723 383.5,459C 311.522,501.255 236.189,508.255 157.5,480C 65.3241,440.498 12.6574,370.998 -0.5,271.5C -0.5,256.5 -0.5,241.5 -0.5,226.5C 9.09228,145.779 47.7589,83.2792 115.5,39C 187.475,-3.25514 262.808,-10.2551 341.5,18C 415.725,48.6118 465.225,102.112 490,178.5C 494.285,194.424 497.452,210.424 499.5,226.5 Z"/></g>
<g><path style="opacity:1" fill="#fecc01" d="M 445.5,376.5 C 435.5,367.167 425.833,357.5 416.5,347.5C 416.421,346.07 416.754,344.736 417.5,343.5C 416.192,342.374 414.858,342.374 413.5,343.5C 409.792,339.79 405.792,336.457 401.5,333.5C 379.527,313.699 357.361,294.032 335,274.5C 333.284,244.269 330.784,214.102 327.5,184C 331.633,159.666 329.8,135.832 322,112.5C 319.31,73.9041 300.81,46.0708 266.5,29C 241.695,19.9488 218.028,22.2821 195.5,36C 167.932,53.9461 152.766,79.4461 150,112.5C 145.926,122.463 143.259,132.796 142,143.5C 141.975,161.167 141.975,178.834 142,196.5C 139.374,229.523 136.54,262.523 133.5,295.5C 116.228,303.132 99.8947,312.299 84.5,323C 81.6667,325.833 78.8333,328.667 76,331.5C 73.532,334.964 73.032,338.63 74.5,342.5C 66.2288,352.108 57.5621,361.441 48.5,370.5C 24.49,332.315 12.8233,290.481 13.5,245C 17.8694,159.231 56.2028,93.5639 128.5,48C 197.56,9.83367 268.894,5.167 342.5,34C 425.402,72.2594 472.902,136.759 485,227.5C 488.928,281.791 476.261,331.791 447,377.5C 446.617,376.944 446.117,376.611 445.5,376.5 Z"/></g>
<g><path style="opacity:1" fill="#e7e2db" d="M 401.5,333.5 C 392.42,347.299 382.587,360.633 372,373.5C 347.689,401.559 317.855,420.892 282.5,431.5C 257.878,436.276 233.211,436.61 208.5,432.5C 190.217,428.402 174.717,419.402 162,405.5C 147.056,375.251 122.89,356.918 89.5,350.5C 87.8333,349.833 86.1667,349.167 84.5,348.5C 80.4945,347.502 77.1612,345.502 74.5,342.5C 73.032,338.63 73.532,334.964 76,331.5C 78.8333,328.667 81.6667,325.833 84.5,323C 99.8947,312.299 116.228,303.132 133.5,295.5C 136.54,262.523 139.374,229.523 142,196.5C 141.975,178.834 141.975,161.167 142,143.5C 143.259,132.796 145.926,122.463 150,112.5C 152.766,79.4461 167.932,53.9461 195.5,36C 218.028,22.2821 241.695,19.9488 266.5,29C 300.81,46.0708 319.31,73.9041 322,112.5C 329.8,135.832 331.633,159.666 327.5,184C 330.784,214.102 333.284,244.269 335,274.5C 357.361,294.032 379.527,313.699 401.5,333.5 Z"/></g>
<g><path style="opacity:1" fill="#f88670" d="M 286.5,145.5 C 275.717,145.128 265.05,145.962 254.5,148C 251.736,151.853 251.069,156.02 252.5,160.5C 265.555,154.756 279.221,152.089 293.5,152.5C 299.631,158.13 305.631,163.964 311.5,170C 305.505,195.668 292.839,217.335 273.5,235C 259.045,246.281 243.045,249.281 225.5,244C 196.433,230.588 178.933,208.088 173,176.5C 171.779,170.856 171.113,165.189 171,159.5C 194.177,140.062 213.844,117.729 230,92.5C 232.61,86.9474 234.943,81.2808 237,75.5C 240.752,87.0034 246.085,97.67 253,107.5C 263.631,120.632 274.798,133.298 286.5,145.5 Z"/></g>
<g><path style="opacity:1" fill="#2f1a15" d="M 286.5,145.5 C 289.167,147.5 291.5,149.833 293.5,152.5C 279.221,152.089 265.555,154.756 252.5,160.5C 251.069,156.02 251.736,151.853 254.5,148C 265.05,145.962 275.717,145.128 286.5,145.5 Z"/></g>
<g><path style="opacity:1" fill="#41231d" d="M 219.5,151.5 C 221.267,150.35 222.433,151.017 223,153.5C 224.318,156.406 224.652,159.406 224,162.5C 223.245,158.42 221.745,154.754 219.5,151.5 Z"/></g>
<g><path style="opacity:1" fill="#311a15" d="M 196.5,151.5 C 203.863,151.169 211.197,151.503 218.5,152.5C 220.214,155.299 221.547,158.299 222.5,161.5C 221,161.833 219.5,162.167 218,162.5C 203.727,159.524 189.561,159.857 175.5,163.5C 174.479,162.998 174.312,162.332 175,161.5C 180.94,155.277 188.107,151.943 196.5,151.5 Z"/></g>
<g><path style="opacity:1" fill="#5f332a" d="M 249.5,148.5 C 250.376,148.369 251.043,148.702 251.5,149.5C 250.899,153.159 250.233,156.826 249.5,160.5C 248.387,156.507 248.387,152.507 249.5,148.5 Z"/></g>
<g><path style="opacity:1" fill="#2d1712" d="M 292.5,155.5 C 293.5,155.5 294.5,155.5 295.5,155.5C 295.5,156.5 295.5,157.5 295.5,158.5C 289.647,159.395 284.314,161.562 279.5,165C 286.681,169.091 287.348,174.091 281.5,180C 274.181,183.441 268.848,181.608 265.5,174.5C 264.019,175.48 262.685,176.647 261.5,178C 260.365,178.749 259.365,178.583 258.5,177.5C 267.885,167.142 279.219,159.808 292.5,155.5 Z"/></g>
<g><path style="opacity:1" fill="#2e1813" d="M 188.5,171.5 C 196.291,171.189 203.958,172.022 211.5,174C 215.274,174.724 218.608,176.224 221.5,178.5C 220.224,179.645 218.891,179.645 217.5,178.5C 217.378,187.789 212.712,191.956 203.5,191C 195.5,185.667 195.5,180.333 203.5,175C 197.306,174.273 191.14,174.439 185,175.5C 184.167,175.167 183.333,174.833 182.5,174.5C 182.667,174.167 182.833,173.833 183,173.5C 184.948,172.891 186.782,172.224 188.5,171.5 Z"/></g>
<g><path style="opacity:1" fill="#371d18" d="M 236.5,202.5 C 240.226,202.177 243.893,202.511 247.5,203.5C 243.334,205.616 239.001,205.949 234.5,204.5C 235.243,203.818 235.909,203.151 236.5,202.5 Z"/></g>
<g><path style="opacity:1" fill="#2e130e" d="M 262.5,218.5 C 251.324,223.461 239.658,224.794 227.5,222.5C 223.377,221.273 219.71,219.273 216.5,216.5C 217,216.167 217.5,215.833 218,215.5C 222.037,217.346 226.204,218.68 230.5,219.5C 242.093,221.909 253.093,220.243 263.5,214.5C 266.093,213.246 268.427,211.58 270.5,209.5C 271.725,211.843 271.059,213.677 268.5,215C 266.612,216.394 264.612,217.56 262.5,218.5 Z"/></g>
<g><path style="opacity:1" fill="#b8504e" d="M 263.5,214.5 C 253.093,220.243 242.093,221.909 230.5,219.5C 241.054,215.15 252.054,213.484 263.5,214.5 Z"/></g>
<g><path style="opacity:1" fill="#b54d4d" d="M 262.5,218.5 C 263.555,221.073 263.722,223.739 263,226.5C 259.541,228.66 255.708,229.827 251.5,230C 244.833,230.667 238.167,230.667 231.5,230C 228.641,228.309 227.308,225.809 227.5,222.5C 239.658,224.794 251.324,223.461 262.5,218.5 Z"/></g>
<g><path style="opacity:1" fill="#2d1b18" d="M 162.5,219.5 C 163.458,219.953 164.292,220.619 165,221.5C 179.256,263.058 208.423,282.891 252.5,281C 259.386,279.737 266.219,278.237 273,276.5C 273.833,276.833 274.667,277.167 275.5,277.5C 235.456,291.723 201.956,282.39 175,249.5C 169.17,240.839 164.67,231.505 161.5,221.5C 161.863,220.817 162.196,220.15 162.5,219.5 Z"/></g>
<g><path style="opacity:1" fill="#2a120c" d="M 258.5,230.5 C 260.465,230.948 260.798,231.948 259.5,233.5C 251.075,236.702 242.408,237.369 233.5,235.5C 233.5,234.5 233.5,233.5 233.5,232.5C 242.246,235.636 250.579,234.97 258.5,230.5 Z"/></g>
<g><path style="opacity:1" fill="#2d1b17" d="M 305.5,251.5 C 306.5,251.5 307.5,251.5 308.5,251.5C 308.89,289.285 290.224,310.452 252.5,315C 220.249,317.602 190.249,310.768 162.5,294.5C 163.723,293.386 165.056,293.219 166.5,294C 197.292,310.959 229.959,316.293 264.5,310C 293.556,301.423 307.222,281.923 305.5,251.5 Z"/></g>
<g><path style="opacity:1" fill="#2c1916" d="M 353.5,307.5 C 354.675,307.281 355.675,307.614 356.5,308.5C 344.537,354.963 315.203,383.796 268.5,395C 265.773,395.818 263.106,395.652 260.5,394.5C 295.857,388.311 323.023,369.978 342,339.5C 347.327,329.352 351.16,318.685 353.5,307.5 Z"/></g>
<g><path style="opacity:1" fill="#2c1a16" d="M 119.5,316.5 C 148.928,333.102 170.095,357.102 183,388.5C 194.13,403.263 208.964,411.763 227.5,414C 280.559,419.13 323.892,401.13 357.5,360C 358.483,359.409 359.15,359.743 359.5,361C 319.397,410.701 268.397,427.367 206.5,411C 197.328,406.994 189.495,401.161 183,393.5C 177.413,383.994 172.08,374.327 167,364.5C 154.743,346.242 139.243,331.409 120.5,320C 119.663,318.989 119.33,317.822 119.5,316.5 Z"/></g>
<g><path style="opacity:1" fill="#293378" d="M 401.5,333.5 C 405.792,336.457 409.792,339.79 413.5,343.5C 400.176,364.138 387.342,385.138 375,406.5C 369.883,413.952 364.383,421.118 358.5,428C 333.174,429.5 307.84,430.666 282.5,431.5C 317.855,420.892 347.689,401.559 372,373.5C 382.587,360.633 392.42,347.299 401.5,333.5 Z"/></g>
<g><path style="opacity:1" fill="#1c1f4d" d="M 416.5,347.5 C 413.561,349.988 411.061,352.988 409,356.5C 399.415,372.001 390.082,387.668 381,403.5C 376.065,411.701 370.399,419.368 364,426.5C 362.066,436.105 360.566,445.772 359.5,455.5C 325.193,473.951 288.359,482.951 249,482.5C 210.872,482.842 175.039,474.175 141.5,456.5C 141.896,447.497 140.729,438.497 138,429.5C 119.152,403.129 101.319,376.129 84.5,348.5C 86.1667,349.167 87.8333,349.833 89.5,350.5C 106.622,377.908 124.622,404.741 143.5,431C 165.157,431.963 186.824,432.463 208.5,432.5C 233.211,436.61 257.878,436.276 282.5,431.5C 307.84,430.666 333.174,429.5 358.5,428C 364.383,421.118 369.883,413.952 375,406.5C 387.342,385.138 400.176,364.138 413.5,343.5C 414.858,342.374 416.192,342.374 417.5,343.5C 416.754,344.736 416.421,346.07 416.5,347.5 Z"/></g>
<g><path style="opacity:1" fill="#283377" d="M 74.5,342.5 C 77.1612,345.502 80.4945,347.502 84.5,348.5C 101.319,376.129 119.152,403.129 138,429.5C 140.729,438.497 141.896,447.497 141.5,456.5C 115.876,443.023 93.2094,425.689 73.5,404.5C 74.7634,402.304 75.7634,399.97 76.5,397.5C 75.3489,394.535 73.6822,391.869 71.5,389.5C 70.0569,392.077 68.3902,394.41 66.5,396.5C 60.0067,388.182 54.0067,379.515 48.5,370.5C 57.5621,361.441 66.2288,352.108 74.5,342.5 Z"/></g>
<g><path style="opacity:1" fill="#283377" d="M 416.5,347.5 C 425.833,357.5 435.5,367.167 445.5,376.5C 443.284,381.925 440.284,386.925 436.5,391.5C 435.518,390.859 434.518,390.193 433.5,389.5C 431.833,392.167 430.167,394.833 428.5,397.5C 429.127,398.417 429.461,399.417 429.5,400.5C 425.003,404.164 421.003,408.331 417.5,413C 416.184,413.528 415.517,413.028 415.5,411.5C 415.59,409.304 415.923,407.137 416.5,405C 416.32,402.759 415.487,402.259 414,403.5C 412.513,408.779 411.347,414.112 410.5,419.5C 395.079,433.713 378.079,445.713 359.5,455.5C 360.566,445.772 362.066,436.105 364,426.5C 370.399,419.368 376.065,411.701 381,403.5C 390.082,387.668 399.415,372.001 409,356.5C 411.061,352.988 413.561,349.988 416.5,347.5 Z"/></g>
<g><path style="opacity:1" fill="#283378" d="M 89.5,350.5 C 122.89,356.918 147.056,375.251 162,405.5C 174.717,419.402 190.217,428.402 208.5,432.5C 186.824,432.463 165.157,431.963 143.5,431C 124.622,404.741 106.622,377.908 89.5,350.5 Z"/></g>
<g><path style="opacity:1" fill="#62668a" d="M 73.5,404.5 C 70.4503,402.451 68.117,399.784 66.5,396.5C 68.3902,394.41 70.0569,392.077 71.5,389.5C 73.6822,391.869 75.3489,394.535 76.5,397.5C 75.7634,399.97 74.7634,402.304 73.5,404.5 Z"/></g>
<g><path style="opacity:1" fill="#5d6282" d="M 436.5,391.5 C 434.518,394.81 432.185,397.81 429.5,400.5C 429.461,399.417 429.127,398.417 428.5,397.5C 430.167,394.833 431.833,392.167 433.5,389.5C 434.518,390.193 435.518,390.859 436.5,391.5 Z"/></g>
<g><path style="opacity:1" fill="#211012" d="M 415.5,411.5 C 414.865,414.762 413.198,417.428 410.5,419.5C 411.347,414.112 412.513,408.779 414,403.5C 415.487,402.259 416.32,402.759 416.5,405C 415.923,407.137 415.59,409.304 415.5,411.5 Z"/></g>
</svg>
