<?xml version="1.0" encoding="UTF-8"?>
<!DOCTYPE svg PUBLIC "-//W3C//DTD SVG 1.1//EN" "http://www.w3.org/Graphics/SVG/1.1/DTD/svg11.dtd">
<svg xmlns="http://www.w3.org/2000/svg" version="1.1" width="500px" height="500px" style="shape-rendering:geometricPrecision; text-rendering:geometricPrecision; image-rendering:optimizeQuality; fill-rule:evenodd; clip-rule:evenodd" xmlns:xlink="http://www.w3.org/1999/xlink">
<g><path style="opacity:0.957" fill="#023067" d="M 499.5,226.5 C 499.5,241.5 499.5,256.5 499.5,271.5C 489.907,352.223 451.24,414.723 383.5,459C 311.522,501.255 236.189,508.255 157.5,480C 65.3241,440.498 12.6574,370.998 -0.5,271.5C -0.5,256.5 -0.5,241.5 -0.5,226.5C 9.09228,145.779 47.7589,83.2792 115.5,39C 187.475,-3.25514 262.808,-10.2551 341.5,18C 415.725,48.6118 465.225,102.112 490,178.5C 494.285,194.424 497.452,210.424 499.5,226.5 Z"/></g>
<g><path style="opacity:1" fill="#fdcc00" d="M 441.5,385.5 C 439.807,384.525 438.307,383.192 437,381.5C 425.187,363.185 411.354,346.518 395.5,331.5C 389.417,314.912 378.751,302.079 363.5,293C 353.5,288 343.5,283 333.5,278C 331.765,274.533 329.765,271.2 327.5,268C 317.865,264.605 309.699,259.105 303,251.5C 300.028,242.991 299.695,234.324 302,225.5C 306.152,212.192 311.152,199.192 317,186.5C 330.983,150.127 330.983,113.794 317,77.5C 312.606,67.7113 307.939,58.0446 303,48.5C 295.25,35.8687 284.083,28.0354 269.5,25C 202.564,15.6139 161.397,43.7806 146,109.5C 140.438,146.698 147.772,181.031 168,212.5C 172.333,217.5 176.667,222.5 181,227.5C 187,238.167 187,248.833 181,259.5C 174.938,265.118 168.104,269.618 160.5,273C 156.797,276.396 155.631,280.563 157,285.5C 158.823,288.242 159.323,291.075 158.5,294C 135.545,301.145 114.212,311.478 94.5,325C 90.5842,328.41 87.2508,332.243 84.5,336.5C 71.2953,349.57 61.6286,364.904 55.5,382.5C 12.8782,318.454 2.71157,249.454 25,175.5C 54.0781,97.4222 108.578,46.5889 188.5,23C 266.642,4.8749 337.309,20.2082 400.5,69C 470.59,130.931 497.09,208.098 480,300.5C 472.551,331.39 459.717,359.723 441.5,385.5 Z"/></g>
<g><path style="opacity:1" fill="#1c1b19" d="M 395.5,331.5 C 396.15,333.435 396.483,335.435 396.5,337.5C 394.624,342.048 391.29,344.715 386.5,345.5C 385.508,345.328 384.842,345.662 384.5,346.5C 361.223,349.145 337.889,351.312 314.5,353C 291.383,361.928 268.05,370.261 244.5,378C 213.136,386.574 181.803,386.574 150.5,378C 141.76,374.921 133.093,371.754 124.5,368.5C 123.71,367.599 122.71,366.932 121.5,366.5C 110.377,360.437 99.3768,354.103 88.5,347.5C 87.8333,346.167 86.8333,345.167 85.5,344.5C 84.8505,342.565 84.5172,340.565 84.5,338.5C 84.5,337.833 84.5,337.167 84.5,336.5C 87.2508,332.243 90.5842,328.41 94.5,325C 114.212,311.478 135.545,301.145 158.5,294C 159.323,291.075 158.823,288.242 157,285.5C 155.631,280.563 156.797,276.396 160.5,273C 168.104,269.618 174.938,265.118 181,259.5C 187,248.833 187,238.167 181,227.5C 176.667,222.5 172.333,217.5 168,212.5C 147.772,181.031 140.438,146.698 146,109.5C 161.397,43.7806 202.564,15.6139 269.5,25C 284.083,28.0354 295.25,35.8687 303,48.5C 307.939,58.0446 312.606,67.7113 317,77.5C 330.983,113.794 330.983,150.127 317,186.5C 311.152,199.192 306.152,212.192 302,225.5C 299.695,234.324 300.028,242.991 303,251.5C 309.699,259.105 317.865,264.605 327.5,268C 329.765,271.2 331.765,274.533 333.5,278C 343.5,283 353.5,288 363.5,293C 378.751,302.079 389.417,314.912 395.5,331.5 Z"/></g>
<g><path style="opacity:1" fill="#2e303c" d="M 234.5,24.5 C 249.493,23.8741 264.16,25.7075 278.5,30C 288.169,34.0024 295.669,40.5024 301,49.5C 311.175,67.512 318.841,86.512 324,106.5C 327.135,129.535 325.468,152.202 319,174.5C 310.661,195.177 302.327,215.843 294,236.5C 291.385,240.783 288.385,244.783 285,248.5C 281.167,251.667 277.333,254.833 273.5,258C 274,258.5 274.5,259 275,259.5C 285.153,253.014 292.82,244.348 298,233.5C 296.068,246.801 300.901,256.634 312.5,263C 317.167,265.333 321.833,267.667 326.5,270C 328.135,273.596 330.135,276.929 332.5,280C 346.476,286.318 359.809,293.651 372.5,302C 384.39,311.518 391.556,323.685 394,338.5C 389.548,342.211 384.381,344.378 378.5,345C 358.21,347.187 337.877,348.854 317.5,350C 297.975,356.427 278.641,363.427 259.5,371C 220.674,384.221 181.674,384.888 142.5,373C 123.82,365.495 106.154,356.161 89.5,345C 86.2775,341.888 85.7775,338.388 88,334.5C 95.5429,326.173 104.376,320.007 114.5,316C 101.916,327.312 102.916,337.646 117.5,347C 129.105,353.09 141.439,356.757 154.5,358C 164.471,359.258 174.471,360.091 184.5,360.5C 184.5,359.5 184.5,358.5 184.5,357.5C 167.952,357.692 151.619,355.858 135.5,352C 126.062,349.7 117.896,345.2 111,338.5C 106.571,330.343 108.071,323.51 115.5,318C 123.662,312.543 132.662,310.376 142.5,311.5C 142.5,310.5 142.5,309.5 142.5,308.5C 135.691,308.71 129.024,309.544 122.5,311C 131.085,307.138 139.752,303.472 148.5,300C 152.017,298.266 155.684,297.599 159.5,298C 171.643,311.323 186.476,320.156 204,324.5C 204.833,324.167 205.667,323.833 206.5,323.5C 188.354,318.762 173.021,309.428 160.5,295.5C 161.022,294.393 161.355,293.226 161.5,292C 159.622,287.661 158.788,283.161 159,278.5C 160.833,276.667 162.667,274.833 164.5,273C 169.744,270.797 174.578,267.964 179,264.5C 178.1,270.826 178.434,277.159 180,283.5C 184.792,290.626 190.625,296.793 197.5,302C 198.332,302.688 198.998,302.521 199.5,301.5C 194.515,296.015 189.348,290.681 184,285.5C 180.734,280.262 179.734,274.595 181,268.5C 184.073,259.95 186.739,251.283 189,242.5C 195.735,252.402 204.235,260.402 214.5,266.5C 214.833,266.167 215.167,265.833 215.5,265.5C 207.522,259.022 200.022,252.022 193,244.5C 189.145,238.79 185.812,232.79 183,226.5C 162.734,205.63 150.734,180.63 147,151.5C 143.871,122.481 149.204,95.1478 163,69.5C 179.497,42.8344 203.331,27.8344 234.5,24.5 Z"/></g>
<g><path style="opacity:1" fill="#1e1a1b" d="M 291.5,58.5 C 292.5,58.5 293.5,58.5 294.5,58.5C 292.966,69.0649 288.633,78.2315 281.5,86C 297.025,106.246 304.358,129.246 303.5,155C 306.826,193 293.159,223 262.5,245C 247.701,252.505 233.035,252.172 218.5,244C 205.902,236.069 196.068,225.569 189,212.5C 174.502,185.51 169.502,156.844 174,126.5C 176.676,111.646 183.176,98.8131 193.5,88C 184.623,83.4135 181.29,76.2468 183.5,66.5C 183.273,75.3935 187.107,81.7269 195,85.5C 208.159,75.0004 223.159,69.0004 240,67.5C 255.282,68.1455 268.615,73.4789 280,83.5C 287.026,76.7731 290.859,68.4398 291.5,58.5 Z"/></g>
<g><path style="opacity:1" fill="#fb9882" d="M 228.5,70.5 C 259.378,67.3524 280.878,80.0191 293,108.5C 304.025,141.093 304.025,173.76 293,206.5C 285.748,221.422 275.248,233.589 261.5,243C 244.534,250.318 228.534,248.651 213.5,238C 194.903,221.996 183.069,201.829 178,177.5C 172.486,154.834 173.486,132.501 181,110.5C 190.839,90.0039 206.673,76.6706 228.5,70.5 Z"/></g>
<g><path style="opacity:1" fill="#fef9f8" d="M 241.5,218.5 C 244.85,218.335 248.183,218.502 251.5,219C 247.637,220.354 243.637,220.854 239.5,220.5C 238.244,220.539 237.244,220.039 236.5,219C 238.134,218.506 239.801,218.34 241.5,218.5 Z"/></g>
<g><path style="opacity:1" fill="#ed7d5c" d="M 263.5,207.5 C 264.043,207.56 264.376,207.893 264.5,208.5C 262.062,212.442 259.062,215.942 255.5,219C 252.774,218.55 249.94,218.05 247,217.5C 244.967,217.506 243.134,217.839 241.5,218.5C 239.801,218.34 238.134,218.506 236.5,219C 237.244,220.039 238.244,220.539 239.5,220.5C 242.305,221.319 245.305,221.819 248.5,222C 240.351,224.508 233.517,222.341 228,215.5C 227.215,213.714 226.049,212.214 224.5,211C 224.728,210.601 225.062,210.435 225.5,210.5C 238.341,212.227 251.008,211.227 263.5,207.5 Z"/></g>
<g><path style="opacity:1" fill="#fef8f7" d="M 263.5,207.5 C 251.008,211.227 238.341,212.227 225.5,210.5C 224.859,209.518 224.193,208.518 223.5,207.5C 235.656,206.39 247.823,205.39 260,204.5C 261.5,204.833 263,205.167 264.5,205.5C 264.137,206.183 263.804,206.85 263.5,207.5 Z"/></g>
<g><path style="opacity:1" fill="#ed7b5a" d="M 239.5,148.5 C 240.5,148.5 241.5,148.5 242.5,148.5C 244.957,157.873 247.624,167.207 250.5,176.5C 250.41,178.425 249.41,179.592 247.5,180C 244.487,180.502 241.487,181.002 238.5,181.5C 238.33,180.178 238.663,179.011 239.5,178C 241.81,177.503 244.143,177.337 246.5,177.5C 244.005,167.854 241.672,158.187 239.5,148.5 Z"/></g>
<g><path style="opacity:1" fill="#3c2a24" d="M 202.5,147.5 C 205.652,146.959 208.152,147.959 210,150.5C 210.667,153.833 210.667,157.167 210,160.5C 206.237,163.307 203.57,162.307 202,157.5C 201.253,154.076 201.42,150.743 202.5,147.5 Z"/></g>
<g><path style="opacity:1" fill="#3f2c25" d="M 269.5,142.5 C 277.322,142.166 280.156,145.833 278,153.5C 277.176,157.665 275.009,158.498 271.5,156C 268.455,151.853 267.789,147.353 269.5,142.5 Z"/></g>
<g><path style="opacity:1" fill="#c06749" d="M 208.5,128.5 C 211.85,128.335 215.183,128.502 218.5,129C 219.833,130.667 219.833,132.333 218.5,134C 209.027,135.786 200.027,138.953 191.5,143.5C 190.471,141.114 191.137,139.114 193.5,137.5C 198.099,133.706 203.099,130.706 208.5,128.5 Z"/></g>
<g><path style="opacity:1" fill="#c1684a" d="M 263.5,122.5 C 274.577,121.582 284.244,124.748 292.5,132C 282.895,131.14 273.228,130.474 263.5,130C 259.518,127.309 259.518,124.809 263.5,122.5 Z"/></g>
<g><path style="opacity:1" fill="#5e5f6a" d="M 395.5,331.5 C 411.354,346.518 425.187,363.185 437,381.5C 438.307,383.192 439.807,384.525 441.5,385.5C 440.488,386.872 439.488,388.205 438.5,389.5C 426.408,370.663 412.408,353.33 396.5,337.5C 396.483,335.435 396.15,333.435 395.5,331.5 Z"/></g>
<g><path style="opacity:1" fill="#5f606a" d="M 84.5,336.5 C 84.5,337.167 84.5,337.833 84.5,338.5C 79.9893,345.547 75.1559,352.547 70,359.5C 65.052,368.059 61.2187,377.059 58.5,386.5C 57.0256,385.564 56.0256,384.23 55.5,382.5C 61.6286,364.904 71.2953,349.57 84.5,336.5 Z"/></g>
<g><path style="opacity:1" fill="#2f313d" d="M 396.5,337.5 C 412.408,353.33 426.408,370.663 438.5,389.5C 423.751,409.584 406.084,426.584 385.5,440.5C 389.856,410.946 391.023,381.279 389,351.5C 388.998,348.949 388.164,346.949 386.5,345.5C 391.29,344.715 394.624,342.048 396.5,337.5 Z"/></g>
<g><path style="opacity:1" fill="#2f313d" d="M 84.5,338.5 C 84.5172,340.565 84.8505,342.565 85.5,344.5C 76.7096,358.874 71.7096,374.541 70.5,391.5C 71.8221,391.67 72.9887,391.337 74,390.5C 75.0132,374.737 79.8466,360.404 88.5,347.5C 99.3768,354.103 110.377,360.437 121.5,366.5C 120.339,380.327 120.173,394.327 121,408.5C 122.497,421.46 123.33,434.46 123.5,447.5C 97.6762,431.679 76.0095,411.345 58.5,386.5C 61.2187,377.059 65.052,368.059 70,359.5C 75.1559,352.547 79.9893,345.547 84.5,338.5 Z"/></g>
<g><path style="opacity:1" fill="#585b6a" d="M 85.5,344.5 C 86.8333,345.167 87.8333,346.167 88.5,347.5C 79.8466,360.404 75.0132,374.737 74,390.5C 72.9887,391.337 71.8221,391.67 70.5,391.5C 71.7096,374.541 76.7096,358.874 85.5,344.5 Z"/></g>
<g><path style="opacity:1" fill="#222224" d="M 289.5,344.5 C 298.208,344.299 306.875,344.799 315.5,346C 318.941,346.836 319.108,347.669 316,348.5C 298.932,345.782 282.432,347.615 266.5,354C 258.563,358.802 250.23,362.802 241.5,366C 236.467,366.829 231.467,366.662 226.5,365.5C 231.335,364.757 236.168,364.09 241,363.5C 251.529,358.82 262.029,353.987 272.5,349C 278.253,347.314 283.919,345.814 289.5,344.5 Z"/></g>
<g><path style="opacity:1" fill="#575a69" d="M 386.5,345.5 C 388.164,346.949 388.998,348.949 389,351.5C 391.023,381.279 389.856,410.946 385.5,440.5C 384.205,441.488 382.872,442.488 381.5,443.5C 386.725,411.281 387.725,378.947 384.5,346.5C 384.842,345.662 385.508,345.328 386.5,345.5 Z"/></g>
<g><path style="opacity:1" fill="#2e303d" d="M 384.5,346.5 C 387.725,378.947 386.725,411.281 381.5,443.5C 320.85,482.325 255.517,492.825 185.5,475C 164.828,469.286 145.494,460.786 127.5,449.5C 125.209,422.552 124.209,395.552 124.5,368.5C 133.093,371.754 141.76,374.921 150.5,378C 181.803,386.574 213.136,386.574 244.5,378C 268.05,370.261 291.383,361.928 314.5,353C 337.889,351.312 361.223,349.145 384.5,346.5 Z"/></g>
<g><path style="opacity:1" fill="#565969" d="M 121.5,366.5 C 122.71,366.932 123.71,367.599 124.5,368.5C 124.209,395.552 125.209,422.552 127.5,449.5C 125.938,449.267 124.605,448.6 123.5,447.5C 123.33,434.46 122.497,421.46 121,408.5C 120.173,394.327 120.339,380.327 121.5,366.5 Z"/></g>
</svg>
