<?xml version="1.0" encoding="UTF-8"?>
<!DOCTYPE svg PUBLIC "-//W3C//DTD SVG 1.1//EN" "http://www.w3.org/Graphics/SVG/1.1/DTD/svg11.dtd">
<svg xmlns="http://www.w3.org/2000/svg" version="1.1" width="500px" height="500px" style="shape-rendering:geometricPrecision; text-rendering:geometricPrecision; image-rendering:optimizeQuality; fill-rule:evenodd; clip-rule:evenodd" xmlns:xlink="http://www.w3.org/1999/xlink">
<g><path style="opacity:0.957" fill="#023067" d="M 499.5,226.5 C 499.5,241.5 499.5,256.5 499.5,271.5C 489.907,352.223 451.24,414.723 383.5,459C 311.522,501.255 236.189,508.255 157.5,480C 65.3241,440.498 12.6574,370.998 -0.5,271.5C -0.5,256.5 -0.5,241.5 -0.5,226.5C 9.09228,145.779 47.7589,83.2792 115.5,39C 187.475,-3.25514 262.808,-10.2551 341.5,18C 415.725,48.6118 465.225,102.112 490,178.5C 494.285,194.424 497.452,210.424 499.5,226.5 Z"/></g>
<g><path style="opacity:1" fill="#fdcc01" d="M 426.5,403.5 C 425.833,401.5 425.167,399.5 424.5,397.5C 423.107,375.812 421.44,354.145 419.5,332.5C 409.511,328.173 399.511,323.839 389.5,319.5C 392.547,307.604 393.047,295.604 391,283.5C 388.424,274.605 383.257,267.772 375.5,263C 364.685,258.095 354.352,252.428 344.5,246C 341.628,243.463 339.128,240.63 337,237.5C 336.061,230.512 335.728,223.512 336,216.5C 350.456,177.581 353.122,137.914 344,97.5C 328.729,50.2378 296.229,25.7378 246.5,24C 207.587,21.039 178.087,36.2056 158,69.5C 146.721,88.2834 141.221,108.617 141.5,130.5C 141.624,155.823 144.457,180.823 150,205.5C 153.055,214.609 156.389,223.609 160,232.5C 162.102,241.86 159.602,249.693 152.5,256C 142.939,261.274 133.606,266.774 124.5,272.5C 121.606,273.882 119.106,275.882 117,278.5C 113.762,282.309 111.596,286.642 110.5,291.5C 107.455,297.361 106.122,303.695 106.5,310.5C 91.2824,318.02 75.9491,325.353 60.5,332.5C 57.8631,348.258 55.5298,363.924 53.5,379.5C 16.0344,322.052 4.86775,259.718 20,192.5C 42.1721,114.326 91.0054,60.1598 166.5,30C 243.589,4.15684 316.256,13.1568 384.5,57C 464.554,116.773 496.72,196.273 481,295.5C 472.041,336.421 453.874,372.421 426.5,403.5 Z"/></g>
<g><path style="opacity:1" fill="#283032" d="M 389.5,319.5 C 384.111,341.971 372.444,360.305 354.5,374.5C 323.291,384.312 291.291,387.812 258.5,385C 236.5,382.83 215.167,378.163 194.5,371C 220.167,389.943 248.834,401.11 280.5,404.5C 236.718,411.092 195.051,404.259 155.5,384C 132.447,371.619 116.614,353.119 108,328.5C 106.761,322.565 106.261,316.565 106.5,310.5C 106.122,303.695 107.455,297.361 110.5,291.5C 110.393,293.903 111.393,295.736 113.5,297C 144.735,325.789 181.068,345.456 222.5,356C 266.349,364.297 306.683,355.964 343.5,331C 310.618,340.903 277.618,340.903 244.5,331C 201.386,317.608 161.386,298.108 124.5,272.5C 133.606,266.774 142.939,261.274 152.5,256C 159.602,249.693 162.102,241.86 160,232.5C 156.389,223.609 153.055,214.609 150,205.5C 144.457,180.823 141.624,155.823 141.5,130.5C 141.221,108.617 146.721,88.2834 158,69.5C 178.087,36.2056 207.587,21.039 246.5,24C 296.229,25.7378 328.729,50.2378 344,97.5C 353.122,137.914 350.456,177.581 336,216.5C 335.728,223.512 336.061,230.512 337,237.5C 339.128,240.63 341.628,243.463 344.5,246C 354.352,252.428 364.685,258.095 375.5,263C 383.257,267.772 388.424,274.605 391,283.5C 393.047,295.604 392.547,307.604 389.5,319.5 Z"/></g>
<g><path style="opacity:1" fill="#dfaca0" d="M 309.5,152.5 C 306.788,187.755 292.455,217.255 266.5,241C 260.673,245.75 254.34,249.75 247.5,253C 237.095,254.152 227.095,252.652 217.5,248.5C 203.478,239.643 192.311,227.976 184,213.5C 176.469,200.907 171.302,187.407 168.5,173C 171.037,160.592 176.037,149.259 183.5,139C 187.195,138.682 190.862,138.182 194.5,137.5C 204.007,140.268 213.674,142.268 223.5,143.5C 223.988,140.289 223.321,137.456 221.5,135C 213.196,133.891 204.863,133.058 196.5,132.5C 193.294,132.347 190.294,133.014 187.5,134.5C 186.479,133.998 186.312,133.332 187,132.5C 200.862,113.327 218.362,98.4937 239.5,88C 247.168,86.7366 254.501,87.7366 261.5,91C 273.615,97.1371 284.782,104.637 295,113.5C 304.906,124.64 309.739,137.64 309.5,152.5 Z"/></g>
<g><path style="opacity:1" fill="#2b2a29" d="M 270.5,134.5 C 282.061,134.407 293.061,136.907 303.5,142C 295.773,142.012 288.106,141.179 280.5,139.5C 270.842,141.609 261.176,143.609 251.5,145.5C 251.5,142.833 251.5,140.167 251.5,137.5C 258.021,136.857 264.354,135.857 270.5,134.5 Z"/></g>
<g><path style="opacity:1" fill="#bf8b82" d="M 290.5,157.5 C 291.303,156.577 291.47,155.577 291,154.5C 279.82,145.894 267.987,144.561 255.5,150.5C 255.539,149.417 255.873,148.417 256.5,147.5C 262.618,145.976 268.785,144.643 275,143.5C 281.61,145.537 288.11,147.87 294.5,150.5C 295.5,152.5 296.5,154.5 297.5,156.5C 295.257,157.474 292.924,157.808 290.5,157.5 Z"/></g>
<g><path style="opacity:1" fill="#2b2a2a" d="M 222.5,154.5 C 220.198,152.344 217.531,150.677 214.5,149.5C 213.804,152.556 212.97,155.556 212,158.5C 203.261,162.191 199.428,159.191 200.5,149.5C 196.067,150.214 192.4,152.214 189.5,155.5C 187.801,155.66 186.134,155.494 184.5,155C 183.167,154 183.167,153 184.5,152C 195.098,143.841 206.432,142.508 218.5,148C 220.923,149.571 222.256,151.737 222.5,154.5 Z"/></g>
<g><path style="opacity:1" fill="#2c2b2a" d="M 290.5,157.5 C 288.833,157.5 287.167,157.5 285.5,157.5C 282.6,154.214 278.933,152.214 274.5,151.5C 274.663,153.857 274.497,156.19 274,158.5C 273.623,159.942 272.79,160.942 271.5,161.5C 269.621,162.341 267.621,162.675 265.5,162.5C 263.856,161.684 262.69,160.35 262,158.5C 260.976,150.389 257.81,150.056 252.5,157.5C 251.957,157.44 251.624,157.107 251.5,156.5C 252.5,154.187 253.834,152.187 255.5,150.5C 267.987,144.561 279.82,145.894 291,154.5C 291.47,155.577 291.303,156.577 290.5,157.5 Z"/></g>
<g><path style="opacity:1" fill="#f2f0ef" d="M 222.5,154.5 C 211.925,163.382 200.925,163.716 189.5,155.5C 192.4,152.214 196.067,150.214 200.5,149.5C 199.428,159.191 203.261,162.191 212,158.5C 212.97,155.556 213.804,152.556 214.5,149.5C 217.531,150.677 220.198,152.344 222.5,154.5 Z"/></g>
<g><path style="opacity:1" fill="#f4f2f2" d="M 265.5,162.5 C 260.588,162.206 256.255,160.539 252.5,157.5C 257.81,150.056 260.976,150.389 262,158.5C 262.69,160.35 263.856,161.684 265.5,162.5 Z"/></g>
<g><path style="opacity:1" fill="#f3f2f1" d="M 285.5,157.5 C 281.266,161.053 276.599,162.387 271.5,161.5C 272.79,160.942 273.623,159.942 274,158.5C 274.497,156.19 274.663,153.857 274.5,151.5C 278.933,152.214 282.6,154.214 285.5,157.5 Z"/></g>
<g><path style="opacity:1" fill="#262525" d="M 217.5,248.5 C 227.095,252.652 237.095,254.152 247.5,253C 254.34,249.75 260.673,245.75 266.5,241C 292.455,217.255 306.788,187.755 309.5,152.5C 310.825,151.047 311.658,151.381 312,153.5C 314.479,173.616 313.813,193.616 310,213.5C 308.06,219.987 305.727,226.321 303,232.5C 295.536,243.313 288.869,254.646 283,266.5C 279.61,275.854 278.777,285.187 280.5,294.5C 273.98,285.813 266.313,278.313 257.5,272C 244.268,263.888 230.935,256.055 217.5,248.5 Z"/></g>
<g><path style="opacity:1" fill="#fdfaf9" d="M 213.5,211.5 C 229.684,210.659 246.017,210.992 262.5,212.5C 254.855,219.488 245.855,223.488 235.5,224.5C 226.292,223.233 218.958,218.9 213.5,211.5 Z"/></g>
<g><path style="opacity:1" fill="#1b2122" d="M 124.5,272.5 C 161.386,298.108 201.386,317.608 244.5,331C 277.618,340.903 310.618,340.903 343.5,331C 306.683,355.964 266.349,364.297 222.5,356C 181.068,345.456 144.735,325.789 113.5,297C 111.393,295.736 110.393,293.903 110.5,291.5C 111.596,286.642 113.762,282.309 117,278.5C 119.106,275.882 121.606,273.882 124.5,272.5 Z"/></g>
<g><path style="opacity:1" fill="#3a4546" d="M 106.5,310.5 C 106.261,316.565 106.761,322.565 108,328.5C 116.614,353.119 132.447,371.619 155.5,384C 195.051,404.259 236.718,411.092 280.5,404.5C 308.442,402.087 333.109,392.087 354.5,374.5C 372.444,360.305 384.111,341.971 389.5,319.5C 399.511,323.839 409.511,328.173 419.5,332.5C 421.44,354.145 423.107,375.812 424.5,397.5C 424.198,400.059 424.532,402.393 425.5,404.5C 396.186,438.186 359.852,461.353 316.5,474C 231.556,496.177 155.889,478.843 89.5,422C 75.7878,409.134 63.7878,394.968 53.5,379.5C 55.5298,363.924 57.8631,348.258 60.5,332.5C 75.9491,325.353 91.2824,318.02 106.5,310.5 Z"/></g>
<g><path style="opacity:1" fill="#1b2122" d="M 354.5,374.5 C 333.109,392.087 308.442,402.087 280.5,404.5C 248.834,401.11 220.167,389.943 194.5,371C 215.167,378.163 236.5,382.83 258.5,385C 291.291,387.812 323.291,384.312 354.5,374.5 Z"/></g>
<g><path style="opacity:1" fill="#938329" d="M 424.5,397.5 C 425.167,399.5 425.833,401.5 426.5,403.5C 426.5,404.167 426.167,404.5 425.5,404.5C 424.532,402.393 424.198,400.059 424.5,397.5 Z"/></g>
</svg>
