<?xml version="1.0" encoding="UTF-8"?>
<!DOCTYPE svg PUBLIC "-//W3C//DTD SVG 1.1//EN" "http://www.w3.org/Graphics/SVG/1.1/DTD/svg11.dtd">
<svg xmlns="http://www.w3.org/2000/svg" version="1.1" width="500px" height="500px" style="shape-rendering:geometricPrecision; text-rendering:geometricPrecision; image-rendering:optimizeQuality; fill-rule:evenodd; clip-rule:evenodd" xmlns:xlink="http://www.w3.org/1999/xlink">
<g><path style="opacity:0.954" fill="#033067" d="M 499.5,226.5 C 499.5,241.5 499.5,256.5 499.5,271.5C 489.907,352.223 451.24,414.723 383.5,459C 311.522,501.255 236.189,508.255 157.5,480C 65.3241,440.498 12.6574,370.998 -0.5,271.5C -0.5,256.5 -0.5,241.5 -0.5,226.5C 9.09228,145.779 47.7589,83.2792 115.5,39C 187.475,-3.25514 262.808,-10.2551 341.5,18C 415.725,48.6118 465.225,102.112 490,178.5C 494.285,194.424 497.452,210.424 499.5,226.5 Z"/></g>
<g><path style="opacity:1" fill="#fdcc01" d="M 366.5,451.5 C 384.708,438.629 400.708,423.296 414.5,405.5C 408.043,401.401 401.043,398.568 393.5,397C 370.289,394.187 347.289,390.187 324.5,385C 319.67,383.412 315.004,381.579 310.5,379.5C 315.221,376.76 320.388,375.094 326,374.5C 332.648,374.893 339.148,376.06 345.5,378C 350.5,378.667 355.5,378.667 360.5,378C 363.242,376.93 365.742,375.43 368,373.5C 371.369,366.137 376.202,359.971 382.5,355C 389.321,352.943 396.321,351.943 403.5,352C 425.2,345.621 435.034,331.121 433,308.5C 430.223,301.732 429.223,294.732 430,287.5C 432.667,282.833 435.333,278.167 438,273.5C 438.667,269.5 438.667,265.5 438,261.5C 432.434,252.599 426.101,244.265 419,236.5C 415.769,229.85 414.769,222.85 416,215.5C 419.533,206.573 422.033,197.407 423.5,188C 422.94,176.21 417.94,166.877 408.5,160C 400.319,155.743 391.986,151.743 383.5,148C 379.084,145.588 375.251,142.422 372,138.5C 364.148,123.289 356.481,107.956 349,92.5C 341.665,84.4165 332.499,79.9165 321.5,79C 312.453,73.4764 303.12,68.4764 293.5,64C 280.679,60.4642 267.679,59.6309 254.5,61.5C 262.274,54.6158 266.274,45.9492 266.5,35.5C 242.38,28.6515 221.88,34.3182 205,52.5C 200.245,58.3444 197.411,65.011 196.5,72.5C 190.499,72.1676 185.166,73.8342 180.5,77.5C 155.576,69.656 133.742,74.9893 115,93.5C 109.865,103.23 105.698,113.397 102.5,124C 102.645,124.772 102.978,125.439 103.5,126C 110.5,126.667 117.5,126.667 124.5,126C 134.424,123.525 144.091,120.358 153.5,116.5C 149.481,123.694 144.481,130.194 138.5,136C 129.629,141.268 120.629,146.268 111.5,151C 87.321,173.603 82.821,199.769 98,229.5C 99.7669,237.352 98.1002,244.352 93,250.5C 88.4248,255.746 83.2581,260.246 77.5,264C 60.3566,280.492 55.8566,299.992 64,322.5C 67.1667,329.667 72.3333,334.833 79.5,338C 86.3816,339.738 93.0482,342.072 99.5,345C 101,346.5 102.5,348 104,349.5C 107.492,357.153 111.492,364.487 116,371.5C 122.866,378.432 131.2,382.098 141,382.5C 149.606,380.89 158.106,378.723 166.5,376C 177.274,374.397 186.941,376.897 195.5,383.5C 164.193,388.077 133.86,396.243 104.5,408C 98.5912,411.426 92.5912,414.592 86.5,417.5C 42.4732,375.431 18.3065,323.765 14,262.5C 12.2321,164.842 53.3987,91.6752 137.5,43C 208.01,8.11898 279.343,6.45231 351.5,38C 421.992,73.1699 465.492,129.337 482,206.5C 495.148,298.319 466.315,373.819 395.5,433C 386.454,440.187 376.788,446.353 366.5,451.5 Z"/></g>
<g><path style="opacity:1" fill="#fcbd79" d="M 254.5,61.5 C 252.353,63.4695 250.02,65.3029 247.5,67C 278.157,66.2195 305.491,75.2195 329.5,94C 344.983,110.468 354.483,129.968 358,152.5C 361.474,171.208 361.307,189.874 357.5,208.5C 357.185,194.186 357.018,179.852 357,165.5C 346.97,117.471 317.804,88.9708 269.5,80C 229.588,76.2148 197.421,90.0481 173,121.5C 156.512,146.717 150.179,174.383 154,204.5C 148.431,176.245 152.098,149.245 165,123.5C 170.231,116.654 174.898,109.654 179,102.5C 170.874,107.814 162.374,112.48 153.5,116.5C 144.091,120.358 134.424,123.525 124.5,126C 117.5,126.667 110.5,126.667 103.5,126C 102.978,125.439 102.645,124.772 102.5,124C 105.698,113.397 109.865,103.23 115,93.5C 133.742,74.9893 155.576,69.656 180.5,77.5C 179.559,79.0495 178.893,80.7162 178.5,82.5C 177.609,83.2613 176.942,84.2613 176.5,85.5C 162.508,87.7232 149.175,91.7232 136.5,97.5C 147.67,93.8333 159.004,90.6666 170.5,88C 172.5,87.3333 174.5,87.3333 176.5,88C 175.619,88.7083 174.953,89.5416 174.5,90.5C 175.869,93.8467 177.869,97.0134 180.5,100C 185.85,101.325 189.517,99.4918 191.5,94.5C 192.683,93.4955 194.016,92.6622 195.5,92C 192.124,84.7935 193.457,78.4601 199.5,73C 205.606,71.4131 210.772,72.9131 215,77.5C 215.483,78.448 215.649,79.448 215.5,80.5C 216.124,80.0831 216.457,79.4164 216.5,78.5C 215.935,76.5952 214.935,74.9285 213.5,73.5C 213.863,72.8165 214.196,72.1499 214.5,71.5C 212.863,72.2178 211.197,72.3845 209.5,72C 210.823,71.1841 211.489,70.0174 211.5,68.5C 210.185,69.4756 208.852,70.4756 207.5,71.5C 203.695,70.1889 200.028,70.5223 196.5,72.5C 197.411,65.011 200.245,58.3444 205,52.5C 221.88,34.3182 242.38,28.6515 266.5,35.5C 266.274,45.9492 262.274,54.6158 254.5,61.5 Z"/></g>
<g><path style="opacity:1" fill="#5d3825" d="M 235.5,45.5 C 236.552,45.3505 237.552,45.5172 238.5,46C 236.598,47.3011 234.598,47.9678 232.5,48C 233.571,47.1482 234.571,46.3149 235.5,45.5 Z"/></g>
<g><path style="opacity:1" fill="#643d29" d="M 224.5,54.5 C 225.562,52.2435 227.228,51.0768 229.5,51C 228.211,52.8022 226.544,53.9688 224.5,54.5 Z"/></g>
<g><path style="opacity:1" fill="#663f2a" d="M 237.5,55.5 C 239.127,53.3702 240.96,51.3702 243,49.5C 243.49,48.2068 243.657,46.8734 243.5,45.5C 242.127,45.6567 240.793,45.49 239.5,45C 245.12,43.6145 246.62,45.4478 244,50.5C 242.223,52.7899 240.056,54.4566 237.5,55.5 Z"/></g>
<g><path style="opacity:1" fill="#5c3725" d="M 224.5,54.5 C 222.167,57.5 219.5,60.1667 216.5,62.5C 218.167,58.8333 220.833,56.1667 224.5,54.5 Z"/></g>
<g><path style="opacity:1" fill="#623b28" d="M 237.5,55.5 C 233.348,60.3183 228.348,63.985 222.5,66.5C 227.214,62.4542 232.214,58.7875 237.5,55.5 Z"/></g>
<g><path style="opacity:1" fill="#d2532a" d="M 310.5,379.5 C 310.167,379.5 309.833,379.5 309.5,379.5C 305.086,376.576 301.92,372.576 300,367.5C 297.14,357.452 294.64,347.452 292.5,337.5C 292.747,334.061 292.414,330.728 291.5,327.5C 306.292,324.441 319.958,318.608 332.5,310C 342.006,301.809 348.006,291.642 350.5,279.5C 350.105,286.397 353.272,290.397 360,291.5C 366.108,290.893 369.275,287.56 369.5,281.5C 395.294,272.919 402.794,256.253 392,231.5C 384.809,222.818 375.642,218.985 364.5,220C 361.072,228.02 358.072,236.187 355.5,244.5C 355.167,245.5 354.5,246.167 353.5,246.5C 352.338,241.852 351.171,237.186 350,232.5C 350.026,211.538 349.692,190.538 349,169.5C 348.214,166.417 346.381,164.251 343.5,163C 339.943,161.592 336.276,160.592 332.5,160C 330.376,158.878 328.543,157.378 327,155.5C 325.18,149.616 323.847,143.616 323,137.5C 320.463,130.816 315.63,127.483 308.5,127.5C 301.916,128.416 295.583,130.249 289.5,133C 278.893,135.929 270.393,133.096 264,124.5C 261.486,117.449 258.82,110.449 256,103.5C 251.827,99.8086 246.993,98.6419 241.5,100C 235.779,103.527 229.779,106.527 223.5,109C 218.97,109.947 214.636,109.447 210.5,107.5C 209.682,110.107 209.182,112.774 209,115.5C 206.667,119.167 204.333,122.833 202,126.5C 206.979,144.901 200.812,158.068 183.5,166C 179.896,168.708 177.396,172.208 176,176.5C 174.086,192.316 171.42,207.983 168,223.5C 167.036,230.063 164.703,236.063 161,241.5C 159.012,235.217 157.179,228.884 155.5,222.5C 141.237,217.029 129.737,220.696 121,233.5C 112.696,254.383 118.529,269.883 138.5,280C 140.436,280.813 142.436,281.313 144.5,281.5C 144.232,283.099 144.566,284.432 145.5,285.5C 146.707,290.37 149.874,293.037 155,293.5C 159.215,292.78 162.049,290.447 163.5,286.5C 166.2,293.061 169.033,299.728 172,306.5C 179.986,316.917 190.486,323.417 203.5,326C 213.224,328.118 222.891,329.618 232.5,330.5C 231.793,333.786 231.46,337.119 231.5,340.5C 230.716,351.776 228.549,362.776 225,373.5C 223.448,377.565 220.615,379.898 216.5,380.5C 209.411,380.959 202.411,381.959 195.5,383.5C 186.941,376.897 177.274,374.397 166.5,376C 158.106,378.723 149.606,380.89 141,382.5C 131.2,382.098 122.866,378.432 116,371.5C 111.492,364.487 107.492,357.153 104,349.5C 102.5,348 101,346.5 99.5,345C 93.0482,342.072 86.3816,339.738 79.5,338C 72.3333,334.833 67.1667,329.667 64,322.5C 55.8566,299.992 60.3566,280.492 77.5,264C 83.2581,260.246 88.4248,255.746 93,250.5C 98.1002,244.352 99.7669,237.352 98,229.5C 82.821,199.769 87.321,173.603 111.5,151C 120.629,146.268 129.629,141.268 138.5,136C 144.481,130.194 149.481,123.694 153.5,116.5C 162.374,112.48 170.874,107.814 179,102.5C 174.898,109.654 170.231,116.654 165,123.5C 152.098,149.245 148.431,176.245 154,204.5C 150.179,174.383 156.512,146.717 173,121.5C 197.421,90.0481 229.588,76.2148 269.5,80C 317.804,88.9708 346.97,117.471 357,165.5C 357.018,179.852 357.185,194.186 357.5,208.5C 361.307,189.874 361.474,171.208 358,152.5C 354.483,129.968 344.983,110.468 329.5,94C 305.491,75.2195 278.157,66.2195 247.5,67C 250.02,65.3029 252.353,63.4695 254.5,61.5C 267.679,59.6309 280.679,60.4642 293.5,64C 303.12,68.4764 312.453,73.4764 321.5,79C 332.499,79.9165 341.665,84.4165 349,92.5C 356.481,107.956 364.148,123.289 372,138.5C 375.251,142.422 379.084,145.588 383.5,148C 391.986,151.743 400.319,155.743 408.5,160C 417.94,166.877 422.94,176.21 423.5,188C 422.033,197.407 419.533,206.573 416,215.5C 414.769,222.85 415.769,229.85 419,236.5C 426.101,244.265 432.434,252.599 438,261.5C 438.667,265.5 438.667,269.5 438,273.5C 435.333,278.167 432.667,282.833 430,287.5C 429.223,294.732 430.223,301.732 433,308.5C 435.034,331.121 425.2,345.621 403.5,352C 396.321,351.943 389.321,352.943 382.5,355C 376.202,359.971 371.369,366.137 368,373.5C 365.742,375.43 363.242,376.93 360.5,378C 355.5,378.667 350.5,378.667 345.5,378C 339.148,376.06 332.648,374.893 326,374.5C 320.388,375.094 315.221,376.76 310.5,379.5 Z"/></g>
<g><path style="opacity:1" fill="#643d29" d="M 216.5,62.5 C 215.581,65.0892 213.914,67.0892 211.5,68.5C 212.419,65.9108 214.086,63.9108 216.5,62.5 Z"/></g>
<g><path style="opacity:1" fill="#603a27" d="M 222.5,66.5 C 220.371,68.9501 217.704,70.6167 214.5,71.5C 216.629,69.0499 219.296,67.3833 222.5,66.5 Z"/></g>
<g><path style="opacity:1" fill="#684128" d="M 211.5,68.5 C 211.489,70.0174 210.823,71.1841 209.5,72C 211.197,72.3845 212.863,72.2178 214.5,71.5C 214.196,72.1499 213.863,72.8165 213.5,73.5C 214.935,74.9285 215.935,76.5952 216.5,78.5C 216.457,79.4164 216.124,80.0831 215.5,80.5C 215.649,79.448 215.483,78.448 215,77.5C 210.772,72.9131 205.606,71.4131 199.5,73C 193.457,78.4601 192.124,84.7935 195.5,92C 194.016,92.6622 192.683,93.4955 191.5,94.5C 192.228,89.5488 192.728,84.5488 193,79.5C 193.707,77.9194 194.54,76.4194 195.5,75C 188.089,73.7416 182.422,76.2416 178.5,82.5C 178.893,80.7162 179.559,79.0495 180.5,77.5C 185.166,73.8342 190.499,72.1676 196.5,72.5C 200.028,70.5223 203.695,70.1889 207.5,71.5C 208.852,70.4756 210.185,69.4756 211.5,68.5 Z"/></g>
<g><path style="opacity:1" fill="#fabb79" d="M 191.5,94.5 C 189.66,96.168 187.66,97.668 185.5,99C 181.82,99.6816 179.32,98.1816 178,94.5C 177.393,90.4631 177.56,86.4631 178.5,82.5C 182.422,76.2416 188.089,73.7416 195.5,75C 194.54,76.4194 193.707,77.9194 193,79.5C 192.728,84.5488 192.228,89.5488 191.5,94.5 Z"/></g>
<g><path style="opacity:1" fill="#643d29" d="M 215.5,80.5 C 213.215,83.4518 210.548,86.1185 207.5,88.5C 209.145,84.855 211.812,82.1884 215.5,80.5 Z"/></g>
<g><path style="opacity:1" fill="#603927" d="M 207.5,88.5 C 205.948,91.2762 203.614,92.4428 200.5,92C 202.886,90.8068 205.22,89.6401 207.5,88.5 Z"/></g>
<g><path style="opacity:1" fill="#643d29" d="M 174.5,90.5 C 169.086,94.5404 163.086,97.5404 156.5,99.5C 162.182,95.9922 168.182,92.9922 174.5,90.5 Z"/></g>
<g><path style="opacity:1" fill="#5e3826" d="M 178.5,82.5 C 177.56,86.4631 177.393,90.4631 178,94.5C 179.32,98.1816 181.82,99.6816 185.5,99C 187.66,97.668 189.66,96.168 191.5,94.5C 189.517,99.4918 185.85,101.325 180.5,100C 177.869,97.0134 175.869,93.8467 174.5,90.5C 174.953,89.5416 175.619,88.7083 176.5,88C 174.5,87.3333 172.5,87.3333 170.5,88C 159.004,90.6666 147.67,93.8333 136.5,97.5C 149.175,91.7232 162.508,87.7232 176.5,85.5C 176.942,84.2613 177.609,83.2613 178.5,82.5 Z"/></g>
<g><path style="opacity:1" fill="#623b28" d="M 136.5,97.5 C 134.967,99.2451 132.967,100.245 130.5,100.5C 131.911,98.461 133.911,97.461 136.5,97.5 Z"/></g>
<g><path style="opacity:1" fill="#fe8375" d="M 353.5,246.5 C 353.351,247.552 353.517,248.552 354,249.5C 364.104,240.198 375.937,234.198 389.5,231.5C 383.962,230.499 378.629,231.332 373.5,234C 366.98,236.755 360.98,240.255 355.5,244.5C 358.072,236.187 361.072,228.02 364.5,220C 375.642,218.985 384.809,222.818 392,231.5C 402.794,256.253 395.294,272.919 369.5,281.5C 368.072,273.601 363.405,270.767 355.5,273C 353.235,274.758 351.568,276.925 350.5,279.5C 348.006,291.642 342.006,301.809 332.5,310C 319.958,318.608 306.292,324.441 291.5,327.5C 271.899,329.686 252.232,330.686 232.5,330.5C 222.891,329.618 213.224,328.118 203.5,326C 190.486,323.417 179.986,316.917 172,306.5C 169.033,299.728 166.2,293.061 163.5,286.5C 165.042,279.508 162.209,275.175 155,273.5C 147.914,274.417 144.748,278.417 145.5,285.5C 144.566,284.432 144.232,283.099 144.5,281.5C 142.436,281.313 140.436,280.813 138.5,280C 118.529,269.883 112.696,254.383 121,233.5C 129.737,220.696 141.237,217.029 155.5,222.5C 157.179,228.884 159.012,235.217 161,241.5C 164.703,236.063 167.036,230.063 168,223.5C 171.42,207.983 174.086,192.316 176,176.5C 177.396,172.208 179.896,168.708 183.5,166C 200.812,158.068 206.979,144.901 202,126.5C 204.333,122.833 206.667,119.167 209,115.5C 209.182,112.774 209.682,110.107 210.5,107.5C 214.636,109.447 218.97,109.947 223.5,109C 229.779,106.527 235.779,103.527 241.5,100C 246.993,98.6419 251.827,99.8086 256,103.5C 258.82,110.449 261.486,117.449 264,124.5C 270.393,133.096 278.893,135.929 289.5,133C 295.583,130.249 301.916,128.416 308.5,127.5C 315.63,127.483 320.463,130.816 323,137.5C 323.847,143.616 325.18,149.616 327,155.5C 328.543,157.378 330.376,158.878 332.5,160C 336.276,160.592 339.943,161.592 343.5,163C 346.381,164.251 348.214,166.417 349,169.5C 349.692,190.538 350.026,211.538 350,232.5C 351.171,237.186 352.338,241.852 353.5,246.5 Z"/></g>
<g><path style="opacity:1" fill="#613b27" d="M 156.5,99.5 C 153.912,101.625 150.912,102.958 147.5,103.5C 150.088,101.375 153.088,100.042 156.5,99.5 Z"/></g>
<g><path style="opacity:1" fill="#633c28" d="M 130.5,100.5 C 129.426,101.885 128.093,103.051 126.5,104C 125.833,104.667 125.167,104.667 124.5,104C 126.063,102.053 128.063,100.886 130.5,100.5 Z"/></g>
<g><path style="opacity:1" fill="#5e3826" d="M 147.5,103.5 C 139.603,108.612 130.936,111.112 121.5,111C 125.219,110.612 128.886,109.945 132.5,109C 137.343,106.664 142.343,104.831 147.5,103.5 Z"/></g>
<g><path style="opacity:1" fill="#d2542b" d="M 294.5,177.5 C 309.808,175.546 322.808,180.046 333.5,191C 326.768,192.13 319.935,192.63 313,192.5C 305.758,192.612 298.591,192.112 291.5,191C 287.787,189.309 286.621,186.475 288,182.5C 289.965,180.45 292.132,178.783 294.5,177.5 Z"/></g>
<g><path style="opacity:1" fill="#d3542c" d="M 202.5,178.5 C 209.241,178.171 215.908,178.671 222.5,180C 226.665,181.483 228.165,184.316 227,188.5C 224.97,190.737 222.47,192.237 219.5,193C 207.167,193.667 194.833,193.667 182.5,193C 182.043,192.586 181.709,192.086 181.5,191.5C 187.786,185.854 194.786,181.52 202.5,178.5 Z"/></g>
<g><path style="opacity:1" fill="#361611" d="M 300.5,202.5 C 314.944,202.09 318.944,208.257 312.5,221C 304.564,225.635 298.73,223.802 295,215.5C 294.093,209.983 295.926,205.65 300.5,202.5 Z"/></g>
<g><path style="opacity:1" fill="#361511" d="M 205.5,204.5 C 216.486,203.653 220.986,208.653 219,219.5C 213.07,227.013 206.736,227.346 200,220.5C 197.024,213.462 198.857,208.129 205.5,204.5 Z"/></g>
<g><path style="opacity:1" fill="#48201a" d="M 126.5,228.5 C 138.694,230.513 149.194,235.847 158,244.5C 158.667,245.833 158.667,247.167 158,248.5C 154.088,243.917 149.588,240.083 144.5,237C 138.16,234.412 132.16,231.579 126.5,228.5 Z"/></g>
<g><path style="opacity:1" fill="#451e18" d="M 353.5,246.5 C 354.5,246.167 355.167,245.5 355.5,244.5C 360.98,240.255 366.98,236.755 373.5,234C 378.629,231.332 383.962,230.499 389.5,231.5C 375.937,234.198 364.104,240.198 354,249.5C 353.517,248.552 353.351,247.552 353.5,246.5 Z"/></g>
<g><path style="opacity:1" fill="#4e231d" d="M 272.5,197.5 C 274.117,199.121 275.284,201.121 276,203.5C 280.916,217.075 282.916,231.075 282,245.5C 279.834,247.121 277.334,247.955 274.5,248C 273.016,249.574 271.349,250.907 269.5,252C 262.499,251.216 255.499,250.882 248.5,251C 246.152,249.312 245.985,247.478 248,245.5C 248.309,246.766 248.809,247.933 249.5,249C 254.844,249.39 260.178,249.89 265.5,250.5C 270.204,247.575 275.371,245.575 281,244.5C 281.632,238.786 281.299,233.119 280,227.5C 277.945,217.393 275.445,207.393 272.5,197.5 Z"/></g>
<g><path style="opacity:1" fill="#ff605f" d="M 259.5,260.5 C 269.202,260.425 278.535,262.258 287.5,266C 291.167,266.333 294.833,266.667 298.5,267C 278.132,272.591 257.466,273.924 236.5,271C 234.616,270.784 232.949,270.117 231.5,269C 241.373,267.651 250.706,264.818 259.5,260.5 Z"/></g>
<g><path style="opacity:1" fill="#fefbfa" d="M 369.5,281.5 C 369.275,287.56 366.108,290.893 360,291.5C 353.272,290.397 350.105,286.397 350.5,279.5C 351.568,276.925 353.235,274.758 355.5,273C 363.405,270.767 368.072,273.601 369.5,281.5 Z"/></g>
<g><path style="opacity:1" fill="#fef9f7" d="M 163.5,286.5 C 162.049,290.447 159.215,292.78 155,293.5C 149.874,293.037 146.707,290.37 145.5,285.5C 144.748,278.417 147.914,274.417 155,273.5C 162.209,275.175 165.042,279.508 163.5,286.5 Z"/></g>
<g><path style="opacity:1" fill="#a25147" d="M 291.5,327.5 C 292.414,330.728 292.747,334.061 292.5,337.5C 279.965,351.579 264.632,355.746 246.5,350C 241.134,347.322 236.134,344.156 231.5,340.5C 231.46,337.119 231.793,333.786 232.5,330.5C 252.232,330.686 271.899,329.686 291.5,327.5 Z"/></g>
<g><path style="opacity:1" fill="#fd8375" d="M 292.5,337.5 C 294.64,347.452 297.14,357.452 300,367.5C 301.92,372.576 305.086,376.576 309.5,379.5C 295.084,403.427 279.25,426.427 262,448.5C 245.802,426.479 230.635,403.812 216.5,380.5C 220.615,379.898 223.448,377.565 225,373.5C 228.549,362.776 230.716,351.776 231.5,340.5C 236.134,344.156 241.134,347.322 246.5,350C 264.632,355.746 279.965,351.579 292.5,337.5 Z"/></g>
<g><path style="opacity:1" fill="#33140f" d="M 309.5,379.5 C 309.833,379.5 310.167,379.5 310.5,379.5C 315.004,381.579 319.67,383.412 324.5,385C 347.289,390.187 370.289,394.187 393.5,397C 401.043,398.568 408.043,401.401 414.5,405.5C 400.708,423.296 384.708,438.629 366.5,451.5C 302.836,492.535 235.17,500.369 163.5,475C 133.501,462.753 107.334,444.92 85,421.5C 84.7003,419.934 85.2003,418.601 86.5,417.5C 92.5912,414.592 98.5912,411.426 104.5,408C 133.86,396.243 164.193,388.077 195.5,383.5C 202.411,381.959 209.411,380.959 216.5,380.5C 230.635,403.812 245.802,426.479 262,448.5C 279.25,426.427 295.084,403.427 309.5,379.5 Z"/></g>
</svg>
