<?xml version="1.0" encoding="UTF-8"?>
<!DOCTYPE svg PUBLIC "-//W3C//DTD SVG 1.1//EN" "http://www.w3.org/Graphics/SVG/1.1/DTD/svg11.dtd">
<svg xmlns="http://www.w3.org/2000/svg" version="1.1" width="500px" height="500px" style="shape-rendering:geometricPrecision; text-rendering:geometricPrecision; image-rendering:optimizeQuality; fill-rule:evenodd; clip-rule:evenodd" xmlns:xlink="http://www.w3.org/1999/xlink">
<g><path style="opacity:0.958" fill="#023067" d="M 499.5,226.5 C 499.5,241.5 499.5,256.5 499.5,271.5C 489.907,352.223 451.24,414.723 383.5,459C 311.522,501.255 236.189,508.255 157.5,480C 65.3241,440.498 12.6574,370.998 -0.5,271.5C -0.5,256.5 -0.5,241.5 -0.5,226.5C 9.09228,145.779 47.7589,83.2792 115.5,39C 187.475,-3.25514 262.808,-10.2551 341.5,18C 415.725,48.6118 465.225,102.112 490,178.5C 494.285,194.424 497.452,210.424 499.5,226.5 Z"/></g>
<g><path style="opacity:1" fill="#fecc02" d="M 458.5,358.5 C 454.416,354.24 450.416,349.74 446.5,345C 435.334,335.686 423.001,328.186 409.5,322.5C 405.883,304.413 401.883,286.413 397.5,268.5C 397.418,260.675 396.251,253.008 394,245.5C 380.328,200.318 366.161,155.318 351.5,110.5C 361.402,107.287 364.235,100.953 360,91.5C 357.321,88.0766 353.821,86.0766 349.5,85.5C 352.161,80.4685 352.161,75.4685 349.5,70.5C 344.695,65.1444 339.028,64.1444 332.5,67.5C 312.015,42.2057 285.682,26.7057 253.5,21C 220.675,19.2748 191.841,29.1082 167,50.5C 162.422,55.3334 158.588,60.6667 155.5,66.5C 149.137,64.2188 143.804,65.5522 139.5,70.5C 136.84,75.4685 136.84,80.4685 139.5,85.5C 126.75,89.3496 124.083,96.8496 131.5,108C 134.891,110.186 138.558,111.686 142.5,112.5C 139.81,141.877 136.643,171.211 133,200.5C 132.17,225.67 132.337,250.67 133.5,275.5C 137.5,281.833 141.5,288.167 145.5,294.5C 120.041,303.896 95.0409,314.396 70.5,326C 58.3063,334.361 47.9729,344.528 39.5,356.5C 10.8868,298.139 6.05345,237.806 25,175.5C 54.0781,97.4222 108.578,46.5889 188.5,23C 258.851,6.09449 324.184,17.4278 384.5,57C 466.181,118.252 498.014,199.418 480,300.5C 475.294,320.788 468.128,340.122 458.5,358.5 Z"/></g>
<g><path style="opacity:1" fill="#cedce0" d="M 332.5,67.5 C 273.251,85.1519 214.251,84.8186 155.5,66.5C 158.588,60.6667 162.422,55.3334 167,50.5C 191.841,29.1082 220.675,19.2748 253.5,21C 285.682,26.7057 312.015,42.2057 332.5,67.5 Z"/></g>
<g><path style="opacity:1" fill="#2c2c2c" d="M 155.5,66.5 C 214.251,84.8186 273.251,85.1519 332.5,67.5C 339.028,64.1444 344.695,65.1444 349.5,70.5C 345.4,73.7087 340.733,75.8754 335.5,77C 271.528,94.5044 207.861,93.5044 144.5,74C 142.677,73.0027 141.01,71.8361 139.5,70.5C 143.804,65.5522 149.137,64.2188 155.5,66.5 Z"/></g>
<g><path style="opacity:1" fill="#262626" d="M 139.5,70.5 C 141.01,71.8361 142.677,73.0027 144.5,74C 207.861,93.5044 271.528,94.5044 335.5,77C 340.733,75.8754 345.4,73.7087 349.5,70.5C 352.161,75.4685 352.161,80.4685 349.5,85.5C 353.821,86.0766 357.321,88.0766 360,91.5C 364.235,100.953 361.402,107.287 351.5,110.5C 335.58,114.948 319.58,118.615 303.5,121.5C 274.944,124.89 246.278,126.224 217.5,125.5C 192.251,123.28 167.251,118.947 142.5,112.5C 138.558,111.686 134.891,110.186 131.5,108C 124.083,96.8496 126.75,89.3496 139.5,85.5C 136.84,80.4685 136.84,75.4685 139.5,70.5 Z"/></g>
<g><path style="opacity:1" fill="#cedcdf" d="M 351.5,110.5 C 366.161,155.318 380.328,200.318 394,245.5C 396.251,253.008 397.418,260.675 397.5,268.5C 378.334,236.83 358.667,205.496 338.5,174.5C 335.664,168.822 332.331,163.489 328.5,158.5C 326.316,154.119 323.65,150.119 320.5,146.5C 315.572,137.639 309.906,129.305 303.5,121.5C 319.58,118.615 335.58,114.948 351.5,110.5 Z"/></g>
<g><path style="opacity:1" fill="#cedadb" d="M 142.5,112.5 C 167.251,118.947 192.251,123.28 217.5,125.5C 203.163,125.667 188.829,125.5 174.5,125C 172.153,124.564 169.819,124.064 167.5,123.5C 166.584,123.543 165.917,123.876 165.5,124.5C 159.082,135.08 154.416,146.414 151.5,158.5C 149.898,162.239 148.898,166.239 148.5,170.5C 141.996,205.154 136.996,240.154 133.5,275.5C 132.337,250.67 132.17,225.67 133,200.5C 136.643,171.211 139.81,141.877 142.5,112.5 Z"/></g>
<g><path style="opacity:1" fill="#dfada1" d="M 303.5,121.5 C 309.906,129.305 315.572,137.639 320.5,146.5C 320.666,152.176 320.499,157.843 320,163.5C 315.667,182.833 311.333,202.167 307,221.5C 300.051,231.451 292.717,241.117 285,250.5C 280.833,243.667 276.667,236.833 272.5,230C 258.142,223.217 243.142,221.55 227.5,225C 222.85,226.331 218.183,227.665 213.5,229C 209,236.167 204.5,243.333 200,250.5C 192.667,241.167 185.333,231.833 178,222.5C 172.875,197.921 167.375,173.421 161.5,149C 162.913,141.267 164.58,133.6 166.5,126C 166.43,125.235 166.097,124.735 165.5,124.5C 165.917,123.876 166.584,123.543 167.5,123.5C 169.819,124.064 172.153,124.564 174.5,125C 188.829,125.5 203.163,125.667 217.5,125.5C 246.278,126.224 274.944,124.89 303.5,121.5 Z"/></g>
<g><path style="opacity:1" fill="#282727" d="M 165.5,124.5 C 166.097,124.735 166.43,125.235 166.5,126C 164.58,133.6 162.913,141.267 161.5,149C 167.375,173.421 172.875,197.921 178,222.5C 185.333,231.833 192.667,241.167 200,250.5C 204.5,243.333 209,236.167 213.5,229C 218.183,227.665 222.85,226.331 227.5,225C 243.142,221.55 258.142,223.217 272.5,230C 276.667,236.833 280.833,243.667 285,250.5C 292.717,241.117 300.051,231.451 307,221.5C 311.333,202.167 315.667,182.833 320,163.5C 320.499,157.843 320.666,152.176 320.5,146.5C 323.65,150.119 326.316,154.119 328.5,158.5C 328.909,162.848 329.076,167.181 329,171.5C 325.162,186.185 321.329,200.852 317.5,215.5C 312.264,226.312 307.264,237.312 302.5,248.5C 300.08,252.568 297.746,256.735 295.5,261C 283.879,269.619 272.545,278.619 261.5,288C 259.414,288.315 257.414,288.815 255.5,289.5C 251.022,289.862 246.688,290.862 242.5,292.5C 236.86,291.272 231.194,290.105 225.5,289C 212.025,278.95 199.025,268.45 186.5,257.5C 180.344,242.527 173.677,227.86 166.5,213.5C 162.28,194.952 157.28,176.619 151.5,158.5C 154.416,146.414 159.082,135.08 165.5,124.5 Z"/></g>
<g><path style="opacity:1" fill="#282727" d="M 197.5,143.5 C 209.833,144.167 222.167,144.833 234.5,145.5C 234.5,149.5 234.5,153.5 234.5,157.5C 215.547,155.423 196.547,153.923 177.5,153C 184.312,149.909 190.979,146.742 197.5,143.5 Z"/></g>
<g><path style="opacity:1" fill="#292827" d="M 277.5,145.5 C 282.844,145.334 288.177,145.501 293.5,146C 300.167,149 306.833,152 313.5,155C 294.403,155.443 275.403,156.943 256.5,159.5C 256.5,155.5 256.5,151.5 256.5,147.5C 263.711,147.542 270.711,146.875 277.5,145.5 Z"/></g>
<g><path style="opacity:1" fill="#dbaa9f" d="M 151.5,158.5 C 157.28,176.619 162.28,194.952 166.5,213.5C 157.006,207.856 151.506,199.523 150,188.5C 148.928,182.545 148.428,176.545 148.5,170.5C 148.898,166.239 149.898,162.239 151.5,158.5 Z"/></g>
<g><path style="opacity:1" fill="#dbaa9f" d="M 328.5,158.5 C 332.331,163.489 335.664,168.822 338.5,174.5C 339.996,192.771 332.996,206.437 317.5,215.5C 321.329,200.852 325.162,186.185 329,171.5C 329.076,167.181 328.909,162.848 328.5,158.5 Z"/></g>
<g><path style="opacity:1" fill="#292828" d="M 200.5,164.5 C 204.514,164.334 208.514,164.501 212.5,165C 215.747,171.338 213.747,175.171 206.5,176.5C 200.251,174.668 198.251,170.668 200.5,164.5 Z"/></g>
<g><path style="opacity:1" fill="#282727" d="M 272.5,165.5 C 276.514,165.334 280.514,165.501 284.5,166C 287.131,172.21 285.131,176.044 278.5,177.5C 271.789,175.867 269.789,171.867 272.5,165.5 Z"/></g>
<g><path style="opacity:1" fill="#a9b6bb" d="M 338.5,174.5 C 358.667,205.496 378.334,236.83 397.5,268.5C 401.883,286.413 405.883,304.413 409.5,322.5C 388.994,314.956 367.994,309.123 346.5,305C 330.708,298.675 316.042,290.508 302.5,280.5C 302.5,269.833 302.5,259.167 302.5,248.5C 307.264,237.312 312.264,226.312 317.5,215.5C 332.996,206.437 339.996,192.771 338.5,174.5 Z"/></g>
<g><path style="opacity:1" fill="#a9b5bb" d="M 148.5,170.5 C 148.428,176.545 148.928,182.545 150,188.5C 151.506,199.523 157.006,207.856 166.5,213.5C 173.677,227.86 180.344,242.527 186.5,257.5C 186.403,266.612 185.403,275.612 183.5,284.5C 170.66,287.21 157.994,290.543 145.5,294.5C 141.5,288.167 137.5,281.833 133.5,275.5C 136.996,240.154 141.996,205.154 148.5,170.5 Z"/></g>
<g><path style="opacity:1" fill="#c19089" d="M 268.5,241.5 C 251.405,244.443 234.405,244.11 217.5,240.5C 225.358,237.952 233.525,236.285 242,235.5C 251.207,236.389 260.04,238.389 268.5,241.5 Z"/></g>
<g><path style="opacity:1" fill="#dcaa9f" d="M 217.5,240.5 C 234.405,244.11 251.405,244.443 268.5,241.5C 273.146,245.479 277.479,249.812 281.5,254.5C 277.409,260.347 273.076,266.013 268.5,271.5C 260.2,272.997 251.866,273.83 243.5,274C 249.667,266.5 255.833,259 262,251.5C 262.688,250.668 262.521,250.002 261.5,249.5C 249.168,253.463 236.834,253.463 224.5,249.5C 224.167,249.833 223.833,250.167 223.5,250.5C 229.595,258.351 235.928,266.018 242.5,273.5C 233.804,273.999 225.137,273.333 216.5,271.5C 212.142,266.31 207.976,260.977 204,255.5C 207.477,249.842 211.977,244.842 217.5,240.5 Z"/></g>
<g><path style="opacity:1" fill="#cd9e94" d="M 302.5,248.5 C 302.5,259.167 302.5,269.833 302.5,280.5C 300.259,287.787 295.925,293.62 289.5,298C 279.352,304.216 268.352,307.716 256.5,308.5C 245.136,308.743 233.802,308.41 222.5,307.5C 220.5,306.5 218.5,305.5 216.5,304.5C 230.905,302.815 243.905,297.815 255.5,289.5C 257.414,288.815 259.414,288.315 261.5,288C 272.545,278.619 283.879,269.619 295.5,261C 297.746,256.735 300.08,252.568 302.5,248.5 Z"/></g>
<g><path style="opacity:1" fill="#c2918a" d="M 186.5,257.5 C 199.025,268.45 212.025,278.95 225.5,289C 231.194,290.105 236.86,291.272 242.5,292.5C 246.688,290.862 251.022,289.862 255.5,289.5C 243.905,297.815 230.905,302.815 216.5,304.5C 204.408,299.621 193.408,292.954 183.5,284.5C 185.403,275.612 186.403,266.612 186.5,257.5 Z"/></g>
<g><path style="opacity:1" fill="#c3d1d8" d="M 302.5,280.5 C 316.042,290.508 330.708,298.675 346.5,305C 367.994,309.123 388.994,314.956 409.5,322.5C 423.001,328.186 435.334,335.686 446.5,345C 450.416,349.74 454.416,354.24 458.5,358.5C 412.926,436.813 344.593,478.147 253.5,482.5C 253.941,463.502 254.274,444.502 254.5,425.5C 247.167,425.5 239.833,425.5 232.5,425.5C 232.5,427.5 232.5,429.5 232.5,431.5C 231.532,429.393 231.198,427.059 231.5,424.5C 241.167,424.5 250.833,424.5 260.5,424.5C 260.5,423.5 260.5,422.5 260.5,421.5C 249.5,421.5 238.5,421.5 227.5,421.5C 227.5,416.833 227.5,412.167 227.5,407.5C 238.5,407.5 249.5,407.5 260.5,407.5C 260.715,405.821 260.048,404.821 258.5,404.5C 261.285,372.917 263.619,341.251 265.5,309.5C 262.287,309.81 259.287,309.477 256.5,308.5C 268.352,307.716 279.352,304.216 289.5,298C 295.925,293.62 300.259,287.787 302.5,280.5 Z"/></g>
<g><path style="opacity:1" fill="#b5c5ce" d="M 183.5,284.5 C 193.408,292.954 204.408,299.621 216.5,304.5C 218.5,305.5 220.5,306.5 222.5,307.5C 224.749,339.616 227.082,371.949 229.5,404.5C 239.167,404.5 248.833,404.5 258.5,404.5C 260.048,404.821 260.715,405.821 260.5,407.5C 249.5,407.5 238.5,407.5 227.5,407.5C 227.5,412.167 227.5,416.833 227.5,421.5C 238.5,421.5 249.5,421.5 260.5,421.5C 260.5,422.5 260.5,423.5 260.5,424.5C 250.833,424.5 241.167,424.5 231.5,424.5C 231.198,427.059 231.532,429.393 232.5,431.5C 233.622,448.146 234.288,464.813 234.5,481.5C 235.791,481.263 236.791,481.596 237.5,482.5C 148.996,475.28 82.9955,433.28 39.5,356.5C 47.9729,344.528 58.3063,334.361 70.5,326C 95.0409,314.396 120.041,303.896 145.5,294.5C 157.994,290.543 170.66,287.21 183.5,284.5 Z"/></g>
<g><path style="opacity:1" fill="#cedce0" d="M 222.5,307.5 C 233.802,308.41 245.136,308.743 256.5,308.5C 259.287,309.477 262.287,309.81 265.5,309.5C 263.619,341.251 261.285,372.917 258.5,404.5C 248.833,404.5 239.167,404.5 229.5,404.5C 227.082,371.949 224.749,339.616 222.5,307.5 Z"/></g>
<g><path style="opacity:1" fill="#cedce0" d="M 253.5,482.5 C 248.167,482.5 242.833,482.5 237.5,482.5C 236.791,481.596 235.791,481.263 234.5,481.5C 234.288,464.813 233.622,448.146 232.5,431.5C 232.5,429.5 232.5,427.5 232.5,425.5C 239.833,425.5 247.167,425.5 254.5,425.5C 254.274,444.502 253.941,463.502 253.5,482.5 Z"/></g>
</svg>
