<?xml version="1.0" encoding="UTF-8"?>
<!DOCTYPE svg PUBLIC "-//W3C//DTD SVG 1.1//EN" "http://www.w3.org/Graphics/SVG/1.1/DTD/svg11.dtd">
<svg xmlns="http://www.w3.org/2000/svg" version="1.1" width="500px" height="500px" style="shape-rendering:geometricPrecision; text-rendering:geometricPrecision; image-rendering:optimizeQuality; fill-rule:evenodd; clip-rule:evenodd" xmlns:xlink="http://www.w3.org/1999/xlink">
<g><path style="opacity:0.957" fill="#033067" d="M 499.5,226.5 C 499.5,241.5 499.5,256.5 499.5,271.5C 489.907,352.223 451.24,414.723 383.5,459C 311.522,501.255 236.189,508.255 157.5,480C 65.3241,440.498 12.6574,370.998 -0.5,271.5C -0.5,256.5 -0.5,241.5 -0.5,226.5C 9.09228,145.779 47.7589,83.2792 115.5,39C 187.475,-3.25514 262.808,-10.2551 341.5,18C 415.725,48.6118 465.225,102.112 490,178.5C 494.285,194.424 497.452,210.424 499.5,226.5 Z"/></g>
<g><path style="opacity:1" fill="#fecc01" d="M 353.5,458.5 C 393.809,435.354 423.476,402.52 442.5,360C 435.916,339.659 426.083,321.159 413,304.5C 401.859,293.27 390.526,282.27 379,271.5C 373.727,264.357 370.393,256.357 369,247.5C 367.194,217.968 361.36,189.302 351.5,161.5C 350.345,158.672 349.011,156.005 347.5,153.5C 346.674,150.515 345.341,147.849 343.5,145.5C 338.215,132.55 330.548,121.216 320.5,111.5C 304.81,91.2412 283.977,81.2412 258,81.5C 212.826,73.9251 179.159,89.9251 157,129.5C 153.606,135.619 150.772,141.952 148.5,148.5C 140.406,157.594 133.073,167.26 126.5,177.5C 124.147,179.86 122.147,182.527 120.5,185.5C 119.512,186.795 118.512,188.128 117.5,189.5C 100.517,213.606 89.6832,240.272 85,269.5C 83.2949,286.509 84.9616,303.176 90,319.5C 91.4559,327.045 90.1226,334.045 86,340.5C 76.1051,350.637 67.9384,361.971 61.5,374.5C 73.1791,397.291 88.8458,417.124 108.5,434C 113.647,437.32 118.314,441.153 122.5,445.5C 60.4045,405.369 24.5711,348.369 15,274.5C 7.84211,195.284 33.3421,128.784 91.5,75C 165.106,14.2859 247.106,-0.0474756 337.5,32C 413.473,64.6425 461.306,121.143 481,201.5C 496.498,297.281 466.665,375.448 391.5,436C 379.603,444.783 366.936,452.283 353.5,458.5 Z"/></g>
<g><path style="opacity:1" fill="#34150f" d="M 320.5,111.5 C 340.041,171.477 338.874,231.144 317,290.5C 310.128,307.245 301.961,323.245 292.5,338.5C 290.806,337.314 289.139,337.481 287.5,339C 284.264,341.868 280.764,344.368 277,346.5C 279.026,342.562 280.192,338.229 280.5,333.5C 280.333,331.833 280.167,330.167 280,328.5C 279.481,327.484 278.647,326.818 277.5,326.5C 257.689,334.324 238.689,332.657 220.5,321.5C 219.612,318.946 219.279,316.279 219.5,313.5C 238.155,314.914 256.821,314.747 275.5,313C 277.825,311.395 280.158,309.728 282.5,308C 289.018,309.166 293.185,306.666 295,300.5C 295.333,295.5 295.667,290.5 296,285.5C 297.332,283.34 298.832,281.34 300.5,279.5C 303.009,278.079 305.343,276.412 307.5,274.5C 314.132,272.384 318.965,267.717 322,260.5C 323.712,254.405 323.878,248.405 322.5,242.5C 321.069,237.083 318.402,232.416 314.5,228.5C 312.678,225.528 310.844,222.528 309,219.5C 308.667,220.167 308.333,220.833 308,221.5C 306.921,218.937 306.421,216.271 306.5,213.5C 305.9,205.168 307.233,197.168 310.5,189.5C 298.565,187.925 286.565,187.092 274.5,187C 269.254,185.763 267.42,182.596 269,177.5C 274.269,172.755 280.436,171.255 287.5,173C 296.435,174.968 304.435,178.801 311.5,184.5C 316.092,174.648 317.592,164.314 316,153.5C 314.181,147.855 311.348,142.855 307.5,138.5C 304.406,132.764 300.073,128.097 294.5,124.5C 281.568,114.578 266.901,109.745 250.5,110C 251.056,110.383 251.389,110.883 251.5,111.5C 249.606,110.952 247.94,109.952 246.5,108.5C 239.581,113.306 231.915,115.806 223.5,116C 229.89,114.204 236.223,112.204 242.5,110C 225.987,108.784 211.32,113.284 198.5,123.5C 193.516,125.488 189.85,128.821 187.5,133.5C 182.109,138.276 178.775,144.276 177.5,151.5C 176.778,151.082 176.278,150.416 176,149.5C 174.864,151.743 174.03,154.076 173.5,156.5C 172.796,167.353 174.796,177.686 179.5,187.5C 180.934,185.78 181.767,183.78 182,181.5C 182.308,182.308 182.808,182.975 183.5,183.5C 190.174,178.663 197.508,175.163 205.5,173C 213.074,171.349 219.574,173.183 225,178.5C 225.635,180.635 225.301,182.635 224,184.5C 221.457,186.354 218.624,187.521 215.5,188C 205.172,188.5 194.839,188.666 184.5,188.5C 184.167,192.5 183.833,192.5 183.5,188.5C 182.127,188.343 180.793,188.51 179.5,189C 180.831,194.48 182.498,199.147 184.5,203C 183.865,208.588 182.865,214.088 181.5,219.5C 177.255,226.262 172.755,232.929 168,239.5C 168.167,247.51 168.833,255.51 170,263.5C 172.234,265.7 174.734,267.533 177.5,269C 176.833,269.333 176.167,269.667 175.5,270C 180.092,273.977 185.092,276.977 190.5,279C 189.167,277.667 187.833,276.333 186.5,275C 192.841,277.472 195.841,282.305 195.5,289.5C 195.063,294.412 195.896,299.078 198,303.5C 200.734,304.362 200.901,305.195 198.5,306C 201.761,308.405 205.261,308.905 209,307.5C 210.707,309.037 212.207,310.704 213.5,312.5C 214.048,320.184 212.715,327.518 209.5,334.5C 193.871,317.703 178.038,301.036 162,284.5C 138.129,250.108 131.129,212.441 141,171.5C 143.208,163.711 145.708,156.045 148.5,148.5C 150.772,141.952 153.606,135.619 157,129.5C 179.159,89.9251 212.826,73.9251 258,81.5C 283.977,81.2412 304.81,91.2412 320.5,111.5 Z"/></g>
<g><path style="opacity:1" fill="#d05229" d="M 251.5,111.5 C 251.389,110.883 251.056,110.383 250.5,110C 266.901,109.745 281.568,114.578 294.5,124.5C 293.504,124.414 292.671,124.748 292,125.5C 288.461,122.97 284.627,121.47 280.5,121C 290.551,125.35 299.551,131.183 307.5,138.5C 311.348,142.855 314.181,147.855 316,153.5C 317.592,164.314 316.092,174.648 311.5,184.5C 304.435,178.801 296.435,174.968 287.5,173C 280.436,171.255 274.269,172.755 269,177.5C 267.42,182.596 269.254,185.763 274.5,187C 286.565,187.092 298.565,187.925 310.5,189.5C 307.233,197.168 305.9,205.168 306.5,213.5C 303.663,212.384 300.996,212.884 298.5,215C 284.277,223.611 278.277,236.111 280.5,252.5C 273.57,251.205 266.904,249.038 260.5,246C 255.5,245.333 250.5,245.333 245.5,246C 237.85,249.271 230.183,252.437 222.5,255.5C 222.615,236.41 213.281,224.244 194.5,219C 190.08,218.232 185.747,218.398 181.5,219.5C 182.865,214.088 183.865,208.588 184.5,203C 182.498,199.147 180.831,194.48 179.5,189C 180.793,188.51 182.127,188.343 183.5,188.5C 183.833,192.5 184.167,192.5 184.5,188.5C 194.839,188.666 205.172,188.5 215.5,188C 218.624,187.521 221.457,186.354 224,184.5C 225.301,182.635 225.635,180.635 225,178.5C 219.574,173.183 213.074,171.349 205.5,173C 197.508,175.163 190.174,178.663 183.5,183.5C 182.808,182.975 182.308,182.308 182,181.5C 181.767,183.78 180.934,185.78 179.5,187.5C 174.796,177.686 172.796,167.353 173.5,156.5C 174.259,161.472 175.426,166.472 177,171.5C 176.295,164.792 176.462,158.126 177.5,151.5C 178.775,144.276 182.109,138.276 187.5,133.5C 197.555,124.808 209.222,119.308 222.5,117C 214.125,117.623 206.125,119.789 198.5,123.5C 211.32,113.284 225.987,108.784 242.5,110C 236.223,112.204 229.89,114.204 223.5,116C 231.915,115.806 239.581,113.306 246.5,108.5C 247.94,109.952 249.606,110.952 251.5,111.5 Z"/></g>
<g><path style="opacity:1" fill="#febd7a" d="M 320.5,111.5 C 330.548,121.216 338.215,132.55 343.5,145.5C 350.405,183.902 349.905,222.236 342,260.5C 330.433,306.959 311.767,350.292 286,390.5C 265.449,422.946 242.949,453.946 218.5,483.5C 210.173,482.836 202.173,481.169 194.5,478.5C 210.207,459.441 225.207,439.775 239.5,419.5C 231.198,398.214 219.364,379.214 204,362.5C 185.641,345.141 167.641,327.474 150,309.5C 128.509,285.376 117.843,257.042 118,224.5C 117.602,212.628 117.436,200.961 117.5,189.5C 118.512,188.128 119.512,186.795 120.5,185.5C 118.611,209.98 119.777,234.314 124,258.5C 130.785,280.269 142.119,299.269 158,315.5C 176.359,332.859 194.359,350.526 212,368.5C 224.089,383.289 233.755,399.622 241,417.5C 243.737,415.035 245.07,412.035 245,408.5C 230.884,380.387 212.884,355.054 191,332.5C 173.258,318.092 157.591,301.759 144,283.5C 124.066,250.46 118.233,215.127 126.5,177.5C 133.073,167.26 140.406,157.594 148.5,148.5C 145.708,156.045 143.208,163.711 141,171.5C 131.129,212.441 138.129,250.108 162,284.5C 178.038,301.036 193.871,317.703 209.5,334.5C 212.167,338.167 214.833,341.833 217.5,345.5C 229.351,363.689 244.018,379.355 261.5,392.5C 272.351,374.799 282.684,356.799 292.5,338.5C 301.961,323.245 310.128,307.245 317,290.5C 338.874,231.144 340.041,171.477 320.5,111.5 Z"/></g>
<g><path style="opacity:1" fill="#682918" d="M 251.5,111.5 C 259.617,113.224 267.617,115.39 275.5,118C 268.841,117.006 262.175,115.672 255.5,114C 253.934,113.392 252.6,112.558 251.5,111.5 Z"/></g>
<g><path style="opacity:1" fill="#622617" d="M 187.5,133.5 C 189.85,128.821 193.516,125.488 198.5,123.5C 206.125,119.789 214.125,117.623 222.5,117C 209.222,119.308 197.555,124.808 187.5,133.5 Z"/></g>
<g><path style="opacity:1" fill="#86351d" d="M 294.5,124.5 C 300.073,128.097 304.406,132.764 307.5,138.5C 299.551,131.183 290.551,125.35 280.5,121C 284.627,121.47 288.461,122.97 292,125.5C 292.671,124.748 293.504,124.414 294.5,124.5 Z"/></g>
<g><path style="opacity:1" fill="#ff645f" d="M 343.5,145.5 C 345.341,147.849 346.674,150.515 347.5,153.5C 356.35,209.689 350.516,264.356 330,317.5C 312.381,361.052 289.048,401.052 260,437.5C 247.372,453.295 234.205,468.628 220.5,483.5C 219.833,483.5 219.167,483.5 218.5,483.5C 242.949,453.946 265.449,422.946 286,390.5C 311.767,350.292 330.433,306.959 342,260.5C 349.905,222.236 350.405,183.902 343.5,145.5 Z"/></g>
<g><path style="opacity:1" fill="#7d311b" d="M 177.5,151.5 C 176.462,158.126 176.295,164.792 177,171.5C 175.426,166.472 174.259,161.472 173.5,156.5C 174.03,154.076 174.864,151.743 176,149.5C 176.278,150.416 176.778,151.082 177.5,151.5 Z"/></g>
<g><path style="opacity:1" fill="#fd5d5c" d="M 246.5,159.5 C 256.11,159.936 258.776,164.436 254.5,173C 245.961,176.451 241.794,173.618 242,164.5C 243.025,162.313 244.525,160.646 246.5,159.5 Z"/></g>
<g><path style="opacity:1" fill="#fe5e5d" d="M 351.5,161.5 C 361.36,189.302 367.194,217.968 369,247.5C 370.393,256.357 373.727,264.357 379,271.5C 390.526,282.27 401.859,293.27 413,304.5C 426.083,321.159 435.916,339.659 442.5,360C 423.476,402.52 393.809,435.354 353.5,458.5C 311.748,480.843 267.415,489.177 220.5,483.5C 222.903,483.607 224.736,482.607 226,480.5C 255.406,448.338 281.406,413.671 304,376.5C 329.177,332.97 345.177,286.303 352,236.5C 353.474,217.188 353.807,197.855 353,178.5C 352.575,173.431 351.741,168.431 350.5,163.5C 350.543,162.584 350.876,161.917 351.5,161.5 Z"/></g>
<g><path style="opacity:1" fill="#ff625f" d="M 126.5,177.5 C 118.233,215.127 124.066,250.46 144,283.5C 157.591,301.759 173.258,318.092 191,332.5C 212.884,355.054 230.884,380.387 245,408.5C 245.07,412.035 243.737,415.035 241,417.5C 233.755,399.622 224.089,383.289 212,368.5C 194.359,350.526 176.359,332.859 158,315.5C 142.119,299.269 130.785,280.269 124,258.5C 119.777,234.314 118.611,209.98 120.5,185.5C 122.147,182.527 124.147,179.86 126.5,177.5 Z"/></g>
<g><path style="opacity:1" fill="#fe5e5d" d="M 117.5,189.5 C 117.436,200.961 117.602,212.628 118,224.5C 117.843,257.042 128.509,285.376 150,309.5C 167.641,327.474 185.641,345.141 204,362.5C 219.364,379.214 231.198,398.214 239.5,419.5C 225.207,439.775 210.207,459.441 194.5,478.5C 168.418,471.789 144.418,460.789 122.5,445.5C 118.314,441.153 113.647,437.32 108.5,434C 88.8458,417.124 73.1791,397.291 61.5,374.5C 67.9384,361.971 76.1051,350.637 86,340.5C 90.1226,334.045 91.4559,327.045 90,319.5C 84.9616,303.176 83.2949,286.509 85,269.5C 89.6832,240.272 100.517,213.606 117.5,189.5 Z"/></g>
<g><path style="opacity:1" fill="#35150f" d="M 283.5,194.5 C 294.869,195.008 297.869,200.174 292.5,210C 281.902,213.405 277.402,209.571 279,198.5C 280.397,196.93 281.897,195.596 283.5,194.5 Z"/></g>
<g><path style="opacity:1" fill="#35150f" d="M 205.5,197.5 C 217.7,197.51 220.7,202.677 214.5,213C 204.499,216.582 199.999,213.082 201,202.5C 202.707,200.963 204.207,199.296 205.5,197.5 Z"/></g>
<g><path style="opacity:1" fill="#d85431" d="M 306.5,213.5 C 306.421,216.271 306.921,218.937 308,221.5C 308.333,220.833 308.667,220.167 309,219.5C 310.844,222.528 312.678,225.528 314.5,228.5C 313.603,229.598 312.77,229.598 312,228.5C 311,226.5 310,224.5 309,222.5C 308.333,223.5 308.333,224.5 309,225.5C 311.699,230.256 314.866,234.589 318.5,238.5C 322.917,247.815 322.417,256.815 317,265.5C 313.938,268.732 310.771,271.732 307.5,274.5C 305.343,276.412 303.009,278.079 300.5,279.5C 296.071,278.257 292.238,275.923 289,272.5C 284.278,267.39 281.445,261.39 280.5,254.5C 285.66,253.272 285.66,252.605 280.5,252.5C 278.277,236.111 284.277,223.611 298.5,215C 300.996,212.884 303.663,212.384 306.5,213.5 Z"/></g>
<g><path style="opacity:1" fill="#d75431" d="M 222.5,255.5 C 221.448,255.351 220.448,255.517 219.5,256C 221.058,256.21 222.391,256.71 223.5,257.5C 221.597,273.746 212.93,284.746 197.5,290.5C 196.817,290.137 196.15,289.804 195.5,289.5C 195.841,282.305 192.841,277.472 186.5,275C 187.833,276.333 189.167,277.667 190.5,279C 185.092,276.977 180.092,273.977 175.5,270C 176.167,269.667 176.833,269.333 177.5,269C 174.734,267.533 172.234,265.7 170,263.5C 168.833,255.51 168.167,247.51 168,239.5C 172.755,232.929 177.255,226.262 181.5,219.5C 185.747,218.398 190.08,218.232 194.5,219C 213.281,224.244 222.615,236.41 222.5,255.5 Z"/></g>
<g><path style="opacity:1" fill="#692918" d="M 259.5,234.5 C 259.611,233.883 259.944,233.383 260.5,233C 262.473,232.505 264.473,232.338 266.5,232.5C 266.463,226.465 265.963,220.465 265,214.5C 262.748,204.463 259.748,194.796 256,185.5C 264.178,200.377 268.012,216.211 267.5,233C 264.793,233.395 262.127,233.895 259.5,234.5 Z"/></g>
<g><path style="opacity:1" fill="#a24026" d="M 314.5,228.5 C 318.402,232.416 321.069,237.083 322.5,242.5C 322.565,242.938 322.399,243.272 322,243.5C 321.303,241.416 320.136,239.749 318.5,238.5C 314.866,234.589 311.699,230.256 309,225.5C 308.333,224.5 308.333,223.5 309,222.5C 310,224.5 311,226.5 312,228.5C 312.77,229.598 313.603,229.598 314.5,228.5 Z"/></g>
<g><path style="opacity:1" fill="#d2542b" d="M 233.5,233.5 C 235.026,236.893 237.693,238.226 241.5,237.5C 241.586,238.496 241.252,239.329 240.5,240C 234.183,241.513 231.85,239.346 233.5,233.5 Z"/></g>
<g><path style="opacity:1" fill="#6f2d1a" d="M 235.5,231.5 C 235.33,232.822 235.663,233.989 236.5,235C 238.473,235.495 240.473,235.662 242.5,235.5C 242.167,236.167 241.833,236.833 241.5,237.5C 237.693,238.226 235.026,236.893 233.5,233.5C 233.833,232.5 234.5,231.833 235.5,231.5 Z"/></g>
<g><path style="opacity:1" fill="#6b2a18" d="M 259.5,234.5 C 257.682,236.58 255.349,237.914 252.5,238.5C 249.58,237.414 246.58,236.748 243.5,236.5C 243.5,236.167 243.5,235.833 243.5,235.5C 248.999,237.104 254.333,236.77 259.5,234.5 Z"/></g>
<g><path style="opacity:1" fill="#ea955c" d="M 235.5,231.5 C 234.5,231.833 233.833,232.5 233.5,233.5C 231.85,239.346 234.183,241.513 240.5,240C 241.252,239.329 241.586,238.496 241.5,237.5C 241.833,236.833 242.167,236.167 242.5,235.5C 242.833,235.5 243.167,235.5 243.5,235.5C 243.5,235.833 243.5,236.167 243.5,236.5C 241.196,243.035 237.363,244.035 232,239.5C 230.161,232.52 232.661,229.52 239.5,230.5C 238.311,231.429 236.978,231.762 235.5,231.5 Z"/></g>
<g><path style="opacity:1" fill="#983b20" d="M 280.5,252.5 C 285.66,252.605 285.66,253.272 280.5,254.5C 261.649,258.328 242.649,259.328 223.5,257.5C 222.391,256.71 221.058,256.21 219.5,256C 220.448,255.517 221.448,255.351 222.5,255.5C 230.183,252.437 237.85,249.271 245.5,246C 250.5,245.333 255.5,245.333 260.5,246C 266.904,249.038 273.57,251.205 280.5,252.5 Z"/></g>
<g><path style="opacity:1" fill="#d05229" d="M 280.5,254.5 C 281.445,261.39 284.278,267.39 289,272.5C 292.238,275.923 296.071,278.257 300.5,279.5C 298.832,281.34 297.332,283.34 296,285.5C 295.667,290.5 295.333,295.5 295,300.5C 293.185,306.666 289.018,309.166 282.5,308C 280.158,309.728 277.825,311.395 275.5,313C 256.821,314.747 238.155,314.914 219.5,313.5C 217.5,313.167 215.5,312.833 213.5,312.5C 212.207,310.704 210.707,309.037 209,307.5C 205.261,308.905 201.761,308.405 198.5,306C 200.901,305.195 200.734,304.362 198,303.5C 195.896,299.078 195.063,294.412 195.5,289.5C 196.15,289.804 196.817,290.137 197.5,290.5C 212.93,284.746 221.597,273.746 223.5,257.5C 242.649,259.328 261.649,258.328 280.5,254.5 Z"/></g>
<g><path style="opacity:1" fill="#722d1c" d="M 318.5,238.5 C 320.136,239.749 321.303,241.416 322,243.5C 322.399,243.272 322.565,242.938 322.5,242.5C 323.878,248.405 323.712,254.405 322,260.5C 318.965,267.717 314.132,272.384 307.5,274.5C 310.771,271.732 313.938,268.732 317,265.5C 322.417,256.815 322.917,247.815 318.5,238.5 Z"/></g>
<g><path style="opacity:1" fill="#522014" d="M 244.5,268.5 C 249.296,268.558 254.296,268.391 259.5,268C 254.535,269.776 249.535,269.942 244.5,268.5 Z"/></g>
<g><path style="opacity:1" fill="#672823" d="M 213.5,312.5 C 215.5,312.833 217.5,313.167 219.5,313.5C 219.279,316.279 219.612,318.946 220.5,321.5C 220.03,329.573 219.03,337.573 217.5,345.5C 214.833,341.833 212.167,338.167 209.5,334.5C 212.715,327.518 214.048,320.184 213.5,312.5 Z"/></g>
<g><path style="opacity:1" fill="#d1532a" d="M 220.5,321.5 C 238.689,332.657 257.689,334.324 277.5,326.5C 278.647,326.818 279.481,327.484 280,328.5C 280.167,330.167 280.333,331.833 280.5,333.5C 280.192,338.229 279.026,342.562 277,346.5C 280.764,344.368 284.264,341.868 287.5,339C 289.139,337.481 290.806,337.314 292.5,338.5C 282.684,356.799 272.351,374.799 261.5,392.5C 244.018,379.355 229.351,363.689 217.5,345.5C 219.03,337.573 220.03,329.573 220.5,321.5 Z"/></g>
<g><path style="opacity:1" fill="#ffb678" d="M 347.5,153.5 C 349.011,156.005 350.345,158.672 351.5,161.5C 350.876,161.917 350.543,162.584 350.5,163.5C 351.741,168.431 352.575,173.431 353,178.5C 353.807,197.855 353.474,217.188 352,236.5C 345.177,286.303 329.177,332.97 304,376.5C 281.406,413.671 255.406,448.338 226,480.5C 224.736,482.607 222.903,483.607 220.5,483.5C 234.205,468.628 247.372,453.295 260,437.5C 289.048,401.052 312.381,361.052 330,317.5C 350.516,264.356 356.35,209.689 347.5,153.5 Z"/></g>
</svg>
