<?xml version="1.0" encoding="UTF-8"?>
<!DOCTYPE svg PUBLIC "-//W3C//DTD SVG 1.1//EN" "http://www.w3.org/Graphics/SVG/1.1/DTD/svg11.dtd">
<svg xmlns="http://www.w3.org/2000/svg" version="1.1" width="500px" height="500px" style="shape-rendering:geometricPrecision; text-rendering:geometricPrecision; image-rendering:optimizeQuality; fill-rule:evenodd; clip-rule:evenodd" xmlns:xlink="http://www.w3.org/1999/xlink">
<g><path style="opacity:0.956" fill="#033067" d="M 499.5,226.5 C 499.5,241.5 499.5,256.5 499.5,271.5C 489.907,352.223 451.24,414.723 383.5,459C 311.522,501.255 236.189,508.255 157.5,480C 65.3241,440.498 12.6574,370.998 -0.5,271.5C -0.5,256.5 -0.5,241.5 -0.5,226.5C 9.09228,145.779 47.7589,83.2792 115.5,39C 187.475,-3.25514 262.808,-10.2551 341.5,18C 415.725,48.6118 465.225,102.112 490,178.5C 494.285,194.424 497.452,210.424 499.5,226.5 Z"/></g>
<g><path style="opacity:1" fill="#fecc01" d="M 405.5,424.5 C 409.066,419.427 413.232,414.76 418,410.5C 418.638,409.391 419.138,408.225 419.5,407C 417.888,404.384 415.888,402.05 413.5,400C 404.407,395.12 395.073,390.786 385.5,387C 356.377,377.239 327.71,366.405 299.5,354.5C 298.205,353.512 296.872,352.512 295.5,351.5C 290.054,346.284 286.387,339.951 284.5,332.5C 284.089,328.779 283.422,325.112 282.5,321.5C 294.888,317.387 306.055,311.054 316,302.5C 319.827,298.004 322.827,293.004 325,287.5C 326.836,279.49 328.669,271.49 330.5,263.5C 341.895,262.09 352.562,258.59 362.5,253C 376.273,239.085 379.106,223.252 371,205.5C 369.961,204.29 368.794,203.29 367.5,202.5C 367.5,201.833 367.167,201.5 366.5,201.5C 364.59,199.438 362.257,197.938 359.5,197C 353.999,195.615 348.666,195.115 343.5,195.5C 344.708,194.766 346.041,194.433 347.5,194.5C 351.292,179.044 352.792,163.378 352,147.5C 337.782,79.9483 296.282,49.115 227.5,55C 201.129,57.3438 177.129,66.0105 155.5,81C 137.613,95.9411 128.113,115.108 127,138.5C 126.36,161.192 126.86,183.859 128.5,206.5C 121.793,206.007 115.793,207.674 110.5,211.5C 109.167,211.5 108.5,212.167 108.5,213.5C 103.133,218.575 100.467,224.908 100.5,232.5C 104.549,258.863 119.882,270.863 146.5,268.5C 149.054,282.995 153.887,296.662 161,309.5C 165.037,314.102 169.871,317.602 175.5,320C 184.248,323.271 193.248,325.437 202.5,326.5C 202.5,329.167 202.5,331.833 202.5,334.5C 201.742,341.112 199.742,347.445 196.5,353.5C 195.197,355.142 193.864,356.809 192.5,358.5C 168.615,372.611 143.949,385.444 118.5,397C 106.65,402.753 95.3167,409.253 84.5,416.5C 23.4684,353.537 1.96841,278.87 20,192.5C 39.9014,121.267 83.0681,69.4341 149.5,37C 216.942,8.13564 284.275,8.46897 351.5,38C 416.99,70.4936 459.49,121.994 479,192.5C 497.923,283.887 473.423,361.22 405.5,424.5 Z"/></g>
<g><path style="opacity:1" fill="#34150f" d="M 343.5,195.5 C 339.271,197.557 335.437,200.223 332,203.5C 333.02,192.019 334.52,180.519 336.5,169C 336.333,167.5 336.167,166 336,164.5C 331.778,161.297 328.778,157.297 327,152.5C 328.959,140.623 329.626,128.623 329,116.5C 325.82,102.077 316.986,96.9107 302.5,101C 266.891,114.635 230.891,115.968 194.5,105C 178.375,100.101 164.542,103.601 153,115.5C 151.107,118.618 149.774,121.951 149,125.5C 149,134.167 149,142.833 149,151.5C 148,153.833 147,156.167 146,158.5C 143.294,160.871 140.961,163.537 139,166.5C 140.346,177.924 141.18,189.424 141.5,201C 141.167,206.167 140.833,211.333 140.5,216.5C 137.207,212.205 133.207,208.872 128.5,206.5C 126.86,183.859 126.36,161.192 127,138.5C 128.113,115.108 137.613,95.9411 155.5,81C 177.129,66.0105 201.129,57.3438 227.5,55C 296.282,49.115 337.782,79.9483 352,147.5C 352.792,163.378 351.292,179.044 347.5,194.5C 346.041,194.433 344.708,194.766 343.5,195.5 Z"/></g>
<g><path style="opacity:1" fill="#feb8c1" d="M 343.5,195.5 C 348.666,195.115 353.999,195.615 359.5,197C 362.257,197.938 364.59,199.438 366.5,201.5C 353.624,207.541 343.791,216.874 337,229.5C 336.333,230.5 336.333,231.5 337,232.5C 343.716,218.95 353.883,208.95 367.5,202.5C 368.794,203.29 369.961,204.29 371,205.5C 379.106,223.252 376.273,239.085 362.5,253C 352.562,258.59 341.895,262.09 330.5,263.5C 328.669,271.49 326.836,279.49 325,287.5C 322.827,293.004 319.827,298.004 316,302.5C 306.055,311.054 294.888,317.387 282.5,321.5C 259.172,327.285 235.506,329.451 211.5,328C 208.487,327.498 205.487,326.998 202.5,326.5C 193.248,325.437 184.248,323.271 175.5,320C 169.871,317.602 165.037,314.102 161,309.5C 153.887,296.662 149.054,282.995 146.5,268.5C 119.882,270.863 104.549,258.863 100.5,232.5C 100.467,224.908 103.133,218.575 108.5,213.5C 124.693,221.197 135.86,233.531 142,250.5C 141.3,243.423 138.633,237.089 134,231.5C 127.15,223.468 119.317,216.801 110.5,211.5C 115.793,207.674 121.793,206.007 128.5,206.5C 133.207,208.872 137.207,212.205 140.5,216.5C 140.833,211.333 141.167,206.167 141.5,201C 141.18,189.424 140.346,177.924 139,166.5C 140.961,163.537 143.294,160.871 146,158.5C 147,156.167 148,153.833 149,151.5C 149,142.833 149,134.167 149,125.5C 149.774,121.951 151.107,118.618 153,115.5C 164.542,103.601 178.375,100.101 194.5,105C 230.891,115.968 266.891,114.635 302.5,101C 316.986,96.9107 325.82,102.077 329,116.5C 329.626,128.623 328.959,140.623 327,152.5C 328.778,157.297 331.778,161.297 336,164.5C 336.167,166 336.333,167.5 336.5,169C 334.52,180.519 333.02,192.019 332,203.5C 335.437,200.223 339.271,197.557 343.5,195.5 Z"/></g>
<g><path style="opacity:1" fill="#361713" d="M 278.5,158.5 C 285.082,158.284 291.082,160.117 296.5,164C 302.391,167.936 303.891,173.103 301,179.5C 289.869,182.81 279.369,181.31 269.5,175C 267.077,171.621 266.91,168.121 269,164.5C 271.843,161.837 275.009,159.837 278.5,158.5 Z"/></g>
<g><path style="opacity:1" fill="#361612" d="M 184.5,161.5 C 192.317,160.646 198.483,163.312 203,169.5C 203.667,171.5 203.667,173.5 203,175.5C 200.441,178.531 197.274,180.698 193.5,182C 188.194,183.028 182.861,183.861 177.5,184.5C 168.881,183.944 166.381,179.611 170,171.5C 174.208,167.103 179.042,163.769 184.5,161.5 Z"/></g>
<g><path style="opacity:1" fill="#351511" d="M 279.5,199.5 C 292.138,199.961 295.971,205.961 291,217.5C 284.618,222.077 278.951,221.41 274,215.5C 271.024,208.462 272.857,203.129 279.5,199.5 Z"/></g>
<g><path style="opacity:1" fill="#361612" d="M 184.5,203.5 C 195.49,201.992 200.324,206.658 199,217.5C 194.057,225.324 188.057,226.324 181,220.5C 177.015,213.738 178.182,208.071 184.5,203.5 Z"/></g>
<g><path style="opacity:1" fill="#482521" d="M 366.5,201.5 C 367.167,201.5 367.5,201.833 367.5,202.5C 353.883,208.95 343.716,218.95 337,232.5C 336.333,231.5 336.333,230.5 337,229.5C 343.791,216.874 353.624,207.541 366.5,201.5 Z"/></g>
<g><path style="opacity:1" fill="#4a2623" d="M 110.5,211.5 C 119.317,216.801 127.15,223.468 134,231.5C 138.633,237.089 141.3,243.423 142,250.5C 135.86,233.531 124.693,221.197 108.5,213.5C 108.5,212.167 109.167,211.5 110.5,211.5 Z"/></g>
<g><path style="opacity:1" fill="#502b28" d="M 225.5,201.5 C 227.885,206.271 228.885,211.437 228.5,217C 227.104,228.54 225.438,240.04 223.5,251.5C 225.488,251.173 227.488,250.84 229.5,250.5C 232.589,251.21 235.589,252.21 238.5,253.5C 240.606,252.57 242.606,251.404 244.5,250C 247.5,249.667 250.5,249.333 253.5,249C 253.727,247.865 254.06,246.698 254.5,245.5C 257.105,247.236 257.105,249.069 254.5,251C 251.167,251.333 247.833,251.667 244.5,252C 240.86,256.24 236.86,256.573 232.5,253C 228.907,253.033 225.407,252.867 222,252.5C 221.333,249.833 221.333,247.167 222,244.5C 226.44,230.44 227.606,216.107 225.5,201.5 Z"/></g>
<g><path style="opacity:1" fill="#4b2724" d="M 255.5,260.5 C 256.573,261.251 256.74,262.251 256,263.5C 250.003,270.388 242.503,272.888 233.5,271C 230.268,269.77 227.601,267.77 225.5,265C 227.976,265.747 230.309,267.081 232.5,269C 242.412,271.693 250.079,268.859 255.5,260.5 Z"/></g>
<g><path style="opacity:1" fill="#351611" d="M 282.5,321.5 C 283.422,325.112 284.089,328.779 284.5,332.5C 258.636,351.569 231.636,353.402 203.5,338C 202.663,336.989 202.33,335.822 202.5,334.5C 202.5,331.833 202.5,329.167 202.5,326.5C 205.487,326.998 208.487,327.498 211.5,328C 235.506,329.451 259.172,327.285 282.5,321.5 Z"/></g>
<g><path style="opacity:1" fill="#fdb8c0" d="M 284.5,332.5 C 286.387,339.951 290.054,346.284 295.5,351.5C 273.199,366.666 248.865,370.833 222.5,364C 213.405,361.276 204.738,357.776 196.5,353.5C 199.742,347.445 201.742,341.112 202.5,334.5C 202.33,335.822 202.663,336.989 203.5,338C 231.636,353.402 258.636,351.569 284.5,332.5 Z"/></g>
<g><path style="opacity:1" fill="#f8ddd2" d="M 295.5,351.5 C 296.872,352.512 298.205,353.512 299.5,354.5C 303.877,394.806 309.544,434.806 316.5,474.5C 279.597,486.14 241.93,488.64 203.5,482C 198.923,481.275 194.59,480.108 190.5,478.5C 190.472,446.676 190.639,414.676 191,382.5C 191.442,374.49 191.942,366.49 192.5,358.5C 193.864,356.809 195.197,355.142 196.5,353.5C 204.738,357.776 213.405,361.276 222.5,364C 248.865,370.833 273.199,366.666 295.5,351.5 Z"/></g>
<g><path style="opacity:1" fill="#d2542b" d="M 299.5,354.5 C 327.71,366.405 356.377,377.239 385.5,387C 395.073,390.786 404.407,395.12 413.5,400C 415.888,402.05 417.888,404.384 419.5,407C 419.138,408.225 418.638,409.391 418,410.5C 413.232,414.76 409.066,419.427 405.5,424.5C 379.326,447.095 349.659,463.761 316.5,474.5C 309.544,434.806 303.877,394.806 299.5,354.5 Z"/></g>
<g><path style="opacity:1" fill="#d2532b" d="M 192.5,358.5 C 191.942,366.49 191.442,374.49 191,382.5C 190.639,414.676 190.472,446.676 190.5,478.5C 149.479,468.578 113.979,448.911 84,419.5C 83.5304,418.423 83.6971,417.423 84.5,416.5C 95.3167,409.253 106.65,402.753 118.5,397C 143.949,385.444 168.615,372.611 192.5,358.5 Z"/></g>
</svg>
