<?xml version="1.0" encoding="UTF-8"?>
<!DOCTYPE svg PUBLIC "-//W3C//DTD SVG 1.1//EN" "http://www.w3.org/Graphics/SVG/1.1/DTD/svg11.dtd">
<svg xmlns="http://www.w3.org/2000/svg" version="1.1" width="500px" height="500px" style="shape-rendering:geometricPrecision; text-rendering:geometricPrecision; image-rendering:optimizeQuality; fill-rule:evenodd; clip-rule:evenodd" xmlns:xlink="http://www.w3.org/1999/xlink">
<g><path style="opacity:0.957" fill="#033067" d="M 499.5,226.5 C 499.5,241.5 499.5,256.5 499.5,271.5C 489.907,352.223 451.24,414.723 383.5,459C 311.522,501.255 236.189,508.255 157.5,480C 65.3241,440.498 12.6574,370.998 -0.5,271.5C -0.5,256.5 -0.5,241.5 -0.5,226.5C 9.09228,145.779 47.7589,83.2792 115.5,39C 187.475,-3.25514 262.808,-10.2551 341.5,18C 415.725,48.6118 465.225,102.112 490,178.5C 494.285,194.424 497.452,210.424 499.5,226.5 Z"/></g>
<g><path style="opacity:1" fill="#fecc00" d="M 405.5,424.5 C 411.057,416.766 417.223,409.433 424,402.5C 430.451,394.434 436.284,385.934 441.5,377C 433.346,370.424 425.013,364.091 416.5,358C 386.43,345.59 356.43,333.09 326.5,320.5C 324.212,311.801 321.379,303.134 318,294.5C 314.963,286.553 309.13,282.387 300.5,282C 294.509,281.501 288.509,281.334 282.5,281.5C 281.566,280.432 281.232,279.099 281.5,277.5C 281.5,276.833 281.5,276.167 281.5,275.5C 296.299,272.019 309.132,265.019 320,254.5C 322.804,250.557 324.804,246.223 326,241.5C 328.377,231.371 330.544,221.204 332.5,211C 345.165,203.512 351.498,192.345 351.5,177.5C 359.506,160.471 362.673,142.471 361,123.5C 358.807,116.275 354.974,110.108 349.5,105C 348.552,104.517 347.552,104.351 346.5,104.5C 346.167,103.833 345.833,103.167 345.5,102.5C 317.404,48.2893 273.404,27.7893 213.5,41C 181.992,52.5059 159.492,73.6726 146,104.5C 145.187,106.436 144.687,108.436 144.5,110.5C 143.691,112.028 143.024,113.694 142.5,115.5C 141.5,116.167 140.5,116.833 139.5,117.5C 137.833,118.5 136.5,119.833 135.5,121.5C 128.233,127.197 124.233,134.697 123.5,144C 125.92,161.434 131.587,177.601 140.5,192.5C 143.136,202.302 149.303,208.636 159,211.5C 160.895,211.385 162.562,210.718 164,209.5C 166.186,219.412 168.52,229.412 171,239.5C 173.345,250.907 178.511,260.74 186.5,269C 194.344,273.337 202.677,276.17 211.5,277.5C 211.5,279.167 211.5,280.833 211.5,282.5C 211.737,283.791 211.404,284.791 210.5,285.5C 186.748,283.925 173.748,294.925 171.5,318.5C 130.671,329.915 93.3379,348.248 59.5,373.5C 58.4015,376.359 58.9015,379.026 61,381.5C 73.4803,400.816 88.3136,418.15 105.5,433.5C 56.0078,395.559 26.1744,345.559 16,283.5C 5.71657,194.606 34.8832,121.773 103.5,65C 177.347,11.5004 257.014,1.16707 342.5,34C 425.402,72.2594 472.902,136.759 485,227.5C 489.977,306.168 463.477,371.835 405.5,424.5 Z"/></g>
<g><path style="opacity:1" fill="#a55135" d="M 345.5,102.5 C 310.104,90.7537 273.77,86.2537 236.5,89C 245.494,89.4998 254.494,89.6664 263.5,89.5C 265.546,103.762 266.879,118.095 267.5,132.5C 255.531,131.584 243.531,131.251 231.5,131.5C 229.485,118.108 227.152,104.775 224.5,91.5C 227.785,90.6764 231.118,90.1764 234.5,90C 203.076,90.4394 173.409,97.9394 145.5,112.5C 144.702,112.043 144.369,111.376 144.5,110.5C 144.687,108.436 145.187,106.436 146,104.5C 159.492,73.6726 181.992,52.5059 213.5,41C 273.404,27.7893 317.404,48.2893 345.5,102.5 Z"/></g>
<g><path style="opacity:1" fill="#a55135" d="M 299.5,140.5 C 296.854,139.513 294.188,138.513 291.5,137.5C 290.893,137.624 290.56,137.957 290.5,138.5C 289.508,138.672 288.842,138.338 288.5,137.5C 282.562,135.152 275.895,133.485 268.5,132.5C 268.558,118.42 267.558,104.42 265.5,90.5C 277.216,90.3973 288.883,91.064 300.5,92.5C 301.999,108.537 301.666,124.537 299.5,140.5 Z"/></g>
<g><path style="opacity:1" fill="#a55135" d="M 229.5,132.5 C 219.726,133.536 210.059,135.202 200.5,137.5C 197.888,126.605 195.721,115.605 194,104.5C 193.182,101.773 193.348,99.1062 194.5,96.5C 203.994,93.8621 213.661,92.1954 223.5,91.5C 226.237,105.061 228.237,118.727 229.5,132.5 Z"/></g>
<g><path style="opacity:1" fill="#a55135" d="M 337.5,105.5 C 341.882,124.326 341.216,142.993 335.5,161.5C 333.142,159.322 330.475,157.655 327.5,156.5C 323.742,153.443 319.742,150.61 315.5,148C 310.408,145.454 305.408,142.954 300.5,140.5C 303.538,124.958 304.205,109.291 302.5,93.5C 312.64,94.9616 322.64,97.1282 332.5,100C 334.749,101.352 336.416,103.185 337.5,105.5 Z"/></g>
<g><path style="opacity:1" fill="#a55135" d="M 199.5,137.5 C 188.341,141.746 177.674,147.079 167.5,153.5C 164.093,144.439 161.593,135.106 160,125.5C 159.232,119.627 159.399,113.794 160.5,108C 170.395,102.424 181.061,98.9244 192.5,97.5C 193.108,111.146 195.441,124.479 199.5,137.5 Z"/></g>
<g><path style="opacity:1" fill="#c1806a" d="M 231.5,131.5 C 231.158,132.338 230.492,132.672 229.5,132.5C 228.237,118.727 226.237,105.061 223.5,91.5C 213.661,92.1954 203.994,93.8621 194.5,96.5C 193.348,99.1062 193.182,101.773 194,104.5C 195.721,115.605 197.888,126.605 200.5,137.5C 200.167,137.5 199.833,137.5 199.5,137.5C 195.441,124.479 193.108,111.146 192.5,97.5C 181.061,98.9244 170.395,102.424 160.5,108C 159.399,113.794 159.232,119.627 160,125.5C 161.593,135.106 164.093,144.439 167.5,153.5C 159.899,139.832 156.899,125.165 158.5,109.5C 157.635,108.417 156.635,108.251 155.5,109C 151.114,111.193 146.78,113.36 142.5,115.5C 143.024,113.694 143.691,112.028 144.5,110.5C 144.369,111.376 144.702,112.043 145.5,112.5C 173.409,97.9394 203.076,90.4394 234.5,90C 231.118,90.1764 227.785,90.6764 224.5,91.5C 227.152,104.775 229.485,118.108 231.5,131.5 Z"/></g>
<g><path style="opacity:1" fill="#c07f69" d="M 345.5,102.5 C 345.833,103.167 346.167,103.833 346.5,104.5C 343.3,102.93 339.967,102.096 336.5,102C 337.337,103.011 337.67,104.178 337.5,105.5C 336.416,103.185 334.749,101.352 332.5,100C 322.64,97.1282 312.64,94.9616 302.5,93.5C 304.205,109.291 303.538,124.958 300.5,140.5C 300.167,140.5 299.833,140.5 299.5,140.5C 301.666,124.537 301.999,108.537 300.5,92.5C 288.883,91.064 277.216,90.3973 265.5,90.5C 267.558,104.42 268.558,118.42 268.5,132.5C 268.167,132.5 267.833,132.5 267.5,132.5C 266.879,118.095 265.546,103.762 263.5,89.5C 254.494,89.6664 245.494,89.4998 236.5,89C 273.77,86.2537 310.104,90.7537 345.5,102.5 Z"/></g>
<g><path style="opacity:1" fill="#a55135" d="M 346.5,104.5 C 347.552,104.351 348.552,104.517 349.5,105C 354.974,110.108 358.807,116.275 361,123.5C 362.673,142.471 359.506,160.471 351.5,177.5C 347.898,173.395 344.065,169.395 340,165.5C 339.617,166.056 339.117,166.389 338.5,166.5C 338.279,164.336 337.279,162.67 335.5,161.5C 342.372,146.199 344.206,130.199 341,113.5C 340.295,110.524 339.129,107.858 337.5,105.5C 337.67,104.178 337.337,103.011 336.5,102C 339.967,102.096 343.3,102.93 346.5,104.5 Z"/></g>
<g><path style="opacity:1" fill="#a55135" d="M 167.5,153.5 C 165.194,155.139 163.194,157.139 161.5,159.5C 157.124,162.874 153.458,166.874 150.5,171.5C 145.312,177.545 141.979,184.545 140.5,192.5C 131.587,177.601 125.92,161.434 123.5,144C 124.233,134.697 128.233,127.197 135.5,121.5C 132.053,136.782 133.887,151.449 141,165.5C 139.369,158.582 137.702,151.582 136,144.5C 135.333,138.5 135.333,132.5 136,126.5C 136.638,123.236 137.804,120.236 139.5,117.5C 140.5,116.833 141.5,116.167 142.5,115.5C 146.78,113.36 151.114,111.193 155.5,109C 156.635,108.251 157.635,108.417 158.5,109.5C 156.899,125.165 159.899,139.832 167.5,153.5 Z"/></g>
<g><path style="opacity:1" fill="#bb765e" d="M 337.5,105.5 C 339.129,107.858 340.295,110.524 341,113.5C 344.206,130.199 342.372,146.199 335.5,161.5C 341.216,142.993 341.882,124.326 337.5,105.5 Z"/></g>
<g><path style="opacity:1" fill="#fd8375" d="M 231.5,131.5 C 243.531,131.251 255.531,131.584 267.5,132.5C 267.833,132.5 268.167,132.5 268.5,132.5C 275.895,133.485 282.562,135.152 288.5,137.5C 281.549,136.309 276.549,138.809 273.5,145C 273.99,146.982 274.99,148.649 276.5,150C 283.054,153.722 290.054,155.056 297.5,154C 300.29,151.79 301.123,148.956 300,145.5C 297.517,142.177 294.351,139.843 290.5,138.5C 290.56,137.957 290.893,137.624 291.5,137.5C 294.188,138.513 296.854,139.513 299.5,140.5C 299.833,140.5 300.167,140.5 300.5,140.5C 305.408,142.954 310.408,145.454 315.5,148C 319.742,150.61 323.742,153.443 327.5,156.5C 328.917,167.589 330.75,178.589 333,189.5C 334.995,181.856 336.828,174.189 338.5,166.5C 339.117,166.389 339.617,166.056 340,165.5C 344.065,169.395 347.898,173.395 351.5,177.5C 351.498,192.345 345.165,203.512 332.5,211C 330.544,221.204 328.377,231.371 326,241.5C 324.804,246.223 322.804,250.557 320,254.5C 309.132,265.019 296.299,272.019 281.5,275.5C 258.291,281.202 234.957,281.869 211.5,277.5C 202.677,276.17 194.344,273.337 186.5,269C 178.511,260.74 173.345,250.907 171,239.5C 168.52,229.412 166.186,219.412 164,209.5C 162.562,210.718 160.895,211.385 159,211.5C 149.303,208.636 143.136,202.302 140.5,192.5C 141.979,184.545 145.312,177.545 150.5,171.5C 153.756,180.1 156.923,188.767 160,197.5C 160.899,184.847 161.399,172.18 161.5,159.5C 163.194,157.139 165.194,155.139 167.5,153.5C 177.674,147.079 188.341,141.746 199.5,137.5C 199.833,137.5 200.167,137.5 200.5,137.5C 210.059,135.202 219.726,133.536 229.5,132.5C 230.492,132.672 231.158,132.338 231.5,131.5 Z"/></g>
<g><path style="opacity:1" fill="#371612" d="M 288.5,137.5 C 288.842,138.338 289.508,138.672 290.5,138.5C 294.351,139.843 297.517,142.177 300,145.5C 301.123,148.956 300.29,151.79 297.5,154C 290.054,155.056 283.054,153.722 276.5,150C 274.99,148.649 273.99,146.982 273.5,145C 276.549,138.809 281.549,136.309 288.5,137.5 Z"/></g>
<g><path style="opacity:1" fill="#351510" d="M 193.5,141.5 C 197.792,141.035 201.792,141.868 205.5,144C 209.695,149.019 208.695,153.019 202.5,156C 196.738,158.61 190.738,159.61 184.5,159C 182.522,156.503 182.022,153.669 183,150.5C 186.103,146.886 189.603,143.886 193.5,141.5 Z"/></g>
<g><path style="opacity:1" fill="#be7b64" d="M 139.5,117.5 C 137.804,120.236 136.638,123.236 136,126.5C 135.333,132.5 135.333,138.5 136,144.5C 137.702,151.582 139.369,158.582 141,165.5C 133.887,151.449 132.053,136.782 135.5,121.5C 136.5,119.833 137.833,118.5 139.5,117.5 Z"/></g>
<g><path style="opacity:1" fill="#351510" d="M 327.5,156.5 C 330.475,157.655 333.142,159.322 335.5,161.5C 337.279,162.67 338.279,164.336 338.5,166.5C 336.828,174.189 334.995,181.856 333,189.5C 330.75,178.589 328.917,167.589 327.5,156.5 Z"/></g>
<g><path style="opacity:1" fill="#361611" d="M 161.5,159.5 C 161.399,172.18 160.899,184.847 160,197.5C 156.923,188.767 153.756,180.1 150.5,171.5C 153.458,166.874 157.124,162.874 161.5,159.5 Z"/></g>
<g><path style="opacity:1" fill="#361511" d="M 279.5,165.5 C 289.659,164.158 293.826,168.491 292,178.5C 289.103,183.155 284.937,184.655 279.5,183C 274.845,180.103 273.345,175.937 275,170.5C 276.025,168.313 277.525,166.646 279.5,165.5 Z"/></g>
<g><path style="opacity:1" fill="#371612" d="M 196.5,168.5 C 208.308,168.466 211.808,173.799 207,184.5C 200.195,189.271 194.862,187.938 191,180.5C 189.873,175.089 191.707,171.089 196.5,168.5 Z"/></g>
<g><path style="opacity:1" fill="#572821" d="M 233.5,160.5 C 234.147,161.274 234.48,162.274 234.5,163.5C 230.076,177.466 228.076,191.799 228.5,206.5C 232.164,206 235.164,207.167 237.5,210C 242.428,211.394 246.428,210.061 249.5,206C 252.053,205.239 254.553,204.406 257,203.5C 257.617,204.449 257.451,205.282 256.5,206C 254.5,206.333 252.5,206.667 250.5,207C 247.956,210.018 244.79,211.852 241,212.5C 236.938,210.31 232.605,208.643 228,207.5C 226.43,201.947 226.097,196.281 227,190.5C 228.632,180.367 230.799,170.367 233.5,160.5 Z"/></g>
<g><path style="opacity:1" fill="#4e231d" d="M 258.5,219.5 C 259.376,219.369 260.043,219.702 260.5,220.5C 255.311,227.731 248.311,230.565 239.5,229C 236.424,228.089 234.091,226.256 232.5,223.5C 232.833,223.167 233.167,222.833 233.5,222.5C 237.73,227.29 243.063,228.79 249.5,227C 253.757,225.889 256.757,223.389 258.5,219.5 Z"/></g>
<g><path style="opacity:1" fill="#361511" d="M 281.5,275.5 C 281.5,276.167 281.5,276.833 281.5,277.5C 274.159,285.171 265.159,289.671 254.5,291C 238.914,293.883 224.581,291.049 211.5,282.5C 211.5,280.833 211.5,279.167 211.5,277.5C 234.957,281.869 258.291,281.202 281.5,275.5 Z"/></g>
<g><path style="opacity:1" fill="#f78071" d="M 281.5,277.5 C 281.232,279.099 281.566,280.432 282.5,281.5C 282.666,286.179 282.499,290.845 282,295.5C 259.351,309.925 235.851,311.259 211.5,299.5C 210.507,294.88 210.173,290.214 210.5,285.5C 211.404,284.791 211.737,283.791 211.5,282.5C 224.581,291.049 238.914,293.883 254.5,291C 265.159,289.671 274.159,285.171 281.5,277.5 Z"/></g>
<g><path style="opacity:1" fill="#33140f" d="M 282.5,281.5 C 288.509,281.334 294.509,281.501 300.5,282C 309.13,282.387 314.963,286.553 318,294.5C 321.379,303.134 324.212,311.801 326.5,320.5C 323.404,328.215 321.237,336.215 320,344.5C 311.919,388.471 308.419,432.805 309.5,477.5C 279.886,485.626 249.886,487.626 219.5,483.5C 216.487,447.765 208.654,413.098 196,379.5C 187.925,359.103 179.758,338.77 171.5,318.5C 173.748,294.925 186.748,283.925 210.5,285.5C 210.173,290.214 210.507,294.88 211.5,299.5C 235.851,311.259 259.351,309.925 282,295.5C 282.499,290.845 282.666,286.179 282.5,281.5 Z"/></g>
<g><path style="opacity:1" fill="#cf5229" d="M 171.5,318.5 C 179.758,338.77 187.925,359.103 196,379.5C 208.654,413.098 216.487,447.765 219.5,483.5C 210.959,482.725 202.626,481.058 194.5,478.5C 191.694,471.557 187.861,465.224 183,459.5C 185.78,465.181 188.946,470.848 192.5,476.5C 192.376,477.107 192.043,477.44 191.5,477.5C 159.412,469.125 130.746,454.458 105.5,433.5C 88.3136,418.15 73.4803,400.816 61,381.5C 58.9015,379.026 58.4015,376.359 59.5,373.5C 93.3379,348.248 130.671,329.915 171.5,318.5 Z"/></g>
<g><path style="opacity:1" fill="#cf5229" d="M 326.5,320.5 C 356.43,333.09 386.43,345.59 416.5,358C 425.013,364.091 433.346,370.424 441.5,377C 436.284,385.934 430.451,394.434 424,402.5C 417.223,409.433 411.057,416.766 405.5,424.5C 405.167,424.5 404.833,424.5 404.5,424.5C 401.833,425.167 400.167,426.833 399.5,429.5C 372.978,451.764 342.978,467.764 309.5,477.5C 308.419,432.805 311.919,388.471 320,344.5C 321.237,336.215 323.404,328.215 326.5,320.5 Z"/></g>
<g><path style="opacity:1" fill="#5a2315" d="M 376.5,343.5 C 378.379,343.393 378.712,343.893 377.5,345C 374.107,347.534 370.441,349.201 366.5,350C 370.009,347.97 373.342,345.804 376.5,343.5 Z"/></g>
<g><path style="opacity:1" fill="#5c2416" d="M 142.5,347.5 C 142.897,346.475 143.563,346.308 144.5,347C 147.02,348.763 149.353,350.763 151.5,353C 148.325,351.732 145.325,349.899 142.5,347.5 Z"/></g>
<g><path style="opacity:1" fill="#5a2316" d="M 340.5,365.5 C 343.944,362.204 347.944,360.037 352.5,359C 348.845,361.827 344.845,363.993 340.5,365.5 Z"/></g>
<g><path style="opacity:1" fill="#5a2316" d="M 340.5,365.5 C 339.426,366.885 338.093,368.051 336.5,369C 339.167,370.667 341.833,372.333 344.5,374C 345.696,374.654 345.696,375.154 344.5,375.5C 340.779,373.646 337.446,371.313 334.5,368.5C 336.243,366.962 338.243,365.962 340.5,365.5 Z"/></g>
<g><path style="opacity:1" fill="#5f2516" d="M 150.5,374.5 C 153.734,371.881 157.4,370.381 161.5,370C 158.029,372.072 154.362,373.572 150.5,374.5 Z"/></g>
<g><path style="opacity:1" fill="#642717" d="M 150.5,374.5 C 147.202,376.983 143.535,378.649 139.5,379.5C 142.751,377.043 146.418,375.376 150.5,374.5 Z"/></g>
<g><path style="opacity:1" fill="#5b2416" d="M 348.5,378.5 C 349.721,377.535 351.054,377.702 352.5,379C 356.833,382 361.167,385 365.5,388C 364.092,388.315 362.759,387.982 361.5,387C 357.284,383.944 352.951,381.111 348.5,378.5 Z"/></g>
<g><path style="opacity:1" fill="#652818" d="M 139.5,379.5 C 136.225,382.143 132.558,383.643 128.5,384C 131.971,381.928 135.638,380.428 139.5,379.5 Z"/></g>
<g><path style="opacity:1" fill="#622617" d="M 360.5,416.5 C 365.751,409.909 371.418,403.575 377.5,397.5C 369.481,391.841 369.815,391.341 378.5,396C 379.451,396.718 379.617,397.551 379,398.5C 372.965,404.703 366.798,410.703 360.5,416.5 Z"/></g>
<g><path style="opacity:1" fill="#5e2516" d="M 151.5,419.5 C 155.341,422.577 158.174,426.244 160,430.5C 156.665,427.134 153.832,423.468 151.5,419.5 Z"/></g>
<g><path style="opacity:1" fill="#602517" d="M 360.5,416.5 C 358.275,420.235 355.442,423.568 352,426.5C 353.794,422.519 356.627,419.186 360.5,416.5 Z"/></g>
<g><path style="opacity:1" fill="#cba21c" d="M 404.5,424.5 C 403.167,426.5 401.5,428.167 399.5,429.5C 400.167,426.833 401.833,425.167 404.5,424.5 Z"/></g>
<g><path style="opacity:1" fill="#5a2315" d="M 328.5,454.5 C 329.043,454.56 329.376,454.893 329.5,455.5C 327.667,458.5 325.833,461.5 324,464.5C 324.646,460.868 326.146,457.535 328.5,454.5 Z"/></g>
<g><path style="opacity:1" fill="#5f2617" d="M 194.5,478.5 C 193.209,478.737 192.209,478.404 191.5,477.5C 192.043,477.44 192.376,477.107 192.5,476.5C 188.946,470.848 185.78,465.181 183,459.5C 187.861,465.224 191.694,471.557 194.5,478.5 Z"/></g>
</svg>
