<?xml version="1.0" encoding="UTF-8"?>
<!DOCTYPE svg PUBLIC "-//W3C//DTD SVG 1.1//EN" "http://www.w3.org/Graphics/SVG/1.1/DTD/svg11.dtd">
<svg xmlns="http://www.w3.org/2000/svg" version="1.1" width="500px" height="500px" style="shape-rendering:geometricPrecision; text-rendering:geometricPrecision; image-rendering:optimizeQuality; fill-rule:evenodd; clip-rule:evenodd" xmlns:xlink="http://www.w3.org/1999/xlink">
<g><path style="opacity:0.958" fill="#033067" d="M 499.5,226.5 C 499.5,241.5 499.5,256.5 499.5,271.5C 489.907,352.223 451.24,414.723 383.5,459C 311.522,501.255 236.189,508.255 157.5,480C 65.3241,440.498 12.6574,370.998 -0.5,271.5C -0.5,256.5 -0.5,241.5 -0.5,226.5C 9.09228,145.779 47.7589,83.2792 115.5,39C 187.475,-3.25514 262.808,-10.2551 341.5,18C 415.725,48.6118 465.225,102.112 490,178.5C 494.285,194.424 497.452,210.424 499.5,226.5 Z"/></g>
<g><path style="opacity:1" fill="#fecc00" d="M 398.5,430.5 C 396.24,387.149 377.574,352.649 342.5,327C 329.311,317.405 314.978,309.905 299.5,304.5C 296.441,300.063 293.608,295.397 291,290.5C 289.871,288.859 288.371,287.859 286.5,287.5C 286.046,280.841 285.713,274.174 285.5,267.5C 285.5,265.167 285.5,262.833 285.5,260.5C 297.995,250.664 307.995,238.664 315.5,224.5C 321.851,223.761 328.184,222.928 334.5,222C 348.185,215.622 353.018,205.122 349,190.5C 345.372,185.004 340.205,182.67 333.5,183.5C 340.369,159.814 341.869,135.814 338,111.5C 336.721,104.829 334.555,98.4961 331.5,92.5C 333.756,84.893 335.923,77.2263 338,69.5C 338.809,63.2511 338.642,57.0844 337.5,51C 331.943,52.6259 326.276,54.2926 320.5,56C 309.398,57.9657 299.064,55.9657 289.5,50C 280.099,43.6039 270.432,37.6039 260.5,32C 223.823,17.7174 194.323,26.5507 172,58.5C 170.392,61.3821 169.059,64.3821 168,67.5C 166.546,74.8924 166.046,82.2258 166.5,89.5C 157.562,108.818 154.395,129.152 157,150.5C 158.256,161.61 160.089,172.61 162.5,183.5C 151.748,183.086 146.414,188.253 146.5,199C 146.68,210.19 152.014,217.857 162.5,222C 168.436,223.139 174.436,223.805 180.5,224C 187.851,237.851 197.684,249.684 210,259.5C 210.78,268.881 210.613,278.214 209.5,287.5C 204.283,292.252 200.283,297.918 197.5,304.5C 163.207,316.295 136.04,337.295 116,367.5C 105.17,386.534 99.337,406.867 98.5,428.5C 34.5619,373.243 6.72856,303.243 15,218.5C 28.1092,140.431 68.9425,81.9305 137.5,43C 208.01,8.11898 279.343,6.45231 351.5,38C 416.99,70.4936 459.49,121.994 479,192.5C 498.291,287.799 471.458,367.132 398.5,430.5 Z"/></g>
<g><path style="opacity:1" fill="#52301d" d="M 331.5,92.5 C 326.909,97.7582 321.909,102.758 316.5,107.5C 295.603,118.492 273.27,123.492 249.5,122.5C 231.088,122.917 213.088,120.417 195.5,115C 189.804,113.07 184.637,110.236 180,106.5C 179.601,106.728 179.435,107.062 179.5,107.5C 174.327,102.011 169.993,96.0108 166.5,89.5C 166.046,82.2258 166.546,74.8924 168,67.5C 169.059,64.3821 170.392,61.3821 172,58.5C 194.323,26.5507 223.823,17.7174 260.5,32C 270.432,37.6039 280.099,43.6039 289.5,50C 299.064,55.9657 309.398,57.9657 320.5,56C 326.276,54.2926 331.943,52.6259 337.5,51C 338.642,57.0844 338.809,63.2511 338,69.5C 335.923,77.2263 333.756,84.893 331.5,92.5 Z"/></g>
<g><path style="opacity:1" fill="#69422a" d="M 218.5,38.5 C 235.096,37.2105 251.096,39.7105 266.5,46C 277.173,52.3388 288.507,57.0054 300.5,60C 307.167,60.6667 313.833,60.6667 320.5,60C 325.233,59.2981 329.899,58.6314 334.5,58C 318.209,87.3277 293.209,103.328 259.5,106C 239.866,107.671 220.866,105.004 202.5,98C 197.616,95.78 193.282,92.78 189.5,89C 192.521,89.2917 195.188,90.6251 197.5,93C 228.735,107.14 260.402,108.14 292.5,96C 307.768,88.0395 320.101,76.8729 329.5,62.5C 329.167,62.1667 328.833,61.8333 328.5,61.5C 305.096,72.8807 280.429,77.3807 254.5,75C 239.566,72.319 224.566,70.1523 209.5,68.5C 202.21,68.4367 195.21,69.77 188.5,72.5C 187.289,71.7261 187.289,70.8928 188.5,70C 194.927,67.4813 201.594,66.3146 208.5,66.5C 224.576,68.0585 240.576,70.2252 256.5,73C 278.355,74.9618 299.355,71.6285 319.5,63C 311.124,62.7874 302.79,62.1207 294.5,61C 280.948,55.0572 267.281,49.3905 253.5,44C 239.229,39.8427 224.895,39.5094 210.5,43C 201.897,46.4332 194.897,51.9332 189.5,59.5C 188.417,58.635 188.251,57.635 189,56.5C 196.69,46.7489 206.524,40.7489 218.5,38.5 Z"/></g>
<g><path style="opacity:1" fill="#3f2815" d="M 166.5,89.5 C 169.993,96.0108 174.327,102.011 179.5,107.5C 184.209,112.043 188.375,117.043 192,122.5C 192.808,136.073 188.141,147.406 178,156.5C 173.769,162.522 171.103,169.189 170,176.5C 169.829,184.677 169.329,192.677 168.5,200.5C 168.672,199.508 168.338,198.842 167.5,198.5C 166.11,193.392 164.444,188.392 162.5,183.5C 160.089,172.61 158.256,161.61 157,150.5C 154.395,129.152 157.562,108.818 166.5,89.5 Z"/></g>
<g><path style="opacity:1" fill="#3f2815" d="M 331.5,92.5 C 334.555,98.4961 336.721,104.829 338,111.5C 341.869,135.814 340.369,159.814 333.5,183.5C 332.036,188.558 330.37,193.558 328.5,198.5C 327.833,192.5 327.167,186.5 326.5,180.5C 326.285,174.971 325.118,169.638 323,164.5C 319.054,158.221 314.721,152.221 310,146.5C 304.951,138.492 303.284,129.826 305,120.5C 308.67,115.998 312.503,111.665 316.5,107.5C 321.909,102.758 326.909,97.7582 331.5,92.5 Z"/></g>
<g><path style="opacity:1" fill="#e2ac7a" d="M 316.5,107.5 C 312.503,111.665 308.67,115.998 305,120.5C 303.284,129.826 304.951,138.492 310,146.5C 314.721,152.221 319.054,158.221 323,164.5C 325.118,169.638 326.285,174.971 326.5,180.5C 326.187,187.755 326.52,194.921 327.5,202C 325.596,204.877 324.596,208.044 324.5,211.5C 327.261,210.08 330.261,209.413 333.5,209.5C 332.769,211.599 332.769,213.599 333.5,215.5C 335.339,213.473 335.839,211.14 335,208.5C 332.607,206.633 330.107,205.966 327.5,206.5C 329.081,200.756 332.581,196.756 338,194.5C 339.261,194.759 340.261,195.426 341,196.5C 342.324,204.5 342.991,204.5 343,196.5C 340.228,191.749 336.728,191.249 332.5,195C 330.959,196.77 329.625,197.937 328.5,198.5C 330.37,193.558 332.036,188.558 333.5,183.5C 340.205,182.67 345.372,185.004 349,190.5C 353.018,205.122 348.185,215.622 334.5,222C 328.184,222.928 321.851,223.761 315.5,224.5C 307.995,238.664 297.995,250.664 285.5,260.5C 261.411,276.091 237.078,276.424 212.5,261.5C 210.823,266.903 211.657,271.903 215,276.5C 229.768,296.026 247.934,299.859 269.5,288C 276.573,282.438 281.907,275.605 285.5,267.5C 285.713,274.174 286.046,280.841 286.5,287.5C 285.555,292.405 285.221,297.405 285.5,302.5C 284.79,304.893 284.123,307.393 283.5,310C 266.173,317.482 248.173,319.482 229.5,316C 222.921,314.755 216.921,312.255 211.5,308.5C 211.888,301.253 211.221,294.253 209.5,287.5C 210.613,278.214 210.78,268.881 210,259.5C 197.684,249.684 187.851,237.851 180.5,224C 174.436,223.805 168.436,223.139 162.5,222C 152.014,217.857 146.68,210.19 146.5,199C 146.414,188.253 151.748,183.086 162.5,183.5C 164.444,188.392 166.11,193.392 167.5,198.5C 164.979,195.479 161.812,193.479 158,192.5C 153.14,194.223 151.64,197.556 153.5,202.5C 154.271,200.138 155.105,197.804 156,195.5C 156.561,194.978 157.228,194.645 158,194.5C 164.07,196.884 167.403,201.217 168,207.5C 163.45,206.049 161.116,207.716 161,212.5C 161.368,213.91 162.201,214.91 163.5,215.5C 163.92,213.674 163.92,211.674 163.5,209.5C 166.157,209.162 168.49,209.829 170.5,211.5C 171.536,207.585 170.87,203.918 168.5,200.5C 169.329,192.677 169.829,184.677 170,176.5C 171.103,169.189 173.769,162.522 178,156.5C 188.141,147.406 192.808,136.073 192,122.5C 188.375,117.043 184.209,112.043 179.5,107.5C 179.435,107.062 179.601,106.728 180,106.5C 184.637,110.236 189.804,113.07 195.5,115C 213.088,120.417 231.088,122.917 249.5,122.5C 273.27,123.492 295.603,118.492 316.5,107.5 Z"/></g>
<g><path style="opacity:1" fill="#422a17" d="M 204.5,137.5 C 210.732,136.939 216.732,137.772 222.5,140C 227.937,142.997 227.77,145.497 222,147.5C 212.872,142.203 203.705,142.203 194.5,147.5C 193.592,146.21 193.759,144.877 195,143.5C 197.843,140.837 201.009,138.837 204.5,137.5 Z"/></g>
<g><path style="opacity:1" fill="#432b18" d="M 278.5,137.5 C 285.526,136.805 292.193,137.972 298.5,141C 300.351,142.684 302.018,144.517 303.5,146.5C 303,146.833 302.5,147.167 302,147.5C 297.251,145.229 292.251,143.896 287,143.5C 283.077,143.474 279.577,144.641 276.5,147C 272.635,148.349 270.468,147.182 270,143.5C 272.671,141.098 275.505,139.098 278.5,137.5 Z"/></g>
<g><path style="opacity:1" fill="#242220" d="M 208.5,160.5 C 219.832,160.344 222.832,165.177 217.5,175C 209.819,178.493 205.153,176.16 203.5,168C 204.313,164.858 205.98,162.358 208.5,160.5 Z"/></g>
<g><path style="opacity:1" fill="#242220" d="M 281.5,160.5 C 289.665,159.175 293.498,162.509 293,170.5C 291.976,174.68 289.31,176.68 285,176.5C 278.231,175.9 275.565,172.234 277,165.5C 278.025,163.313 279.525,161.646 281.5,160.5 Z"/></g>
<g><path style="opacity:1" fill="#d7875a" d="M 255.5,166.5 C 256.966,167.347 257.8,168.68 258,170.5C 259.423,177.122 260.09,183.789 260,190.5C 255.826,192.834 251.326,193.834 246.5,193.5C 246.5,192.5 246.5,191.5 246.5,190.5C 250.167,190.5 253.833,190.5 257.5,190.5C 257.597,182.426 256.93,174.426 255.5,166.5 Z"/></g>
<g><path style="opacity:1" fill="#da9077" d="M 193.5,188.5 C 200.304,187.822 205.804,190.155 210,195.5C 210.751,202.749 207.418,206.082 200,205.5C 191.357,205.85 187.023,201.85 187,193.5C 188.965,191.45 191.132,189.783 193.5,188.5 Z"/></g>
<g><path style="opacity:1" fill="#da9077" d="M 296.5,188.5 C 301.9,187.785 306.4,189.452 310,193.5C 309.918,202.07 305.418,206.07 296.5,205.5C 289.336,205.838 286.169,202.504 287,195.5C 289.529,192.115 292.696,189.782 296.5,188.5 Z"/></g>
<g><path style="opacity:1" fill="#cd8156" d="M 326.5,180.5 C 327.167,186.5 327.833,192.5 328.5,198.5C 329.625,197.937 330.959,196.77 332.5,195C 336.728,191.249 340.228,191.749 343,196.5C 342.991,204.5 342.324,204.5 341,196.5C 340.261,195.426 339.261,194.759 338,194.5C 332.581,196.756 329.081,200.756 327.5,206.5C 330.107,205.966 332.607,206.633 335,208.5C 335.839,211.14 335.339,213.473 333.5,215.5C 332.769,213.599 332.769,211.599 333.5,209.5C 330.261,209.413 327.261,210.08 324.5,211.5C 324.596,208.044 325.596,204.877 327.5,202C 326.52,194.921 326.187,187.755 326.5,180.5 Z"/></g>
<g><path style="opacity:1" fill="#d68458" d="M 167.5,198.5 C 168.338,198.842 168.672,199.508 168.5,200.5C 170.87,203.918 171.536,207.585 170.5,211.5C 168.49,209.829 166.157,209.162 163.5,209.5C 163.92,211.674 163.92,213.674 163.5,215.5C 162.201,214.91 161.368,213.91 161,212.5C 161.116,207.716 163.45,206.049 168,207.5C 167.403,201.217 164.07,196.884 158,194.5C 157.228,194.645 156.561,194.978 156,195.5C 155.105,197.804 154.271,200.138 153.5,202.5C 151.64,197.556 153.14,194.223 158,192.5C 161.812,193.479 164.979,195.479 167.5,198.5 Z"/></g>
<g><path style="opacity:1" fill="#fefefe" d="M 273.5,218.5 C 257.658,218.17 241.991,218.504 226.5,219.5C 224.96,217.162 224.294,214.495 224.5,211.5C 241.5,211.5 258.5,211.5 275.5,211.5C 275.279,214.067 274.612,216.401 273.5,218.5 Z"/></g>
<g><path style="opacity:1" fill="#b4b5b5" d="M 273.5,218.5 C 273.672,219.492 273.338,220.158 272.5,220.5C 257.167,220.5 241.833,220.5 226.5,220.5C 226.5,220.167 226.5,219.833 226.5,219.5C 241.991,218.504 257.658,218.17 273.5,218.5 Z"/></g>
<g><path style="opacity:1" fill="#fbfaf9" d="M 226.5,220.5 C 241.833,220.5 257.167,220.5 272.5,220.5C 270.603,223.559 267.936,225.726 264.5,227C 255.264,229.876 245.931,230.21 236.5,228C 232.561,226.209 229.228,223.709 226.5,220.5 Z"/></g>
<g><path style="opacity:1" fill="#c9966c" d="M 285.5,260.5 C 285.5,262.833 285.5,265.167 285.5,267.5C 281.907,275.605 276.573,282.438 269.5,288C 247.934,299.859 229.768,296.026 215,276.5C 211.657,271.903 210.823,266.903 212.5,261.5C 237.078,276.424 261.411,276.091 285.5,260.5 Z"/></g>
<g><path style="opacity:1" fill="#424a70" d="M 209.5,287.5 C 211.221,294.253 211.888,301.253 211.5,308.5C 212.763,331.505 214.097,354.505 215.5,377.5C 213.953,368.956 209.286,362.456 201.5,358C 194.532,356.292 188.532,357.959 183.5,363C 180.833,365.667 178.167,368.333 175.5,371C 174.4,371.432 173.733,370.932 173.5,369.5C 179.553,347.07 187.553,325.403 197.5,304.5C 200.283,297.918 204.283,292.252 209.5,287.5 Z"/></g>
<g><path style="opacity:1" fill="#424a70" d="M 286.5,287.5 C 288.371,287.859 289.871,288.859 291,290.5C 293.608,295.397 296.441,300.063 299.5,304.5C 308.747,325.238 316.413,346.572 322.5,368.5C 322.167,369.5 321.833,370.5 321.5,371.5C 316.938,366.768 311.938,362.602 306.5,359C 300.409,356.528 294.742,357.195 289.5,361C 287.333,363.833 285.167,366.667 283,369.5C 281.959,373.906 281.126,378.239 280.5,382.5C 282.32,355.831 283.987,329.165 285.5,302.5C 285.221,297.405 285.555,292.405 286.5,287.5 Z"/></g>
<g><path style="opacity:1" fill="#302e56" d="M 197.5,304.5 C 187.553,325.403 179.553,347.07 173.5,369.5C 173.733,370.932 174.4,371.432 175.5,371C 178.167,368.333 180.833,365.667 183.5,363C 188.532,357.959 194.532,356.292 201.5,358C 209.286,362.456 213.953,368.956 215.5,377.5C 217.164,396.136 218.497,414.802 219.5,433.5C 181.33,433.168 143.33,433.501 105.5,434.5C 103.621,433.659 101.621,433.325 99.5,433.5C 99.634,431.708 99.3007,430.042 98.5,428.5C 99.337,406.867 105.17,386.534 116,367.5C 136.04,337.295 163.207,316.295 197.5,304.5 Z"/></g>
<g><path style="opacity:1" fill="#302e56" d="M 299.5,304.5 C 314.978,309.905 329.311,317.405 342.5,327C 377.574,352.649 396.24,387.149 398.5,430.5C 397.556,432.688 395.889,434.021 393.5,434.5C 355.004,433.501 316.337,433.168 277.5,433.5C 278.02,416.468 279.02,399.468 280.5,382.5C 281.126,378.239 281.959,373.906 283,369.5C 285.167,366.667 287.333,363.833 289.5,361C 294.742,357.195 300.409,356.528 306.5,359C 311.938,362.602 316.938,366.768 321.5,371.5C 321.833,370.5 322.167,369.5 322.5,368.5C 316.413,346.572 308.747,325.238 299.5,304.5 Z"/></g>
<g><path style="opacity:1" fill="#526a8e" d="M 285.5,302.5 C 283.987,329.165 282.32,355.831 280.5,382.5C 279.02,399.468 278.02,416.468 277.5,433.5C 258.167,433.5 238.833,433.5 219.5,433.5C 218.497,414.802 217.164,396.136 215.5,377.5C 214.097,354.505 212.763,331.505 211.5,308.5C 216.921,312.255 222.921,314.755 229.5,316C 248.173,319.482 266.173,317.482 283.5,310C 284.123,307.393 284.79,304.893 285.5,302.5 Z"/></g>
<g><path style="opacity:1" fill="#fdcc01" d="M 105.5,434.5 C 143.33,433.501 181.33,433.168 219.5,433.5C 238.833,433.5 258.167,433.5 277.5,433.5C 316.337,433.168 355.004,433.501 393.5,434.5C 323.7,484.02 248.033,495.187 166.5,468C 144.63,459.403 124.297,448.236 105.5,434.5 Z"/></g>
</svg>
