<?xml version="1.0" encoding="UTF-8"?>
<!DOCTYPE svg PUBLIC "-//W3C//DTD SVG 1.1//EN" "http://www.w3.org/Graphics/SVG/1.1/DTD/svg11.dtd">
<svg xmlns="http://www.w3.org/2000/svg" version="1.1" width="500px" height="500px" style="shape-rendering:geometricPrecision; text-rendering:geometricPrecision; image-rendering:optimizeQuality; fill-rule:evenodd; clip-rule:evenodd" xmlns:xlink="http://www.w3.org/1999/xlink">
<g><path style="opacity:0.958" fill="#033067" d="M 499.5,226.5 C 499.5,241.5 499.5,256.5 499.5,271.5C 489.907,352.223 451.24,414.723 383.5,459C 311.522,501.255 236.189,508.255 157.5,480C 65.3241,440.498 12.6574,370.998 -0.5,271.5C -0.5,256.5 -0.5,241.5 -0.5,226.5C 9.09228,145.779 47.7589,83.2792 115.5,39C 187.475,-3.25514 262.808,-10.2551 341.5,18C 415.725,48.6118 465.225,102.112 490,178.5C 494.285,194.424 497.452,210.424 499.5,226.5 Z"/></g>
<g><path style="opacity:1" fill="#fdcc02" d="M 229.5,15.5 C 322.876,11.4406 396.043,47.4406 449,123.5C 491.084,192.723 497.084,265.056 467,340.5C 428.606,421.8 364.773,468.634 275.5,481C 186.459,488.215 114.293,457.048 59,387.5C 14.1753,323.553 2.50866,253.886 24,178.5C 51.4867,101.68 103.987,50.5134 181.5,25C 197.371,20.4587 213.371,17.2921 229.5,15.5 Z"/></g>
<g><path style="opacity:1" fill="#4a2d1b" d="M 249.5,34.5 C 238.409,35.7193 230.409,41.386 225.5,51.5C 222.79,54.81 219.623,57.81 216,60.5C 211.538,67.9257 206.705,75.0924 201.5,82C 194.602,85.147 187.602,88.147 180.5,91C 174.22,95.7577 171.554,102.091 172.5,110C 173.416,119.157 173.583,128.324 173,137.5C 170.177,143.353 165.677,147.52 159.5,150C 151.107,157.913 149.44,167.08 154.5,177.5C 148.395,182.397 146.228,188.731 148,196.5C 149.319,200.472 151.153,204.139 153.5,207.5C 153.491,209.308 153.991,210.975 155,212.5C 157.054,215.047 158.887,217.714 160.5,220.5C 158.863,229.712 159.696,238.712 163,247.5C 166.926,253.736 171.259,254.069 176,248.5C 178.056,244.732 179.222,240.732 179.5,236.5C 180.166,232.647 180.833,228.647 181.5,224.5C 182.183,224.863 182.85,225.196 183.5,225.5C 191.737,243.345 203.737,258.012 219.5,269.5C 218.728,273.452 218.395,277.452 218.5,281.5C 218.795,283.735 218.461,285.735 217.5,287.5C 215.695,286.763 214.029,285.763 212.5,284.5C 201.62,294.579 191.787,293.579 183,281.5C 170.648,286.937 161.314,283.603 155,271.5C 154.201,266.913 154.368,262.413 155.5,258C 135.845,256.679 126.345,246.179 127,226.5C 128.39,222.053 130.556,218.053 133.5,214.5C 113.92,208.365 105.753,195.032 109,174.5C 111.253,166.152 115.42,158.985 121.5,153C 113.816,137.486 116.816,124.486 130.5,114C 133.561,111.965 136.895,110.799 140.5,110.5C 140.724,98.5524 145.391,88.7191 154.5,81C 161.167,77.6667 167.833,74.3333 174.5,71C 181.438,63.6257 187.271,55.459 192,46.5C 198.793,37.6996 207.293,31.1996 217.5,27C 229.593,23.9813 240.26,26.4813 249.5,34.5 Z"/></g>
<g><path style="opacity:1" fill="#4b2d1b" d="M 284.5,287.5 C 282.692,286.082 282.025,284.082 282.5,281.5C 282.5,277.5 282.5,273.5 282.5,269.5C 298.842,257.827 311.176,242.827 319.5,224.5C 320.791,224.263 321.791,224.596 322.5,225.5C 321.938,233.584 323.438,241.251 327,248.5C 331,253.833 335,253.833 339,248.5C 343.244,239.58 344.411,230.247 342.5,220.5C 344.087,217.732 345.92,215.065 348,212.5C 349.009,210.975 349.509,209.308 349.5,207.5C 356.028,198.986 356.861,189.986 352,180.5C 350.855,179.364 349.688,178.364 348.5,177.5C 348.389,176.883 348.056,176.383 347.5,176C 353.152,167.861 352.652,160.028 346,152.5C 342.423,149.627 338.589,147.127 334.5,145C 332.57,142.742 331.07,140.242 330,137.5C 329.349,128.155 329.516,118.821 330.5,109.5C 330.971,101.945 328.304,95.7779 322.5,91C 315.833,88.3333 309.167,85.6667 302.5,83C 296.611,75.4435 291.111,67.6102 286,59.5C 283.01,56.5095 279.51,54.3428 275.5,53C 276.624,52.7508 277.624,52.2508 278.5,51.5C 278.376,50.8933 278.043,50.56 277.5,50.5C 272.435,40.7689 264.435,35.4356 253.5,34.5C 261.885,26.0703 271.885,23.5703 283.5,27C 293.948,30.7701 302.782,36.9368 310,45.5C 314.794,53.5904 319.961,61.4237 325.5,69C 332.072,73.4179 339.072,77.0846 346.5,80C 353.262,84.0949 357.762,89.9282 360,97.5C 361.104,101.855 362.271,106.188 363.5,110.5C 383.797,118.549 389.797,132.716 381.5,153C 387.364,159.537 391.531,167.037 394,175.5C 396.43,195.332 388.263,208.332 369.5,214.5C 380.283,229.618 378.283,242.785 363.5,254C 358.441,256.432 353.108,257.932 347.5,258.5C 349.777,276.396 341.777,284.896 323.5,284C 322.421,283.044 321.255,282.211 320,281.5C 314.319,290.214 306.485,293.047 296.5,290C 294.024,288.691 292.024,286.858 290.5,284.5C 288.473,285.513 286.473,286.513 284.5,287.5 Z"/></g>
<g><path style="opacity:1" fill="#dea347" d="M 249.5,34.5 C 250.833,35.8333 252.167,35.8333 253.5,34.5C 264.435,35.4356 272.435,40.7689 277.5,50.5C 276.726,51.1471 275.726,51.4805 274.5,51.5C 258.181,47.218 242.015,47.5513 226,52.5C 225.601,52.2716 225.435,51.9382 225.5,51.5C 230.409,41.386 238.409,35.7193 249.5,34.5 Z"/></g>
<g><path style="opacity:1" fill="#57361f" d="M 277.5,50.5 C 278.043,50.56 278.376,50.8933 278.5,51.5C 277.624,52.2508 276.624,52.7508 275.5,53C 279.51,54.3428 283.01,56.5095 286,59.5C 291.111,67.6102 296.611,75.4435 302.5,83C 309.167,85.6667 315.833,88.3333 322.5,91C 328.304,95.7779 330.971,101.945 330.5,109.5C 329.516,118.821 329.349,128.155 330,137.5C 331.07,140.242 332.57,142.742 334.5,145C 338.589,147.127 342.423,149.627 346,152.5C 352.652,160.028 353.152,167.861 347.5,176C 348.056,176.383 348.389,176.883 348.5,177.5C 338.744,182.85 333.077,191.017 331.5,202C 331.733,209.891 335.733,212.891 343.5,211C 345.887,210.436 347.887,209.27 349.5,207.5C 349.509,209.308 349.009,210.975 348,212.5C 345.92,215.065 344.087,217.732 342.5,220.5C 340.983,220.511 339.816,221.177 339,222.5C 338.667,228.5 338.333,234.5 338,240.5C 337.205,242.901 336.038,245.068 334.5,247C 331.26,247.442 329.427,245.942 329,242.5C 327.711,236.912 327.211,231.245 327.5,225.5C 325.833,225.5 324.167,225.5 322.5,225.5C 321.791,224.596 320.791,224.263 319.5,224.5C 314.761,221.697 311.427,217.697 309.5,212.5C 308.226,210.007 307.56,207.341 307.5,204.5C 307.014,196.116 308.014,187.949 310.5,180C 310.506,177.7 310.006,175.534 309,173.5C 301.465,166.137 292.632,162.303 282.5,162C 280.017,163.326 277.517,164.493 275,165.5C 272.837,165.505 271.337,164.505 270.5,162.5C 275.587,156.048 282.254,153.715 290.5,155.5C 290.666,149.158 290.5,142.825 290,136.5C 286.982,129.154 281.482,125.321 273.5,125C 263.695,120.361 256.361,113.195 251.5,103.5C 244.734,116.721 234.067,124.888 219.5,128C 215.619,130.928 213.119,134.761 212,139.5C 211.501,144.823 211.334,150.156 211.5,155.5C 216.599,155.175 221.599,155.675 226.5,157C 232.426,159.744 232.76,162.577 227.5,165.5C 222.286,162.281 216.619,161.114 210.5,162C 206.828,164.838 202.828,167.171 198.5,169C 194.56,171.429 192.56,174.929 192.5,179.5C 194.672,187.694 195.672,196.027 195.5,204.5C 195.142,207.267 194.475,209.933 193.5,212.5C 191.606,217.23 188.44,220.896 184,223.5C 183.536,224.094 183.369,224.761 183.5,225.5C 182.85,225.196 182.183,224.863 181.5,224.5C 180.833,228.647 180.166,232.647 179.5,236.5C 179.5,232.833 179.5,229.167 179.5,225.5C 178.167,225.5 176.833,225.5 175.5,225.5C 176.311,232.877 175.144,239.877 172,246.5C 170.062,247.86 168.396,247.527 167,245.5C 163.737,238.437 162.904,231.104 164.5,223.5C 163.717,221.712 162.384,220.712 160.5,220.5C 158.887,217.714 157.054,215.047 155,212.5C 153.991,210.975 153.491,209.308 153.5,207.5C 158.731,212.342 164.231,212.675 170,208.5C 172.368,202.183 171.701,196.183 168,190.5C 164.27,185.269 159.77,180.935 154.5,177.5C 149.44,167.08 151.107,157.913 159.5,150C 165.677,147.52 170.177,143.353 173,137.5C 173.583,128.324 173.416,119.157 172.5,110C 171.554,102.091 174.22,95.7577 180.5,91C 187.602,88.147 194.602,85.147 201.5,82C 206.705,75.0924 211.538,67.9257 216,60.5C 219.623,57.81 222.79,54.81 225.5,51.5C 225.435,51.9382 225.601,52.2716 226,52.5C 242.015,47.5513 258.181,47.218 274.5,51.5C 275.726,51.4805 276.726,51.1471 277.5,50.5 Z"/></g>
<g><path style="opacity:1" fill="#e1ac7a" d="M 307.5,204.5 C 302.683,202.592 297.683,202.092 292.5,203C 283.93,206.399 282.597,211.399 288.5,218C 296.77,220.965 303.77,219.131 309.5,212.5C 311.427,217.697 314.761,221.697 319.5,224.5C 311.176,242.827 298.842,257.827 282.5,269.5C 267.406,277.484 251.406,279.651 234.5,276C 229.215,274.354 224.215,272.187 219.5,269.5C 203.737,258.012 191.737,243.345 183.5,225.5C 183.369,224.761 183.536,224.094 184,223.5C 188.44,220.896 191.606,217.23 193.5,212.5C 198.397,218.605 204.731,220.772 212.5,219C 217.143,216.928 218.643,213.428 217,208.5C 213.928,204.021 209.595,202.021 204,202.5C 200.927,202.364 198.094,203.03 195.5,204.5C 195.672,196.027 194.672,187.694 192.5,179.5C 192.56,174.929 194.56,171.429 198.5,169C 202.828,167.171 206.828,164.838 210.5,162C 216.619,161.114 222.286,162.281 227.5,165.5C 232.76,162.577 232.426,159.744 226.5,157C 221.599,155.675 216.599,155.175 211.5,155.5C 211.334,150.156 211.501,144.823 212,139.5C 213.119,134.761 215.619,130.928 219.5,128C 234.067,124.888 244.734,116.721 251.5,103.5C 256.361,113.195 263.695,120.361 273.5,125C 281.482,125.321 286.982,129.154 290,136.5C 290.5,142.825 290.666,149.158 290.5,155.5C 282.254,153.715 275.587,156.048 270.5,162.5C 271.337,164.505 272.837,165.505 275,165.5C 277.517,164.493 280.017,163.326 282.5,162C 292.632,162.303 301.465,166.137 309,173.5C 310.006,175.534 310.506,177.7 310.5,180C 308.014,187.949 307.014,196.116 307.5,204.5 Z"/></g>
<g><path style="opacity:1" fill="#412a17" d="M 214.5,176.5 C 223.491,174.993 227.325,178.66 226,187.5C 224.471,190.516 221.971,191.849 218.5,191.5C 212.422,190.916 209.922,187.583 211,181.5C 211.997,179.677 213.164,178.01 214.5,176.5 Z"/></g>
<g><path style="opacity:1" fill="#422a17" d="M 281.5,176.5 C 289.614,175.121 293.447,178.454 293,186.5C 290.565,191.224 286.731,192.724 281.5,191C 277.788,188.487 276.622,184.987 278,180.5C 278.69,178.65 279.856,177.316 281.5,176.5 Z"/></g>
<g><path style="opacity:1" fill="#dea474" d="M 154.5,177.5 C 159.77,180.935 164.27,185.269 168,190.5C 171.701,196.183 172.368,202.183 170,208.5C 164.231,212.675 158.731,212.342 153.5,207.5C 151.153,204.139 149.319,200.472 148,196.5C 146.228,188.731 148.395,182.397 154.5,177.5 Z"/></g>
<g><path style="opacity:1" fill="#dea574" d="M 348.5,177.5 C 349.688,178.364 350.855,179.364 352,180.5C 356.861,189.986 356.028,198.986 349.5,207.5C 347.887,209.27 345.887,210.436 343.5,211C 335.733,212.891 331.733,209.891 331.5,202C 333.077,191.017 338.744,182.85 348.5,177.5 Z"/></g>
<g><path style="opacity:1" fill="#d7875a" d="M 258.5,188.5 C 260.117,189.589 260.95,191.256 261,193.5C 262.331,201.138 262.998,208.805 263,216.5C 258.908,219.126 254.408,220.126 249.5,219.5C 249.5,218.5 249.5,217.5 249.5,216.5C 253.106,216.789 256.606,216.456 260,215.5C 260.075,206.481 259.575,197.481 258.5,188.5 Z"/></g>
<g><path style="opacity:1" fill="#cf806b" d="M 193.5,212.5 C 194.475,209.933 195.142,207.267 195.5,204.5C 198.094,203.03 200.927,202.364 204,202.5C 209.595,202.021 213.928,204.021 217,208.5C 218.643,213.428 217.143,216.928 212.5,219C 204.731,220.772 198.397,218.605 193.5,212.5 Z"/></g>
<g><path style="opacity:1" fill="#cf806b" d="M 307.5,204.5 C 307.56,207.341 308.226,210.007 309.5,212.5C 303.77,219.131 296.77,220.965 288.5,218C 282.597,211.399 283.93,206.399 292.5,203C 297.683,202.092 302.683,202.592 307.5,204.5 Z"/></g>
<g><path style="opacity:1" fill="#dead45" d="M 160.5,220.5 C 162.384,220.712 163.717,221.712 164.5,223.5C 162.904,231.104 163.737,238.437 167,245.5C 168.396,247.527 170.062,247.86 172,246.5C 175.144,239.877 176.311,232.877 175.5,225.5C 176.833,225.5 178.167,225.5 179.5,225.5C 179.5,229.167 179.5,232.833 179.5,236.5C 179.222,240.732 178.056,244.732 176,248.5C 171.259,254.069 166.926,253.736 163,247.5C 159.696,238.712 158.863,229.712 160.5,220.5 Z"/></g>
<g><path style="opacity:1" fill="#d8a843" d="M 342.5,220.5 C 344.411,230.247 343.244,239.58 339,248.5C 335,253.833 331,253.833 327,248.5C 323.438,241.251 321.938,233.584 322.5,225.5C 324.167,225.5 325.833,225.5 327.5,225.5C 327.211,231.245 327.711,236.912 329,242.5C 329.427,245.942 331.26,247.442 334.5,247C 336.038,245.068 337.205,242.901 338,240.5C 338.333,234.5 338.667,228.5 339,222.5C 339.816,221.177 340.983,220.511 342.5,220.5 Z"/></g>
<g><path style="opacity:1" fill="#e8e6e5" d="M 271.5,236.5 C 258.167,236.5 244.833,236.5 231.5,236.5C 229.834,234.813 228.5,232.813 227.5,230.5C 243.5,229.167 259.5,229.167 275.5,230.5C 274.156,232.529 272.823,234.529 271.5,236.5 Z"/></g>
<g><path style="opacity:1" fill="#8f4136" d="M 231.5,236.5 C 244.833,236.5 258.167,236.5 271.5,236.5C 269.451,239.55 266.784,241.883 263.5,243.5C 255.472,238.223 247.472,238.223 239.5,243.5C 236.216,241.883 233.549,239.55 231.5,236.5 Z"/></g>
<g><path style="opacity:1" fill="#cd7761" d="M 263.5,243.5 C 257.366,247.683 250.699,248.516 243.5,246C 241.68,245.8 240.347,244.966 239.5,243.5C 247.472,238.223 255.472,238.223 263.5,243.5 Z"/></g>
<g><path style="opacity:1" fill="#d47e53" d="M 219.5,269.5 C 224.215,272.187 229.215,274.354 234.5,276C 251.406,279.651 267.406,277.484 282.5,269.5C 282.5,273.5 282.5,277.5 282.5,281.5C 261.42,296.464 240.586,296.13 220,280.5C 219.617,281.056 219.117,281.389 218.5,281.5C 218.395,277.452 218.728,273.452 219.5,269.5 Z"/></g>
<g><path style="opacity:1" fill="#e2ac7a" d="M 282.5,281.5 C 282.025,284.082 282.692,286.082 284.5,287.5C 284.389,288.117 284.056,288.617 283.5,289C 290.661,295.35 298.661,300.183 307.5,303.5C 298.086,319.323 289.419,335.657 281.5,352.5C 261.494,355.123 241.494,355.123 221.5,352.5C 212.911,336.323 204.578,319.989 196.5,303.5C 204.54,301.064 211.373,296.73 217,290.5C 217.483,289.552 217.649,288.552 217.5,287.5C 218.461,285.735 218.795,283.735 218.5,281.5C 219.117,281.389 219.617,281.056 220,280.5C 240.586,296.13 261.42,296.464 282.5,281.5 Z"/></g>
<g><path style="opacity:1" fill="#c9516a" d="M 196.5,303.5 C 204.578,319.989 212.911,336.323 221.5,352.5C 230.977,372.12 240.977,391.454 251.5,410.5C 261.513,391.14 271.513,371.807 281.5,352.5C 289.419,335.657 298.086,319.323 307.5,303.5C 358.609,322.395 388.443,358.729 397,412.5C 397.499,418.157 397.666,423.824 397.5,429.5C 300.167,429.503 202.833,429.503 105.5,429.5C 104.953,388.43 120.286,354.596 151.5,328C 164.463,316.229 179.463,308.062 196.5,303.5 Z"/></g>
<g><path style="opacity:1" fill="#eae9e9" d="M 221.5,352.5 C 241.494,355.123 261.494,355.123 281.5,352.5C 271.513,371.807 261.513,391.14 251.5,410.5C 240.977,391.454 230.977,372.12 221.5,352.5 Z"/></g>
</svg>
